M48
;Layer_Color=9474304
;FILE_FORMAT=2:5
INCH,LZ
;TYPE=PLATED
T2F00S00C0.02000
T4F00S00C0.03937
T5F00S00C0.05906
T6F00S00C0.11811
%
T02
X-0007247Y013094
X-00025Y01605
X0051Y01285
X00715Y0105921
X0084612Y0087
X-005955Y00845
X-006Y01415
T04
X0001709Y0097
Y0107
X-00015Y01945
X00085
X00185
X-00115
X0048Y01785
Y01685
X0069043Y0172226
X0079043
X0089043
X0099043
Y0202226
X0089043
X0079043
X0069043
X-00215Y01945
X-0048Y01785
Y01685
X-0069Y0172226
X-0079
X-0089
X-0099
Y0202226
X-0089
X-0079
X-0069
T05
X-0055276Y0013
X-0035276
X-0009388
X0010612
X00365
X00565
T06
X-0121547Y0011811
X0122547
X0150106Y0169291
X0122547Y019685
X-0121547
X-0149106Y0169291
M30
