M48
;Layer_Color=9474304
;FILE_FORMAT=2:5
INCH,LZ
;TYPE=PLATED
T2F00S00C0.02000
T4F00S00C0.03150
T5F00S00C0.03543
T6F00S00C0.03937
T7F00S00C0.05906
T8F00S00C0.15748
%
T02
X-0007197Y0132839
X-00025Y01615
X0051Y01295
X00705Y0107921
X0084612Y0088
X-005955Y00855
X-006Y01425
T04
X0001709Y0098079
Y0107921
X0048Y0169579
Y0179421
X-0048
Y0169579
T05
X0069043Y0173226
X0079043
X0089043
X0099043
Y0203226
X0089043
X0079043
X0069043
X-0069
X-0079
X-0089
X-0099
Y0173226
X-0089
X-0079
X-0069
T06
X-00115Y01955
X-00015
X00085
X00185
X-00215
T07
X-0055277Y0014
X-0035277
X-0009388
X0010612
X00365
X00565
T08
X-011811Y0015748
X011811Y00165
X0145669Y0172478
X011811Y0192913
X-011811
X-0145669Y0172478
M30
