G04*
G04 #@! TF.GenerationSoftware,Altium Limited,Altium Designer,18.1.4 (159)*
G04*
G04 Layer_Physical_Order=2*
G04 Layer_Color=16711680*
%FSLAX24Y24*%
%MOIN*%
G70*
G01*
G75*
%ADD10C,0.0100*%
%ADD47C,0.0200*%
%ADD48C,0.0700*%
%ADD49R,0.0700X0.0700*%
%ADD50C,0.0900*%
%ADD51R,0.0900X0.0900*%
G04:AMPARAMS|DCode=52|XSize=59.1mil|YSize=39.4mil|CornerRadius=9.8mil|HoleSize=0mil|Usage=FLASHONLY|Rotation=270.000|XOffset=0mil|YOffset=0mil|HoleType=Round|Shape=RoundedRectangle|*
%AMROUNDEDRECTD52*
21,1,0.0591,0.0197,0,0,270.0*
21,1,0.0394,0.0394,0,0,270.0*
1,1,0.0197,-0.0098,-0.0197*
1,1,0.0197,-0.0098,0.0197*
1,1,0.0197,0.0098,0.0197*
1,1,0.0197,0.0098,-0.0197*
%
%ADD52ROUNDEDRECTD52*%
%ADD53O,0.0827X0.0472*%
%ADD54C,0.0400*%
%ADD55C,0.1600*%
G36*
X8901Y19873D02*
X8861Y19872D01*
X8823Y19869D01*
X8788Y19864D01*
X8754Y19857D01*
X8721Y19847D01*
X8691Y19835D01*
X8663Y19821D01*
X8637Y19805D01*
X8612Y19787D01*
X8589Y19766D01*
X8448Y19908D01*
X8469Y19930D01*
X8487Y19955D01*
X8503Y19981D01*
X8517Y20010D01*
X8529Y20040D01*
X8538Y20072D01*
X8546Y20106D01*
X8551Y20142D01*
X8554Y20179D01*
X8554Y20219D01*
X8901Y19873D01*
D02*
G37*
G36*
X7901D02*
X7861Y19872D01*
X7823Y19869D01*
X7788Y19864D01*
X7754Y19857D01*
X7721Y19847D01*
X7691Y19835D01*
X7663Y19821D01*
X7637Y19805D01*
X7612Y19787D01*
X7589Y19766D01*
X7448Y19908D01*
X7469Y19930D01*
X7487Y19955D01*
X7503Y19981D01*
X7517Y20010D01*
X7529Y20040D01*
X7538Y20072D01*
X7546Y20106D01*
X7551Y20142D01*
X7554Y20179D01*
X7554Y20219D01*
X7901Y19873D01*
D02*
G37*
G36*
X-7549Y20179D02*
X-7546Y20142D01*
X-7541Y20106D01*
X-7534Y20072D01*
X-7524Y20040D01*
X-7513Y20010D01*
X-7499Y19981D01*
X-7483Y19955D01*
X-7464Y19930D01*
X-7444Y19908D01*
X-7585Y19766D01*
X-7608Y19787D01*
X-7632Y19805D01*
X-7659Y19821D01*
X-7687Y19835D01*
X-7717Y19847D01*
X-7749Y19857D01*
X-7783Y19864D01*
X-7819Y19869D01*
X-7857Y19872D01*
X-7896Y19873D01*
X-7550Y20219D01*
X-7549Y20179D01*
D02*
G37*
G36*
X-8549D02*
X-8546Y20142D01*
X-8541Y20106D01*
X-8534Y20072D01*
X-8524Y20040D01*
X-8513Y20010D01*
X-8499Y19981D01*
X-8483Y19955D01*
X-8464Y19930D01*
X-8444Y19908D01*
X-8585Y19766D01*
X-8608Y19787D01*
X-8632Y19805D01*
X-8659Y19821D01*
X-8687Y19835D01*
X-8717Y19847D01*
X-8749Y19857D01*
X-8783Y19864D01*
X-8819Y19869D01*
X-8857Y19872D01*
X-8896Y19873D01*
X-8550Y20219D01*
X-8549Y20179D01*
D02*
G37*
G36*
X13082Y20847D02*
X13173Y20809D01*
X13255Y20755D01*
X13324Y20685D01*
X13379Y20603D01*
X13417Y20512D01*
X13436Y20415D01*
Y20366D01*
Y19004D01*
X13438Y18955D01*
X13457Y18859D01*
X13495Y18768D01*
X13549Y18687D01*
X13619Y18617D01*
X13700Y18563D01*
X13791Y18525D01*
X13887Y18506D01*
X13936Y18504D01*
X15741D01*
X15838Y18485D01*
X15929Y18447D01*
X16010Y18392D01*
X16080Y18323D01*
X16135Y18241D01*
X16173Y18150D01*
X16192Y18053D01*
Y18004D01*
Y15854D01*
Y15805D01*
X16173Y15708D01*
X16135Y15617D01*
X16080Y15536D01*
X16010Y15466D01*
X15929Y15411D01*
X15838Y15374D01*
X15741Y15354D01*
X13890D01*
X13846Y15352D01*
X13758Y15335D01*
X13676Y15301D01*
X13602Y15251D01*
X13539Y15188D01*
X13489Y15114D01*
X13455Y15032D01*
X13438Y14945D01*
X13436Y14900D01*
Y500D01*
Y451D01*
X13417Y354D01*
X13379Y263D01*
X13324Y181D01*
X13255Y112D01*
X13173Y57D01*
X13082Y19D01*
X12985Y0D01*
X-12885D01*
X-12982Y19D01*
X-13073Y57D01*
X-13155Y112D01*
X-13224Y181D01*
X-13279Y263D01*
X-13317Y354D01*
X-13336Y451D01*
Y500D01*
Y14854D01*
X-13338Y14903D01*
X-13357Y14999D01*
X-13395Y15090D01*
X-13449Y15172D01*
X-13519Y15241D01*
X-13600Y15295D01*
X-13691Y15333D01*
X-13787Y15352D01*
X-13836Y15354D01*
X-15641D01*
X-15738Y15374D01*
X-15829Y15411D01*
X-15910Y15466D01*
X-15980Y15536D01*
X-16035Y15617D01*
X-16072Y15708D01*
X-16092Y15805D01*
Y15854D01*
Y18004D01*
Y18053D01*
X-16072Y18150D01*
X-16035Y18241D01*
X-15980Y18323D01*
X-15910Y18392D01*
X-15829Y18447D01*
X-15738Y18485D01*
X-15641Y18504D01*
X-13836D01*
X-13787Y18506D01*
X-13691Y18525D01*
X-13600Y18563D01*
X-13519Y18617D01*
X-13449Y18687D01*
X-13395Y18768D01*
X-13357Y18859D01*
X-13338Y18955D01*
X-13336Y19004D01*
Y20366D01*
Y20415D01*
X-13317Y20512D01*
X-13279Y20603D01*
X-13224Y20685D01*
X-13155Y20755D01*
X-13073Y20809D01*
X-12982Y20847D01*
X-12885Y20866D01*
X-10181D01*
X-10168Y20816D01*
X-10263Y20766D01*
X-10362Y20684D01*
X-10443Y20585D01*
X-10503Y20473D01*
X-10541Y20350D01*
X-10553Y20223D01*
X-10541Y20095D01*
X-10503Y19973D01*
X-10443Y19860D01*
X-10362Y19761D01*
X-10263Y19680D01*
X-10150Y19619D01*
X-10027Y19582D01*
X-9900Y19569D01*
X-9773Y19582D01*
X-9650Y19619D01*
X-9537Y19680D01*
X-9438Y19761D01*
X-9425Y19777D01*
X-9375D01*
X-9362Y19761D01*
X-9263Y19680D01*
X-9150Y19619D01*
X-9027Y19582D01*
X-8900Y19569D01*
X-8895Y19570D01*
X-8871Y19570D01*
X-8852Y19568D01*
X-8837Y19566D01*
X-8824Y19563D01*
X-8815Y19561D01*
X-8809Y19558D01*
X-8805Y19556D01*
X-8803Y19555D01*
X-7488Y18240D01*
X-7488Y18240D01*
X-7404Y18176D01*
X-7307Y18135D01*
X-7202Y18122D01*
X-5215D01*
X-5210Y18111D01*
X-5195Y18072D01*
X-5238Y17967D01*
X-5247Y17900D01*
X-4800D01*
X-4353D01*
X-4362Y17967D01*
X-4405Y18072D01*
X-4390Y18111D01*
X-4385Y18122D01*
X-1075D01*
X-1075Y18122D01*
X-971Y18135D01*
X-873Y18176D01*
X-790Y18240D01*
X-247Y18782D01*
X-245Y18783D01*
X-241Y18785D01*
X-235Y18788D01*
X-226Y18791D01*
X-213Y18793D01*
X-198Y18795D01*
X-179Y18797D01*
X-155Y18797D01*
X-150Y18797D01*
X-23Y18809D01*
X100Y18847D01*
X213Y18907D01*
X312Y18988D01*
X325Y19004D01*
X375D01*
X388Y18988D01*
X487Y18907D01*
X600Y18847D01*
X723Y18809D01*
X850Y18797D01*
X855Y18797D01*
X879Y18797D01*
X898Y18795D01*
X913Y18793D01*
X926Y18791D01*
X935Y18788D01*
X941Y18785D01*
X945Y18783D01*
X947Y18782D01*
X1365Y18365D01*
X1448Y18301D01*
X1546Y18260D01*
X1650Y18247D01*
X1650Y18247D01*
X4495D01*
X4512Y18197D01*
X4479Y18171D01*
X4407Y18077D01*
X4362Y17967D01*
X4353Y17900D01*
X4800D01*
Y17800D01*
X4353D01*
X4362Y17733D01*
X4407Y17623D01*
X4463Y17550D01*
X4438Y17500D01*
X4150D01*
Y16200D01*
X5450D01*
Y17447D01*
X6465D01*
X6493Y17405D01*
X6466Y17340D01*
X6457Y17273D01*
X6904D01*
Y17223D01*
X6954D01*
Y16775D01*
X7022Y16784D01*
X7097Y16815D01*
X7147Y16782D01*
Y15946D01*
X7113Y15902D01*
X7063Y15781D01*
X7046Y15650D01*
X7046Y15649D01*
X7013Y15611D01*
X153D01*
Y15754D01*
X187Y15798D01*
X237Y15919D01*
X254Y16050D01*
X237Y16181D01*
X187Y16302D01*
X107Y16407D01*
X2Y16487D01*
X-119Y16537D01*
X-250Y16554D01*
X-381Y16537D01*
X-502Y16487D01*
X-607Y16407D01*
X-687Y16302D01*
X-737Y16181D01*
X-754Y16050D01*
X-737Y15919D01*
X-687Y15798D01*
X-653Y15754D01*
Y15611D01*
X-4718D01*
X-5261Y16154D01*
X-5241Y16200D01*
X-4150D01*
Y17500D01*
X-4438D01*
X-4463Y17550D01*
X-4407Y17623D01*
X-4362Y17733D01*
X-4353Y17800D01*
X-4800D01*
X-5247D01*
X-5238Y17733D01*
X-5212Y17668D01*
X-5239Y17626D01*
X-6359D01*
X-6361Y17627D01*
X-6366Y17628D01*
X-6372Y17631D01*
X-6380Y17635D01*
X-6391Y17642D01*
X-6403Y17652D01*
X-6418Y17664D01*
X-6435Y17681D01*
X-6438Y17684D01*
X-6537Y17766D01*
X-6650Y17826D01*
X-6773Y17863D01*
X-6900Y17876D01*
X-7027Y17863D01*
X-7150Y17826D01*
X-7263Y17766D01*
X-7362Y17684D01*
X-7375Y17668D01*
X-7425D01*
X-7438Y17684D01*
X-7537Y17766D01*
X-7650Y17826D01*
X-7773Y17863D01*
X-7900Y17876D01*
X-8027Y17863D01*
X-8150Y17826D01*
X-8263Y17766D01*
X-8362Y17684D01*
X-8375Y17668D01*
X-8425D01*
X-8438Y17684D01*
X-8442Y17688D01*
X-8459Y17705D01*
X-8471Y17719D01*
X-8480Y17732D01*
X-8487Y17742D01*
X-8492Y17751D01*
X-8495Y17757D01*
X-8496Y17761D01*
X-8497Y17764D01*
Y17833D01*
X-8510Y17937D01*
X-8551Y18034D01*
X-8615Y18118D01*
X-8903Y18407D01*
X-8987Y18471D01*
X-9084Y18511D01*
X-9189Y18525D01*
X-9189Y18525D01*
X-11191D01*
X-11295Y18511D01*
X-11392Y18471D01*
X-11476Y18407D01*
X-11476Y18407D01*
X-11935Y17948D01*
X-11999Y17864D01*
X-12040Y17767D01*
X-12053Y17662D01*
X-12053Y17662D01*
Y15761D01*
X-12087Y15718D01*
X-12137Y15596D01*
X-12154Y15466D01*
X-12137Y15335D01*
X-12087Y15214D01*
X-12007Y15109D01*
X-11902Y15029D01*
X-11781Y14979D01*
X-11650Y14962D01*
X-11519Y14979D01*
X-11398Y15029D01*
X-11293Y15109D01*
X-11213Y15214D01*
X-11163Y15335D01*
X-11146Y15466D01*
X-11163Y15596D01*
X-11213Y15718D01*
X-11247Y15761D01*
Y17495D01*
X-11024Y17718D01*
X-9967D01*
X-9964Y17668D01*
X-10017Y17661D01*
X-10127Y17616D01*
X-10221Y17544D01*
X-10293Y17450D01*
X-10338Y17340D01*
X-10347Y17273D01*
X-9900D01*
Y17173D01*
X-10370D01*
X-10381Y17157D01*
X-10404Y17129D01*
X-10405Y17126D01*
X-10407Y17124D01*
X-10421Y17090D01*
X-10436Y17056D01*
X-10436Y17053D01*
X-10437Y17051D01*
X-10442Y17014D01*
X-10448Y16978D01*
X-10447Y16975D01*
X-10448Y16973D01*
X-10443Y16936D01*
X-10439Y16900D01*
X-10438Y16897D01*
X-10437Y16894D01*
X-10423Y16860D01*
X-10410Y16826D01*
X-10408Y16824D01*
X-10407Y16821D01*
X-10385Y16792D01*
X-10363Y16763D01*
X-10341Y16740D01*
X-10329Y16726D01*
X-10319Y16713D01*
X-10313Y16703D01*
X-10308Y16695D01*
X-10305Y16688D01*
X-10304Y16684D01*
X-10303Y16682D01*
Y12395D01*
X-10303Y12395D01*
X-10290Y12291D01*
X-10249Y12193D01*
X-10185Y12110D01*
X-6446Y8370D01*
X-6444Y8365D01*
X-6442Y8356D01*
X-6429Y8329D01*
X-6417Y8301D01*
X-6412Y8294D01*
X-6408Y8285D01*
X-6388Y8262D01*
X-6369Y8238D01*
X-6362Y8233D01*
X-6356Y8226D01*
X-6331Y8209D01*
X-6306Y8190D01*
X-6298Y8186D01*
X-6290Y8181D01*
X-6262Y8171D01*
X-6242Y8163D01*
X-6234Y8143D01*
X-6224Y8115D01*
X-6218Y8107D01*
X-6215Y8099D01*
X-6196Y8074D01*
X-6179Y8049D01*
X-6172Y8043D01*
X-6167Y8036D01*
X-6143Y8017D01*
X-6120Y7997D01*
X-6111Y7993D01*
X-6104Y7988D01*
X-6076Y7976D01*
X-6049Y7963D01*
X-6040Y7961D01*
X-6035Y7959D01*
X-166Y2091D01*
X-196Y2050D01*
X-236Y2050D01*
X-1689D01*
Y550D01*
X-189D01*
Y2001D01*
X-189Y2043D01*
X-148Y2073D01*
X334Y1591D01*
X335Y1588D01*
X336Y1582D01*
X338Y1570D01*
X338Y1552D01*
X337Y1529D01*
X334Y1500D01*
X325Y1457D01*
X323Y1420D01*
X320Y1384D01*
X321Y1381D01*
X320Y1378D01*
X328Y1342D01*
X334Y1306D01*
X336Y1303D01*
X336Y1300D01*
X352Y1268D01*
X368Y1235D01*
X370Y1233D01*
X371Y1230D01*
X396Y1202D01*
X419Y1175D01*
X422Y1173D01*
X424Y1171D01*
X454Y1150D01*
X484Y1130D01*
X487Y1129D01*
X490Y1127D01*
X524Y1115D01*
X545Y1108D01*
X581Y1023D01*
X669Y908D01*
X784Y820D01*
X918Y764D01*
X1011Y752D01*
Y1300D01*
X1111D01*
Y752D01*
X1205Y764D01*
X1339Y820D01*
X1453Y908D01*
X1527Y1004D01*
X1549Y1007D01*
X1586Y1011D01*
X1588Y1012D01*
X1589Y1012D01*
X1624Y1027D01*
X1659Y1041D01*
X1661Y1042D01*
X1662Y1042D01*
X1692Y1065D01*
X1723Y1088D01*
X1724Y1089D01*
X1725Y1091D01*
X1748Y1120D01*
X1771Y1150D01*
X1772Y1152D01*
X1773Y1153D01*
X1788Y1188D01*
X1803Y1223D01*
X1803Y1225D01*
X1803Y1226D01*
X1808Y1264D01*
X1814Y1301D01*
X1814Y1352D01*
X1817Y1392D01*
X1821Y1426D01*
X1826Y1455D01*
X1831Y1478D01*
X1837Y1495D01*
X1842Y1507D01*
X1846Y1513D01*
X1846Y1515D01*
X8541Y8209D01*
X8546Y8211D01*
X8555Y8213D01*
X8582Y8226D01*
X8610Y8238D01*
X8618Y8243D01*
X8626Y8247D01*
X8649Y8267D01*
X8673Y8286D01*
X8679Y8293D01*
X8685Y8299D01*
X8703Y8324D01*
X8721Y8349D01*
X8725Y8357D01*
X8730Y8365D01*
X8740Y8393D01*
X8748Y8413D01*
X8768Y8421D01*
X8797Y8431D01*
X8804Y8436D01*
X8812Y8440D01*
X8837Y8459D01*
X8862Y8476D01*
X8868Y8483D01*
X8875Y8488D01*
X8894Y8512D01*
X8914Y8535D01*
X8918Y8544D01*
X8923Y8551D01*
X8935Y8579D01*
X8948Y8606D01*
X8950Y8615D01*
X8952Y8620D01*
X12185Y11854D01*
X12249Y11937D01*
X12290Y12034D01*
X12303Y12139D01*
X12303Y12139D01*
Y17185D01*
X12290Y17289D01*
X12249Y17386D01*
X12185Y17470D01*
X12185Y17470D01*
X10817Y18839D01*
X10733Y18903D01*
X10636Y18943D01*
X10531Y18957D01*
X10531Y18957D01*
X8534D01*
X8430Y18943D01*
X8333Y18903D01*
X8249Y18839D01*
X8249Y18839D01*
X7664Y18253D01*
X7568D01*
X7537Y18298D01*
X7537Y18303D01*
X7617Y18365D01*
X8807Y19555D01*
X8809Y19556D01*
X8813Y19558D01*
X8820Y19561D01*
X8829Y19563D01*
X8841Y19566D01*
X8856Y19568D01*
X8875Y19570D01*
X8899Y19570D01*
X8904Y19569D01*
X9032Y19582D01*
X9154Y19619D01*
X9211Y19650D01*
X9254Y19624D01*
Y19573D01*
X10554D01*
Y20866D01*
X12985D01*
X13082Y20847D01*
D02*
G37*
G36*
X2129Y19667D02*
X2157Y19643D01*
X2186Y19621D01*
X2215Y19602D01*
X2245Y19586D01*
X2275Y19573D01*
X2304Y19563D01*
X2335Y19556D01*
X2365Y19551D01*
X2395Y19550D01*
Y19350D01*
X2365Y19349D01*
X2335Y19344D01*
X2304Y19337D01*
X2275Y19327D01*
X2245Y19314D01*
X2215Y19298D01*
X2186Y19279D01*
X2157Y19257D01*
X2129Y19233D01*
X2100Y19205D01*
Y19695D01*
X2129Y19667D01*
D02*
G37*
G36*
X1201Y19407D02*
X1204Y19369D01*
X1209Y19333D01*
X1216Y19299D01*
X1226Y19267D01*
X1237Y19237D01*
X1251Y19209D01*
X1267Y19182D01*
X1286Y19158D01*
X1306Y19135D01*
X1165Y18994D01*
X1142Y19014D01*
X1118Y19033D01*
X1091Y19049D01*
X1063Y19063D01*
X1033Y19074D01*
X1001Y19084D01*
X967Y19091D01*
X931Y19096D01*
X893Y19099D01*
X854Y19100D01*
X1200Y19446D01*
X1201Y19407D01*
D02*
G37*
G36*
X-153Y19100D02*
X-193Y19099D01*
X-231Y19096D01*
X-267Y19091D01*
X-301Y19084D01*
X-333Y19074D01*
X-363Y19063D01*
X-391Y19049D01*
X-418Y19033D01*
X-442Y19014D01*
X-465Y18994D01*
X-606Y19135D01*
X-586Y19158D01*
X-567Y19182D01*
X-551Y19209D01*
X-537Y19237D01*
X-526Y19267D01*
X-516Y19299D01*
X-509Y19333D01*
X-504Y19369D01*
X-501Y19407D01*
X-500Y19446D01*
X-153Y19100D01*
D02*
G37*
G36*
X-1153D02*
X-1193Y19099D01*
X-1231Y19096D01*
X-1267Y19091D01*
X-1301Y19084D01*
X-1333Y19074D01*
X-1363Y19063D01*
X-1391Y19049D01*
X-1418Y19033D01*
X-1442Y19014D01*
X-1465Y18994D01*
X-1606Y19135D01*
X-1586Y19158D01*
X-1567Y19182D01*
X-1551Y19209D01*
X-1537Y19237D01*
X-1526Y19267D01*
X-1516Y19299D01*
X-1509Y19333D01*
X-1504Y19369D01*
X-1501Y19407D01*
X-1500Y19446D01*
X-1153Y19100D01*
D02*
G37*
G36*
X5078Y18067D02*
X5107Y18043D01*
X5136Y18021D01*
X5165Y18002D01*
X5195Y17986D01*
X5225Y17973D01*
X5254Y17963D01*
X5285Y17956D01*
X5315Y17951D01*
X5345Y17950D01*
Y17750D01*
X5315Y17749D01*
X5285Y17744D01*
X5254Y17737D01*
X5225Y17727D01*
X5195Y17714D01*
X5165Y17698D01*
X5136Y17679D01*
X5107Y17657D01*
X5078Y17633D01*
X5050Y17605D01*
Y18095D01*
X5078Y18067D01*
D02*
G37*
G36*
X-8799Y17737D02*
X-8794Y17707D01*
X-8787Y17677D01*
X-8777Y17647D01*
X-8764Y17618D01*
X-8748Y17588D01*
X-8729Y17559D01*
X-8707Y17530D01*
X-8683Y17501D01*
X-8655Y17473D01*
X-9145D01*
X-9117Y17501D01*
X-9093Y17530D01*
X-9071Y17559D01*
X-9052Y17588D01*
X-9036Y17618D01*
X-9023Y17647D01*
X-9013Y17677D01*
X-9006Y17707D01*
X-9001Y17737D01*
X-9000Y17768D01*
X-8800D01*
X-8799Y17737D01*
D02*
G37*
G36*
X9361Y17538D02*
X9340Y17515D01*
X9322Y17490D01*
X9306Y17464D01*
X9292Y17436D01*
X9280Y17406D01*
X9270Y17373D01*
X9263Y17339D01*
X9258Y17304D01*
X9255Y17266D01*
X9254Y17226D01*
X8908Y17573D01*
X8947Y17573D01*
X8985Y17576D01*
X9021Y17581D01*
X9055Y17589D01*
X9087Y17598D01*
X9117Y17610D01*
X9146Y17624D01*
X9172Y17640D01*
X9197Y17658D01*
X9219Y17679D01*
X9361Y17538D01*
D02*
G37*
G36*
X7815Y16884D02*
X7798Y16887D01*
X7780Y16888D01*
X7762Y16886D01*
X7743Y16881D01*
X7724Y16874D01*
X7704Y16864D01*
X7684Y16851D01*
X7663Y16836D01*
X7642Y16818D01*
X7621Y16798D01*
X7479Y16939D01*
X7500Y16961D01*
X7518Y16982D01*
X7533Y17002D01*
X7546Y17022D01*
X7555Y17042D01*
X7563Y17061D01*
X7568Y17080D01*
X7570Y17098D01*
X7569Y17116D01*
X7566Y17134D01*
X7815Y16884D01*
D02*
G37*
G36*
X9901Y16873D02*
X9861Y16872D01*
X9823Y16869D01*
X9788Y16864D01*
X9754Y16857D01*
X9721Y16847D01*
X9691Y16835D01*
X9663Y16821D01*
X9637Y16805D01*
X9612Y16787D01*
X9589Y16766D01*
X9448Y16908D01*
X9469Y16930D01*
X9487Y16955D01*
X9503Y16981D01*
X9517Y17010D01*
X9529Y17040D01*
X9538Y17072D01*
X9546Y17106D01*
X9551Y17142D01*
X9554Y17179D01*
X9554Y17219D01*
X9901Y16873D01*
D02*
G37*
G36*
X-6622Y17440D02*
X-6593Y17415D01*
X-6564Y17394D01*
X-6535Y17375D01*
X-6505Y17359D01*
X-6475Y17346D01*
X-6446Y17336D01*
X-6415Y17328D01*
X-6385Y17324D01*
X-6355Y17323D01*
Y17123D01*
X-6385Y17121D01*
X-6415Y17117D01*
X-6446Y17110D01*
X-6475Y17099D01*
X-6505Y17086D01*
X-6534Y17071D01*
X-6524Y17040D01*
X-6513Y17010D01*
X-6499Y16981D01*
X-6483Y16955D01*
X-6464Y16930D01*
X-6444Y16908D01*
X-6585Y16766D01*
X-6608Y16787D01*
X-6632Y16805D01*
X-6659Y16821D01*
X-6687Y16835D01*
X-6717Y16847D01*
X-6749Y16857D01*
X-6783Y16864D01*
X-6819Y16869D01*
X-6857Y16872D01*
X-6896Y16873D01*
X-6650Y17119D01*
Y17468D01*
X-6622Y17440D01*
D02*
G37*
G36*
X-7842Y16877D02*
X-7872Y16871D01*
X-7899Y16861D01*
X-7922Y16848D01*
X-7943Y16833D01*
X-7960Y16814D01*
X-7975Y16793D01*
X-7986Y16768D01*
X-7994Y16741D01*
X-7998Y16710D01*
X-8000Y16677D01*
X-8200Y16725D01*
X-8200Y16777D01*
X-8214Y16999D01*
X-8219Y17036D01*
X-8238Y17131D01*
X-7842Y16877D01*
D02*
G37*
G36*
X-9683Y16944D02*
X-9707Y16915D01*
X-9729Y16886D01*
X-9748Y16857D01*
X-9764Y16828D01*
X-9777Y16798D01*
X-9787Y16768D01*
X-9794Y16738D01*
X-9799Y16708D01*
X-9800Y16677D01*
X-10000D01*
X-10001Y16708D01*
X-10006Y16738D01*
X-10013Y16768D01*
X-10023Y16798D01*
X-10036Y16828D01*
X-10052Y16857D01*
X-10071Y16886D01*
X-10093Y16915D01*
X-10117Y16944D01*
X-10145Y16973D01*
X-9655D01*
X-9683Y16944D01*
D02*
G37*
G36*
X7650Y15922D02*
X7654Y15883D01*
X7656Y15866D01*
X7660Y15850D01*
X7664Y15836D01*
X7670Y15823D01*
X7676Y15811D01*
X7682Y15801D01*
X7690Y15793D01*
X7410D01*
X7418Y15801D01*
X7424Y15811D01*
X7430Y15823D01*
X7436Y15836D01*
X7440Y15850D01*
X7444Y15866D01*
X7446Y15883D01*
X7448Y15902D01*
X7450Y15943D01*
X7650D01*
X7650Y15922D01*
D02*
G37*
G36*
X-118Y15899D02*
X-124Y15889D01*
X-130Y15877D01*
X-136Y15864D01*
X-140Y15850D01*
X-144Y15834D01*
X-146Y15817D01*
X-148Y15798D01*
X-150Y15757D01*
X-350D01*
X-350Y15778D01*
X-354Y15817D01*
X-356Y15834D01*
X-360Y15850D01*
X-364Y15864D01*
X-370Y15877D01*
X-376Y15889D01*
X-382Y15899D01*
X-390Y15907D01*
X-110D01*
X-118Y15899D01*
D02*
G37*
G36*
X-11550Y15738D02*
X-11546Y15699D01*
X-11544Y15682D01*
X-11540Y15666D01*
X-11536Y15652D01*
X-11530Y15639D01*
X-11524Y15627D01*
X-11518Y15617D01*
X-11510Y15609D01*
X-11790D01*
X-11782Y15617D01*
X-11776Y15627D01*
X-11770Y15639D01*
X-11764Y15652D01*
X-11760Y15666D01*
X-11756Y15682D01*
X-11754Y15699D01*
X-11752Y15718D01*
X-11750Y15759D01*
X-11550D01*
X-11550Y15738D01*
D02*
G37*
G36*
X-8000Y15683D02*
X-7996Y15644D01*
X-7994Y15627D01*
X-7990Y15611D01*
X-7986Y15597D01*
X-7980Y15584D01*
X-7974Y15573D01*
X-7968Y15563D01*
X-7960Y15554D01*
X-8240D01*
X-8232Y15563D01*
X-8226Y15573D01*
X-8220Y15584D01*
X-8214Y15597D01*
X-8210Y15611D01*
X-8206Y15627D01*
X-8204Y15644D01*
X-8202Y15663D01*
X-8200Y15704D01*
X-8000D01*
X-8000Y15683D01*
D02*
G37*
G36*
X11600Y15648D02*
X11604Y15610D01*
X11606Y15592D01*
X11610Y15577D01*
X11614Y15562D01*
X11620Y15549D01*
X11626Y15538D01*
X11632Y15528D01*
X11640Y15519D01*
X11360D01*
X11368Y15528D01*
X11374Y15538D01*
X11380Y15549D01*
X11386Y15562D01*
X11390Y15577D01*
X11394Y15592D01*
X11396Y15610D01*
X11398Y15628D01*
X11400Y15670D01*
X11600D01*
X11600Y15648D01*
D02*
G37*
G36*
X-5868Y13999D02*
X-5874Y13989D01*
X-5880Y13977D01*
X-5886Y13964D01*
X-5890Y13950D01*
X-5894Y13934D01*
X-5896Y13917D01*
X-5898Y13898D01*
X-5900Y13857D01*
X-6100D01*
X-6100Y13878D01*
X-6104Y13917D01*
X-6106Y13934D01*
X-6110Y13950D01*
X-6114Y13964D01*
X-6120Y13977D01*
X-6126Y13989D01*
X-6132Y13999D01*
X-6140Y14007D01*
X-5860D01*
X-5868Y13999D01*
D02*
G37*
G36*
X11497Y14857D02*
Y12306D01*
X8381Y9191D01*
X8377Y9189D01*
X8368Y9187D01*
X8340Y9174D01*
X8312Y9162D01*
X8305Y9157D01*
X8297Y9153D01*
X8273Y9133D01*
X8249Y9114D01*
X8244Y9107D01*
X8237Y9101D01*
X8220Y9076D01*
X8201Y9051D01*
X8198Y9043D01*
X8193Y9035D01*
X8183Y9007D01*
X8174Y8987D01*
X8155Y8979D01*
X8126Y8969D01*
X8118Y8964D01*
X8110Y8960D01*
X8086Y8941D01*
X8060Y8924D01*
X8054Y8917D01*
X8047Y8912D01*
X8029Y8888D01*
X8009Y8865D01*
X8005Y8856D01*
X7999Y8849D01*
X7987Y8821D01*
X7974Y8794D01*
X7972Y8785D01*
X7970Y8780D01*
X1511Y2320D01*
X1465Y2339D01*
Y9802D01*
X1451Y9906D01*
X1411Y10004D01*
X1346Y10087D01*
X1346Y10087D01*
X836Y10597D01*
X835Y10599D01*
X833Y10602D01*
X831Y10608D01*
X829Y10617D01*
X827Y10628D01*
X825Y10643D01*
X823Y10661D01*
X823Y10692D01*
X818Y10728D01*
X814Y10765D01*
X813Y10767D01*
X813Y10770D01*
X799Y10804D01*
X785Y10838D01*
X784Y10840D01*
X782Y10843D01*
X760Y10872D01*
X738Y10901D01*
X736Y10903D01*
X734Y10905D01*
X705Y10928D01*
X676Y10951D01*
X674Y10952D01*
X671Y10953D01*
X637Y10967D01*
X604Y10982D01*
X601Y10982D01*
X598Y10983D01*
X562Y10988D01*
X526Y10993D01*
X523Y10993D01*
X520Y10994D01*
X514Y10993D01*
X492Y11021D01*
X398Y11093D01*
X288Y11138D01*
X221Y11147D01*
Y10700D01*
X121D01*
Y11147D01*
X53Y11138D01*
X-56Y11093D01*
X-150Y11021D01*
X-222Y10927D01*
X-268Y10817D01*
X-316Y10826D01*
Y12554D01*
X-283Y12598D01*
X-233Y12719D01*
X-215Y12850D01*
X-231Y12971D01*
X-205Y13021D01*
X4585D01*
X4612Y12971D01*
X4596Y12850D01*
X4613Y12719D01*
X4663Y12598D01*
X4711Y12535D01*
X4751Y12440D01*
X4815Y12357D01*
X6656Y10516D01*
X6663Y10462D01*
X6713Y10340D01*
X6793Y10236D01*
X6898Y10155D01*
X7019Y10105D01*
X7150Y10088D01*
X7281Y10105D01*
X7402Y10155D01*
X7507Y10236D01*
X7587Y10340D01*
X7637Y10462D01*
X7654Y10592D01*
X7637Y10723D01*
X7587Y10844D01*
X7507Y10949D01*
X7402Y11029D01*
X7281Y11079D01*
X7226Y11086D01*
X5588Y12725D01*
X5604Y12850D01*
X5588Y12971D01*
X5615Y13021D01*
X7983D01*
Y12837D01*
X8583D01*
Y12841D01*
X8667D01*
Y13021D01*
X11418D01*
Y13896D01*
Y14834D01*
X11459Y14867D01*
X11497Y14857D01*
D02*
G37*
G36*
X-587Y12699D02*
X-594Y12689D01*
X-600Y12677D01*
X-605Y12664D01*
X-610Y12650D01*
X-613Y12634D01*
X-616Y12617D01*
X-618Y12598D01*
X-620Y12557D01*
X-820D01*
X-820Y12578D01*
X-823Y12617D01*
X-826Y12634D01*
X-830Y12650D01*
X-834Y12664D01*
X-839Y12677D01*
X-845Y12689D01*
X-852Y12699D01*
X-860Y12707D01*
X-580D01*
X-587Y12699D01*
D02*
G37*
G36*
X7029Y10855D02*
X7059Y10830D01*
X7073Y10820D01*
X7086Y10811D01*
X7100Y10804D01*
X7112Y10799D01*
X7125Y10795D01*
X7137Y10793D01*
X7148Y10792D01*
X6950Y10594D01*
X6949Y10606D01*
X6947Y10617D01*
X6943Y10630D01*
X6938Y10643D01*
X6931Y10656D01*
X6922Y10669D01*
X6912Y10684D01*
X6900Y10698D01*
X6872Y10729D01*
X7013Y10870D01*
X7029Y10855D01*
D02*
G37*
G36*
X521Y10651D02*
X523Y10614D01*
X528Y10578D01*
X535Y10544D01*
X544Y10512D01*
X556Y10482D01*
X569Y10454D01*
X585Y10427D01*
X604Y10403D01*
X624Y10380D01*
X481Y10241D01*
X458Y10261D01*
X434Y10280D01*
X407Y10296D01*
X379Y10310D01*
X349Y10322D01*
X317Y10332D01*
X283Y10340D01*
X247Y10345D01*
X209Y10349D01*
X169Y10350D01*
X521Y10691D01*
X521Y10651D01*
D02*
G37*
G36*
X-129Y10151D02*
X-56Y10089D01*
X-24Y10066D01*
X6Y10049D01*
X33Y10038D01*
X57Y10032D01*
X78Y10031D01*
X97Y10037D01*
X113Y10048D01*
X-177Y9774D01*
X-165Y9789D01*
X-159Y9807D01*
X-159Y9828D01*
X-165Y9852D01*
X-176Y9879D01*
X-193Y9908D01*
X-216Y9941D01*
X-245Y9977D01*
X-319Y10057D01*
X-170Y10190D01*
X-129Y10151D01*
D02*
G37*
G36*
X8739Y8837D02*
X8724Y8821D01*
X8699Y8791D01*
X8689Y8777D01*
X8680Y8764D01*
X8673Y8750D01*
X8668Y8738D01*
X8664Y8725D01*
X8662Y8713D01*
X8661Y8702D01*
X8463Y8900D01*
X8475Y8901D01*
X8486Y8903D01*
X8499Y8907D01*
X8512Y8912D01*
X8525Y8919D01*
X8539Y8928D01*
X8553Y8938D01*
X8567Y8950D01*
X8598Y8978D01*
X8739Y8837D01*
D02*
G37*
G36*
X-6076Y8713D02*
X-6046Y8688D01*
X-6032Y8678D01*
X-6019Y8669D01*
X-6005Y8662D01*
X-5993Y8657D01*
X-5980Y8653D01*
X-5968Y8651D01*
X-5957Y8650D01*
X-6155Y8452D01*
X-6156Y8463D01*
X-6158Y8475D01*
X-6162Y8488D01*
X-6167Y8500D01*
X-6174Y8514D01*
X-6183Y8527D01*
X-6193Y8541D01*
X-6205Y8556D01*
X-6233Y8587D01*
X-6092Y8728D01*
X-6076Y8713D01*
D02*
G37*
G36*
X8459Y8500D02*
X8448Y8499D01*
X8436Y8497D01*
X8424Y8493D01*
X8411Y8488D01*
X8398Y8481D01*
X8384Y8472D01*
X8370Y8462D01*
X8355Y8450D01*
X8325Y8422D01*
X8183Y8563D01*
X8198Y8579D01*
X8223Y8608D01*
X8233Y8623D01*
X8242Y8636D01*
X8249Y8650D01*
X8254Y8662D01*
X8258Y8675D01*
X8261Y8687D01*
X8261Y8698D01*
X8459Y8500D01*
D02*
G37*
G36*
X-5754Y8437D02*
X-5752Y8425D01*
X-5748Y8412D01*
X-5743Y8400D01*
X-5736Y8386D01*
X-5727Y8373D01*
X-5717Y8359D01*
X-5705Y8344D01*
X-5677Y8313D01*
X-5818Y8172D01*
X-5834Y8187D01*
X-5864Y8212D01*
X-5878Y8222D01*
X-5891Y8231D01*
X-5905Y8238D01*
X-5917Y8243D01*
X-5930Y8247D01*
X-5942Y8249D01*
X-5953Y8250D01*
X-5755Y8448D01*
X-5754Y8437D01*
D02*
G37*
G36*
X-241Y6459D02*
X-165Y6394D01*
X-133Y6372D01*
X-104Y6355D01*
X-78Y6345D01*
X-57Y6342D01*
X-39Y6345D01*
X-24Y6354D01*
X-13Y6370D01*
X-196Y5990D01*
X-190Y6010D01*
X-187Y6031D01*
X-190Y6055D01*
X-197Y6081D01*
X-209Y6108D01*
X-226Y6137D01*
X-247Y6168D01*
X-273Y6201D01*
X-304Y6236D01*
X-339Y6273D01*
X-284Y6501D01*
X-241Y6459D01*
D02*
G37*
G36*
X1163Y1973D02*
X1170Y1937D01*
X1181Y1900D01*
X1196Y1862D01*
X1215Y1824D01*
X1239Y1784D01*
X1253Y1764D01*
X1278Y1768D01*
X1323Y1779D01*
X1364Y1792D01*
X1401Y1808D01*
X1435Y1827D01*
X1465Y1848D01*
X1492Y1872D01*
X1633Y1730D01*
X1609Y1704D01*
X1588Y1673D01*
X1570Y1640D01*
X1554Y1602D01*
X1540Y1561D01*
X1529Y1517D01*
X1521Y1469D01*
X1515Y1418D01*
X1512Y1363D01*
X1511Y1304D01*
X1194Y1621D01*
X966D01*
X622Y1399D01*
X632Y1452D01*
X639Y1502D01*
X641Y1549D01*
X640Y1594D01*
X634Y1636D01*
X625Y1675D01*
X612Y1712D01*
X594Y1746D01*
X573Y1777D01*
X548Y1805D01*
X721Y1915D01*
X745Y1894D01*
X773Y1874D01*
X805Y1854D01*
X842Y1835D01*
X883Y1817D01*
X900Y1811D01*
X907Y1824D01*
X927Y1862D01*
X942Y1900D01*
X953Y1937D01*
X959Y1973D01*
X961Y2009D01*
X1161D01*
X1163Y1973D01*
D02*
G37*
%LPC*%
G36*
X12255Y20788D02*
X12082Y20775D01*
X11914Y20734D01*
X11754Y20668D01*
X11606Y20578D01*
X11475Y20465D01*
X11362Y20334D01*
X11272Y20186D01*
X11205Y20026D01*
X11165Y19858D01*
X11151Y19685D01*
X11165Y19512D01*
X11205Y19344D01*
X11272Y19184D01*
X11362Y19036D01*
X11475Y18905D01*
X11606Y18792D01*
X11754Y18702D01*
X11914Y18636D01*
X12082Y18595D01*
X12255Y18582D01*
X12427Y18595D01*
X12596Y18636D01*
X12756Y18702D01*
X12903Y18792D01*
X13035Y18905D01*
X13147Y19036D01*
X13238Y19184D01*
X13304Y19344D01*
X13345Y19512D01*
X13358Y19685D01*
X13345Y19858D01*
X13304Y20026D01*
X13238Y20186D01*
X13147Y20334D01*
X13035Y20465D01*
X12903Y20578D01*
X12756Y20668D01*
X12596Y20734D01*
X12427Y20775D01*
X12255Y20788D01*
D02*
G37*
G36*
X-12155D02*
X-12327Y20775D01*
X-12496Y20734D01*
X-12656Y20668D01*
X-12803Y20578D01*
X-12935Y20465D01*
X-13047Y20334D01*
X-13138Y20186D01*
X-13204Y20026D01*
X-13245Y19858D01*
X-13258Y19685D01*
X-13245Y19512D01*
X-13204Y19344D01*
X-13138Y19184D01*
X-13047Y19036D01*
X-12935Y18905D01*
X-12803Y18792D01*
X-12656Y18702D01*
X-12496Y18636D01*
X-12327Y18595D01*
X-12155Y18582D01*
X-11982Y18595D01*
X-11814Y18636D01*
X-11654Y18702D01*
X-11506Y18792D01*
X-11374Y18905D01*
X-11262Y19036D01*
X-11172Y19184D01*
X-11105Y19344D01*
X-11065Y19512D01*
X-11051Y19685D01*
X-11065Y19858D01*
X-11105Y20026D01*
X-11172Y20186D01*
X-11262Y20334D01*
X-11374Y20465D01*
X-11506Y20578D01*
X-11654Y20668D01*
X-11814Y20734D01*
X-11982Y20775D01*
X-12155Y20788D01*
D02*
G37*
G36*
X6854Y17173D02*
X6457D01*
X6466Y17105D01*
X6511Y16996D01*
X6583Y16902D01*
X6677Y16830D01*
X6787Y16784D01*
X6854Y16775D01*
Y17173D01*
D02*
G37*
G36*
X15011Y18033D02*
X14838Y18019D01*
X14670Y17979D01*
X14510Y17912D01*
X14362Y17822D01*
X14230Y17709D01*
X14118Y17578D01*
X14028Y17430D01*
X13961Y17270D01*
X13921Y17102D01*
X13907Y16929D01*
X13921Y16757D01*
X13961Y16588D01*
X14028Y16428D01*
X14118Y16281D01*
X14230Y16149D01*
X14362Y16036D01*
X14510Y15946D01*
X14670Y15880D01*
X14838Y15839D01*
X15011Y15826D01*
X15183Y15839D01*
X15352Y15880D01*
X15512Y15946D01*
X15659Y16036D01*
X15791Y16149D01*
X15903Y16281D01*
X15994Y16428D01*
X16060Y16588D01*
X16100Y16757D01*
X16114Y16929D01*
X16100Y17102D01*
X16060Y17270D01*
X15994Y17430D01*
X15903Y17578D01*
X15791Y17709D01*
X15659Y17822D01*
X15512Y17912D01*
X15352Y17979D01*
X15183Y18019D01*
X15011Y18033D01*
D02*
G37*
G36*
X-14911D02*
X-15083Y18019D01*
X-15252Y17979D01*
X-15412Y17912D01*
X-15559Y17822D01*
X-15691Y17709D01*
X-15803Y17578D01*
X-15894Y17430D01*
X-15960Y17270D01*
X-16000Y17102D01*
X-16014Y16929D01*
X-16000Y16757D01*
X-15960Y16588D01*
X-15894Y16428D01*
X-15803Y16281D01*
X-15691Y16149D01*
X-15559Y16036D01*
X-15412Y15946D01*
X-15252Y15880D01*
X-15083Y15839D01*
X-14911Y15826D01*
X-14738Y15839D01*
X-14570Y15880D01*
X-14410Y15946D01*
X-14262Y16036D01*
X-14130Y16149D01*
X-14018Y16281D01*
X-13927Y16428D01*
X-13861Y16588D01*
X-13821Y16757D01*
X-13807Y16929D01*
X-13821Y17102D01*
X-13861Y17270D01*
X-13927Y17430D01*
X-14018Y17578D01*
X-14130Y17709D01*
X-14262Y17822D01*
X-14410Y17912D01*
X-14570Y17979D01*
X-14738Y18019D01*
X-14911Y18033D01*
D02*
G37*
G36*
X4400Y2050D02*
X2900D01*
Y550D01*
X4400D01*
Y2050D01*
D02*
G37*
G36*
X-4778D02*
X-6278D01*
Y550D01*
X-4778D01*
Y2050D01*
D02*
G37*
G36*
X5650Y2054D02*
X5503Y2039D01*
X5362Y1996D01*
X5231Y1927D01*
X5117Y1833D01*
X5023Y1719D01*
X4954Y1588D01*
X4911Y1447D01*
X4896Y1300D01*
X4911Y1153D01*
X4954Y1012D01*
X5023Y881D01*
X5117Y767D01*
X5231Y673D01*
X5362Y604D01*
X5503Y561D01*
X5650Y546D01*
X5797Y561D01*
X5938Y604D01*
X6069Y673D01*
X6183Y767D01*
X6277Y881D01*
X6346Y1012D01*
X6389Y1153D01*
X6404Y1300D01*
X6389Y1447D01*
X6346Y1588D01*
X6277Y1719D01*
X6183Y1833D01*
X6069Y1927D01*
X5938Y1996D01*
X5797Y2039D01*
X5650Y2054D01*
D02*
G37*
G36*
X-3528D02*
X-3675Y2039D01*
X-3816Y1996D01*
X-3946Y1927D01*
X-4061Y1833D01*
X-4154Y1719D01*
X-4224Y1588D01*
X-4267Y1447D01*
X-4281Y1300D01*
X-4267Y1153D01*
X-4224Y1012D01*
X-4154Y881D01*
X-4061Y767D01*
X-3946Y673D01*
X-3816Y604D01*
X-3675Y561D01*
X-3528Y546D01*
X-3381Y561D01*
X-3239Y604D01*
X-3109Y673D01*
X-2995Y767D01*
X-2901Y881D01*
X-2831Y1012D01*
X-2788Y1153D01*
X-2774Y1300D01*
X-2788Y1447D01*
X-2831Y1588D01*
X-2901Y1719D01*
X-2995Y1833D01*
X-3109Y1927D01*
X-3239Y1996D01*
X-3381Y2039D01*
X-3528Y2054D01*
D02*
G37*
G36*
X12255Y2285D02*
X12082Y2271D01*
X11914Y2230D01*
X11754Y2164D01*
X11606Y2074D01*
X11475Y1961D01*
X11362Y1830D01*
X11272Y1682D01*
X11205Y1522D01*
X11165Y1354D01*
X11151Y1181D01*
X11165Y1008D01*
X11205Y840D01*
X11272Y680D01*
X11362Y533D01*
X11475Y401D01*
X11606Y288D01*
X11754Y198D01*
X11914Y132D01*
X12082Y91D01*
X12255Y78D01*
X12427Y91D01*
X12596Y132D01*
X12756Y198D01*
X12903Y288D01*
X13035Y401D01*
X13147Y533D01*
X13238Y680D01*
X13304Y840D01*
X13345Y1008D01*
X13358Y1181D01*
X13345Y1354D01*
X13304Y1522D01*
X13238Y1682D01*
X13147Y1830D01*
X13035Y1961D01*
X12903Y2074D01*
X12756Y2164D01*
X12596Y2230D01*
X12427Y2271D01*
X12255Y2285D01*
D02*
G37*
G36*
X-12155D02*
X-12327Y2271D01*
X-12496Y2230D01*
X-12656Y2164D01*
X-12803Y2074D01*
X-12935Y1961D01*
X-13047Y1830D01*
X-13138Y1682D01*
X-13204Y1522D01*
X-13245Y1354D01*
X-13258Y1181D01*
X-13245Y1008D01*
X-13204Y840D01*
X-13138Y680D01*
X-13047Y533D01*
X-12935Y401D01*
X-12803Y288D01*
X-12656Y198D01*
X-12496Y132D01*
X-12327Y91D01*
X-12155Y78D01*
X-11982Y91D01*
X-11814Y132D01*
X-11654Y198D01*
X-11506Y288D01*
X-11374Y401D01*
X-11262Y533D01*
X-11172Y680D01*
X-11105Y840D01*
X-11065Y1008D01*
X-11051Y1181D01*
X-11065Y1354D01*
X-11105Y1522D01*
X-11172Y1682D01*
X-11262Y1830D01*
X-11374Y1961D01*
X-11506Y2074D01*
X-11654Y2164D01*
X-11814Y2230D01*
X-11982Y2271D01*
X-12155Y2285D01*
D02*
G37*
%LPD*%
D10*
X10818Y13421D02*
X10718D01*
X10618Y13521D01*
Y14021D01*
X10918D01*
X11018Y13921D01*
Y13721D01*
X10918Y13621D01*
X10618D01*
X10418D02*
X10218D01*
X10318D01*
Y14021D01*
X10418D01*
X9818Y14121D02*
Y14021D01*
X9918D01*
X9718D01*
X9818D01*
Y13721D01*
X9718Y13621D01*
X9418Y14221D02*
Y13621D01*
Y13921D01*
X9318Y14021D01*
X9118D01*
X9019Y13921D01*
Y13621D01*
X8819Y14021D02*
Y13721D01*
X8719Y13621D01*
X8419D01*
Y14021D01*
X8219Y14221D02*
Y13621D01*
X7919D01*
X7819Y13721D01*
Y13821D01*
Y13921D01*
X7919Y14021D01*
X8219D01*
X7619Y13621D02*
X7219Y14021D01*
X6619Y14221D02*
X7019D01*
Y13921D01*
X6819D01*
X7019D01*
Y13621D01*
X6419Y14021D02*
Y13621D01*
Y13821D01*
X6319Y13921D01*
X6219Y14021D01*
X6119D01*
X5520Y13621D02*
X5720D01*
X5820Y13721D01*
Y13921D01*
X5720Y14021D01*
X5520D01*
X5420Y13921D01*
Y13821D01*
X5820D01*
X4920Y13621D02*
X5120D01*
X5220Y13721D01*
Y13921D01*
X5120Y14021D01*
X4920D01*
X4820Y13921D01*
Y13821D01*
X5220D01*
X4220Y14221D02*
Y13621D01*
X4520D01*
X4620Y13721D01*
Y13921D01*
X4520Y14021D01*
X4220D01*
X4020Y13921D02*
X3620D01*
X3420Y14221D02*
Y13621D01*
X3220Y13821D01*
X3020Y13621D01*
Y14221D01*
X2821Y14021D02*
Y13721D01*
X2721Y13621D01*
X2421D01*
Y14021D01*
X2221Y13621D02*
X1821Y14021D01*
X1221Y14221D02*
Y13621D01*
X1521D01*
X1621Y13721D01*
Y13921D01*
X1521Y14021D01*
X1221D01*
X1021D02*
Y13621D01*
Y13821D01*
X921Y13921D01*
X821Y14021D01*
X721D01*
X421Y13621D02*
X221D01*
X321D01*
Y14021D01*
X421D01*
X-79D02*
X-278Y13621D01*
X-478Y14021D01*
X-978Y13621D02*
X-778D01*
X-678Y13721D01*
Y13921D01*
X-778Y14021D01*
X-978D01*
X-1078Y13921D01*
Y13821D01*
X-678D01*
X-1278Y14021D02*
Y13621D01*
Y13821D01*
X-1378Y13921D01*
X-1478Y14021D01*
X-1578D01*
X11018Y14296D02*
Y14896D01*
X10618Y14296D01*
Y14896D01*
X10018D02*
X10218D01*
X10118D01*
Y14396D01*
X10218Y14296D01*
X10318D01*
X10418Y14396D01*
X9818Y14896D02*
Y14396D01*
X9718Y14296D01*
X9518D01*
X9418Y14396D01*
Y14896D01*
X8819Y14796D02*
X8919Y14896D01*
X9118D01*
X9218Y14796D01*
Y14696D01*
X9118Y14596D01*
X8919D01*
X8819Y14496D01*
Y14396D01*
X8919Y14296D01*
X9118D01*
X9218Y14396D01*
X8619Y14896D02*
X8219D01*
X8419D01*
Y14296D01*
X7019D02*
X7419D01*
X7019Y14696D01*
Y14796D01*
X7119Y14896D01*
X7319D01*
X7419Y14796D01*
X6819D02*
X6719Y14896D01*
X6519D01*
X6419Y14796D01*
Y14396D01*
X6519Y14296D01*
X6719D01*
X6819Y14396D01*
Y14796D01*
X6219Y14296D02*
X6019D01*
X6119D01*
Y14896D01*
X6219Y14796D01*
X5720Y14396D02*
X5620Y14296D01*
X5420D01*
X5320Y14396D01*
Y14796D01*
X5420Y14896D01*
X5620D01*
X5720Y14796D01*
Y14696D01*
X5620Y14596D01*
X5320D01*
X4520Y14896D02*
Y14296D01*
X4220D01*
X4120Y14396D01*
Y14496D01*
Y14596D01*
X4220Y14696D01*
X4520D01*
X3620Y14296D02*
X3820D01*
X3920Y14396D01*
Y14596D01*
X3820Y14696D01*
X3620D01*
X3520Y14596D01*
Y14496D01*
X3920D01*
X3220Y14696D02*
X3020D01*
X2920Y14596D01*
Y14296D01*
X3220D01*
X3320Y14396D01*
X3220Y14496D01*
X2920D01*
X2321Y14696D02*
X2621D01*
X2721Y14596D01*
Y14396D01*
X2621Y14296D01*
X2321D01*
X2021D02*
X1821D01*
X1721Y14396D01*
Y14596D01*
X1821Y14696D01*
X2021D01*
X2121Y14596D01*
Y14396D01*
X2021Y14296D01*
X1521D02*
Y14696D01*
X1221D01*
X1121Y14596D01*
Y14296D01*
X-79Y14796D02*
X21Y14896D01*
X221D01*
X321Y14796D01*
Y14696D01*
X221Y14596D01*
X21D01*
X-79Y14496D01*
Y14396D01*
X21Y14296D01*
X221D01*
X321Y14396D01*
X-278Y14896D02*
Y14296D01*
X-478Y14496D01*
X-678Y14296D01*
Y14896D01*
X-878D02*
X-1278D01*
X-1078D01*
Y14296D01*
X-2078Y14696D02*
X-2278Y14296D01*
X-2478Y14696D01*
X-2678Y14796D02*
X-2778Y14896D01*
X-2978D01*
X-3078Y14796D01*
Y14396D01*
X-2978Y14296D01*
X-2778D01*
X-2678Y14396D01*
Y14796D01*
X-3278Y14296D02*
Y14396D01*
X-3377D01*
Y14296D01*
X-3278D01*
X-3777Y14796D02*
X-3877Y14896D01*
X-4077D01*
X-4177Y14796D01*
Y14396D01*
X-4077Y14296D01*
X-3877D01*
X-3777Y14396D01*
Y14796D01*
X-4377Y14296D02*
Y14396D01*
X-4477D01*
Y14296D01*
X-4377D01*
X-5277D02*
X-4877D01*
X-5277Y14696D01*
Y14796D01*
X-5177Y14896D01*
X-4977D01*
X-4877Y14796D01*
D47*
X-11191Y18122D02*
X-9189D01*
X-11650Y17662D02*
X-11191Y18122D01*
X-11650Y15466D02*
Y17662D01*
X-8900Y17223D02*
Y17833D01*
X-9189Y18122D02*
X-8900Y17833D01*
X-8100Y17023D02*
X-7900Y17223D01*
X-8100Y15411D02*
Y17023D01*
X8904Y17223D02*
X9632Y17950D01*
X10314D01*
X11500Y16764D01*
Y15377D02*
Y16764D01*
X10531Y18553D02*
X11900Y17185D01*
X8534Y18553D02*
X10531D01*
X7831Y17850D02*
X8534Y18553D01*
X11900Y12139D02*
Y17185D01*
X4800Y17850D02*
X7831D01*
X8461Y8700D02*
X11900Y12139D01*
X-5173Y17223D02*
X-4800Y16850D01*
X-6900Y17223D02*
X-5173D01*
X-242Y15208D02*
X7890D01*
X-4885D02*
X-242D01*
X-250Y15216D02*
X-242Y15208D01*
X-250Y15216D02*
Y16050D01*
X-720Y10598D02*
Y12850D01*
Y10598D02*
X171Y9708D01*
X7550Y15650D02*
Y16868D01*
X7550Y16868D01*
X7550Y16868D02*
X7550Y16868D01*
X7550Y16868D02*
X7904Y17223D01*
X-6900D02*
X-4885Y15208D01*
X7890D02*
X9904Y17223D01*
X-8900Y20223D02*
X-7202Y18525D01*
X-1075D01*
X-150Y19450D01*
X-1700Y18900D02*
X-1150Y19450D01*
X-7900Y20223D02*
X-6577Y18900D01*
X-1700D01*
X7332Y18650D02*
X8904Y20223D01*
X1650Y18650D02*
X7332D01*
X850Y19450D02*
X1650Y18650D01*
X7132Y19450D02*
X7904Y20223D01*
X1850Y19450D02*
X7132D01*
X5100Y12642D02*
X7150Y10592D01*
X5100Y12642D02*
Y12850D01*
X-6000Y12075D02*
Y14150D01*
Y12075D02*
X0Y6075D01*
X171Y10692D02*
X1061Y9802D01*
Y1434D02*
Y9802D01*
X-9900Y12395D02*
Y17223D01*
Y12395D02*
X-5955Y8450D01*
X1061Y1300D02*
X8461Y8700D01*
X1061Y1300D02*
Y1434D01*
X-5955Y8450D02*
X1061Y1434D01*
D48*
X171Y10700D02*
D03*
X1850Y19450D02*
D03*
X850D02*
D03*
X-2150D02*
D03*
X-1150D02*
D03*
X-150D02*
D03*
X6904Y17223D02*
D03*
X7904D02*
D03*
X8904D02*
D03*
X9904D02*
D03*
X6904Y20223D02*
D03*
X7904D02*
D03*
X8904D02*
D03*
X-4800Y17850D02*
D03*
X4800D02*
D03*
X-9900Y17223D02*
D03*
X-8900D02*
D03*
X-7900D02*
D03*
X-6900D02*
D03*
X-9900Y20223D02*
D03*
X-8900D02*
D03*
X-7900D02*
D03*
D49*
X171Y9700D02*
D03*
X9904Y20223D02*
D03*
X-4800Y16850D02*
D03*
X4800D02*
D03*
X-6900Y20223D02*
D03*
D50*
X5650Y1300D02*
D03*
X1061D02*
D03*
X-3528D02*
D03*
D51*
X3650D02*
D03*
X-939D02*
D03*
X-5528D02*
D03*
D52*
X0Y6863D02*
D03*
Y6075D02*
D03*
Y5288D02*
D03*
D53*
Y7650D02*
D03*
Y4500D02*
D03*
D54*
X-11650Y15466D02*
D03*
X-8100Y15411D02*
D03*
X11500Y15377D02*
D03*
X-720Y12850D02*
D03*
X7550Y15650D02*
D03*
X-250Y16050D02*
D03*
X7150Y10592D02*
D03*
X5100Y12850D02*
D03*
X-6000Y14150D02*
D03*
X8461Y8700D02*
D03*
X-5955Y8450D02*
D03*
D55*
X12255Y1181D02*
D03*
X-12155D02*
D03*
X-14911Y16929D02*
D03*
X-12155Y19685D02*
D03*
X12255D02*
D03*
X15011Y16929D02*
D03*
M02*
