G04*
G04 #@! TF.GenerationSoftware,Altium Limited,Altium Designer,18.1.4 (159)*
G04*
G04 Layer_Color=8421504*
%FSLAX24Y24*%
%MOIN*%
G70*
G01*
G75*
%ADD17O,0.0276X0.0984*%
%ADD18R,0.0492X0.1122*%
%ADD19R,0.2185X0.2559*%
%ADD20R,0.0300X0.0300*%
G04:AMPARAMS|DCode=21|XSize=55mil|YSize=50mil|CornerRadius=0mil|HoleSize=0mil|Usage=FLASHONLY|Rotation=270.000|XOffset=0mil|YOffset=0mil|HoleType=Round|Shape=Octagon|*
%AMOCTAGOND21*
4,1,8,-0.0125,-0.0275,0.0125,-0.0275,0.0250,-0.0150,0.0250,0.0150,0.0125,0.0275,-0.0125,0.0275,-0.0250,0.0150,-0.0250,-0.0150,-0.0125,-0.0275,0.0*
%
%ADD21OCTAGOND21*%

%ADD22R,0.0500X0.0550*%
%ADD23R,0.0276X0.0394*%
%ADD24R,0.0300X0.0300*%
%ADD25R,0.0610X0.0925*%
%ADD26R,0.1000X0.0600*%
%ADD27R,0.0236X0.0551*%
D17*
X6550Y12587D02*
D03*
X7050D02*
D03*
X7550D02*
D03*
X8050D02*
D03*
X6550Y14516D02*
D03*
X7050D02*
D03*
X7550D02*
D03*
X8050D02*
D03*
X11700D02*
D03*
X11200D02*
D03*
X10700D02*
D03*
X10200D02*
D03*
X11700Y12587D02*
D03*
X11200D02*
D03*
X10700D02*
D03*
X10200D02*
D03*
X-11150Y14516D02*
D03*
X-11650D02*
D03*
X-12150D02*
D03*
X-12650D02*
D03*
X-11150Y12587D02*
D03*
X-11650D02*
D03*
X-12150D02*
D03*
X-12650D02*
D03*
X-7600Y14516D02*
D03*
X-8100D02*
D03*
X-8600D02*
D03*
X-9100D02*
D03*
X-7600Y12587D02*
D03*
X-8100D02*
D03*
X-8600D02*
D03*
X-9100D02*
D03*
D18*
X-10800Y8124D02*
D03*
X-12595D02*
D03*
X-3895Y15015D02*
D03*
X-2100D02*
D03*
X-9695Y7359D02*
D03*
X-7900D02*
D03*
X-6845Y8124D02*
D03*
X-5050D02*
D03*
X-4000Y7359D02*
D03*
X-2205D02*
D03*
X2250Y8124D02*
D03*
X4045D02*
D03*
X5100Y7359D02*
D03*
X6895D02*
D03*
X7950Y8124D02*
D03*
X9745D02*
D03*
X10850Y7359D02*
D03*
X12645D02*
D03*
D19*
X-11698Y5584D02*
D03*
X-2998Y12475D02*
D03*
X-8798Y4819D02*
D03*
X-5948Y5584D02*
D03*
X-3102Y4819D02*
D03*
X3148Y5584D02*
D03*
X5998Y4819D02*
D03*
X8848Y5584D02*
D03*
X11748Y4819D02*
D03*
D20*
X9750Y9700D02*
D03*
Y9150D02*
D03*
X4045Y9700D02*
D03*
Y9150D02*
D03*
X2250D02*
D03*
Y9700D02*
D03*
X7950Y9150D02*
D03*
Y9700D02*
D03*
X5100Y9150D02*
D03*
Y9700D02*
D03*
X-5050D02*
D03*
Y9150D02*
D03*
X-6830D02*
D03*
Y9700D02*
D03*
X-2205D02*
D03*
Y9150D02*
D03*
X-3974D02*
D03*
Y9700D02*
D03*
X12650D02*
D03*
Y9150D02*
D03*
X10850D02*
D03*
Y9700D02*
D03*
X6904D02*
D03*
Y9150D02*
D03*
X-7900Y9700D02*
D03*
Y9150D02*
D03*
X-9700D02*
D03*
Y9700D02*
D03*
X-10796D02*
D03*
Y9150D02*
D03*
X-12595D02*
D03*
Y9700D02*
D03*
X-4852Y14815D02*
D03*
Y14265D02*
D03*
X3800Y12500D02*
D03*
Y11950D02*
D03*
Y14815D02*
D03*
Y14265D02*
D03*
X1100Y16900D02*
D03*
Y17450D02*
D03*
D21*
X-6650Y13425D02*
D03*
X-10100D02*
D03*
X9050D02*
D03*
X5650D02*
D03*
D22*
X-6650Y14775D02*
D03*
X-10100D02*
D03*
X9050D02*
D03*
X5650D02*
D03*
D23*
X-4852Y12525D02*
D03*
Y11856D02*
D03*
D24*
X-2650Y16050D02*
D03*
X-2100D02*
D03*
X-11453Y11442D02*
D03*
X-12003D02*
D03*
X-7853D02*
D03*
X-8403D02*
D03*
X7697D02*
D03*
X7147D02*
D03*
X11497D02*
D03*
X10947D02*
D03*
X-7500Y16510D02*
D03*
X-8050D02*
D03*
X8150D02*
D03*
X7600D02*
D03*
X-11250D02*
D03*
X-10700D02*
D03*
X10750D02*
D03*
X11300D02*
D03*
X5100Y20350D02*
D03*
X5650D02*
D03*
X5100Y19500D02*
D03*
X5650D02*
D03*
X-5050Y20350D02*
D03*
X-5600D02*
D03*
X-5050Y19500D02*
D03*
X-5600D02*
D03*
X-250Y17679D02*
D03*
X-800D02*
D03*
X-2600D02*
D03*
X-2050D02*
D03*
X-150Y13544D02*
D03*
X400D02*
D03*
D25*
X2577Y14996D02*
D03*
Y13304D02*
D03*
D26*
X2550Y16950D02*
D03*
Y18300D02*
D03*
D27*
X-1250Y14458D02*
D03*
X-750D02*
D03*
X-250D02*
D03*
X250D02*
D03*
Y16742D02*
D03*
X-250D02*
D03*
X-750D02*
D03*
X-1250D02*
D03*
M02*
