G04*
G04 #@! TF.GenerationSoftware,Altium Limited,Altium Designer,18.1.4 (159)*
G04*
G04 Layer_Color=32768*
%FSLAX24Y24*%
%MOIN*%
G70*
G01*
G75*
%ADD57C,0.0039*%
%ADD58C,0.0020*%
%ADD59C,0.0030*%
D57*
X8207Y18723D02*
X8601D01*
X8404Y18526D02*
Y18919D01*
X6119Y15105D02*
X8481D01*
X6119Y11798D02*
X8481D01*
Y15105D01*
X6119Y11798D02*
Y15105D01*
X7300Y13255D02*
Y13649D01*
X7103Y13452D02*
X7497D01*
X-9531Y15105D02*
X-7169D01*
X-9531Y11798D02*
X-7169D01*
Y15105D01*
X-9531Y11798D02*
Y15105D01*
X-8350Y13255D02*
Y13649D01*
X-8547Y13452D02*
X-8153D01*
X-13081Y15105D02*
X-10719D01*
X-13081Y11798D02*
X-10719D01*
Y15105D01*
X-13081Y11798D02*
Y15105D01*
X-11900Y13255D02*
Y13649D01*
X-12097Y13452D02*
X-11703D01*
X9769Y15105D02*
X12131D01*
X9769Y11798D02*
X12131D01*
Y15105D01*
X9769Y11798D02*
Y15105D01*
X10950Y13255D02*
Y13649D01*
X10753Y13452D02*
X11147D01*
X-8597Y18723D02*
X-8203D01*
X-8400Y18526D02*
Y18919D01*
D58*
X309Y10200D02*
G03*
X309Y10200I-138J0D01*
G01*
X-4662Y17350D02*
G03*
X-4662Y17350I-138J0D01*
G01*
X4938D02*
G03*
X4938Y17350I-138J0D01*
G01*
X171Y10003D02*
Y10397D01*
X-26Y10200D02*
X368D01*
X-4800Y17153D02*
Y17547D01*
X-4997Y17350D02*
X-4603D01*
X4800Y17153D02*
Y17547D01*
X4603Y17350D02*
X4997D01*
D59*
X5650Y13900D02*
Y14100D01*
X5550Y14000D02*
X5750D01*
X-6650Y13900D02*
Y14100D01*
X-6750Y14000D02*
X-6550D01*
X-10100Y13900D02*
Y14100D01*
X-10200Y14000D02*
X-10000D01*
X9050Y13900D02*
Y14100D01*
X8950Y14000D02*
X9150D01*
M02*
