G04*
G04 #@! TF.GenerationSoftware,Altium Limited,Altium Designer,18.1.4 (159)*
G04*
G04 Layer_Physical_Order=1*
G04 Layer_Color=255*
%FSLAX24Y24*%
%MOIN*%
G70*
G01*
G75*
%ADD17R,0.0500X0.0550*%
G04:AMPARAMS|DCode=18|XSize=55mil|YSize=50mil|CornerRadius=0mil|HoleSize=0mil|Usage=FLASHONLY|Rotation=270.000|XOffset=0mil|YOffset=0mil|HoleType=Round|Shape=Octagon|*
%AMOCTAGOND18*
4,1,8,-0.0125,-0.0275,0.0125,-0.0275,0.0250,-0.0150,0.0250,0.0150,0.0125,0.0275,-0.0125,0.0275,-0.0250,0.0150,-0.0250,-0.0150,-0.0125,-0.0275,0.0*
%
%ADD18OCTAGOND18*%

%ADD19R,0.0610X0.0925*%
%ADD20R,0.0276X0.0394*%
%ADD21R,0.1000X0.0600*%
%ADD22R,0.0300X0.0300*%
%ADD23R,0.0236X0.0551*%
%ADD24R,0.0492X0.1122*%
%ADD25R,0.2185X0.2559*%
%ADD26O,0.0276X0.0984*%
%ADD27R,0.0300X0.0300*%
%ADD47C,0.0200*%
%ADD48C,0.0700*%
%ADD49R,0.0700X0.0700*%
%ADD50C,0.0900*%
%ADD51R,0.0900X0.0900*%
G04:AMPARAMS|DCode=52|XSize=59.1mil|YSize=39.4mil|CornerRadius=9.8mil|HoleSize=0mil|Usage=FLASHONLY|Rotation=270.000|XOffset=0mil|YOffset=0mil|HoleType=Round|Shape=RoundedRectangle|*
%AMROUNDEDRECTD52*
21,1,0.0591,0.0197,0,0,270.0*
21,1,0.0394,0.0394,0,0,270.0*
1,1,0.0197,-0.0098,-0.0197*
1,1,0.0197,-0.0098,0.0197*
1,1,0.0197,0.0098,0.0197*
1,1,0.0197,0.0098,-0.0197*
%
%ADD52ROUNDEDRECTD52*%
%ADD53O,0.0827X0.0472*%
%ADD54C,0.0400*%
%ADD55C,0.1600*%
G36*
X5940Y20399D02*
X5901Y20358D01*
X5838Y20284D01*
X5815Y20251D01*
X5798Y20222D01*
X5787Y20195D01*
X5781Y20171D01*
X5781Y20150D01*
X5786Y20131D01*
X5798Y20116D01*
X5516Y20398D01*
X5531Y20386D01*
X5550Y20381D01*
X5571Y20381D01*
X5595Y20387D01*
X5622Y20398D01*
X5651Y20415D01*
X5684Y20438D01*
X5719Y20466D01*
X5799Y20540D01*
X5940Y20399D01*
D02*
G37*
G36*
X9597Y20673D02*
X9670Y20611D01*
X9703Y20588D01*
X9733Y20571D01*
X9759Y20559D01*
X9783Y20554D01*
X9805Y20554D01*
X9823Y20559D01*
X9838Y20570D01*
X9557Y20289D01*
X9568Y20304D01*
X9573Y20322D01*
X9573Y20343D01*
X9568Y20367D01*
X9556Y20394D01*
X9539Y20424D01*
X9516Y20457D01*
X9488Y20492D01*
X9414Y20571D01*
X9556Y20713D01*
X9597Y20673D01*
D02*
G37*
G36*
X-9444Y20538D02*
X-9464Y20515D01*
X-9483Y20490D01*
X-9499Y20464D01*
X-9513Y20436D01*
X-9524Y20406D01*
X-9534Y20373D01*
X-9541Y20339D01*
X-9546Y20304D01*
X-9549Y20266D01*
X-9550Y20226D01*
X-9896Y20573D01*
X-9857Y20573D01*
X-9819Y20576D01*
X-9783Y20581D01*
X-9749Y20589D01*
X-9717Y20598D01*
X-9687Y20610D01*
X-9659Y20624D01*
X-9632Y20640D01*
X-9608Y20658D01*
X-9585Y20679D01*
X-9444Y20538D01*
D02*
G37*
G36*
X-5708Y20501D02*
X-5634Y20438D01*
X-5602Y20416D01*
X-5572Y20399D01*
X-5545Y20387D01*
X-5521Y20382D01*
X-5500D01*
X-5482Y20387D01*
X-5466Y20399D01*
X-5749Y20116D01*
X-5737Y20131D01*
X-5732Y20150D01*
Y20171D01*
X-5737Y20195D01*
X-5749Y20222D01*
X-5766Y20252D01*
X-5788Y20284D01*
X-5817Y20320D01*
X-5890Y20399D01*
X-5749Y20540D01*
X-5708Y20501D01*
D02*
G37*
G36*
X4951Y20101D02*
X5249D01*
X5240Y20099D01*
X5231Y20093D01*
X5224Y20083D01*
X5218Y20069D01*
X5212Y20051D01*
X5208Y20029D01*
X5204Y20003D01*
X5200Y19939D01*
X5200Y19901D01*
X5000D01*
X5000Y19939D01*
X4992Y20029D01*
X4988Y20051D01*
X4982Y20069D01*
X4976Y20083D01*
X4969Y20093D01*
X4960Y20099D01*
X4951Y20101D01*
X4949Y20110D01*
X4943Y20119D01*
X4933Y20126D01*
X4919Y20132D01*
X4901Y20138D01*
X4879Y20142D01*
X4853Y20146D01*
X4789Y20150D01*
X4751Y20150D01*
Y20350D01*
X4789Y20350D01*
X4879Y20358D01*
X4901Y20362D01*
X4919Y20368D01*
X4933Y20374D01*
X4943Y20381D01*
X4949Y20390D01*
X4951Y20399D01*
Y20101D01*
D02*
G37*
G36*
X-4910Y20099D02*
X-4919Y20093D01*
X-4926Y20083D01*
X-4932Y20069D01*
X-4938Y20051D01*
X-4942Y20029D01*
X-4946Y20003D01*
X-4949Y19939D01*
X-4950Y19901D01*
X-5150D01*
X-5150Y19939D01*
X-5158Y20029D01*
X-5162Y20051D01*
X-5168Y20069D01*
X-5174Y20083D01*
X-5181Y20093D01*
X-5190Y20099D01*
X-5199Y20101D01*
X-4901D01*
X-4910Y20099D01*
D02*
G37*
G36*
X6901Y19873D02*
X6861Y19872D01*
X6823Y19869D01*
X6788Y19864D01*
X6754Y19857D01*
X6721Y19847D01*
X6691Y19835D01*
X6663Y19821D01*
X6637Y19805D01*
X6612Y19787D01*
X6589Y19766D01*
X6448Y19908D01*
X6469Y19930D01*
X6487Y19955D01*
X6503Y19981D01*
X6517Y20010D01*
X6529Y20040D01*
X6538Y20072D01*
X6546Y20106D01*
X6551Y20142D01*
X6554Y20179D01*
X6554Y20219D01*
X6901Y19873D01*
D02*
G37*
G36*
X-6562Y20141D02*
X-6568Y20123D01*
Y20102D01*
X-6562Y20077D01*
X-6551Y20051D01*
X-6534Y20021D01*
X-6512Y19988D01*
X-6483Y19953D01*
X-6410Y19874D01*
X-6551Y19732D01*
X-6592Y19772D01*
X-6666Y19834D01*
X-6698Y19857D01*
X-6728Y19874D01*
X-6755Y19885D01*
X-6779Y19891D01*
X-6800D01*
X-6818Y19885D01*
X-6834Y19874D01*
X-6551Y20157D01*
X-6562Y20141D01*
D02*
G37*
G36*
X13082Y20847D02*
X13173Y20809D01*
X13255Y20755D01*
X13324Y20685D01*
X13379Y20603D01*
X13417Y20512D01*
X13436Y20415D01*
Y20366D01*
Y19004D01*
X13438Y18955D01*
X13457Y18859D01*
X13495Y18768D01*
X13549Y18687D01*
X13619Y18617D01*
X13700Y18563D01*
X13791Y18525D01*
X13887Y18506D01*
X13936Y18504D01*
X15741D01*
X15838Y18485D01*
X15929Y18447D01*
X16010Y18392D01*
X16080Y18323D01*
X16135Y18241D01*
X16173Y18150D01*
X16192Y18053D01*
Y18004D01*
Y15854D01*
Y15805D01*
X16173Y15708D01*
X16135Y15617D01*
X16080Y15536D01*
X16010Y15466D01*
X15929Y15411D01*
X15838Y15374D01*
X15741Y15354D01*
X13890D01*
X13846Y15352D01*
X13758Y15335D01*
X13676Y15301D01*
X13602Y15251D01*
X13539Y15188D01*
X13489Y15114D01*
X13455Y15032D01*
X13438Y14945D01*
X13436Y14900D01*
Y10038D01*
X13386Y10018D01*
X12568Y10835D01*
X12485Y10899D01*
X12387Y10940D01*
X12283Y10953D01*
X12283Y10953D01*
X11947D01*
Y11222D01*
X11985Y11260D01*
X11985Y11260D01*
X12049Y11344D01*
X12090Y11441D01*
X12103Y11545D01*
X12103Y11545D01*
Y11894D01*
X12105Y11953D01*
X12107Y11971D01*
X12127Y12019D01*
X12142Y12133D01*
Y12842D01*
X12127Y12956D01*
X12082Y13062D01*
X12012Y13154D01*
X11921Y13224D01*
X11814Y13268D01*
X11790Y13271D01*
X11624Y13438D01*
X11787Y13600D01*
X11815Y13626D01*
X11839Y13646D01*
X11876Y13661D01*
X11877Y13661D01*
X11877Y13662D01*
X11921Y13680D01*
X12012Y13750D01*
X12082Y13841D01*
X12127Y13948D01*
X12142Y14062D01*
Y14771D01*
X12127Y14885D01*
X12082Y14991D01*
X12012Y15083D01*
X11921Y15153D01*
X11814Y15197D01*
X11700Y15212D01*
X11586Y15197D01*
X11479Y15153D01*
X11450Y15131D01*
X11421Y15153D01*
X11314Y15197D01*
X11200Y15212D01*
X11086Y15197D01*
X10979Y15153D01*
X10950Y15131D01*
X10921Y15153D01*
X10814Y15197D01*
X10700Y15212D01*
X10586Y15197D01*
X10479Y15153D01*
X10388Y15083D01*
X10351Y15035D01*
X10328Y15031D01*
X10300Y15033D01*
X10290Y15037D01*
X10271Y15052D01*
X10248Y15073D01*
X10240Y15077D01*
X10233Y15083D01*
X10205Y15095D01*
X10178Y15109D01*
X10169Y15111D01*
X10160Y15115D01*
X10131Y15119D01*
X10101Y15126D01*
X10092Y15125D01*
X10082Y15127D01*
X10062Y15125D01*
X9820Y15367D01*
X9839Y15413D01*
X11066D01*
X11066Y15413D01*
X11171Y15427D01*
X11268Y15467D01*
X11352Y15531D01*
X11585Y15765D01*
X11585Y15765D01*
X11649Y15848D01*
X11690Y15946D01*
X11692Y15960D01*
X11750D01*
Y16241D01*
X11751Y16246D01*
X11750Y16254D01*
X11751Y16261D01*
X11750Y16272D01*
Y16548D01*
X11751Y16559D01*
X11750Y16566D01*
X11751Y16574D01*
X11750Y16579D01*
Y16860D01*
X11703Y16868D01*
X11690Y16973D01*
X11649Y17070D01*
X11585Y17154D01*
X11585Y17154D01*
X11231Y17508D01*
X11147Y17572D01*
X11050Y17612D01*
X10946Y17626D01*
X10946Y17626D01*
X10445D01*
X10443Y17627D01*
X10439Y17628D01*
X10432Y17631D01*
X10424Y17635D01*
X10414Y17642D01*
X10401Y17652D01*
X10387Y17664D01*
X10369Y17681D01*
X10366Y17684D01*
X10267Y17766D01*
X10154Y17826D01*
X10032Y17863D01*
X9904Y17876D01*
X9777Y17863D01*
X9654Y17826D01*
X9541Y17766D01*
X9442Y17684D01*
X9429Y17668D01*
X9379D01*
X9366Y17684D01*
X9267Y17766D01*
X9154Y17826D01*
X9032Y17863D01*
X8904Y17876D01*
X8777Y17863D01*
X8654Y17826D01*
X8541Y17766D01*
X8443Y17684D01*
X8429Y17668D01*
X8379D01*
X8366Y17684D01*
X8267Y17766D01*
X8154Y17826D01*
X8032Y17863D01*
X7904Y17876D01*
X7777Y17863D01*
X7654Y17826D01*
X7541Y17766D01*
X7442Y17684D01*
X7361Y17586D01*
X7318Y17505D01*
X7259Y17500D01*
X7225Y17544D01*
X7202Y17561D01*
X7203Y17567D01*
X7203Y17570D01*
X7203Y17573D01*
X7199Y17609D01*
X7194Y17646D01*
X7193Y17648D01*
X7193Y17651D01*
X7179Y17685D01*
X7166Y17719D01*
X7164Y17721D01*
X7163Y17724D01*
X7140Y17753D01*
X7119Y17783D01*
X7116Y17784D01*
X7115Y17787D01*
X7086Y17809D01*
X7057Y17832D01*
X7054Y17833D01*
X7052Y17835D01*
X7018Y17849D01*
X6984Y17863D01*
X6982Y17864D01*
X6979Y17865D01*
X6943Y17870D01*
X6906Y17875D01*
X6875Y17876D01*
X6856Y17877D01*
X6841Y17879D01*
X6829Y17882D01*
X6820Y17885D01*
X6813Y17887D01*
X6809Y17889D01*
X6807Y17890D01*
X6570Y18127D01*
X6487Y18192D01*
X6389Y18232D01*
X6285Y18246D01*
X6285Y18246D01*
X5344D01*
X5342Y18246D01*
X5339Y18247D01*
X5333Y18249D01*
X5326Y18254D01*
X5317Y18260D01*
X5305Y18269D01*
X5291Y18281D01*
X5270Y18302D01*
X5241Y18325D01*
X5213Y18348D01*
X5210Y18349D01*
X5208Y18351D01*
X5174Y18365D01*
X5140Y18380D01*
X5137Y18380D01*
X5135Y18381D01*
X5099Y18386D01*
X5062Y18392D01*
X5059Y18392D01*
X5057Y18392D01*
X5020Y18387D01*
X4984Y18383D01*
X4981Y18382D01*
X4978Y18382D01*
X4944Y18368D01*
X4910Y18355D01*
X4908Y18353D01*
X4905Y18352D01*
X4876Y18330D01*
X4850Y18311D01*
Y17850D01*
X4750D01*
Y18297D01*
X4683Y18288D01*
X4579Y18246D01*
X4577Y18246D01*
X4573Y18248D01*
X4539Y18256D01*
X4505Y18265D01*
X4500Y18265D01*
X4496Y18266D01*
X4461Y18264D01*
X4426Y18264D01*
X4421Y18262D01*
X4417Y18262D01*
X4384Y18252D01*
X4350Y18242D01*
X4346Y18240D01*
X4342Y18239D01*
X4312Y18220D01*
X4282Y18202D01*
X4279Y18199D01*
X4275Y18196D01*
X4251Y18170D01*
X4227Y18145D01*
X4225Y18141D01*
X4221Y18138D01*
X4205Y18107D01*
X4203Y18103D01*
X3350D01*
Y18800D01*
X2137D01*
X2132Y18807D01*
X2148Y18872D01*
X2213Y18907D01*
X2312Y18988D01*
X2393Y19087D01*
X2453Y19200D01*
X2491Y19323D01*
X2503Y19450D01*
X2491Y19577D01*
X2453Y19700D01*
X2402Y19797D01*
X2425Y19847D01*
X4650D01*
Y19569D01*
X4649Y19564D01*
X4650Y19556D01*
X4649Y19549D01*
X4650Y19538D01*
Y18950D01*
X5788D01*
X5799Y18949D01*
X5806Y18950D01*
X5814Y18949D01*
X5819Y18950D01*
X6100D01*
Y18999D01*
X6186Y19010D01*
X6283Y19051D01*
X6367Y19115D01*
X6807Y19555D01*
X6809Y19556D01*
X6813Y19558D01*
X6820Y19561D01*
X6829Y19563D01*
X6841Y19566D01*
X6856Y19568D01*
X6875Y19570D01*
X6899Y19570D01*
X6904Y19569D01*
X7032Y19582D01*
X7154Y19619D01*
X7267Y19680D01*
X7366Y19761D01*
X7379Y19777D01*
X7429D01*
X7442Y19761D01*
X7541Y19680D01*
X7654Y19619D01*
X7777Y19582D01*
X7904Y19569D01*
X8032Y19582D01*
X8154Y19619D01*
X8267Y19680D01*
X8366Y19761D01*
X8379Y19777D01*
X8429D01*
X8443Y19761D01*
X8541Y19680D01*
X8654Y19619D01*
X8777Y19582D01*
X8904Y19569D01*
X9032Y19582D01*
X9154Y19619D01*
X9211Y19650D01*
X9254Y19624D01*
Y19573D01*
X10554D01*
Y20866D01*
X12985D01*
X13082Y20847D01*
D02*
G37*
G36*
X5200Y19711D02*
X5208Y19621D01*
X5212Y19599D01*
X5218Y19581D01*
X5224Y19567D01*
X5231Y19557D01*
X5240Y19551D01*
X5249Y19549D01*
X4951D01*
X4960Y19551D01*
X4969Y19557D01*
X4976Y19567D01*
X4982Y19581D01*
X4988Y19599D01*
X4992Y19621D01*
X4996Y19647D01*
X5000Y19711D01*
X5000Y19749D01*
X5200D01*
X5200Y19711D01*
D02*
G37*
G36*
X-4949D02*
X-4942Y19621D01*
X-4938Y19599D01*
X-4932Y19581D01*
X-4926Y19567D01*
X-4919Y19557D01*
X-4910Y19551D01*
X-4901Y19549D01*
X-5199D01*
X-5190Y19551D01*
X-5181Y19557D01*
X-5174Y19567D01*
X-5168Y19581D01*
X-5162Y19599D01*
X-5158Y19621D01*
X-5154Y19647D01*
X-5150Y19711D01*
X-5150Y19749D01*
X-4950D01*
X-4949Y19711D01*
D02*
G37*
G36*
X-1694Y19765D02*
X-1714Y19742D01*
X-1733Y19718D01*
X-1749Y19691D01*
X-1763Y19663D01*
X-1774Y19633D01*
X-1784Y19601D01*
X-1791Y19567D01*
X-1796Y19531D01*
X-1799Y19493D01*
X-1800Y19453D01*
X-2146Y19800D01*
X-2107Y19801D01*
X-2069Y19804D01*
X-2033Y19809D01*
X-1999Y19816D01*
X-1967Y19826D01*
X-1937Y19837D01*
X-1909Y19851D01*
X-1882Y19867D01*
X-1858Y19886D01*
X-1835Y19906D01*
X-1694Y19765D01*
D02*
G37*
G36*
X5801Y19540D02*
X5807Y19531D01*
X5817Y19524D01*
X5831Y19518D01*
X5849Y19512D01*
X5871Y19508D01*
X5897Y19504D01*
X5961Y19500D01*
X5999Y19500D01*
Y19300D01*
X5961Y19299D01*
X5871Y19292D01*
X5849Y19288D01*
X5831Y19282D01*
X5817Y19276D01*
X5807Y19269D01*
X5801Y19260D01*
X5799Y19251D01*
Y19549D01*
X5801Y19540D01*
D02*
G37*
G36*
X-4899D02*
X-4893Y19531D01*
X-4883Y19524D01*
X-4869Y19518D01*
X-4851Y19512D01*
X-4829Y19508D01*
X-4803Y19504D01*
X-4739Y19500D01*
X-4701Y19500D01*
Y19300D01*
X-4739Y19299D01*
X-4829Y19292D01*
X-4851Y19288D01*
X-4869Y19282D01*
X-4883Y19276D01*
X-4893Y19269D01*
X-4899Y19260D01*
X-4901Y19251D01*
Y19549D01*
X-4899Y19540D01*
D02*
G37*
G36*
X-5749Y19251D02*
X-5751Y19260D01*
X-5757Y19269D01*
X-5767Y19276D01*
X-5781Y19282D01*
X-5799Y19288D01*
X-5821Y19292D01*
X-5847Y19296D01*
X-5911Y19299D01*
X-5949Y19300D01*
Y19500D01*
X-5911Y19500D01*
X-5821Y19508D01*
X-5799Y19512D01*
X-5781Y19518D01*
X-5767Y19524D01*
X-5757Y19531D01*
X-5751Y19540D01*
X-5749Y19549D01*
Y19251D01*
D02*
G37*
G36*
X-2362Y19172D02*
X-2396Y19196D01*
X-2461Y19237D01*
X-2493Y19254D01*
X-2525Y19268D01*
X-2556Y19279D01*
X-2587Y19288D01*
X-2617Y19295D01*
X-2647Y19299D01*
X-2676Y19300D01*
X-2706Y19500D01*
X-2675Y19502D01*
X-2644Y19506D01*
X-2615Y19514D01*
X-2586Y19525D01*
X-2558Y19539D01*
X-2531Y19556D01*
X-2505Y19577D01*
X-2480Y19600D01*
X-2456Y19627D01*
X-2432Y19657D01*
X-2362Y19172D01*
D02*
G37*
G36*
X-10168Y20816D02*
X-10263Y20766D01*
X-10362Y20684D01*
X-10443Y20585D01*
X-10503Y20473D01*
X-10541Y20350D01*
X-10553Y20223D01*
X-10541Y20095D01*
X-10503Y19973D01*
X-10443Y19860D01*
X-10362Y19761D01*
X-10263Y19680D01*
X-10150Y19619D01*
X-10027Y19582D01*
X-9900Y19569D01*
X-9773Y19582D01*
X-9650Y19619D01*
X-9537Y19680D01*
X-9438Y19761D01*
X-9425Y19777D01*
X-9375D01*
X-9362Y19761D01*
X-9263Y19680D01*
X-9150Y19619D01*
X-9027Y19582D01*
X-8900Y19569D01*
X-8773Y19582D01*
X-8650Y19619D01*
X-8537Y19680D01*
X-8438Y19761D01*
X-8425Y19777D01*
X-8375D01*
X-8362Y19761D01*
X-8263Y19680D01*
X-8150Y19619D01*
X-8027Y19582D01*
X-7900Y19569D01*
X-7773Y19582D01*
X-7650Y19619D01*
X-7593Y19650D01*
X-7550Y19624D01*
Y19573D01*
X-6845D01*
X-6834Y19571D01*
X-6825Y19572D01*
X-6796Y19548D01*
X-6363Y19115D01*
X-6363Y19115D01*
X-6279Y19051D01*
X-6182Y19010D01*
X-6077Y18997D01*
X-6050Y18959D01*
Y18950D01*
X-5769D01*
X-5764Y18949D01*
X-5756Y18950D01*
X-5749Y18949D01*
X-5738Y18950D01*
X-4912D01*
X-4901Y18949D01*
X-4894Y18950D01*
X-4886Y18949D01*
X-4881Y18950D01*
X-4600D01*
Y18997D01*
X-2669D01*
X-2668Y18996D01*
X-2661Y18995D01*
X-2651Y18992D01*
X-2639Y18988D01*
X-2625Y18981D01*
X-2612Y18974D01*
X-2566Y18945D01*
X-2541Y18927D01*
X-2532Y18923D01*
X-2513Y18907D01*
X-2400Y18847D01*
X-2277Y18809D01*
X-2150Y18797D01*
X-2023Y18809D01*
X-1900Y18847D01*
X-1787Y18907D01*
X-1688Y18988D01*
X-1675Y19004D01*
X-1625D01*
X-1612Y18988D01*
X-1513Y18907D01*
X-1400Y18847D01*
X-1277Y18809D01*
X-1150Y18797D01*
X-1023Y18809D01*
X-900Y18847D01*
X-787Y18907D01*
X-688Y18988D01*
X-675Y19004D01*
X-625D01*
X-612Y18988D01*
X-513Y18907D01*
X-400Y18847D01*
X-277Y18809D01*
X-150Y18797D01*
X-23Y18809D01*
X100Y18847D01*
X213Y18907D01*
X312Y18988D01*
X325Y19004D01*
X375D01*
X388Y18988D01*
X487Y18907D01*
X600Y18847D01*
X723Y18809D01*
X850Y18797D01*
X977Y18809D01*
X1100Y18847D01*
X1213Y18907D01*
X1312Y18988D01*
X1325Y19004D01*
X1375D01*
X1388Y18988D01*
X1487Y18907D01*
X1600Y18847D01*
X1706Y18814D01*
X1750Y18800D01*
Y18553D01*
X-543D01*
X-647Y18540D01*
X-745Y18499D01*
X-828Y18435D01*
X-828Y18435D01*
X-1085Y18178D01*
X-1149Y18095D01*
X-1176Y18029D01*
X-1250D01*
Y17983D01*
X-1600D01*
Y18029D01*
X-1881D01*
X-1886Y18030D01*
X-1894Y18030D01*
X-1901Y18031D01*
X-1912Y18029D01*
X-3050D01*
Y17886D01*
X-3096Y17867D01*
X-3365Y18135D01*
X-3448Y18199D01*
X-3546Y18240D01*
X-3650Y18253D01*
X-3650Y18253D01*
X-4259D01*
X-4261Y18254D01*
X-4266Y18255D01*
X-4272Y18258D01*
X-4280Y18263D01*
X-4291Y18269D01*
X-4303Y18279D01*
X-4318Y18291D01*
X-4340Y18313D01*
X-4369Y18335D01*
X-4399Y18357D01*
X-4401Y18358D01*
X-4403Y18360D01*
X-4438Y18373D01*
X-4472Y18387D01*
X-4474Y18388D01*
X-4477Y18389D01*
X-4514Y18393D01*
X-4550Y18398D01*
X-4553Y18397D01*
X-4555Y18398D01*
X-4592Y18392D01*
X-4628Y18387D01*
X-4631Y18386D01*
X-4633Y18386D01*
X-4667Y18371D01*
X-4701Y18357D01*
X-4703Y18355D01*
X-4706Y18354D01*
X-4735Y18331D01*
X-4750Y18320D01*
Y17850D01*
X-4850D01*
Y18311D01*
X-4876Y18330D01*
X-4905Y18352D01*
X-4908Y18353D01*
X-4910Y18355D01*
X-4944Y18368D01*
X-4978Y18382D01*
X-4981Y18382D01*
X-4984Y18383D01*
X-5020Y18387D01*
X-5057Y18392D01*
X-5059Y18392D01*
X-5062Y18392D01*
X-5098Y18386D01*
X-5135Y18381D01*
X-5137Y18380D01*
X-5140Y18380D01*
X-5174Y18365D01*
X-5208Y18351D01*
X-5210Y18349D01*
X-5213Y18348D01*
X-5241Y18325D01*
X-5270Y18302D01*
X-5291Y18281D01*
X-5305Y18269D01*
X-5317Y18260D01*
X-5326Y18254D01*
X-5333Y18249D01*
X-5339Y18247D01*
X-5342Y18246D01*
X-5344Y18246D01*
X-9280D01*
X-9385Y18232D01*
X-9482Y18192D01*
X-9566Y18127D01*
X-9803Y17890D01*
X-9805Y17889D01*
X-9809Y17887D01*
X-9815Y17885D01*
X-9824Y17882D01*
X-9836Y17879D01*
X-9852Y17877D01*
X-9871Y17876D01*
X-9902Y17875D01*
X-9938Y17870D01*
X-9975Y17865D01*
X-9977Y17864D01*
X-9980Y17863D01*
X-10014Y17849D01*
X-10048Y17835D01*
X-10050Y17833D01*
X-10052Y17832D01*
X-10081Y17809D01*
X-10110Y17787D01*
X-10112Y17784D01*
X-10114Y17783D01*
X-10126Y17767D01*
X-10145Y17770D01*
X-10147Y17770D01*
X-10150Y17770D01*
X-10186Y17765D01*
X-10223Y17761D01*
X-10226Y17760D01*
X-10228Y17760D01*
X-10262Y17746D01*
X-10297Y17732D01*
X-10299Y17731D01*
X-10301Y17730D01*
X-10330Y17707D01*
X-10360Y17685D01*
X-10382Y17664D01*
X-10397Y17652D01*
X-10409Y17642D01*
X-10420Y17635D01*
X-10428Y17631D01*
X-10434Y17628D01*
X-10439Y17627D01*
X-10441Y17626D01*
X-11723D01*
X-11827Y17612D01*
X-11924Y17572D01*
X-12008Y17508D01*
X-12935Y16581D01*
X-12999Y16497D01*
X-13040Y16400D01*
X-13053Y16295D01*
X-13053Y16295D01*
Y15100D01*
X-13053Y15100D01*
X-13053Y15100D01*
Y15009D01*
X-13055Y14950D01*
X-13057Y14929D01*
X-13062Y14918D01*
X-13062Y14914D01*
X-13064Y14910D01*
X-13067Y14875D01*
X-13072Y14840D01*
X-13071Y14835D01*
X-13072Y14831D01*
X-13066Y14796D01*
X-13062Y14761D01*
X-13060Y14757D01*
X-13059Y14753D01*
X-13053Y14740D01*
Y14703D01*
X-13063Y14678D01*
X-13076Y14649D01*
X-13078Y14641D01*
X-13080Y14633D01*
X-13084Y14602D01*
X-13089Y14571D01*
X-13089Y14563D01*
X-13091Y14558D01*
X-13096Y14550D01*
X-13103Y14540D01*
X-13113Y14526D01*
X-13125Y14512D01*
X-13290Y14347D01*
X-13336Y14366D01*
Y14854D01*
X-13338Y14903D01*
X-13357Y14999D01*
X-13395Y15090D01*
X-13449Y15172D01*
X-13519Y15241D01*
X-13600Y15295D01*
X-13691Y15333D01*
X-13787Y15352D01*
X-13836Y15354D01*
X-15641D01*
X-15738Y15374D01*
X-15829Y15411D01*
X-15910Y15466D01*
X-15980Y15536D01*
X-16035Y15617D01*
X-16072Y15708D01*
X-16092Y15805D01*
Y15854D01*
Y18004D01*
Y18053D01*
X-16072Y18150D01*
X-16035Y18241D01*
X-15980Y18323D01*
X-15910Y18392D01*
X-15829Y18447D01*
X-15738Y18485D01*
X-15641Y18504D01*
X-13836D01*
X-13787Y18506D01*
X-13691Y18525D01*
X-13600Y18563D01*
X-13519Y18617D01*
X-13449Y18687D01*
X-13395Y18768D01*
X-13357Y18859D01*
X-13338Y18955D01*
X-13336Y19004D01*
Y20366D01*
Y20415D01*
X-13317Y20512D01*
X-13279Y20603D01*
X-13224Y20685D01*
X-13155Y20754D01*
X-13073Y20809D01*
X-12982Y20847D01*
X-12885Y20866D01*
X-12836D01*
Y20866D01*
X-10181D01*
X-10168Y20816D01*
D02*
G37*
G36*
X2052Y17950D02*
X2050Y17969D01*
X2044Y17986D01*
X2034Y18001D01*
X2020Y18014D01*
X2002Y18025D01*
X1980Y18034D01*
X1954Y18041D01*
X1924Y18046D01*
X1889Y18049D01*
X1851Y18050D01*
Y18250D01*
X1889Y18251D01*
X1924Y18254D01*
X1954Y18259D01*
X1980Y18266D01*
X2002Y18275D01*
X2020Y18286D01*
X2034Y18299D01*
X2044Y18314D01*
X2050Y18331D01*
X2052Y18350D01*
Y17950D01*
D02*
G37*
G36*
X-699Y17862D02*
X-696Y17809D01*
X-692Y17787D01*
X-688Y17769D01*
X-682Y17754D01*
X-676Y17743D01*
X-669Y17735D01*
X-660Y17730D01*
X-651Y17728D01*
X-949D01*
X-940Y17730D01*
X-931Y17735D01*
X-924Y17743D01*
X-918Y17754D01*
X-912Y17769D01*
X-908Y17787D01*
X-904Y17809D01*
X-902Y17834D01*
X-900Y17893D01*
X-700D01*
X-699Y17862D01*
D02*
G37*
G36*
X-4521Y18067D02*
X-4493Y18043D01*
X-4464Y18021D01*
X-4435Y18002D01*
X-4405Y17986D01*
X-4375Y17973D01*
X-4346Y17963D01*
X-4315Y17956D01*
X-4285Y17951D01*
X-4255Y17950D01*
Y17750D01*
X-4285Y17749D01*
X-4315Y17744D01*
X-4346Y17737D01*
X-4375Y17727D01*
X-4405Y17714D01*
X-4435Y17698D01*
X-4464Y17679D01*
X-4493Y17657D01*
X-4521Y17633D01*
X-4550Y17605D01*
Y18095D01*
X-4521Y18067D01*
D02*
G37*
G36*
X5083Y18061D02*
X5111Y18036D01*
X5140Y18014D01*
X5168Y17995D01*
X5197Y17979D01*
X5227Y17966D01*
X5257Y17955D01*
X5287Y17948D01*
X5317Y17944D01*
X5348Y17942D01*
X5343Y17742D01*
X5313Y17741D01*
X5282Y17736D01*
X5252Y17729D01*
X5222Y17719D01*
X5192Y17706D01*
X5162Y17691D01*
X5133Y17672D01*
X5103Y17651D01*
X5074Y17627D01*
X5044Y17599D01*
X5055Y18089D01*
X5083Y18061D01*
D02*
G37*
G36*
X-5044Y17599D02*
X-5074Y17627D01*
X-5103Y17651D01*
X-5133Y17672D01*
X-5162Y17691D01*
X-5192Y17706D01*
X-5222Y17719D01*
X-5252Y17729D01*
X-5282Y17736D01*
X-5313Y17741D01*
X-5343Y17742D01*
X-5348Y17942D01*
X-5317Y17944D01*
X-5287Y17948D01*
X-5257Y17955D01*
X-5227Y17966D01*
X-5197Y17979D01*
X-5168Y17995D01*
X-5140Y18014D01*
X-5111Y18036D01*
X-5083Y18061D01*
X-5055Y18089D01*
X-5044Y17599D01*
D02*
G37*
G36*
X4674Y17523D02*
X4635Y17538D01*
X4492Y17581D01*
X4460Y17588D01*
X4400Y17597D01*
X4372Y17599D01*
X4345Y17600D01*
X4244Y17800D01*
X4276Y17802D01*
X4307Y17807D01*
X4335Y17815D01*
X4361Y17826D01*
X4384Y17841D01*
X4406Y17859D01*
X4425Y17880D01*
X4442Y17905D01*
X4457Y17933D01*
X4469Y17964D01*
X4674Y17523D01*
D02*
G37*
G36*
X-1899Y17719D02*
X-1893Y17711D01*
X-1883Y17703D01*
X-1869Y17697D01*
X-1851Y17692D01*
X-1829Y17687D01*
X-1803Y17684D01*
X-1739Y17680D01*
X-1701Y17679D01*
Y17479D01*
X-1739Y17479D01*
X-1829Y17472D01*
X-1851Y17467D01*
X-1869Y17462D01*
X-1883Y17455D01*
X-1893Y17448D01*
X-1899Y17440D01*
X-1901Y17431D01*
Y17728D01*
X-1899Y17719D01*
D02*
G37*
G36*
X-2475Y17429D02*
X-2480Y17425D01*
X-2485Y17419D01*
X-2489Y17410D01*
X-2492Y17398D01*
X-2495Y17384D01*
X-2497Y17367D01*
X-2500Y17325D01*
X-2500Y17300D01*
X-2700D01*
X-2700Y17325D01*
X-2705Y17384D01*
X-2708Y17398D01*
X-2711Y17410D01*
X-2715Y17419D01*
X-2720Y17425D01*
X-2725Y17429D01*
X-2731Y17431D01*
X-2469D01*
X-2475Y17429D01*
D02*
G37*
G36*
X-110Y17429D02*
X-119Y17423D01*
X-126Y17413D01*
X-132Y17399D01*
X-138Y17381D01*
X-142Y17359D01*
X-146Y17333D01*
X-149Y17269D01*
X-150Y17231D01*
X-350D01*
X-350Y17269D01*
X-358Y17359D01*
X-362Y17381D01*
X-368Y17399D01*
X-374Y17413D01*
X-381Y17423D01*
X-390Y17429D01*
X-399Y17431D01*
X-101D01*
X-110Y17429D01*
D02*
G37*
G36*
X-949Y17431D02*
X-651D01*
X-660Y17429D01*
X-669Y17423D01*
X-676Y17413D01*
X-682Y17399D01*
X-688Y17381D01*
X-692Y17359D01*
X-696Y17333D01*
X-699Y17269D01*
X-700Y17231D01*
X-900D01*
X-900Y17269D01*
X-908Y17359D01*
X-912Y17381D01*
X-918Y17399D01*
X-924Y17413D01*
X-931Y17423D01*
X-940Y17429D01*
X-949Y17431D01*
X-951Y17440D01*
X-957Y17448D01*
X-967Y17455D01*
X-981Y17462D01*
X-999Y17467D01*
X-1021Y17472D01*
X-1047Y17475D01*
X-1111Y17479D01*
X-1149Y17479D01*
Y17679D01*
X-1111Y17680D01*
X-1021Y17687D01*
X-999Y17692D01*
X-981Y17697D01*
X-967Y17703D01*
X-957Y17711D01*
X-951Y17719D01*
X-949Y17728D01*
Y17431D01*
D02*
G37*
G36*
X6612Y17658D02*
X6637Y17640D01*
X6663Y17624D01*
X6691Y17610D01*
X6721Y17598D01*
X6754Y17589D01*
X6788Y17581D01*
X6823Y17576D01*
X6861Y17573D01*
X6901Y17573D01*
X6554Y17226D01*
X6554Y17266D01*
X6551Y17304D01*
X6546Y17339D01*
X6538Y17373D01*
X6529Y17406D01*
X6517Y17436D01*
X6503Y17464D01*
X6487Y17490D01*
X6469Y17515D01*
X6448Y17538D01*
X6589Y17679D01*
X6612Y17658D01*
D02*
G37*
G36*
X-9444Y17538D02*
X-9464Y17515D01*
X-9483Y17490D01*
X-9499Y17464D01*
X-9513Y17436D01*
X-9524Y17406D01*
X-9534Y17373D01*
X-9541Y17339D01*
X-9546Y17304D01*
X-9549Y17266D01*
X-9550Y17226D01*
X-9896Y17573D01*
X-9857Y17573D01*
X-9819Y17576D01*
X-9783Y17581D01*
X-9749Y17589D01*
X-9717Y17598D01*
X-9687Y17610D01*
X-9659Y17624D01*
X-9632Y17640D01*
X-9608Y17658D01*
X-9585Y17679D01*
X-9444Y17538D01*
D02*
G37*
G36*
X951Y17201D02*
X810Y17060D01*
X739Y17272D01*
X951Y17499D01*
Y17201D01*
D02*
G37*
G36*
X10183Y17440D02*
X10212Y17415D01*
X10241Y17394D01*
X10270Y17375D01*
X10299Y17359D01*
X10329Y17346D01*
X10359Y17336D01*
X10389Y17328D01*
X10419Y17324D01*
X10450Y17323D01*
Y17123D01*
X10419Y17121D01*
X10389Y17117D01*
X10359Y17110D01*
X10329Y17099D01*
X10299Y17086D01*
X10270Y17070D01*
X10241Y17052D01*
X10212Y17030D01*
X10183Y17005D01*
X10154Y16978D01*
Y17468D01*
X10183Y17440D01*
D02*
G37*
G36*
X-10150Y16978D02*
X-10178Y17005D01*
X-10207Y17030D01*
X-10236Y17052D01*
X-10265Y17070D01*
X-10295Y17086D01*
X-10325Y17099D01*
X-10354Y17110D01*
X-10385Y17117D01*
X-10415Y17121D01*
X-10445Y17123D01*
Y17323D01*
X-10415Y17324D01*
X-10385Y17328D01*
X-10354Y17336D01*
X-10325Y17346D01*
X-10295Y17359D01*
X-10265Y17375D01*
X-10236Y17394D01*
X-10207Y17415D01*
X-10178Y17440D01*
X-10150Y17468D01*
Y16978D01*
D02*
G37*
G36*
X-150Y17078D02*
X-139Y16924D01*
X-136Y16918D01*
X-133Y16916D01*
X-367D01*
X-364Y16918D01*
X-361Y16924D01*
X-358Y16934D01*
X-356Y16948D01*
X-354Y16966D01*
X-351Y17044D01*
X-350Y17116D01*
X-150D01*
X-150Y17078D01*
D02*
G37*
G36*
X-699D02*
X-694Y17014D01*
X-689Y16988D01*
X-683Y16966D01*
X-676Y16948D01*
X-667Y16934D01*
X-657Y16924D01*
X-646Y16918D01*
X-633Y16916D01*
X-867D01*
X-873Y16918D01*
X-879Y16924D01*
X-884Y16934D01*
X-888Y16948D01*
X-892Y16966D01*
X-895Y16988D01*
X-899Y17044D01*
X-900Y17116D01*
X-700D01*
X-699Y17078D01*
D02*
G37*
G36*
X508Y16759D02*
X481Y16730D01*
X457Y16702D01*
X436Y16674D01*
X418Y16645D01*
X408Y16628D01*
X457Y16576D01*
X508Y16525D01*
X371Y16379D01*
X370Y16380D01*
X370Y16380D01*
X369Y16381D01*
X368Y16381D01*
X368Y16380D01*
X368Y16380D01*
X367Y16379D01*
X367Y16378D01*
X367Y16377D01*
X367Y16375D01*
Y16476D01*
Y16916D01*
X368Y16914D01*
X373Y16916D01*
X380Y16921D01*
X390Y16928D01*
X418Y16954D01*
X508Y17041D01*
Y16759D01*
D02*
G37*
G36*
X6815Y16884D02*
X6798Y16887D01*
X6780Y16888D01*
X6762Y16886D01*
X6743Y16881D01*
X6724Y16874D01*
X6704Y16864D01*
X6684Y16851D01*
X6663Y16836D01*
X6642Y16818D01*
X6621Y16798D01*
X6479Y16939D01*
X6500Y16961D01*
X6518Y16982D01*
X6533Y17002D01*
X6546Y17022D01*
X6555Y17042D01*
X6563Y17061D01*
X6568Y17080D01*
X6570Y17098D01*
X6569Y17116D01*
X6566Y17133D01*
X6815Y16884D01*
D02*
G37*
G36*
X9255Y17179D02*
X9258Y17142D01*
X9263Y17106D01*
X9270Y17072D01*
X9280Y17040D01*
X9292Y17010D01*
X9306Y16981D01*
X9322Y16955D01*
X9340Y16930D01*
X9361Y16908D01*
X9219Y16766D01*
X9197Y16787D01*
X9172Y16805D01*
X9146Y16821D01*
X9117Y16835D01*
X9087Y16847D01*
X9055Y16857D01*
X9021Y16864D01*
X8985Y16869D01*
X8947Y16872D01*
X8908Y16873D01*
X9254Y17219D01*
X9255Y17179D01*
D02*
G37*
G36*
X-8903Y16873D02*
X-8943Y16872D01*
X-8981Y16869D01*
X-9017Y16864D01*
X-9051Y16857D01*
X-9083Y16847D01*
X-9113Y16835D01*
X-9141Y16821D01*
X-9168Y16805D01*
X-9192Y16787D01*
X-9215Y16766D01*
X-9356Y16908D01*
X-9336Y16930D01*
X-9317Y16955D01*
X-9301Y16981D01*
X-9287Y17010D01*
X-9276Y17040D01*
X-9266Y17072D01*
X-9259Y17106D01*
X-9254Y17142D01*
X-9251Y17179D01*
X-9250Y17219D01*
X-8903Y16873D01*
D02*
G37*
G36*
X-6758Y16903D02*
X-6795Y16886D01*
X-6927Y16815D01*
X-6954Y16797D01*
X-7003Y16761D01*
X-7025Y16743D01*
X-7044Y16724D01*
X-7258Y16794D01*
X-7236Y16818D01*
X-7218Y16843D01*
X-7204Y16868D01*
X-7193Y16895D01*
X-7187Y16922D01*
X-7185Y16950D01*
X-7186Y16979D01*
X-7192Y17008D01*
X-7201Y17038D01*
X-7214Y17069D01*
X-6758Y16903D01*
D02*
G37*
G36*
X11401Y16721D02*
X11408Y16631D01*
X11412Y16609D01*
X11418Y16591D01*
X11424Y16577D01*
X11431Y16567D01*
X11440Y16561D01*
X11449Y16559D01*
X11151D01*
X11160Y16561D01*
X11169Y16567D01*
X11176Y16577D01*
X11182Y16591D01*
X11188Y16609D01*
X11192Y16631D01*
X11196Y16657D01*
X11200Y16721D01*
X11200Y16759D01*
X11400D01*
X11401Y16721D01*
D02*
G37*
G36*
X7700D02*
X7708Y16631D01*
X7712Y16609D01*
X7718Y16591D01*
X7724Y16577D01*
X7731Y16567D01*
X7740Y16561D01*
X7749Y16559D01*
X7451D01*
X7460Y16561D01*
X7469Y16567D01*
X7476Y16577D01*
X7482Y16591D01*
X7488Y16609D01*
X7492Y16631D01*
X7496Y16657D01*
X7500Y16721D01*
X7500Y16759D01*
X7700D01*
X7700Y16721D01*
D02*
G37*
G36*
X-7786Y16892D02*
X-7817Y16879D01*
X-7845Y16865D01*
X-7870Y16848D01*
X-7891Y16828D01*
X-7909Y16807D01*
X-7924Y16783D01*
X-7935Y16757D01*
X-7943Y16729D01*
X-7948Y16701D01*
X-7942Y16631D01*
X-7938Y16609D01*
X-7932Y16591D01*
X-7926Y16577D01*
X-7919Y16567D01*
X-7910Y16561D01*
X-7901Y16559D01*
X-8199D01*
X-8190Y16561D01*
X-8181Y16567D01*
X-8174Y16577D01*
X-8168Y16591D01*
X-8162Y16609D01*
X-8158Y16631D01*
X-8154Y16657D01*
X-8150Y16721D01*
X-8150Y16759D01*
X-8132D01*
X-8150Y16768D01*
X-8151Y16794D01*
X-8153Y16822D01*
X-8162Y16883D01*
X-8169Y16915D01*
X-8199Y17020D01*
X-8212Y17058D01*
X-8227Y17097D01*
X-7786Y16892D01*
D02*
G37*
G36*
X-7210Y16559D02*
X-7249Y16518D01*
X-7312Y16444D01*
X-7334Y16412D01*
X-7351Y16382D01*
X-7362Y16355D01*
X-7368Y16331D01*
Y16310D01*
X-7362Y16291D01*
X-7351Y16276D01*
X-7634Y16559D01*
X-7618Y16547D01*
X-7600Y16542D01*
X-7579D01*
X-7555Y16547D01*
X-7528Y16559D01*
X-7498Y16576D01*
X-7466Y16598D01*
X-7430Y16627D01*
X-7351Y16700D01*
X-7210Y16559D01*
D02*
G37*
G36*
X-1366Y16442D02*
X-1368Y16461D01*
X-1374Y16478D01*
X-1384Y16493D01*
X-1398Y16506D01*
X-1416Y16517D01*
X-1438Y16526D01*
X-1464Y16533D01*
X-1494Y16538D01*
X-1529Y16541D01*
X-1567Y16542D01*
Y16742D01*
X-1529Y16743D01*
X-1494Y16746D01*
X-1464Y16751D01*
X-1438Y16758D01*
X-1416Y16767D01*
X-1398Y16778D01*
X-1384Y16791D01*
X-1374Y16806D01*
X-1368Y16823D01*
X-1366Y16842D01*
Y16442D01*
D02*
G37*
G36*
X2758Y16550D02*
X2741Y16544D01*
X2726Y16534D01*
X2713Y16520D01*
X2702Y16502D01*
X2693Y16480D01*
X2686Y16454D01*
X2681Y16424D01*
X2678Y16389D01*
X2677Y16351D01*
X2477D01*
X2476Y16389D01*
X2473Y16424D01*
X2468Y16454D01*
X2461Y16480D01*
X2452Y16502D01*
X2441Y16520D01*
X2428Y16534D01*
X2413Y16544D01*
X2396Y16550D01*
X2377Y16552D01*
X2777D01*
X2758Y16550D01*
D02*
G37*
G36*
X4981Y16499D02*
X4964Y16493D01*
X4949Y16483D01*
X4936Y16469D01*
X4925Y16451D01*
X4916Y16429D01*
X4909Y16403D01*
X4904Y16373D01*
X4901Y16339D01*
X4900Y16301D01*
X4700D01*
X4699Y16339D01*
X4696Y16373D01*
X4691Y16403D01*
X4684Y16429D01*
X4675Y16451D01*
X4664Y16469D01*
X4651Y16483D01*
X4636Y16493D01*
X4619Y16499D01*
X4600Y16501D01*
X5000D01*
X4981Y16499D01*
D02*
G37*
G36*
X-4619D02*
X-4636Y16493D01*
X-4651Y16483D01*
X-4664Y16469D01*
X-4675Y16451D01*
X-4684Y16429D01*
X-4691Y16403D01*
X-4696Y16373D01*
X-4699Y16339D01*
X-4700Y16301D01*
X-4900D01*
X-4901Y16339D01*
X-4904Y16373D01*
X-4909Y16403D01*
X-4916Y16429D01*
X-4925Y16451D01*
X-4936Y16469D01*
X-4949Y16483D01*
X-4964Y16493D01*
X-4981Y16499D01*
X-5000Y16501D01*
X-4600D01*
X-4619Y16499D01*
D02*
G37*
G36*
X10601Y16261D02*
X10599Y16270D01*
X10593Y16279D01*
X10583Y16286D01*
X10569Y16292D01*
X10551Y16298D01*
X10529Y16302D01*
X10503Y16305D01*
X10439Y16309D01*
X10401Y16310D01*
Y16510D01*
X10439Y16510D01*
X10529Y16518D01*
X10551Y16522D01*
X10569Y16527D01*
X10583Y16534D01*
X10593Y16541D01*
X10599Y16549D01*
X10601Y16559D01*
Y16261D01*
D02*
G37*
G36*
X-10549Y16549D02*
X-10543Y16541D01*
X-10533Y16534D01*
X-10519Y16527D01*
X-10501Y16522D01*
X-10479Y16518D01*
X-10453Y16514D01*
X-10389Y16510D01*
X-10351Y16510D01*
Y16310D01*
X-10389Y16309D01*
X-10479Y16302D01*
X-10501Y16298D01*
X-10519Y16292D01*
X-10533Y16286D01*
X-10543Y16279D01*
X-10549Y16270D01*
X-10551Y16261D01*
Y16559D01*
X-10549Y16549D01*
D02*
G37*
G36*
X-136Y16365D02*
X-139Y16359D01*
X-142Y16349D01*
X-144Y16335D01*
X-146Y16317D01*
X-147Y16290D01*
X-146Y16283D01*
X-144Y16266D01*
X-140Y16250D01*
X-136Y16236D01*
X-130Y16223D01*
X-124Y16211D01*
X-118Y16201D01*
X-110Y16193D01*
X-150D01*
X-150Y16167D01*
X-350D01*
X-350Y16193D01*
X-390D01*
X-382Y16201D01*
X-376Y16211D01*
X-370Y16223D01*
X-364Y16236D01*
X-360Y16250D01*
X-356Y16266D01*
X-355Y16275D01*
X-361Y16359D01*
X-364Y16365D01*
X-367Y16367D01*
X-133D01*
X-136Y16365D01*
D02*
G37*
G36*
X-7394Y16261D02*
X-7395Y16258D01*
X-7396Y16252D01*
X-7397Y16245D01*
X-7399Y16223D01*
X-7400Y16153D01*
X-7600D01*
X-7600Y16174D01*
X-7605Y16258D01*
X-7606Y16261D01*
X-7608Y16262D01*
X-7392D01*
X-7394Y16261D01*
D02*
G37*
G36*
X8286Y16528D02*
X8281Y16510D01*
X8281Y16489D01*
X8287Y16465D01*
X8298Y16438D01*
X8315Y16408D01*
X8338Y16376D01*
X8366Y16340D01*
X8440Y16261D01*
X8299Y16120D01*
X8258Y16159D01*
X8184Y16222D01*
X8151Y16245D01*
X8122Y16262D01*
X8095Y16273D01*
X8071Y16279D01*
X8050Y16279D01*
X8031Y16273D01*
X8016Y16262D01*
X8298Y16544D01*
X8286Y16528D01*
D02*
G37*
G36*
X-1999Y16261D02*
X-1992Y16171D01*
X-1988Y16149D01*
X-1982Y16131D01*
X-1976Y16117D01*
X-1969Y16107D01*
X-1960Y16101D01*
X-1951Y16099D01*
X-2249D01*
X-2240Y16101D01*
X-2231Y16107D01*
X-2224Y16117D01*
X-2218Y16131D01*
X-2212Y16149D01*
X-2208Y16171D01*
X-2204Y16197D01*
X-2200Y16261D01*
X-2200Y16299D01*
X-2000D01*
X-1999Y16261D01*
D02*
G37*
G36*
X11440Y16259D02*
X11431Y16253D01*
X11424Y16243D01*
X11418Y16229D01*
X11412Y16211D01*
X11408Y16189D01*
X11404Y16163D01*
X11401Y16099D01*
X11400Y16061D01*
X11200D01*
X11200Y16099D01*
X11192Y16189D01*
X11188Y16211D01*
X11182Y16229D01*
X11176Y16243D01*
X11169Y16253D01*
X11160Y16259D01*
X11151Y16261D01*
X11449D01*
X11440Y16259D01*
D02*
G37*
G36*
X-2516Y15801D02*
X-2531Y15812D01*
X-2550Y15818D01*
X-2571D01*
X-2595Y15812D01*
X-2622Y15801D01*
X-2652Y15784D01*
X-2684Y15762D01*
X-2720Y15733D01*
X-2799Y15660D01*
X-2940Y15801D01*
X-2901Y15842D01*
X-2838Y15916D01*
X-2816Y15948D01*
X-2799Y15978D01*
X-2787Y16005D01*
X-2782Y16029D01*
Y16050D01*
X-2787Y16068D01*
X-2799Y16084D01*
X-2516Y15801D01*
D02*
G37*
G36*
X2678Y15520D02*
X2681Y15485D01*
X2686Y15455D01*
X2693Y15429D01*
X2702Y15407D01*
X2713Y15389D01*
X2726Y15375D01*
X2741Y15365D01*
X2758Y15359D01*
X2777Y15357D01*
X2377D01*
X2396Y15359D01*
X2413Y15365D01*
X2428Y15375D01*
X2441Y15389D01*
X2452Y15407D01*
X2461Y15429D01*
X2468Y15455D01*
X2473Y15485D01*
X2476Y15520D01*
X2477Y15558D01*
X2677D01*
X2678Y15520D01*
D02*
G37*
G36*
X-3438Y15020D02*
X-3479Y14978D01*
X-3547Y14899D01*
X-3575Y14861D01*
X-3598Y14825D01*
X-3617Y14791D01*
X-3632Y14757D01*
X-3643Y14726D01*
X-3649Y14696D01*
X-3652Y14667D01*
Y15232D01*
X-3650Y15207D01*
X-3646Y15187D01*
X-3639Y15173D01*
X-3629Y15164D01*
X-3616Y15161D01*
X-3600Y15164D01*
X-3582Y15173D01*
X-3560Y15187D01*
X-3536Y15207D01*
X-3509Y15232D01*
X-3438Y15020D01*
D02*
G37*
G36*
X2159Y15457D02*
X2272Y15356D01*
X2274Y15358D01*
Y14918D01*
X2272Y14946D01*
X2268Y14974D01*
X2261Y15002D01*
X2251Y15031D01*
X2238Y15059D01*
X2223Y15087D01*
X2204Y15116D01*
X2183Y15144D01*
X2159Y15172D01*
X2132Y15200D01*
Y15483D01*
X2159Y15457D01*
D02*
G37*
G36*
X3900Y15026D02*
X3908Y14936D01*
X3912Y14914D01*
X3918Y14896D01*
X3924Y14882D01*
X3931Y14872D01*
X3940Y14866D01*
X3949Y14864D01*
X3651D01*
X3660Y14866D01*
X3669Y14872D01*
X3676Y14882D01*
X3682Y14896D01*
X3688Y14914D01*
X3692Y14936D01*
X3696Y14962D01*
X3700Y15026D01*
X3700Y15064D01*
X3900D01*
X3900Y15026D01*
D02*
G37*
G36*
X-4703Y14864D02*
X-5000Y14863D01*
X-4981Y14865D01*
X-4964Y14871D01*
X-4949Y14881D01*
X-4936Y14895D01*
X-4925Y14913D01*
X-4916Y14935D01*
X-4909Y14961D01*
X-4904Y14991D01*
X-4901Y15026D01*
X-4900Y15064D01*
X-4700D01*
X-4703Y14864D01*
D02*
G37*
G36*
X6651Y15505D02*
X6656Y15475D01*
X6663Y15452D01*
X6673Y15436D01*
X6685Y15427D01*
X6701Y15424D01*
X6719Y15429D01*
X6741Y15440D01*
X6765Y15458D01*
X6791Y15483D01*
Y15200D01*
X6765Y15171D01*
X6741Y15141D01*
X6719Y15110D01*
X6701Y15077D01*
X6685Y15044D01*
X6673Y15009D01*
X6663Y14973D01*
X6656Y14936D01*
X6656Y14936D01*
X6659Y14870D01*
X6662Y14857D01*
X6666Y14846D01*
X6669Y14840D01*
X6431D01*
X6434Y14846D01*
X6438Y14857D01*
X6441Y14870D01*
X6443Y14888D01*
X6447Y14933D01*
X6450Y15026D01*
X6450Y15065D01*
X6479D01*
X6450Y15100D01*
X6650Y15541D01*
X6651Y15505D01*
D02*
G37*
G36*
X-9000Y15026D02*
X-8991Y14870D01*
X-8988Y14857D01*
X-8984Y14846D01*
X-8981Y14840D01*
X-9219D01*
X-9216Y14846D01*
X-9212Y14857D01*
X-9209Y14870D01*
X-9207Y14888D01*
X-9203Y14933D01*
X-9200Y15026D01*
X-9200Y15065D01*
X-9000D01*
X-9000Y15026D01*
D02*
G37*
G36*
X-12549Y15505D02*
X-12544Y15475D01*
X-12537Y15452D01*
X-12527Y15436D01*
X-12515Y15427D01*
X-12499Y15424D01*
X-12481Y15429D01*
X-12459Y15440D01*
X-12435Y15458D01*
X-12409Y15483D01*
Y15200D01*
X-12435Y15171D01*
X-12459Y15141D01*
X-12481Y15110D01*
X-12499Y15077D01*
X-12515Y15044D01*
X-12527Y15009D01*
X-12537Y14973D01*
X-12544Y14936D01*
X-12544Y14936D01*
X-12541Y14870D01*
X-12538Y14857D01*
X-12534Y14846D01*
X-12531Y14840D01*
X-12769D01*
X-12766Y14846D01*
X-12762Y14857D01*
X-12759Y14870D01*
X-12757Y14888D01*
X-12753Y14933D01*
X-12750Y15026D01*
X-12750Y15065D01*
X-12721D01*
X-12750Y15100D01*
X-12550Y15541D01*
X-12549Y15505D01*
D02*
G37*
G36*
X5418Y15049D02*
X5493Y14986D01*
X5526Y14963D01*
X5556Y14946D01*
X5583Y14934D01*
X5607Y14929D01*
X5627Y14930D01*
X5645Y14936D01*
X5659Y14949D01*
X5430Y14675D01*
X5658Y14402D01*
X5792D01*
X5784Y14401D01*
X5777Y14397D01*
X5770Y14390D01*
X5765Y14380D01*
X5760Y14367D01*
X5757Y14351D01*
X5754Y14332D01*
X5752Y14311D01*
X5750Y14260D01*
X5550D01*
X5550Y14287D01*
X5546Y14332D01*
X5543Y14351D01*
X5540Y14367D01*
X5535Y14380D01*
X5530Y14389D01*
X5526Y14387D01*
X5493Y14364D01*
X5457Y14335D01*
X5376Y14260D01*
X5260Y14426D01*
X5298Y14466D01*
X5359Y14538D01*
X5381Y14570D01*
X5398Y14600D01*
X5410Y14627D01*
X5416Y14651D01*
X5416Y14658D01*
X5401Y14641D01*
X5411Y14658D01*
X5416Y14675D01*
X5411Y14692D01*
X5401Y14709D01*
X5416Y14692D01*
X5416Y14699D01*
X5410Y14723D01*
X5398Y14750D01*
X5381Y14780D01*
X5359Y14812D01*
X5331Y14847D01*
X5298Y14884D01*
X5260Y14924D01*
X5376Y15090D01*
X5418Y15049D01*
D02*
G37*
G36*
X350Y14795D02*
X361Y14641D01*
X364Y14635D01*
X367Y14633D01*
X133D01*
X136Y14635D01*
X139Y14641D01*
X142Y14651D01*
X144Y14665D01*
X146Y14683D01*
X149Y14761D01*
X150Y14833D01*
X350D01*
X350Y14795D01*
D02*
G37*
G36*
X-650D02*
X-639Y14641D01*
X-636Y14635D01*
X-633Y14633D01*
X-867D01*
X-864Y14635D01*
X-861Y14641D01*
X-858Y14651D01*
X-856Y14665D01*
X-854Y14683D01*
X-851Y14761D01*
X-850Y14833D01*
X-650D01*
X-650Y14795D01*
D02*
G37*
G36*
X-1150D02*
X-1139Y14641D01*
X-1136Y14635D01*
X-1133Y14633D01*
X-1367D01*
X-1364Y14635D01*
X-1361Y14641D01*
X-1358Y14651D01*
X-1356Y14665D01*
X-1354Y14683D01*
X-1351Y14761D01*
X-1350Y14833D01*
X-1150D01*
X-1150Y14795D01*
D02*
G37*
G36*
X-4701Y14855D02*
X-4695Y14846D01*
X-4685Y14839D01*
X-4671Y14833D01*
X-4653Y14827D01*
X-4631Y14823D01*
X-4605Y14819D01*
X-4541Y14815D01*
X-4503Y14815D01*
Y14615D01*
X-4541Y14614D01*
X-4631Y14607D01*
X-4653Y14603D01*
X-4671Y14597D01*
X-4685Y14591D01*
X-4695Y14584D01*
X-4701Y14575D01*
X-4703Y14566D01*
Y14864D01*
X-4701Y14855D01*
D02*
G37*
G36*
X-4139Y14515D02*
X-4141Y14534D01*
X-4147Y14551D01*
X-4157Y14566D01*
X-4171Y14579D01*
X-4189Y14590D01*
X-4211Y14599D01*
X-4238Y14606D01*
X-4268Y14611D01*
X-4302Y14614D01*
X-4340Y14615D01*
Y14815D01*
X-4302Y14816D01*
X-4268Y14819D01*
X-4238Y14824D01*
X-4211Y14831D01*
X-4189Y14840D01*
X-4171Y14851D01*
X-4157Y14864D01*
X-4147Y14879D01*
X-4141Y14896D01*
X-4139Y14915D01*
Y14515D01*
D02*
G37*
G36*
X-10349Y14475D02*
X-10351Y14494D01*
X-10357Y14511D01*
X-10367Y14526D01*
X-10381Y14539D01*
X-10399Y14550D01*
X-10421Y14559D01*
X-10447Y14566D01*
X-10477Y14571D01*
X-10511Y14574D01*
X-10549Y14575D01*
Y14775D01*
X-10511Y14776D01*
X-10477Y14779D01*
X-10447Y14784D01*
X-10421Y14791D01*
X-10399Y14800D01*
X-10381Y14811D01*
X-10367Y14824D01*
X-10357Y14839D01*
X-10351Y14856D01*
X-10349Y14875D01*
Y14475D01*
D02*
G37*
G36*
X-11016Y14774D02*
X-11014Y14759D01*
X-11011Y14746D01*
X-11007Y14737D01*
X-11002Y14731D01*
X-10996Y14727D01*
X-10989Y14727D01*
X-10981Y14730D01*
X-10972Y14736D01*
X-10962Y14746D01*
X-10871Y14554D01*
X-10898Y14526D01*
X-10944Y14472D01*
X-10962Y14447D01*
X-10978Y14422D01*
X-10991Y14398D01*
X-11001Y14375D01*
X-11008Y14354D01*
X-11012Y14332D01*
X-11013Y14312D01*
X-11016Y14793D01*
X-11016Y14774D01*
D02*
G37*
G36*
X9950Y14809D02*
X9976Y14788D01*
X9998Y14772D01*
X10018Y14762D01*
X10035Y14758D01*
X10049Y14760D01*
X10060Y14767D01*
X10068Y14780D01*
X10074Y14799D01*
X10076Y14824D01*
X10063Y14271D01*
X10063Y14299D01*
X10059Y14326D01*
X10052Y14354D01*
X10042Y14382D01*
X10029Y14411D01*
X10014Y14439D01*
X9995Y14467D01*
X9973Y14496D01*
X9948Y14525D01*
X9921Y14554D01*
Y14837D01*
X9950Y14809D01*
D02*
G37*
G36*
X9299Y14401D02*
X9299Y14400D01*
X9301Y14396D01*
X9307Y14388D01*
X9343Y14350D01*
X9432Y14260D01*
X9149D01*
X9120Y14287D01*
X9092Y14311D01*
X9064Y14332D01*
X9035Y14351D01*
X9007Y14367D01*
X8979Y14379D01*
X8950Y14389D01*
X8922Y14397D01*
X8894Y14401D01*
X8866Y14402D01*
X9299Y14401D01*
D02*
G37*
G36*
X-9869Y14544D02*
X-9880Y14530D01*
X-9883Y14512D01*
X-9879Y14490D01*
X-9868Y14464D01*
X-9850Y14434D01*
X-9826Y14399D01*
X-9794Y14360D01*
X-9710Y14271D01*
X-9982Y14260D01*
X-10017Y14294D01*
X-10083Y14348D01*
X-10113Y14369D01*
X-10143Y14386D01*
X-10170Y14398D01*
X-10196Y14405D01*
X-10220Y14409D01*
X-10243Y14408D01*
X-10265Y14402D01*
X-9852Y14554D01*
X-9869Y14544D01*
D02*
G37*
G36*
X8189Y14597D02*
X8195Y14580D01*
X8205Y14565D01*
X8219Y14552D01*
X8237Y14541D01*
X8259Y14532D01*
X8285Y14525D01*
X8315Y14520D01*
X8350Y14517D01*
X8388Y14516D01*
Y14316D01*
X8350Y14315D01*
X8315Y14312D01*
X8285Y14307D01*
X8259Y14300D01*
X8237Y14291D01*
X8219Y14280D01*
X8205Y14267D01*
X8195Y14252D01*
X8189Y14235D01*
X8187Y14216D01*
Y14616D01*
X8189Y14597D01*
D02*
G37*
G36*
X-7461D02*
X-7455Y14580D01*
X-7445Y14565D01*
X-7431Y14552D01*
X-7413Y14541D01*
X-7391Y14532D01*
X-7365Y14525D01*
X-7335Y14520D01*
X-7300Y14517D01*
X-7262Y14516D01*
Y14316D01*
X-7300Y14315D01*
X-7335Y14312D01*
X-7365Y14307D01*
X-7391Y14300D01*
X-7413Y14291D01*
X-7431Y14280D01*
X-7445Y14267D01*
X-7455Y14252D01*
X-7461Y14235D01*
X-7463Y14216D01*
Y14616D01*
X-7461Y14597D01*
D02*
G37*
G36*
X-1873Y14498D02*
X-1883Y14484D01*
X-1887Y14466D01*
X-1883Y14444D01*
X-1872Y14418D01*
X-1854Y14387D01*
X-1830Y14353D01*
X-1798Y14314D01*
X-1714Y14224D01*
X-1985Y14213D01*
X-2021Y14247D01*
X-2087Y14302D01*
X-2117Y14323D01*
X-2146Y14339D01*
X-2174Y14351D01*
X-2200Y14359D01*
X-2224Y14362D01*
X-2247Y14361D01*
X-2268Y14356D01*
X-1856Y14507D01*
X-1873Y14498D01*
D02*
G37*
G36*
X-6401Y14806D02*
X-6397Y14778D01*
X-6389Y14750D01*
X-6379Y14721D01*
X-6367Y14693D01*
X-6351Y14665D01*
X-6332Y14636D01*
X-6311Y14608D01*
X-6287Y14580D01*
X-6260Y14551D01*
Y14305D01*
X-6137Y14428D01*
X-6121Y14413D01*
X-6091Y14388D01*
X-6077Y14378D01*
X-6064Y14369D01*
X-6050Y14362D01*
X-6038Y14357D01*
X-6025Y14353D01*
X-6013Y14351D01*
X-6002Y14350D01*
X-6200Y14152D01*
X-6201Y14163D01*
X-6203Y14175D01*
X-6207Y14188D01*
X-6212Y14200D01*
X-6219Y14214D01*
X-6228Y14227D01*
X-6238Y14241D01*
X-6250Y14256D01*
X-6270Y14278D01*
X-6401Y14401D01*
X-6402Y14834D01*
X-6401Y14806D01*
D02*
G37*
G36*
X3951Y14305D02*
X3957Y14296D01*
X3967Y14289D01*
X3981Y14283D01*
X3999Y14277D01*
X4021Y14273D01*
X4047Y14269D01*
X4111Y14265D01*
X4149Y14265D01*
Y14065D01*
X4111Y14065D01*
X4021Y14057D01*
X3999Y14053D01*
X3981Y14047D01*
X3967Y14041D01*
X3957Y14034D01*
X3951Y14025D01*
X3949Y14016D01*
Y14314D01*
X3951Y14305D01*
D02*
G37*
G36*
X3934Y14016D02*
X3918Y14028D01*
X3900Y14033D01*
X3879D01*
X3855Y14028D01*
X3828Y14016D01*
X3798Y13999D01*
X3766Y13977D01*
X3730Y13948D01*
X3651Y13875D01*
X3510Y14016D01*
X3549Y14057D01*
X3612Y14131D01*
X3634Y14163D01*
X3651Y14193D01*
X3663Y14220D01*
X3668Y14244D01*
Y14265D01*
X3663Y14283D01*
X3651Y14299D01*
X3934Y14016D01*
D02*
G37*
G36*
X-12774Y14008D02*
X-12776Y14033D01*
X-12782Y14052D01*
X-12790Y14066D01*
X-12801Y14073D01*
X-12815Y14075D01*
X-12832Y14071D01*
X-12852Y14061D01*
X-12874Y14045D01*
X-12900Y14023D01*
X-12929Y13996D01*
Y14279D01*
X-12902Y14308D01*
X-12877Y14336D01*
X-12855Y14365D01*
X-12836Y14394D01*
X-12821Y14422D01*
X-12808Y14450D01*
X-12798Y14478D01*
X-12791Y14506D01*
X-12787Y14534D01*
X-12787Y14561D01*
X-12774Y14008D01*
D02*
G37*
G36*
X-133Y14084D02*
X-50Y13884D01*
X-250D01*
X-251Y13922D01*
X-254Y13956D01*
X-259Y13986D01*
X-266Y14012D01*
X-275Y14035D01*
X-286Y14053D01*
X-299Y14067D01*
X-314Y14077D01*
X-331Y14083D01*
X-350Y14085D01*
X-133Y14084D01*
D02*
G37*
G36*
X-4712Y14014D02*
X-4721Y14008D01*
X-4728Y13998D01*
X-4734Y13984D01*
X-4740Y13966D01*
X-4744Y13944D01*
X-4747Y13918D01*
X-4751Y13854D01*
X-4752Y13816D01*
X-4952D01*
X-4952Y13854D01*
X-4960Y13944D01*
X-4964Y13966D01*
X-4969Y13984D01*
X-4976Y13998D01*
X-4983Y14008D01*
X-4991Y14014D01*
X-5001Y14016D01*
X-4703D01*
X-4712Y14014D01*
D02*
G37*
G36*
X8119Y13943D02*
X8108Y13937D01*
X8096Y13930D01*
X8081Y13920D01*
X8048Y13893D01*
X8007Y13857D01*
X7933Y13786D01*
X7772Y13908D01*
X7811Y13948D01*
X7871Y14019D01*
X7893Y14051D01*
X7910Y14081D01*
X7921Y14108D01*
X7928Y14132D01*
X7928Y14154D01*
X7924Y14173D01*
X7913Y14189D01*
X8119Y13943D01*
D02*
G37*
G36*
X11736Y13929D02*
X11723Y13926D01*
X11710Y13921D01*
X11694Y13913D01*
X11677Y13902D01*
X11659Y13889D01*
X11617Y13855D01*
X11569Y13811D01*
X11542Y13785D01*
X11421Y13946D01*
X11457Y13984D01*
X11515Y14053D01*
X11537Y14085D01*
X11553Y14114D01*
X11565Y14141D01*
X11572Y14166D01*
X11574Y14190D01*
X11571Y14210D01*
X11563Y14229D01*
X11736Y13929D01*
D02*
G37*
G36*
X10736D02*
X10723Y13926D01*
X10710Y13921D01*
X10694Y13913D01*
X10677Y13902D01*
X10659Y13889D01*
X10617Y13855D01*
X10569Y13811D01*
X10542Y13785D01*
X10421Y13946D01*
X10457Y13984D01*
X10515Y14053D01*
X10537Y14085D01*
X10553Y14114D01*
X10565Y14141D01*
X10572Y14166D01*
X10574Y14190D01*
X10571Y14210D01*
X10563Y14229D01*
X10736Y13929D01*
D02*
G37*
G36*
X-11114D02*
X-11127Y13926D01*
X-11140Y13921D01*
X-11156Y13913D01*
X-11173Y13902D01*
X-11191Y13889D01*
X-11233Y13855D01*
X-11281Y13811D01*
X-11308Y13785D01*
X-11429Y13946D01*
X-11393Y13984D01*
X-11335Y14053D01*
X-11313Y14085D01*
X-11297Y14114D01*
X-11285Y14141D01*
X-11278Y14166D01*
X-11276Y14190D01*
X-11279Y14210D01*
X-11287Y14229D01*
X-11114Y13929D01*
D02*
G37*
G36*
X-12025Y14130D02*
X-12031Y14112D01*
X-12031Y14091D01*
X-12026Y14068D01*
X-12016Y14042D01*
X-12000Y14013D01*
X-11978Y13982D01*
X-11951Y13948D01*
X-11919Y13911D01*
X-11881Y13872D01*
X-12019Y13727D01*
X-12219Y13943D01*
X-12013Y14145D01*
X-12025Y14130D01*
D02*
G37*
G36*
X-7531Y13943D02*
X-7511Y13949D01*
X-7499Y13949D01*
X-7495Y13943D01*
X-7499Y13930D01*
X-7511Y13910D01*
X-7531Y13884D01*
X-7559Y13852D01*
X-7689Y13715D01*
X-7850Y13837D01*
X-7813Y13875D01*
X-7758Y13942D01*
X-7738Y13971D01*
X-7724Y13998D01*
X-7715Y14022D01*
X-7712Y14043D01*
X-7715Y14062D01*
X-7723Y14077D01*
X-7737Y14091D01*
X-7531Y13943D01*
D02*
G37*
G36*
X-8531D02*
X-8544Y13937D01*
X-8558Y13929D01*
X-8573Y13918D01*
X-8609Y13891D01*
X-8611Y13890D01*
X-8621Y13869D01*
X-8626Y13851D01*
X-8623Y13835D01*
X-8614Y13823D01*
X-8598Y13813D01*
X-8575Y13806D01*
X-8545Y13801D01*
X-8509Y13800D01*
X-8950Y13600D01*
X-9191Y13800D01*
X-9152Y13801D01*
X-9114Y13806D01*
X-9077Y13813D01*
X-9041Y13823D01*
X-9006Y13835D01*
X-8972Y13851D01*
X-8940Y13869D01*
X-8909Y13891D01*
X-8879Y13915D01*
X-8860Y13932D01*
X-8840Y13953D01*
X-8780Y14024D01*
X-8757Y14056D01*
X-8741Y14086D01*
X-8729Y14113D01*
X-8723Y14137D01*
X-8722Y14159D01*
X-8727Y14178D01*
X-8737Y14195D01*
X-8531Y13943D01*
D02*
G37*
G36*
X7119D02*
X7106Y13937D01*
X7092Y13929D01*
X7077Y13918D01*
X7041Y13891D01*
X7039Y13890D01*
X7029Y13869D01*
X7024Y13851D01*
X7027Y13835D01*
X7036Y13823D01*
X7052Y13813D01*
X7075Y13806D01*
X7105Y13801D01*
X7141Y13800D01*
X6700Y13600D01*
X6459Y13800D01*
X6498Y13801D01*
X6536Y13806D01*
X6573Y13813D01*
X6609Y13823D01*
X6644Y13835D01*
X6678Y13851D01*
X6710Y13869D01*
X6741Y13891D01*
X6771Y13915D01*
X6790Y13932D01*
X6810Y13953D01*
X6870Y14024D01*
X6893Y14056D01*
X6909Y14086D01*
X6921Y14113D01*
X6927Y14137D01*
X6928Y14159D01*
X6923Y14178D01*
X6913Y14195D01*
X7119Y13943D01*
D02*
G37*
G36*
X501Y13755D02*
X508Y13665D01*
X512Y13643D01*
X518Y13625D01*
X524Y13611D01*
X531Y13601D01*
X540Y13595D01*
X549Y13593D01*
X251D01*
X260Y13595D01*
X269Y13601D01*
X276Y13611D01*
X282Y13625D01*
X288Y13643D01*
X292Y13665D01*
X296Y13691D01*
X300Y13755D01*
X300Y13793D01*
X500D01*
X501Y13755D01*
D02*
G37*
G36*
X-49D02*
X-42Y13665D01*
X-38Y13643D01*
X-32Y13625D01*
X-26Y13611D01*
X-19Y13601D01*
X-10Y13595D01*
X-1Y13593D01*
X-299D01*
X-290Y13595D01*
X-281Y13601D01*
X-274Y13611D01*
X-268Y13625D01*
X-262Y13643D01*
X-258Y13665D01*
X-254Y13691D01*
X-250Y13755D01*
X-250Y13793D01*
X-50D01*
X-49Y13755D01*
D02*
G37*
G36*
X3093Y13317D02*
X3053Y13275D01*
X2996Y13209D01*
Y13104D01*
X2974Y13103D01*
X2921Y13100D01*
X2914Y13087D01*
X2899Y13054D01*
X2889Y13023D01*
X2882Y12992D01*
X2880Y12963D01*
Y13088D01*
Y13319D01*
Y13529D01*
X2882Y13504D01*
X2886Y13484D01*
X2893Y13469D01*
X2903Y13461D01*
X2916Y13458D01*
X2932Y13461D01*
X2950Y13469D01*
X2971Y13484D01*
X2996Y13504D01*
X3023Y13529D01*
X3093Y13317D01*
D02*
G37*
G36*
X9250Y13505D02*
X9257Y13488D01*
X9270Y13474D01*
X9288Y13461D01*
X9310Y13450D01*
X9338Y13441D01*
X9371Y13434D01*
X9408Y13429D01*
X9451Y13426D01*
X9499Y13425D01*
Y13225D01*
X9451Y13224D01*
X9371Y13216D01*
X9338Y13209D01*
X9310Y13200D01*
X9288Y13189D01*
X9270Y13176D01*
X9257Y13162D01*
X9250Y13145D01*
X9247Y13126D01*
Y13524D01*
X9250Y13505D01*
D02*
G37*
G36*
X5850D02*
X5857Y13488D01*
X5870Y13474D01*
X5888Y13461D01*
X5910Y13450D01*
X5938Y13441D01*
X5971Y13434D01*
X6008Y13429D01*
X6051Y13426D01*
X6099Y13425D01*
Y13225D01*
X6051Y13224D01*
X5971Y13216D01*
X5938Y13209D01*
X5910Y13200D01*
X5888Y13189D01*
X5870Y13176D01*
X5857Y13162D01*
X5850Y13145D01*
X5847Y13126D01*
Y13524D01*
X5850Y13505D01*
D02*
G37*
G36*
X-846Y13357D02*
X-816Y13332D01*
X-802Y13322D01*
X-788Y13313D01*
X-775Y13306D01*
X-762Y13301D01*
X-750Y13297D01*
X-738Y13295D01*
X-727Y13294D01*
X-925Y13096D01*
X-925Y13107D01*
X-928Y13119D01*
X-931Y13132D01*
X-937Y13144D01*
X-944Y13158D01*
X-952Y13171D01*
X-963Y13185D01*
X-974Y13200D01*
X-1003Y13231D01*
X-861Y13372D01*
X-846Y13357D01*
D02*
G37*
G36*
X540Y13293D02*
X531Y13287D01*
X524Y13277D01*
X518Y13263D01*
X512Y13245D01*
X508Y13223D01*
X504Y13197D01*
X501Y13133D01*
X500Y13095D01*
X300D01*
X300Y13133D01*
X292Y13223D01*
X288Y13245D01*
X282Y13263D01*
X276Y13277D01*
X269Y13287D01*
X260Y13293D01*
X251Y13295D01*
X549D01*
X540Y13293D01*
D02*
G37*
G36*
X-10263Y13091D02*
X-10270Y13111D01*
X-10280Y13126D01*
X-10293Y13133D01*
X-10309Y13135D01*
X-10329Y13131D01*
X-10352Y13121D01*
X-10378Y13105D01*
X-10408Y13083D01*
X-10440Y13054D01*
X-10476Y13020D01*
X-10561Y13218D01*
X-10521Y13258D01*
X-10368Y13433D01*
X-10357Y13450D01*
X-10351Y13464D01*
X-10349Y13474D01*
X-10263Y13091D01*
D02*
G37*
G36*
X-6753Y13052D02*
X-6762Y13070D01*
X-6774Y13082D01*
X-6788Y13089D01*
X-6806Y13089D01*
X-6827Y13084D01*
X-6851Y13073D01*
X-6877Y13056D01*
X-6907Y13033D01*
X-6940Y13004D01*
X-6976Y12970D01*
X-7040Y13188D01*
X-7007Y13223D01*
X-6952Y13289D01*
X-6932Y13319D01*
X-6915Y13348D01*
X-6903Y13376D01*
X-6895Y13402D01*
X-6892Y13427D01*
X-6893Y13450D01*
X-6898Y13471D01*
X-6753Y13052D01*
D02*
G37*
G36*
X5294Y13102D02*
X5279Y13087D01*
X5255Y13058D01*
X5246Y13046D01*
X5239Y13034D01*
X5235Y13024D01*
X5233Y13014D01*
X5233Y13006D01*
X5235Y12999D01*
X5240Y12993D01*
X4982Y13011D01*
X5114Y13206D01*
X5294Y13102D01*
D02*
G37*
G36*
X-7321Y12625D02*
X-7348Y12596D01*
X-7373Y12567D01*
X-7395Y12538D01*
X-7414Y12510D01*
X-7429Y12481D01*
X-7442Y12453D01*
X-7452Y12425D01*
X-7459Y12397D01*
X-7463Y12370D01*
X-7463Y12342D01*
X-7476Y12895D01*
X-7473Y12870D01*
X-7468Y12851D01*
X-7460Y12838D01*
X-7449Y12830D01*
X-7435Y12829D01*
X-7418Y12833D01*
X-7398Y12843D01*
X-7376Y12859D01*
X-7350Y12880D01*
X-7321Y12908D01*
Y12625D01*
D02*
G37*
G36*
X-10871D02*
X-10898Y12596D01*
X-10923Y12567D01*
X-10945Y12538D01*
X-10964Y12510D01*
X-10979Y12481D01*
X-10992Y12453D01*
X-11002Y12425D01*
X-11009Y12397D01*
X-11013Y12370D01*
X-11013Y12342D01*
X-11026Y12895D01*
X-11023Y12870D01*
X-11018Y12851D01*
X-11010Y12838D01*
X-10999Y12830D01*
X-10985Y12829D01*
X-10968Y12833D01*
X-10948Y12843D01*
X-10926Y12859D01*
X-10900Y12880D01*
X-10871Y12908D01*
Y12625D01*
D02*
G37*
G36*
X2274Y12742D02*
X2272Y12744D01*
X2268Y12742D01*
X2261Y12738D01*
X2251Y12730D01*
X2223Y12705D01*
X2132Y12617D01*
Y12900D01*
X2159Y12928D01*
X2183Y12956D01*
X2204Y12984D01*
X2223Y13013D01*
X2238Y13041D01*
X2251Y13069D01*
X2261Y13098D01*
X2268Y13126D01*
X2272Y13154D01*
X2274Y13182D01*
Y12742D01*
D02*
G37*
G36*
X-7823Y12996D02*
X-7861Y12956D01*
X-7921Y12885D01*
X-7943Y12853D01*
X-7960Y12823D01*
X-7972Y12797D01*
X-7978Y12772D01*
X-7978Y12751D01*
X-7973Y12731D01*
X-7963Y12715D01*
X-8169Y12961D01*
X-8158Y12966D01*
X-8146Y12973D01*
X-8132Y12983D01*
X-8098Y13010D01*
X-8058Y13046D01*
X-7984Y13117D01*
X-7823Y12996D01*
D02*
G37*
G36*
X-11371Y12987D02*
X-11408Y12949D01*
X-11467Y12879D01*
X-11488Y12848D01*
X-11505Y12818D01*
X-11517Y12791D01*
X-11524Y12766D01*
X-11525Y12744D01*
X-11522Y12723D01*
X-11513Y12705D01*
X-11686Y12975D01*
X-11680Y12977D01*
X-11672Y12981D01*
X-11662Y12989D01*
X-11634Y13012D01*
X-11574Y13068D01*
X-11523Y13119D01*
X-11371Y12987D01*
D02*
G37*
G36*
X-4752Y12783D02*
X-4743Y12671D01*
X-4739Y12653D01*
X-4734Y12639D01*
X-4728Y12629D01*
X-4722Y12623D01*
X-4715Y12621D01*
X-4988D01*
X-4982Y12623D01*
X-4975Y12629D01*
X-4970Y12639D01*
X-4965Y12653D01*
X-4961Y12671D01*
X-4958Y12693D01*
X-4953Y12749D01*
X-4952Y12821D01*
X-4752D01*
X-4752Y12783D01*
D02*
G37*
G36*
X3692Y12651D02*
X3766Y12588D01*
X3798Y12566D01*
X3828Y12549D01*
X3855Y12537D01*
X3879Y12532D01*
X3900D01*
X3918Y12537D01*
X3934Y12549D01*
X3651Y12266D01*
X3663Y12282D01*
X3668Y12300D01*
Y12321D01*
X3663Y12345D01*
X3651Y12372D01*
X3634Y12402D01*
X3612Y12434D01*
X3583Y12470D01*
X3510Y12549D01*
X3651Y12690D01*
X3692Y12651D01*
D02*
G37*
G36*
X-1905Y12556D02*
X-1899Y12539D01*
X-1889Y12524D01*
X-1875Y12511D01*
X-1857Y12500D01*
X-1835Y12491D01*
X-1809Y12484D01*
X-1779Y12479D01*
X-1745Y12476D01*
X-1706Y12475D01*
Y12275D01*
X-1745Y12274D01*
X-1779Y12271D01*
X-1809Y12266D01*
X-1835Y12259D01*
X-1857Y12250D01*
X-1875Y12239D01*
X-1889Y12226D01*
X-1899Y12211D01*
X-1905Y12194D01*
X-1908Y12175D01*
Y12575D01*
X-1905Y12556D01*
D02*
G37*
G36*
X10076Y12079D02*
X10074Y12104D01*
X10068Y12123D01*
X10060Y12137D01*
X10049Y12144D01*
X10035Y12146D01*
X10018Y12141D01*
X9998Y12131D01*
X9976Y12116D01*
X9950Y12094D01*
X9921Y12067D01*
Y12349D01*
X9948Y12378D01*
X9973Y12407D01*
X9995Y12436D01*
X10014Y12465D01*
X10029Y12493D01*
X10042Y12521D01*
X10052Y12549D01*
X10059Y12577D01*
X10063Y12605D01*
X10063Y12632D01*
X10076Y12079D01*
D02*
G37*
G36*
X6426D02*
X6424Y12104D01*
X6418Y12123D01*
X6410Y12137D01*
X6399Y12144D01*
X6385Y12146D01*
X6368Y12141D01*
X6349Y12131D01*
X6326Y12116D01*
X6300Y12094D01*
X6271Y12067D01*
Y12349D01*
X6298Y12378D01*
X6323Y12407D01*
X6345Y12436D01*
X6364Y12465D01*
X6379Y12493D01*
X6392Y12521D01*
X6402Y12549D01*
X6409Y12577D01*
X6413Y12605D01*
X6413Y12632D01*
X6426Y12079D01*
D02*
G37*
G36*
X7676Y12229D02*
X7671Y12210D01*
X7671Y12189D01*
X7677Y12165D01*
X7688Y12138D01*
X7705Y12109D01*
X7727Y12077D01*
X7755Y12042D01*
X7788Y12005D01*
X7826Y11966D01*
X7646Y11862D01*
X7481Y12014D01*
X7687Y12245D01*
X7676Y12229D01*
D02*
G37*
G36*
X10769Y12014D02*
X10759Y12009D01*
X10747Y12001D01*
X10733Y11991D01*
X10700Y11965D01*
X10637Y11907D01*
X10585Y11857D01*
X10423Y11977D01*
X10461Y12017D01*
X10521Y12089D01*
X10544Y12120D01*
X10560Y12150D01*
X10572Y12177D01*
X10578Y12201D01*
X10578Y12223D01*
X10574Y12242D01*
X10563Y12258D01*
X10769Y12014D01*
D02*
G37*
G36*
X11816Y12057D02*
X11812Y12047D01*
X11809Y12033D01*
X11807Y12016D01*
X11803Y11971D01*
X11800Y11877D01*
X11800Y11839D01*
X11600D01*
X11600Y11877D01*
X11591Y12033D01*
X11588Y12047D01*
X11584Y12057D01*
X11581Y12064D01*
X11819D01*
X11816Y12057D01*
D02*
G37*
G36*
X7166D02*
X7162Y12047D01*
X7159Y12033D01*
X7157Y12016D01*
X7153Y11971D01*
X7150Y11877D01*
X7150Y11839D01*
X6950D01*
X6950Y11877D01*
X6941Y12033D01*
X6938Y12047D01*
X6934Y12057D01*
X6931Y12064D01*
X7169D01*
X7166Y12057D01*
D02*
G37*
G36*
X-7484D02*
X-7488Y12047D01*
X-7491Y12033D01*
X-7493Y12016D01*
X-7497Y11971D01*
X-7500Y11877D01*
X-7500Y11839D01*
X-7700D01*
X-7700Y11877D01*
X-7709Y12033D01*
X-7712Y12047D01*
X-7716Y12057D01*
X-7719Y12064D01*
X-7481D01*
X-7484Y12057D01*
D02*
G37*
G36*
X-8484D02*
X-8488Y12047D01*
X-8491Y12033D01*
X-8493Y12016D01*
X-8497Y11971D01*
X-8500Y11877D01*
X-8500Y11839D01*
X-8700D01*
X-8700Y11877D01*
X-8709Y12033D01*
X-8712Y12047D01*
X-8716Y12057D01*
X-8719Y12064D01*
X-8481D01*
X-8484Y12057D01*
D02*
G37*
G36*
X-8984D02*
X-8988Y12047D01*
X-8991Y12033D01*
X-8993Y12016D01*
X-8997Y11971D01*
X-9000Y11877D01*
X-9000Y11839D01*
X-9200D01*
X-9200Y11877D01*
X-9209Y12033D01*
X-9212Y12047D01*
X-9216Y12057D01*
X-9219Y12064D01*
X-8981D01*
X-8984Y12057D01*
D02*
G37*
G36*
X-11034D02*
X-11038Y12047D01*
X-11041Y12033D01*
X-11043Y12016D01*
X-11047Y11971D01*
X-11050Y11877D01*
X-11050Y11839D01*
X-11250D01*
X-11250Y11877D01*
X-11259Y12033D01*
X-11262Y12047D01*
X-11266Y12057D01*
X-11269Y12064D01*
X-11031D01*
X-11034Y12057D01*
D02*
G37*
G36*
X-12034D02*
X-12038Y12047D01*
X-12041Y12033D01*
X-12043Y12016D01*
X-12047Y11971D01*
X-12050Y11877D01*
X-12050Y11839D01*
X-12250D01*
X-12250Y11877D01*
X-12259Y12033D01*
X-12262Y12047D01*
X-12266Y12057D01*
X-12269Y12064D01*
X-12031D01*
X-12034Y12057D01*
D02*
G37*
G36*
X-12534D02*
X-12538Y12047D01*
X-12541Y12033D01*
X-12543Y12016D01*
X-12547Y11971D01*
X-12550Y11877D01*
X-12550Y11839D01*
X-12750D01*
X-12750Y11877D01*
X-12759Y12033D01*
X-12762Y12047D01*
X-12766Y12057D01*
X-12769Y12064D01*
X-12531D01*
X-12534Y12057D01*
D02*
G37*
G36*
X3651Y11701D02*
X3649Y11710D01*
X3643Y11719D01*
X3633Y11726D01*
X3619Y11732D01*
X3601Y11738D01*
X3579Y11742D01*
X3553Y11746D01*
X3489Y11750D01*
X3451Y11750D01*
Y11950D01*
X3489Y11950D01*
X3579Y11958D01*
X3601Y11962D01*
X3619Y11968D01*
X3633Y11974D01*
X3643Y11981D01*
X3649Y11990D01*
X3651Y11999D01*
Y11701D01*
D02*
G37*
G36*
X-4713Y11934D02*
X-4707Y11917D01*
X-4697Y11903D01*
X-4683Y11890D01*
X-4665Y11880D01*
X-4643Y11871D01*
X-4617Y11865D01*
X-4587Y11860D01*
X-4553Y11857D01*
X-4515Y11856D01*
Y11656D01*
X-4553Y11655D01*
X-4587Y11652D01*
X-4617Y11647D01*
X-4643Y11641D01*
X-4665Y11632D01*
X-4683Y11622D01*
X-4697Y11609D01*
X-4707Y11595D01*
X-4713Y11579D01*
X-4715Y11560D01*
Y11952D01*
X-4713Y11934D01*
D02*
G37*
G36*
X-4088Y11556D02*
X-4090Y11575D01*
X-4096Y11592D01*
X-4106Y11607D01*
X-4120Y11620D01*
X-4138Y11631D01*
X-4160Y11640D01*
X-4186Y11647D01*
X-4217Y11652D01*
X-4251Y11655D01*
X-4289Y11656D01*
Y11856D01*
X-4251Y11857D01*
X-4217Y11860D01*
X-4186Y11865D01*
X-4160Y11872D01*
X-4138Y11881D01*
X-4120Y11892D01*
X-4106Y11905D01*
X-4096Y11920D01*
X-4090Y11937D01*
X-4088Y11956D01*
Y11556D01*
D02*
G37*
G36*
X-12049Y11653D02*
X-12046Y11619D01*
X-12041Y11589D01*
X-12034Y11563D01*
X-12025Y11541D01*
X-12014Y11523D01*
X-12001Y11509D01*
X-11986Y11499D01*
X-11969Y11493D01*
X-11950Y11491D01*
X-12152D01*
X-12171Y11493D01*
X-12187Y11499D01*
X-12202Y11509D01*
X-12215Y11523D01*
X-12225Y11541D01*
X-12234Y11563D01*
X-12241Y11589D01*
X-12246Y11619D01*
X-12249Y11653D01*
X-12250Y11691D01*
X-12050D01*
X-12049Y11653D01*
D02*
G37*
G36*
X-7563Y11491D02*
X-7596Y11457D01*
X-7670Y11373D01*
X-7686Y11351D01*
X-7698Y11332D01*
X-7706Y11315D01*
X-7709Y11301D01*
X-7709Y11290D01*
X-7704Y11282D01*
X-7913Y11491D01*
X-7905Y11486D01*
X-7894Y11486D01*
X-7880Y11490D01*
X-7864Y11497D01*
X-7844Y11509D01*
X-7822Y11526D01*
X-7797Y11546D01*
X-7738Y11599D01*
X-7704Y11632D01*
X-7563Y11491D01*
D02*
G37*
G36*
X-11163D02*
X-11203Y11450D01*
X-11265Y11376D01*
X-11287Y11344D01*
X-11304Y11314D01*
X-11316Y11287D01*
X-11321Y11263D01*
Y11242D01*
X-11316Y11224D01*
X-11304Y11208D01*
X-11587Y11491D01*
X-11572Y11480D01*
X-11553Y11474D01*
X-11532D01*
X-11508Y11480D01*
X-11481Y11491D01*
X-11451Y11508D01*
X-11419Y11531D01*
X-11384Y11559D01*
X-11304Y11632D01*
X-11163Y11491D01*
D02*
G37*
G36*
X7151Y11653D02*
X7154Y11619D01*
X7159Y11589D01*
X7166Y11563D01*
X7175Y11541D01*
X7186Y11523D01*
X7199Y11509D01*
X7214Y11499D01*
X7231Y11493D01*
X7250Y11491D01*
X6998D01*
Y11193D01*
X6996Y11203D01*
X6990Y11211D01*
X6980Y11218D01*
X6966Y11225D01*
X6948Y11230D01*
X6926Y11234D01*
X6900Y11238D01*
X6836Y11242D01*
X6798Y11242D01*
Y11442D01*
X6836Y11443D01*
X6926Y11450D01*
X6948Y11454D01*
X6966Y11460D01*
X6980Y11466D01*
X6990Y11473D01*
X6996Y11482D01*
X6998Y11491D01*
X6989Y11493D01*
X6981Y11499D01*
X6974Y11509D01*
X6967Y11523D01*
X6962Y11541D01*
X6958Y11563D01*
X6954Y11589D01*
X6951Y11653D01*
X6950Y11691D01*
X7150D01*
X7151Y11653D01*
D02*
G37*
G36*
X11082Y11405D02*
X11075Y11388D01*
X11074Y11368D01*
X11079Y11344D01*
X11090Y11318D01*
X11108Y11288D01*
X11131Y11255D01*
X11160Y11218D01*
X11237Y11136D01*
X11038Y11052D01*
X11010Y11079D01*
X10957Y11124D01*
X10932Y11142D01*
X10908Y11158D01*
X10884Y11171D01*
X10861Y11181D01*
X10839Y11188D01*
X10818Y11192D01*
X10798Y11193D01*
X11094Y11419D01*
X11082Y11405D01*
D02*
G37*
G36*
X500Y11175D02*
X514Y10769D01*
X156Y11044D01*
X-179Y10698D01*
X-180Y10738D01*
X-184Y10776D01*
X-189Y10812D01*
X-197Y10846D01*
X-207Y10878D01*
X-219Y10908D01*
X-233Y10936D01*
X-249Y10963D01*
X-268Y10987D01*
X-288Y11010D01*
X-149Y11154D01*
X-126Y11133D01*
X-102Y11115D01*
X-75Y11098D01*
X-47Y11085D01*
X-17Y11073D01*
X15Y11064D01*
X49Y11057D01*
X85Y11052D01*
X122Y11050D01*
X154Y11050D01*
X178Y11053D01*
X204Y11060D01*
X226Y11070D01*
X246Y11084D01*
X262Y11100D01*
X276Y11121D01*
X286Y11144D01*
X294Y11171D01*
X299Y11202D01*
X300Y11235D01*
X500Y11175D01*
D02*
G37*
G36*
X-8264Y11192D02*
X-8272Y11187D01*
X-8279Y11179D01*
X-8286Y11169D01*
X-8291Y11155D01*
X-8295Y11138D01*
X-8299Y11118D01*
X-8301Y11095D01*
X-8303Y11039D01*
X-8503D01*
X-8504Y11068D01*
X-8508Y11118D01*
X-8511Y11138D01*
X-8515Y11155D01*
X-8521Y11169D01*
X-8527Y11179D01*
X-8534Y11187D01*
X-8543Y11192D01*
X-8552Y11193D01*
X-8254D01*
X-8264Y11192D01*
D02*
G37*
G36*
X-2646Y15318D02*
Y14054D01*
X-2274D01*
X-2273Y14053D01*
X-2272Y14054D01*
X-2261D01*
X-2224Y14022D01*
X-2002Y13801D01*
X-2021Y13755D01*
X-2948D01*
Y12375D01*
Y10996D01*
X-1805D01*
Y11893D01*
X-1785Y11899D01*
X-1771Y11907D01*
X-1756Y11913D01*
X-1737Y11928D01*
X-1717Y11940D01*
X-1716Y11941D01*
X-1666Y11948D01*
X-1647Y11940D01*
X-499Y10792D01*
X-498Y10789D01*
X-496Y10785D01*
X-493Y10778D01*
X-490Y10768D01*
X-487Y10755D01*
X-484Y10739D01*
X-483Y10719D01*
X-482Y10688D01*
X-476Y10652D01*
X-470Y10615D01*
X-469Y10613D01*
X-469Y10610D01*
X-453Y10576D01*
X-439Y10542D01*
X-437Y10540D01*
X-436Y10538D01*
X-413Y10510D01*
X-390Y10481D01*
X-388Y10479D01*
X-386Y10477D01*
X-356Y10456D01*
X-326Y10433D01*
X-324Y10433D01*
X-322Y10431D01*
X-287Y10418D01*
X-253Y10404D01*
X-250Y10404D01*
X-248Y10403D01*
X-215Y10400D01*
X-217Y10350D01*
X-479D01*
Y9050D01*
X252D01*
X253Y9050D01*
X254Y9050D01*
X254D01*
X282Y9026D01*
X347Y8962D01*
Y8209D01*
X297Y8175D01*
X177Y8191D01*
X-177D01*
X-317Y8172D01*
X-448Y8118D01*
X-560Y8032D01*
X-646Y7920D01*
X-700Y7790D01*
X-718Y7650D01*
X-700Y7510D01*
X-646Y7380D01*
X-560Y7268D01*
X-471Y7200D01*
X-487Y7163D01*
X-500Y7059D01*
Y6938D01*
X-528Y6905D01*
X-1664Y5770D01*
X-1710Y5789D01*
Y6299D01*
X-4324D01*
X-4343Y6345D01*
X-4290Y6398D01*
X-3454D01*
Y8120D01*
X-3571D01*
Y8600D01*
X-3524D01*
Y8881D01*
X-3523Y8886D01*
X-3524Y8894D01*
X-3523Y8901D01*
X-3524Y8912D01*
Y9197D01*
X-2655D01*
Y8912D01*
X-2656Y8901D01*
X-2655Y8894D01*
X-2656Y8886D01*
X-2655Y8881D01*
Y8600D01*
X-2608D01*
Y8120D01*
X-2751D01*
Y6398D01*
X-1659D01*
Y8120D01*
X-1801D01*
Y8600D01*
X-1755D01*
Y8881D01*
X-1754Y8886D01*
X-1754Y8894D01*
X-1753Y8901D01*
X-1755Y8912D01*
Y9150D01*
Y10050D01*
X-2343D01*
X-2354Y10051D01*
X-2361Y10050D01*
X-2368Y10051D01*
X-2374Y10050D01*
X-2655D01*
Y10003D01*
X-3524D01*
Y10050D01*
X-3571D01*
Y10111D01*
X-3571Y10111D01*
X-3585Y10215D01*
X-3625Y10313D01*
X-3689Y10396D01*
X-3689Y10396D01*
X-4545Y11252D01*
X-4548Y11259D01*
X-4546Y11295D01*
X-4539Y11317D01*
X-4526Y11324D01*
X-4515Y11336D01*
X-4501Y11346D01*
X-4497Y11353D01*
X-4310D01*
X-4302Y11342D01*
X-4289Y11332D01*
X-4278Y11321D01*
X-4258Y11308D01*
X-4239Y11294D01*
X-4224Y11288D01*
X-4211Y11280D01*
X-4190Y11273D01*
Y10996D01*
X-3048D01*
Y12325D01*
X-4190D01*
Y12239D01*
X-4211Y12233D01*
X-4224Y12224D01*
X-4239Y12218D01*
X-4258Y12204D01*
X-4278Y12191D01*
X-4289Y12180D01*
X-4302Y12170D01*
X-4310Y12160D01*
X-4414D01*
Y12607D01*
X-4413Y12615D01*
X-4413Y12618D01*
X-4413Y12621D01*
X-4414Y12632D01*
Y12922D01*
X-4448D01*
Y13715D01*
X-4402D01*
Y13996D01*
X-4401Y14001D01*
X-4401Y14004D01*
X-4398Y14019D01*
X-4364Y14054D01*
X-3349D01*
Y14649D01*
X-3347Y14655D01*
X-3339Y14669D01*
X-3326Y14689D01*
X-3310Y14710D01*
X-3256Y14774D01*
X-2692Y15337D01*
X-2646Y15318D01*
D02*
G37*
G36*
X7428Y10729D02*
X7413Y10713D01*
X7388Y10684D01*
X7378Y10669D01*
X7369Y10656D01*
X7362Y10643D01*
X7357Y10630D01*
X7353Y10617D01*
X7351Y10606D01*
X7350Y10594D01*
X7152Y10792D01*
X7163Y10793D01*
X7175Y10795D01*
X7188Y10799D01*
X7200Y10804D01*
X7214Y10811D01*
X7227Y10820D01*
X7241Y10830D01*
X7256Y10842D01*
X7287Y10870D01*
X7428Y10729D01*
D02*
G37*
G36*
X10950Y9911D02*
X10958Y9821D01*
X10962Y9799D01*
X10968Y9781D01*
X10974Y9767D01*
X10981Y9757D01*
X10990Y9751D01*
X10999Y9749D01*
X10701D01*
X10710Y9751D01*
X10719Y9757D01*
X10726Y9767D01*
X10732Y9781D01*
X10738Y9799D01*
X10742Y9821D01*
X10746Y9847D01*
X10750Y9911D01*
X10750Y9949D01*
X10950D01*
X10950Y9911D01*
D02*
G37*
G36*
X9851D02*
X9858Y9821D01*
X9862Y9799D01*
X9868Y9781D01*
X9874Y9767D01*
X9881Y9757D01*
X9890Y9751D01*
X9899Y9749D01*
X9601D01*
X9610Y9751D01*
X9619Y9757D01*
X9626Y9767D01*
X9632Y9781D01*
X9638Y9799D01*
X9642Y9821D01*
X9646Y9847D01*
X9650Y9911D01*
X9650Y9949D01*
X9850D01*
X9851Y9911D01*
D02*
G37*
G36*
X4146D02*
X4153Y9821D01*
X4157Y9799D01*
X4163Y9781D01*
X4169Y9767D01*
X4177Y9757D01*
X4185Y9751D01*
X4194Y9749D01*
X3896D01*
X3906Y9751D01*
X3914Y9757D01*
X3921Y9767D01*
X3928Y9781D01*
X3933Y9799D01*
X3937Y9821D01*
X3941Y9847D01*
X3945Y9911D01*
X3945Y9949D01*
X4145D01*
X4146Y9911D01*
D02*
G37*
G36*
X-3874D02*
X-3867Y9821D01*
X-3862Y9799D01*
X-3857Y9781D01*
X-3851Y9767D01*
X-3843Y9757D01*
X-3835Y9751D01*
X-3826Y9749D01*
X-4123D01*
X-4114Y9751D01*
X-4106Y9757D01*
X-4098Y9767D01*
X-4092Y9781D01*
X-4087Y9799D01*
X-4082Y9821D01*
X-4079Y9847D01*
X-4075Y9911D01*
X-4074Y9949D01*
X-3874D01*
X-3874Y9911D01*
D02*
G37*
G36*
X-6729D02*
X-6722Y9821D01*
X-6718Y9799D01*
X-6712Y9781D01*
X-6706Y9767D01*
X-6699Y9757D01*
X-6690Y9751D01*
X-6681Y9749D01*
X-6979D01*
X-6970Y9751D01*
X-6961Y9757D01*
X-6954Y9767D01*
X-6948Y9781D01*
X-6942Y9799D01*
X-6938Y9821D01*
X-6934Y9847D01*
X-6930Y9911D01*
X-6930Y9949D01*
X-6730D01*
X-6729Y9911D01*
D02*
G37*
G36*
X-12549Y9911D02*
X-12546Y9876D01*
X-12541Y9846D01*
X-12534Y9820D01*
X-12525Y9798D01*
X-12514Y9780D01*
X-12501Y9766D01*
X-12486Y9756D01*
X-12469Y9750D01*
X-12450Y9748D01*
X-12744Y9749D01*
X-12745Y9751D01*
X-12746Y9757D01*
X-12747Y9767D01*
X-12749Y9821D01*
X-12750Y9949D01*
X-12550D01*
X-12549Y9911D01*
D02*
G37*
G36*
X7195Y9749D02*
X7155Y9708D01*
X7092Y9634D01*
X7070Y9601D01*
X7053Y9572D01*
X7041Y9545D01*
X7035Y9521D01*
X7035Y9500D01*
X7041Y9481D01*
X7052Y9466D01*
X6770Y9748D01*
X6786Y9736D01*
X6804Y9731D01*
X6825Y9731D01*
X6849Y9737D01*
X6876Y9748D01*
X6906Y9765D01*
X6938Y9788D01*
X6974Y9816D01*
X7053Y9890D01*
X7195Y9749D01*
D02*
G37*
G36*
X12501Y9451D02*
X12499Y9460D01*
X12493Y9469D01*
X12483Y9476D01*
X12469Y9482D01*
X12451Y9488D01*
X12429Y9492D01*
X12403Y9496D01*
X12339Y9499D01*
X12301Y9500D01*
Y9700D01*
X12339Y9700D01*
X12429Y9708D01*
X12451Y9712D01*
X12469Y9718D01*
X12483Y9724D01*
X12493Y9731D01*
X12499Y9740D01*
X12501Y9749D01*
Y9451D01*
D02*
G37*
G36*
X11001Y9740D02*
X11007Y9731D01*
X11017Y9724D01*
X11031Y9718D01*
X11049Y9712D01*
X11071Y9708D01*
X11097Y9704D01*
X11161Y9700D01*
X11199Y9700D01*
Y9500D01*
X11161Y9499D01*
X11071Y9492D01*
X11049Y9488D01*
X11031Y9482D01*
X11017Y9476D01*
X11007Y9469D01*
X11001Y9460D01*
X10999Y9451D01*
Y9749D01*
X11001Y9740D01*
D02*
G37*
G36*
X9601Y9451D02*
X9599Y9460D01*
X9593Y9469D01*
X9583Y9476D01*
X9569Y9482D01*
X9551Y9488D01*
X9529Y9492D01*
X9503Y9496D01*
X9439Y9499D01*
X9401Y9500D01*
Y9700D01*
X9439Y9700D01*
X9529Y9708D01*
X9551Y9712D01*
X9569Y9718D01*
X9583Y9724D01*
X9593Y9731D01*
X9599Y9740D01*
X9601Y9749D01*
Y9451D01*
D02*
G37*
G36*
X8101Y9740D02*
X8107Y9731D01*
X8117Y9724D01*
X8131Y9718D01*
X8149Y9712D01*
X8171Y9708D01*
X8197Y9704D01*
X8261Y9700D01*
X8299Y9700D01*
Y9500D01*
X8261Y9499D01*
X8171Y9492D01*
X8149Y9488D01*
X8131Y9482D01*
X8117Y9476D01*
X8107Y9469D01*
X8101Y9460D01*
X8099Y9451D01*
Y9749D01*
X8101Y9740D01*
D02*
G37*
G36*
X6756Y9451D02*
X6754Y9460D01*
X6748Y9469D01*
X6738Y9476D01*
X6724Y9482D01*
X6706Y9488D01*
X6684Y9492D01*
X6658Y9496D01*
X6594Y9499D01*
X6556Y9500D01*
Y9700D01*
X6594Y9700D01*
X6684Y9708D01*
X6706Y9712D01*
X6724Y9718D01*
X6738Y9724D01*
X6748Y9731D01*
X6754Y9740D01*
X6756Y9749D01*
Y9451D01*
D02*
G37*
G36*
X5251Y9740D02*
X5257Y9731D01*
X5267Y9724D01*
X5281Y9718D01*
X5299Y9712D01*
X5321Y9708D01*
X5347Y9704D01*
X5411Y9700D01*
X5449Y9700D01*
Y9500D01*
X5411Y9499D01*
X5321Y9492D01*
X5299Y9488D01*
X5281Y9482D01*
X5267Y9476D01*
X5257Y9469D01*
X5251Y9460D01*
X5249Y9451D01*
Y9749D01*
X5251Y9740D01*
D02*
G37*
G36*
X3896Y9451D02*
X3895Y9460D01*
X3889Y9469D01*
X3878Y9476D01*
X3864Y9482D01*
X3846Y9488D01*
X3825Y9492D01*
X3799Y9496D01*
X3735Y9499D01*
X3697Y9500D01*
Y9700D01*
X3735Y9700D01*
X3825Y9708D01*
X3846Y9712D01*
X3864Y9718D01*
X3878Y9724D01*
X3889Y9731D01*
X3895Y9740D01*
X3896Y9749D01*
Y9451D01*
D02*
G37*
G36*
X2401Y9740D02*
X2407Y9731D01*
X2417Y9724D01*
X2431Y9718D01*
X2449Y9712D01*
X2471Y9708D01*
X2497Y9704D01*
X2561Y9700D01*
X2599Y9700D01*
Y9500D01*
X2561Y9499D01*
X2471Y9492D01*
X2449Y9488D01*
X2431Y9482D01*
X2417Y9476D01*
X2407Y9469D01*
X2401Y9460D01*
X2399Y9451D01*
Y9749D01*
X2401Y9740D01*
D02*
G37*
G36*
X-2354Y9451D02*
X-2356Y9460D01*
X-2362Y9469D01*
X-2372Y9476D01*
X-2386Y9482D01*
X-2404Y9488D01*
X-2426Y9492D01*
X-2452Y9496D01*
X-2516Y9499D01*
X-2554Y9500D01*
Y9700D01*
X-2516Y9700D01*
X-2426Y9708D01*
X-2404Y9712D01*
X-2386Y9718D01*
X-2372Y9724D01*
X-2362Y9731D01*
X-2356Y9740D01*
X-2354Y9749D01*
Y9451D01*
D02*
G37*
G36*
X-3824Y9740D02*
X-3818Y9731D01*
X-3808Y9724D01*
X-3794Y9718D01*
X-3776Y9712D01*
X-3754Y9708D01*
X-3728Y9704D01*
X-3664Y9700D01*
X-3626Y9700D01*
Y9500D01*
X-3664Y9499D01*
X-3754Y9492D01*
X-3776Y9488D01*
X-3794Y9482D01*
X-3808Y9476D01*
X-3818Y9469D01*
X-3824Y9460D01*
X-3826Y9451D01*
Y9749D01*
X-3824Y9740D01*
D02*
G37*
G36*
X-5199Y9451D02*
X-5201Y9460D01*
X-5207Y9469D01*
X-5217Y9476D01*
X-5231Y9482D01*
X-5249Y9488D01*
X-5271Y9492D01*
X-5297Y9496D01*
X-5361Y9499D01*
X-5399Y9500D01*
Y9700D01*
X-5361Y9700D01*
X-5271Y9708D01*
X-5249Y9712D01*
X-5231Y9718D01*
X-5217Y9724D01*
X-5207Y9731D01*
X-5201Y9740D01*
X-5199Y9749D01*
Y9451D01*
D02*
G37*
G36*
X-6679Y9740D02*
X-6673Y9731D01*
X-6663Y9724D01*
X-6649Y9718D01*
X-6631Y9712D01*
X-6609Y9708D01*
X-6583Y9704D01*
X-6519Y9700D01*
X-6481Y9700D01*
Y9500D01*
X-6519Y9499D01*
X-6609Y9492D01*
X-6631Y9488D01*
X-6649Y9482D01*
X-6663Y9476D01*
X-6673Y9469D01*
X-6679Y9460D01*
X-6681Y9451D01*
Y9749D01*
X-6679Y9740D01*
D02*
G37*
G36*
X-8049Y9451D02*
X-8051Y9460D01*
X-8057Y9469D01*
X-8067Y9476D01*
X-8081Y9482D01*
X-8099Y9488D01*
X-8121Y9492D01*
X-8147Y9496D01*
X-8211Y9499D01*
X-8249Y9500D01*
Y9700D01*
X-8211Y9700D01*
X-8121Y9708D01*
X-8099Y9712D01*
X-8081Y9718D01*
X-8067Y9724D01*
X-8057Y9731D01*
X-8051Y9740D01*
X-8049Y9749D01*
Y9451D01*
D02*
G37*
G36*
X-9551Y9749D02*
X-9549Y9740D01*
X-9543Y9731D01*
X-9533Y9724D01*
X-9519Y9718D01*
X-9501Y9712D01*
X-9479Y9708D01*
X-9453Y9704D01*
X-9389Y9700D01*
X-9351Y9700D01*
Y9500D01*
X-9389Y9499D01*
X-9479Y9492D01*
X-9501Y9488D01*
X-9519Y9482D01*
X-9533Y9476D01*
X-9543Y9469D01*
X-9549Y9460D01*
X-9551Y9451D01*
Y9749D01*
X-9849D01*
X-9830Y9751D01*
X-9813Y9757D01*
X-9798Y9767D01*
X-9786Y9781D01*
X-9775Y9799D01*
X-9766Y9821D01*
X-9759Y9847D01*
X-9754Y9877D01*
X-9751Y9911D01*
X-9750Y9949D01*
X-9550D01*
X-9551Y9749D01*
D02*
G37*
G36*
X-10944Y9451D02*
X-10946Y9460D01*
X-10952Y9469D01*
X-10962Y9476D01*
X-10976Y9482D01*
X-10994Y9488D01*
X-11016Y9492D01*
X-11042Y9496D01*
X-11106Y9499D01*
X-11144Y9500D01*
Y9700D01*
X-11106Y9700D01*
X-11016Y9708D01*
X-10994Y9712D01*
X-10976Y9718D01*
X-10962Y9724D01*
X-10952Y9731D01*
X-10946Y9740D01*
X-10944Y9749D01*
Y9451D01*
D02*
G37*
G36*
X-12444Y9740D02*
X-12438Y9731D01*
X-12428Y9724D01*
X-12414Y9718D01*
X-12396Y9712D01*
X-12374Y9708D01*
X-12348Y9704D01*
X-12284Y9700D01*
X-12246Y9700D01*
Y9500D01*
X-12284Y9499D01*
X-12374Y9492D01*
X-12396Y9488D01*
X-12414Y9482D01*
X-12428Y9476D01*
X-12438Y9469D01*
X-12444Y9460D01*
X-12446Y9451D01*
Y9749D01*
X-12444Y9740D01*
D02*
G37*
G36*
X508Y9626D02*
X502Y9608D01*
X503Y9586D01*
X509Y9562D01*
X520Y9535D01*
X537Y9505D01*
X560Y9473D01*
X588Y9438D01*
X661Y9359D01*
X528Y9210D01*
X486Y9250D01*
X412Y9313D01*
X379Y9336D01*
X349Y9353D01*
X323Y9364D01*
X299Y9370D01*
X278Y9370D01*
X260Y9364D01*
X245Y9352D01*
X518Y9642D01*
X508Y9626D01*
D02*
G37*
G36*
X8421Y8967D02*
X8486Y8911D01*
X8496Y8904D01*
X8505Y8898D01*
X8513Y8894D01*
X8520Y8891D01*
X8271Y8762D01*
X8274Y8774D01*
X8274Y8785D01*
X8273Y8797D01*
X8270Y8810D01*
X8265Y8823D01*
X8258Y8836D01*
X8249Y8850D01*
X8238Y8865D01*
X8225Y8880D01*
X8210Y8896D01*
X8406Y8983D01*
X8421Y8967D01*
D02*
G37*
G36*
X12790Y8899D02*
X12781Y8893D01*
X12774Y8883D01*
X12768Y8869D01*
X12762Y8851D01*
X12758Y8829D01*
X12754Y8803D01*
X12751Y8739D01*
X12750Y8701D01*
X12550D01*
X12550Y8739D01*
X12542Y8829D01*
X12538Y8851D01*
X12532Y8869D01*
X12526Y8883D01*
X12519Y8893D01*
X12510Y8899D01*
X12501Y8901D01*
X12799D01*
X12790Y8899D01*
D02*
G37*
G36*
X10701Y8901D02*
X10999D01*
X10990Y8899D01*
X10981Y8893D01*
X10974Y8883D01*
X10968Y8869D01*
X10962Y8851D01*
X10958Y8829D01*
X10954Y8803D01*
X10950Y8739D01*
X10950Y8701D01*
X10750D01*
X10750Y8739D01*
X10742Y8829D01*
X10738Y8851D01*
X10732Y8869D01*
X10726Y8883D01*
X10719Y8893D01*
X10710Y8899D01*
X10701Y8901D01*
X10700Y8910D01*
X10695Y8919D01*
X10688Y8926D01*
X10677Y8932D01*
X10663Y8938D01*
X10647Y8942D01*
X10627Y8946D01*
X10604Y8948D01*
X10550Y8950D01*
Y9150D01*
X10579Y9150D01*
X10627Y9154D01*
X10647Y9158D01*
X10663Y9162D01*
X10677Y9168D01*
X10688Y9174D01*
X10695Y9181D01*
X10700Y9190D01*
X10701Y9199D01*
Y8901D01*
D02*
G37*
G36*
X7044Y8899D02*
X7036Y8893D01*
X7028Y8883D01*
X7022Y8869D01*
X7017Y8851D01*
X7012Y8829D01*
X7009Y8803D01*
X7005Y8739D01*
X7004Y8701D01*
X6804D01*
X6804Y8739D01*
X6797Y8829D01*
X6792Y8851D01*
X6787Y8869D01*
X6780Y8883D01*
X6773Y8893D01*
X6765Y8899D01*
X6756Y8901D01*
X7053D01*
X7044Y8899D01*
D02*
G37*
G36*
X4951Y8901D02*
X5249D01*
X5240Y8899D01*
X5231Y8893D01*
X5224Y8883D01*
X5218Y8869D01*
X5212Y8851D01*
X5208Y8829D01*
X5204Y8803D01*
X5200Y8739D01*
X5200Y8701D01*
X5000D01*
X5000Y8739D01*
X4992Y8829D01*
X4988Y8851D01*
X4982Y8869D01*
X4976Y8883D01*
X4969Y8893D01*
X4960Y8899D01*
X4951Y8901D01*
X4949Y8910D01*
X4943Y8919D01*
X4933Y8926D01*
X4919Y8932D01*
X4901Y8938D01*
X4879Y8942D01*
X4853Y8946D01*
X4789Y8949D01*
X4751Y8950D01*
Y9150D01*
X4789Y9150D01*
X4879Y9158D01*
X4901Y9162D01*
X4919Y9168D01*
X4933Y9174D01*
X4943Y9181D01*
X4949Y9190D01*
X4951Y9199D01*
Y8901D01*
D02*
G37*
G36*
X-2065Y8899D02*
X-2073Y8893D01*
X-2081Y8883D01*
X-2087Y8869D01*
X-2093Y8851D01*
X-2097Y8829D01*
X-2100Y8803D01*
X-2104Y8739D01*
X-2105Y8701D01*
X-2305D01*
X-2305Y8739D01*
X-2313Y8829D01*
X-2317Y8851D01*
X-2322Y8869D01*
X-2329Y8883D01*
X-2336Y8893D01*
X-2344Y8899D01*
X-2354Y8901D01*
X-2056D01*
X-2065Y8899D01*
D02*
G37*
G36*
X-3835D02*
X-3843Y8893D01*
X-3851Y8883D01*
X-3857Y8869D01*
X-3862Y8851D01*
X-3867Y8829D01*
X-3870Y8803D01*
X-3874Y8739D01*
X-3874Y8701D01*
X-4074D01*
X-4075Y8739D01*
X-4082Y8829D01*
X-4087Y8851D01*
X-4092Y8869D01*
X-4098Y8883D01*
X-4106Y8893D01*
X-4114Y8899D01*
X-4123Y8901D01*
X-3826D01*
X-3835Y8899D01*
D02*
G37*
G36*
X-7760D02*
X-7769Y8893D01*
X-7776Y8883D01*
X-7782Y8869D01*
X-7788Y8851D01*
X-7792Y8829D01*
X-7796Y8803D01*
X-7800Y8739D01*
X-7800Y8701D01*
X-8000D01*
X-8000Y8739D01*
X-8008Y8829D01*
X-8012Y8851D01*
X-8018Y8869D01*
X-8024Y8883D01*
X-8031Y8893D01*
X-8040Y8899D01*
X-8049Y8901D01*
X-7751D01*
X-7760Y8899D01*
D02*
G37*
G36*
X-9905Y9298D02*
X-9827Y9231D01*
X-9793Y9207D01*
X-9763Y9190D01*
X-9737Y9179D01*
X-9714Y9174D01*
X-9694Y9176D01*
X-9678Y9183D01*
X-9666Y9198D01*
X-9849Y8901D01*
X-9551D01*
X-9560Y8899D01*
X-9569Y8893D01*
X-9576Y8883D01*
X-9582Y8869D01*
X-9588Y8851D01*
X-9592Y8829D01*
X-9596Y8803D01*
X-9599Y8739D01*
X-9600Y8701D01*
X-9800D01*
X-9800Y8739D01*
X-9808Y8829D01*
X-9812Y8851D01*
X-9818Y8869D01*
X-9824Y8883D01*
X-9831Y8893D01*
X-9840Y8899D01*
X-9849Y8901D01*
X-9851Y8914D01*
X-9857Y8930D01*
X-9868Y8949D01*
X-9883Y8971D01*
X-9902Y8996D01*
X-9953Y9056D01*
X-10061Y9169D01*
X-9949Y9340D01*
X-9905Y9298D01*
D02*
G37*
G36*
X9890Y8899D02*
X9881Y8893D01*
X9874Y8883D01*
X9868Y8869D01*
X9862Y8851D01*
X9858Y8829D01*
X9854Y8803D01*
X9851Y8747D01*
X9851Y8745D01*
X9854Y8711D01*
X9859Y8681D01*
X9866Y8655D01*
X9875Y8633D01*
X9886Y8615D01*
X9899Y8601D01*
X9914Y8591D01*
X9931Y8585D01*
X9950Y8583D01*
X9550D01*
X9569Y8585D01*
X9586Y8591D01*
X9601Y8601D01*
X9614Y8615D01*
X9625Y8633D01*
X9634Y8655D01*
X9641Y8681D01*
X9646Y8711D01*
X9649Y8745D01*
X9649Y8745D01*
X9642Y8829D01*
X9638Y8851D01*
X9632Y8869D01*
X9626Y8883D01*
X9619Y8893D01*
X9610Y8899D01*
X9601Y8901D01*
X9899D01*
X9890Y8899D01*
D02*
G37*
G36*
X8090D02*
X8081Y8893D01*
X8074Y8883D01*
X8068Y8869D01*
X8062Y8851D01*
X8058Y8829D01*
X8054Y8803D01*
X8051Y8747D01*
X8051Y8745D01*
X8054Y8711D01*
X8059Y8681D01*
X8066Y8655D01*
X8075Y8633D01*
X8086Y8615D01*
X8099Y8601D01*
X8114Y8591D01*
X8131Y8585D01*
X8150Y8583D01*
X7750D01*
X7769Y8585D01*
X7786Y8591D01*
X7801Y8601D01*
X7814Y8615D01*
X7825Y8633D01*
X7834Y8655D01*
X7841Y8681D01*
X7846Y8711D01*
X7849Y8745D01*
X7849Y8745D01*
X7842Y8829D01*
X7838Y8851D01*
X7832Y8869D01*
X7826Y8883D01*
X7819Y8893D01*
X7810Y8899D01*
X7801Y8901D01*
X8099D01*
X8090Y8899D01*
D02*
G37*
G36*
X4185D02*
X4177Y8893D01*
X4169Y8883D01*
X4163Y8869D01*
X4157Y8851D01*
X4153Y8829D01*
X4150Y8803D01*
X4146Y8747D01*
X4146Y8745D01*
X4149Y8711D01*
X4154Y8681D01*
X4161Y8655D01*
X4170Y8633D01*
X4181Y8615D01*
X4194Y8601D01*
X4209Y8591D01*
X4226Y8585D01*
X4245Y8583D01*
X3845D01*
X3864Y8585D01*
X3881Y8591D01*
X3896Y8601D01*
X3909Y8615D01*
X3920Y8633D01*
X3929Y8655D01*
X3936Y8681D01*
X3941Y8711D01*
X3944Y8745D01*
X3944Y8745D01*
X3937Y8829D01*
X3933Y8851D01*
X3928Y8869D01*
X3921Y8883D01*
X3914Y8893D01*
X3906Y8899D01*
X3896Y8901D01*
X4194D01*
X4185Y8899D01*
D02*
G37*
G36*
X2101Y8901D02*
X2399D01*
X2390Y8899D01*
X2381Y8893D01*
X2374Y8883D01*
X2368Y8869D01*
X2362Y8851D01*
X2358Y8829D01*
X2354Y8803D01*
X2351Y8747D01*
X2351Y8745D01*
X2354Y8711D01*
X2359Y8681D01*
X2366Y8655D01*
X2375Y8633D01*
X2386Y8615D01*
X2399Y8601D01*
X2414Y8591D01*
X2431Y8585D01*
X2450Y8583D01*
X2050D01*
X2069Y8585D01*
X2086Y8591D01*
X2101Y8601D01*
X2114Y8615D01*
X2125Y8633D01*
X2134Y8655D01*
X2141Y8681D01*
X2146Y8711D01*
X2149Y8745D01*
X2149Y8745D01*
X2142Y8829D01*
X2138Y8851D01*
X2132Y8869D01*
X2126Y8883D01*
X2119Y8893D01*
X2110Y8899D01*
X2101Y8901D01*
X2099Y8910D01*
X2093Y8919D01*
X2083Y8926D01*
X2069Y8932D01*
X2051Y8938D01*
X2029Y8942D01*
X2003Y8946D01*
X1939Y8949D01*
X1901Y8950D01*
Y9150D01*
X1939Y9150D01*
X2029Y9158D01*
X2051Y9162D01*
X2069Y9168D01*
X2083Y9174D01*
X2093Y9181D01*
X2099Y9190D01*
X2101Y9199D01*
Y8901D01*
D02*
G37*
G36*
X-4910Y8899D02*
X-4919Y8893D01*
X-4926Y8883D01*
X-4932Y8869D01*
X-4938Y8851D01*
X-4942Y8829D01*
X-4946Y8803D01*
X-4949Y8747D01*
X-4949Y8745D01*
X-4946Y8711D01*
X-4941Y8681D01*
X-4934Y8655D01*
X-4925Y8633D01*
X-4914Y8615D01*
X-4901Y8601D01*
X-4886Y8591D01*
X-4869Y8585D01*
X-4850Y8583D01*
X-5250D01*
X-5231Y8585D01*
X-5214Y8591D01*
X-5199Y8601D01*
X-5186Y8615D01*
X-5175Y8633D01*
X-5166Y8655D01*
X-5159Y8681D01*
X-5154Y8711D01*
X-5151Y8745D01*
X-5151Y8745D01*
X-5158Y8829D01*
X-5162Y8851D01*
X-5168Y8869D01*
X-5174Y8883D01*
X-5181Y8893D01*
X-5190Y8899D01*
X-5199Y8901D01*
X-4901D01*
X-4910Y8899D01*
D02*
G37*
G36*
X-6690D02*
X-6699Y8893D01*
X-6706Y8883D01*
X-6712Y8869D01*
X-6718Y8851D01*
X-6722Y8829D01*
X-6726Y8803D01*
X-6729Y8747D01*
X-6729Y8745D01*
X-6726Y8711D01*
X-6721Y8681D01*
X-6714Y8655D01*
X-6705Y8633D01*
X-6694Y8615D01*
X-6681Y8601D01*
X-6666Y8591D01*
X-6649Y8585D01*
X-6630Y8583D01*
X-7030D01*
X-7011Y8585D01*
X-6994Y8591D01*
X-6979Y8601D01*
X-6966Y8615D01*
X-6955Y8633D01*
X-6946Y8655D01*
X-6939Y8681D01*
X-6934Y8711D01*
X-6931Y8745D01*
X-6931Y8745D01*
X-6938Y8829D01*
X-6942Y8851D01*
X-6948Y8869D01*
X-6954Y8883D01*
X-6961Y8893D01*
X-6970Y8899D01*
X-6979Y8901D01*
X-6681D01*
X-6690Y8899D01*
D02*
G37*
G36*
X-10656D02*
X-10664Y8893D01*
X-10672Y8883D01*
X-10678Y8869D01*
X-10683Y8851D01*
X-10688Y8829D01*
X-10691Y8803D01*
X-10695Y8747D01*
X-10695Y8745D01*
X-10692Y8711D01*
X-10687Y8681D01*
X-10680Y8655D01*
X-10671Y8633D01*
X-10660Y8615D01*
X-10647Y8601D01*
X-10632Y8591D01*
X-10615Y8585D01*
X-10596Y8583D01*
X-10996D01*
X-10977Y8585D01*
X-10960Y8591D01*
X-10945Y8601D01*
X-10932Y8615D01*
X-10921Y8633D01*
X-10912Y8655D01*
X-10905Y8681D01*
X-10900Y8711D01*
X-10897Y8745D01*
X-10897Y8745D01*
X-10903Y8829D01*
X-10908Y8851D01*
X-10913Y8869D01*
X-10920Y8883D01*
X-10927Y8893D01*
X-10935Y8899D01*
X-10944Y8901D01*
X-10647D01*
X-10656Y8899D01*
D02*
G37*
G36*
X-12800Y9298D02*
X-12722Y9231D01*
X-12689Y9207D01*
X-12659Y9190D01*
X-12632Y9179D01*
X-12609Y9174D01*
X-12590Y9176D01*
X-12574Y9183D01*
X-12561Y9198D01*
X-12744Y8901D01*
X-12446D01*
X-12456Y8899D01*
X-12464Y8893D01*
X-12471Y8883D01*
X-12478Y8869D01*
X-12483Y8851D01*
X-12487Y8829D01*
X-12491Y8803D01*
X-12494Y8747D01*
X-12494Y8745D01*
X-12491Y8711D01*
X-12486Y8681D01*
X-12479Y8655D01*
X-12470Y8633D01*
X-12459Y8615D01*
X-12446Y8601D01*
X-12431Y8591D01*
X-12414Y8585D01*
X-12395Y8583D01*
X-12795D01*
X-12776Y8585D01*
X-12759Y8591D01*
X-12744Y8601D01*
X-12731Y8615D01*
X-12720Y8633D01*
X-12711Y8655D01*
X-12704Y8681D01*
X-12699Y8711D01*
X-12696Y8745D01*
X-12696Y8745D01*
X-12703Y8829D01*
X-12707Y8851D01*
X-12713Y8869D01*
X-12719Y8883D01*
X-12726Y8893D01*
X-12735Y8899D01*
X-12744Y8901D01*
X-12746Y8914D01*
X-12753Y8930D01*
X-12763Y8949D01*
X-12778Y8971D01*
X-12797Y8996D01*
X-12848Y9056D01*
X-12956Y9170D01*
X-12844Y9340D01*
X-12800Y9298D01*
D02*
G37*
G36*
X-6098Y8310D02*
X-6106Y8318D01*
X-6116Y8324D01*
X-6128Y8330D01*
X-6141Y8336D01*
X-6155Y8340D01*
X-6171Y8344D01*
X-6188Y8346D01*
X-6207Y8348D01*
X-6248Y8350D01*
Y8550D01*
X-6227Y8550D01*
X-6188Y8554D01*
X-6171Y8556D01*
X-6155Y8560D01*
X-6141Y8564D01*
X-6128Y8570D01*
X-6116Y8576D01*
X-6106Y8582D01*
X-6098Y8590D01*
Y8310D01*
D02*
G37*
G36*
X-11246Y8912D02*
X-11247Y8901D01*
X-11294Y8885D01*
X-11346D01*
Y7163D01*
X-10427D01*
X-10408Y7116D01*
X-10461Y7064D01*
X-13090D01*
Y3905D01*
X-12071D01*
X-12047Y3846D01*
X-11983Y3762D01*
X-9235Y1015D01*
X-9235Y1015D01*
X-9152Y951D01*
X-9054Y910D01*
X-8950Y897D01*
X-6278D01*
Y550D01*
X-4778D01*
X-4778Y550D01*
Y550D01*
X-4732Y537D01*
X-4245Y50D01*
X-4266Y0D01*
X-12885D01*
X-12982Y19D01*
X-13073Y57D01*
X-13155Y112D01*
X-13224Y181D01*
X-13279Y263D01*
X-13317Y354D01*
X-13336Y451D01*
Y500D01*
Y9055D01*
X-13290Y9074D01*
X-13146Y8931D01*
X-13073Y8854D01*
X-13033Y8807D01*
X-13028Y8800D01*
X-13025Y8793D01*
X-13021Y8782D01*
X-13030Y8774D01*
X-13043Y8754D01*
X-13057Y8735D01*
X-13063Y8720D01*
X-13072Y8706D01*
X-13078Y8684D01*
X-13088Y8662D01*
X-13090Y8646D01*
X-13094Y8631D01*
X-13095Y8607D01*
X-13098Y8583D01*
X-13096Y8568D01*
X-13096Y8552D01*
X-13091Y8529D01*
X-13088Y8505D01*
X-13081Y8490D01*
X-13078Y8475D01*
X-13066Y8454D01*
X-13057Y8432D01*
X-13048Y8419D01*
X-13040Y8405D01*
X-13024Y8388D01*
X-13009Y8369D01*
X-12997Y8360D01*
X-12993Y8356D01*
X-12985Y8296D01*
X-12945Y8198D01*
X-12941Y8194D01*
Y8074D01*
X-12595D01*
X-12249D01*
Y8194D01*
X-12246Y8198D01*
X-12206Y8296D01*
X-12198Y8356D01*
X-12194Y8360D01*
X-12181Y8369D01*
X-12167Y8388D01*
X-12150Y8405D01*
X-12143Y8419D01*
X-12133Y8432D01*
X-12124Y8454D01*
X-12113Y8475D01*
X-12109Y8490D01*
X-12103Y8505D01*
X-12100Y8529D01*
X-12094Y8552D01*
X-12095Y8568D01*
X-12093Y8583D01*
X-12096Y8607D01*
X-12096Y8631D01*
X-12101Y8646D01*
X-12103Y8662D01*
X-12112Y8684D01*
X-12119Y8706D01*
X-12127Y8720D01*
X-12133Y8735D01*
X-12148Y8754D01*
X-12160Y8774D01*
X-12170Y8783D01*
X-12158Y8809D01*
X-12157Y8816D01*
X-12154Y8823D01*
X-12150Y8855D01*
X-12144Y8886D01*
X-12145Y8894D01*
X-12144Y8901D01*
X-12148Y8933D01*
X-12151Y8965D01*
X-12153Y8972D01*
X-12154Y8979D01*
X-12166Y9009D01*
X-12177Y9039D01*
X-12182Y9046D01*
X-12184Y9052D01*
X-12194Y9065D01*
X-12200Y9112D01*
X-12167Y9150D01*
X-12145D01*
Y9197D01*
X-11246D01*
Y8912D01*
D02*
G37*
G36*
X-6600Y8525D02*
X-6597Y8504D01*
X-6592Y8489D01*
X-6584Y8478D01*
X-6574Y8472D01*
X-6561Y8472D01*
X-6547Y8476D01*
X-6530Y8486D01*
X-6511Y8501D01*
X-6490Y8521D01*
X-6459Y8268D01*
X-6486Y8240D01*
X-6510Y8211D01*
X-6532Y8183D01*
X-6550Y8155D01*
X-6566Y8126D01*
X-6579Y8098D01*
X-6589Y8070D01*
X-6596Y8042D01*
X-6600Y8014D01*
X-6602Y7986D01*
Y8551D01*
X-6600Y8525D01*
D02*
G37*
G36*
X12751Y7980D02*
X12754Y7946D01*
X12759Y7916D01*
X12766Y7890D01*
X12775Y7868D01*
X12786Y7850D01*
X12799Y7836D01*
X12814Y7826D01*
X12831Y7820D01*
X12850Y7818D01*
X12450D01*
X12469Y7820D01*
X12486Y7826D01*
X12501Y7836D01*
X12514Y7850D01*
X12525Y7868D01*
X12534Y7890D01*
X12541Y7916D01*
X12546Y7946D01*
X12549Y7980D01*
X12550Y8018D01*
X12750D01*
X12751Y7980D01*
D02*
G37*
G36*
X10951D02*
X10954Y7946D01*
X10959Y7916D01*
X10966Y7890D01*
X10975Y7868D01*
X10986Y7850D01*
X10999Y7836D01*
X11014Y7826D01*
X11031Y7820D01*
X11050Y7818D01*
X10650D01*
X10669Y7820D01*
X10686Y7826D01*
X10701Y7836D01*
X10714Y7850D01*
X10725Y7868D01*
X10734Y7890D01*
X10741Y7916D01*
X10746Y7946D01*
X10749Y7980D01*
X10750Y8018D01*
X10950D01*
X10951Y7980D01*
D02*
G37*
G36*
X7005D02*
X7008Y7946D01*
X7013Y7916D01*
X7020Y7890D01*
X7029Y7868D01*
X7040Y7850D01*
X7053Y7836D01*
X7068Y7826D01*
X7085Y7820D01*
X7104Y7818D01*
X6704D01*
X6723Y7820D01*
X6740Y7826D01*
X6755Y7836D01*
X6768Y7850D01*
X6779Y7868D01*
X6788Y7890D01*
X6795Y7916D01*
X6800Y7946D01*
X6803Y7980D01*
X6804Y8018D01*
X7004D01*
X7005Y7980D01*
D02*
G37*
G36*
X5201D02*
X5204Y7946D01*
X5209Y7916D01*
X5216Y7890D01*
X5225Y7868D01*
X5236Y7850D01*
X5249Y7836D01*
X5264Y7826D01*
X5281Y7820D01*
X5300Y7818D01*
X4900D01*
X4919Y7820D01*
X4936Y7826D01*
X4951Y7836D01*
X4964Y7850D01*
X4975Y7868D01*
X4984Y7890D01*
X4991Y7916D01*
X4996Y7946D01*
X4999Y7980D01*
X5000Y8018D01*
X5200D01*
X5201Y7980D01*
D02*
G37*
G36*
X-2104D02*
X-2101Y7946D01*
X-2096Y7916D01*
X-2089Y7890D01*
X-2080Y7868D01*
X-2069Y7850D01*
X-2056Y7836D01*
X-2041Y7826D01*
X-2024Y7820D01*
X-2005Y7818D01*
X-2405D01*
X-2386Y7820D01*
X-2369Y7826D01*
X-2354Y7836D01*
X-2341Y7850D01*
X-2330Y7868D01*
X-2321Y7890D01*
X-2314Y7916D01*
X-2309Y7946D01*
X-2306Y7980D01*
X-2305Y8018D01*
X-2105D01*
X-2104Y7980D01*
D02*
G37*
G36*
X-3873D02*
X-3870Y7946D01*
X-3865Y7916D01*
X-3858Y7890D01*
X-3849Y7868D01*
X-3838Y7850D01*
X-3825Y7836D01*
X-3810Y7826D01*
X-3793Y7820D01*
X-3774Y7818D01*
X-4174D01*
X-4155Y7820D01*
X-4138Y7826D01*
X-4123Y7836D01*
X-4110Y7850D01*
X-4099Y7868D01*
X-4090Y7890D01*
X-4083Y7916D01*
X-4078Y7946D01*
X-4075Y7980D01*
X-4074Y8018D01*
X-3874D01*
X-3873Y7980D01*
D02*
G37*
G36*
X-7799D02*
X-7796Y7946D01*
X-7791Y7916D01*
X-7784Y7890D01*
X-7775Y7868D01*
X-7764Y7850D01*
X-7751Y7836D01*
X-7736Y7826D01*
X-7719Y7820D01*
X-7700Y7818D01*
X-8100D01*
X-8081Y7820D01*
X-8064Y7826D01*
X-8049Y7836D01*
X-8036Y7850D01*
X-8025Y7868D01*
X-8016Y7890D01*
X-8009Y7916D01*
X-8004Y7946D01*
X-8001Y7980D01*
X-8000Y8018D01*
X-7800D01*
X-7799Y7980D01*
D02*
G37*
G36*
X-9599D02*
X-9596Y7946D01*
X-9591Y7916D01*
X-9584Y7890D01*
X-9575Y7868D01*
X-9564Y7850D01*
X-9551Y7836D01*
X-9536Y7826D01*
X-9519Y7820D01*
X-9500Y7818D01*
X-9900D01*
X-9881Y7820D01*
X-9864Y7826D01*
X-9849Y7836D01*
X-9836Y7850D01*
X-9825Y7868D01*
X-9816Y7890D01*
X-9809Y7916D01*
X-9804Y7946D01*
X-9801Y7980D01*
X-9800Y8018D01*
X-9600D01*
X-9599Y7980D01*
D02*
G37*
G36*
X2005Y7464D02*
X2004Y7472D01*
X1999Y7476D01*
X1992Y7477D01*
X1983Y7474D01*
X1970Y7467D01*
X1954Y7456D01*
X1936Y7441D01*
X1891Y7400D01*
X1864Y7373D01*
Y7656D01*
X1891Y7685D01*
X1915Y7713D01*
X1936Y7741D01*
X1955Y7770D01*
X1971Y7798D01*
X1983Y7826D01*
X1993Y7854D01*
X2001Y7883D01*
X2005Y7911D01*
X2006Y7939D01*
X2005Y7464D01*
D02*
G37*
G36*
X339Y7053D02*
X304Y7017D01*
X248Y6950D01*
X227Y6919D01*
X210Y6889D01*
X198Y6862D01*
X191Y6837D01*
X188Y6813D01*
X190Y6791D01*
X196Y6771D01*
X20Y7157D01*
X30Y7141D01*
X45Y7132D01*
X62Y7128D01*
X84Y7132D01*
X109Y7141D01*
X138Y7157D01*
X170Y7180D01*
X206Y7209D01*
X288Y7286D01*
X339Y7053D01*
D02*
G37*
G36*
X7500Y9560D02*
Y9150D01*
X7522D01*
X7555Y9112D01*
X7548Y9065D01*
X7539Y9052D01*
X7536Y9046D01*
X7532Y9039D01*
X7521Y9009D01*
X7509Y8979D01*
X7508Y8972D01*
X7505Y8965D01*
X7503Y8933D01*
X7499Y8901D01*
X7500Y8894D01*
X7499Y8886D01*
X7505Y8855D01*
X7509Y8823D01*
X7512Y8816D01*
X7513Y8809D01*
X7525Y8783D01*
X7515Y8774D01*
X7502Y8754D01*
X7488Y8735D01*
X7482Y8720D01*
X7474Y8706D01*
X7467Y8684D01*
X7458Y8662D01*
X7456Y8646D01*
X7451Y8631D01*
X7451Y8607D01*
X7447Y8583D01*
X7449Y8568D01*
X7449Y8552D01*
X7455Y8529D01*
X7458Y8505D01*
X7464Y8490D01*
X7468Y8475D01*
X7479Y8454D01*
X7488Y8432D01*
X7498Y8419D01*
X7505Y8405D01*
X7522Y8388D01*
X7536Y8369D01*
X7547Y8361D01*
Y8024D01*
X7547Y8024D01*
X7560Y7919D01*
X7601Y7822D01*
X7604Y7817D01*
Y7363D01*
X7900D01*
Y8024D01*
X8000D01*
Y7363D01*
X8296D01*
Y7817D01*
X8299Y7822D01*
X8340Y7919D01*
X8353Y8024D01*
X8353Y8024D01*
Y8260D01*
X8403Y8304D01*
X8461Y8297D01*
X8547D01*
X8547Y8297D01*
X8651Y8310D01*
X8749Y8351D01*
X8832Y8415D01*
X8896Y8498D01*
X8937Y8596D01*
X8950Y8700D01*
X8937Y8804D01*
X8896Y8902D01*
X8832Y8985D01*
X8832Y8985D01*
X8789Y9028D01*
X8789Y9030D01*
X8771Y9055D01*
X8756Y9081D01*
X8749Y9087D01*
X8743Y9095D01*
X8720Y9115D01*
X8698Y9136D01*
X8690Y9140D01*
X8683Y9146D01*
X8682Y9147D01*
X8692Y9192D01*
X8695Y9197D01*
X9300D01*
Y8912D01*
X9299Y8901D01*
X9252Y8885D01*
X9199D01*
Y7163D01*
X10118D01*
X10137Y7116D01*
X10085Y7064D01*
X7455D01*
X7441Y7108D01*
Y8120D01*
X7308D01*
Y8600D01*
X7354D01*
Y8881D01*
X7355Y8886D01*
X7355Y8894D01*
X7356Y8901D01*
X7354Y8912D01*
Y9150D01*
Y9465D01*
X7355Y9466D01*
X7354Y9467D01*
Y9475D01*
X7379Y9504D01*
X7454Y9579D01*
X7500Y9560D01*
D02*
G37*
G36*
X-7280Y9738D02*
Y9150D01*
X-7258D01*
X-7225Y9112D01*
X-7232Y9065D01*
X-7241Y9052D01*
X-7244Y9046D01*
X-7248Y9039D01*
X-7259Y9009D01*
X-7271Y8979D01*
X-7272Y8972D01*
X-7275Y8965D01*
X-7277Y8933D01*
X-7281Y8901D01*
X-7280Y8894D01*
X-7281Y8886D01*
X-7275Y8855D01*
X-7271Y8823D01*
X-7268Y8816D01*
X-7267Y8809D01*
X-7255Y8783D01*
X-7265Y8774D01*
X-7278Y8754D01*
X-7292Y8735D01*
X-7298Y8720D01*
X-7306Y8706D01*
X-7313Y8684D01*
X-7322Y8662D01*
X-7324Y8646D01*
X-7329Y8631D01*
X-7329Y8607D01*
X-7333Y8583D01*
X-7330Y8568D01*
X-7331Y8552D01*
X-7325Y8529D01*
X-7322Y8505D01*
X-7316Y8490D01*
X-7312Y8475D01*
X-7301Y8454D01*
X-7292Y8432D01*
X-7282Y8419D01*
X-7275Y8405D01*
X-7258Y8388D01*
X-7244Y8369D01*
X-7233Y8361D01*
Y8132D01*
X-7235Y8128D01*
X-7249Y8024D01*
X-7235Y7919D01*
X-7195Y7822D01*
X-7191Y7817D01*
Y7363D01*
X-6895D01*
Y8024D01*
X-6795D01*
Y7363D01*
X-6499D01*
Y7703D01*
X-6494Y7705D01*
X-6464Y7716D01*
X-6457Y7721D01*
X-6450Y7724D01*
X-6425Y7743D01*
X-6399Y7761D01*
X-6394Y7767D01*
X-6388Y7772D01*
X-6368Y7797D01*
X-6348Y7821D01*
X-6344Y7828D01*
X-6340Y7834D01*
X-6327Y7864D01*
X-6314Y7893D01*
X-6312Y7900D01*
X-6309Y7907D01*
X-6305Y7939D01*
X-6299Y7970D01*
X-6299Y7982D01*
X-6298Y7985D01*
X-6295Y7990D01*
X-6291Y7998D01*
X-6284Y8009D01*
X-6274Y8022D01*
X-6263Y8036D01*
X-6252Y8047D01*
X-6246D01*
X-6241Y8044D01*
X-6233Y8039D01*
X-6204Y8029D01*
X-6176Y8018D01*
X-6167Y8017D01*
X-6159Y8014D01*
X-6128Y8011D01*
X-6098Y8007D01*
X-6089Y8009D01*
X-6080Y8008D01*
X-6050Y8014D01*
X-6019Y8018D01*
X-6011Y8021D01*
X-6002Y8023D01*
X-5975Y8036D01*
X-5948Y8048D01*
X-5851Y8060D01*
X-5753Y8101D01*
X-5670Y8165D01*
X-5646Y8196D01*
X-5596Y8179D01*
Y7163D01*
X-4732D01*
X-4713Y7116D01*
X-4765Y7064D01*
X-7340D01*
X-7354Y7108D01*
Y8120D01*
X-7497D01*
Y8600D01*
X-7450D01*
Y8881D01*
X-7449Y8886D01*
X-7450Y8894D01*
X-7449Y8901D01*
X-7450Y8912D01*
Y9150D01*
Y9747D01*
X-7281D01*
X-7280Y9738D01*
D02*
G37*
G36*
X10606Y6731D02*
X10605Y6757D01*
X10601Y6777D01*
X10594Y6791D01*
X10584Y6799D01*
X10571Y6802D01*
X10555Y6799D01*
X10536Y6791D01*
X10515Y6777D01*
X10491Y6757D01*
X10464Y6731D01*
Y7014D01*
X10491Y7042D01*
X10515Y7071D01*
X10536Y7099D01*
X10555Y7127D01*
X10571Y7156D01*
X10584Y7184D01*
X10594Y7212D01*
X10601Y7240D01*
X10605Y7268D01*
X10606Y7297D01*
Y6731D01*
D02*
G37*
G36*
X4856D02*
X4855Y6757D01*
X4851Y6777D01*
X4844Y6791D01*
X4834Y6799D01*
X4821Y6802D01*
X4805Y6799D01*
X4786Y6791D01*
X4765Y6777D01*
X4741Y6757D01*
X4714Y6731D01*
Y7014D01*
X4741Y7042D01*
X4765Y7071D01*
X4786Y7099D01*
X4805Y7127D01*
X4821Y7156D01*
X4834Y7184D01*
X4844Y7212D01*
X4851Y7240D01*
X4855Y7268D01*
X4856Y7297D01*
Y6731D01*
D02*
G37*
G36*
X-4244D02*
X-4245Y6757D01*
X-4249Y6777D01*
X-4256Y6791D01*
X-4266Y6799D01*
X-4279Y6802D01*
X-4295Y6799D01*
X-4314Y6791D01*
X-4335Y6777D01*
X-4359Y6757D01*
X-4386Y6731D01*
Y7014D01*
X-4359Y7042D01*
X-4335Y7071D01*
X-4314Y7099D01*
X-4295Y7127D01*
X-4279Y7156D01*
X-4266Y7184D01*
X-4256Y7212D01*
X-4249Y7240D01*
X-4245Y7268D01*
X-4244Y7297D01*
Y6731D01*
D02*
G37*
G36*
X-9939D02*
X-9940Y6757D01*
X-9945Y6777D01*
X-9952Y6791D01*
X-9962Y6799D01*
X-9975Y6802D01*
X-9990Y6799D01*
X-10009Y6791D01*
X-10030Y6777D01*
X-10054Y6757D01*
X-10082Y6731D01*
Y7014D01*
X-10054Y7042D01*
X-10030Y7071D01*
X-10009Y7099D01*
X-9990Y7127D01*
X-9975Y7156D01*
X-9962Y7184D01*
X-9952Y7212D01*
X-9945Y7240D01*
X-9940Y7268D01*
X-9939Y7297D01*
Y6731D01*
D02*
G37*
G36*
X-4715Y6402D02*
X-4742Y6374D01*
X-4766Y6345D01*
X-4788Y6317D01*
X-4806Y6289D01*
X-4822Y6260D01*
X-4835Y6232D01*
X-4845Y6204D01*
X-4852Y6176D01*
X-4856Y6148D01*
X-4857Y6119D01*
Y6685D01*
X-4856Y6659D01*
X-4852Y6639D01*
X-4845Y6625D01*
X-4835Y6617D01*
X-4822Y6614D01*
X-4806Y6617D01*
X-4788Y6625D01*
X-4766Y6639D01*
X-4742Y6659D01*
X-4715Y6685D01*
Y6402D01*
D02*
G37*
G36*
X4380Y6398D02*
X4353Y6369D01*
X4329Y6341D01*
X4308Y6312D01*
X4289Y6284D01*
X4273Y6256D01*
X4261Y6227D01*
X4251Y6199D01*
X4243Y6171D01*
X4239Y6143D01*
X4238Y6115D01*
Y6680D01*
X4239Y6655D01*
X4243Y6635D01*
X4251Y6621D01*
X4261Y6612D01*
X4273Y6609D01*
X4289Y6612D01*
X4308Y6621D01*
X4329Y6635D01*
X4353Y6655D01*
X4380Y6680D01*
Y6398D01*
D02*
G37*
G36*
X-13Y6568D02*
X-24Y6584D01*
X-39Y6593D01*
X-57Y6596D01*
X-78Y6592D01*
X-104Y6582D01*
X-133Y6566D01*
X-165Y6543D01*
X-201Y6514D01*
X-284Y6437D01*
X-339Y6665D01*
X-304Y6702D01*
X-247Y6770D01*
X-226Y6801D01*
X-209Y6830D01*
X-197Y6857D01*
X-190Y6883D01*
X-187Y6906D01*
X-190Y6928D01*
X-196Y6948D01*
X-13Y6568D01*
D02*
G37*
G36*
X-10465Y6348D02*
X-10492Y6319D01*
X-10516Y6291D01*
X-10538Y6262D01*
X-10556Y6234D01*
X-10572Y6206D01*
X-10585Y6177D01*
X-10595Y6149D01*
X-10602Y6121D01*
X-10606Y6093D01*
X-10608Y6065D01*
Y6630D01*
X-10606Y6605D01*
X-10602Y6585D01*
X-10595Y6571D01*
X-10585Y6562D01*
X-10572Y6559D01*
X-10556Y6562D01*
X-10538Y6571D01*
X-10516Y6585D01*
X-10492Y6605D01*
X-10465Y6630D01*
Y6348D01*
D02*
G37*
G36*
X10358Y6623D02*
X10340Y6599D01*
X10329Y6578D01*
X10324Y6560D01*
X10327Y6544D01*
X10336Y6531D01*
X10352Y6521D01*
X10375Y6514D01*
X10405Y6510D01*
X10441Y6509D01*
X10241Y6309D01*
X10202Y6307D01*
X10164Y6303D01*
X10127Y6296D01*
X10091Y6286D01*
X10056Y6273D01*
X10023Y6258D01*
X9990Y6239D01*
X9959Y6218D01*
X9929Y6194D01*
X9900Y6167D01*
X9938Y6258D01*
Y6470D01*
X9938Y6471D01*
X9929Y6479D01*
X9931Y6481D01*
X9932Y6482D01*
X9934Y6482D01*
X9935Y6482D01*
X9936Y6481D01*
X9936Y6480D01*
X9937Y6478D01*
X9937Y6476D01*
X9938Y6473D01*
X9938Y6471D01*
X10000Y6409D01*
X10383Y6650D01*
X10358Y6623D01*
D02*
G37*
G36*
X339Y6273D02*
X304Y6236D01*
X247Y6168D01*
X226Y6137D01*
X209Y6108D01*
X197Y6081D01*
X190Y6055D01*
X187Y6031D01*
X190Y6010D01*
X196Y5990D01*
X13Y6370D01*
X24Y6354D01*
X39Y6345D01*
X57Y6342D01*
X78Y6345D01*
X104Y6355D01*
X133Y6372D01*
X165Y6394D01*
X201Y6423D01*
X284Y6501D01*
X339Y6273D01*
D02*
G37*
G36*
X-13Y5780D02*
X-24Y5796D01*
X-39Y5805D01*
X-57Y5808D01*
X-78Y5805D01*
X-104Y5795D01*
X-133Y5779D01*
X-165Y5756D01*
X-201Y5727D01*
X-284Y5650D01*
X-339Y5878D01*
X-304Y5914D01*
X-247Y5982D01*
X-226Y6013D01*
X-209Y6042D01*
X-197Y6070D01*
X-190Y6095D01*
X-187Y6119D01*
X-190Y6141D01*
X-196Y6160D01*
X-13Y5780D01*
D02*
G37*
G36*
X-1870Y4852D02*
X-1897Y4823D01*
X-1921Y4795D01*
X-1942Y4766D01*
X-1961Y4738D01*
X-1977Y4710D01*
X-1989Y4681D01*
X-1999Y4653D01*
X-2007Y4625D01*
X-2011Y4597D01*
X-2012Y4569D01*
Y5134D01*
X-2011Y5109D01*
X-2007Y5089D01*
X-1999Y5074D01*
X-1989Y5066D01*
X-1977Y5063D01*
X-1961Y5066D01*
X-1942Y5074D01*
X-1921Y5089D01*
X-1897Y5109D01*
X-1870Y5134D01*
Y4852D01*
D02*
G37*
G36*
X-5599Y4206D02*
X-5619Y4201D01*
X-5633Y4194D01*
X-5641Y4184D01*
X-5644Y4171D01*
X-5641Y4156D01*
X-5633Y4137D01*
X-5619Y4116D01*
X-5599Y4092D01*
X-5573Y4064D01*
X-5856D01*
X-5884Y4092D01*
X-5913Y4116D01*
X-5941Y4137D01*
X-5970Y4156D01*
X-5998Y4171D01*
X-6026Y4184D01*
X-6054Y4194D01*
X-6083Y4201D01*
X-6111Y4206D01*
X-6139Y4207D01*
X-5573D01*
X-5599Y4206D01*
D02*
G37*
G36*
X-11550Y4205D02*
X-11560Y4201D01*
X-11569Y4193D01*
X-11577Y4182D01*
X-11583Y4167D01*
X-11588Y4150D01*
X-11592Y4129D01*
X-11595Y4105D01*
X-11597Y4078D01*
X-11598Y4048D01*
X-11798D01*
X-11798Y4078D01*
X-11803Y4129D01*
X-11807Y4150D01*
X-11812Y4167D01*
X-11819Y4182D01*
X-11826Y4193D01*
X-11835Y4201D01*
X-11845Y4205D01*
X-11856Y4207D01*
X-11539D01*
X-11550Y4205D01*
D02*
G37*
G36*
X9029Y4205D02*
X9012Y4199D01*
X8997Y4189D01*
X8984Y4175D01*
X8973Y4157D01*
X8964Y4135D01*
X8957Y4108D01*
X8952Y4078D01*
X8949Y4044D01*
X8948Y4006D01*
X8748D01*
X8747Y4044D01*
X8744Y4078D01*
X8739Y4108D01*
X8732Y4135D01*
X8723Y4157D01*
X8712Y4175D01*
X8699Y4189D01*
X8684Y4199D01*
X8667Y4205D01*
X8648Y4207D01*
X9048D01*
X9029Y4205D01*
D02*
G37*
G36*
X3831D02*
X3814Y4199D01*
X3799Y4189D01*
X3786Y4175D01*
X3775Y4157D01*
X3766Y4135D01*
X3759Y4108D01*
X3754Y4078D01*
X3751Y4044D01*
X3750Y4006D01*
X3550D01*
X3549Y4044D01*
X3546Y4078D01*
X3541Y4108D01*
X3534Y4135D01*
X3525Y4157D01*
X3514Y4175D01*
X3501Y4189D01*
X3486Y4199D01*
X3469Y4205D01*
X3450Y4207D01*
X3850D01*
X3831Y4205D01*
D02*
G37*
G36*
X10656Y3441D02*
X10655Y3448D01*
X10651Y3452D01*
X10644Y3451D01*
X10634Y3447D01*
X10621Y3440D01*
X10605Y3428D01*
X10587Y3413D01*
X10542Y3371D01*
X10515Y3345D01*
Y3628D01*
X10542Y3656D01*
X10566Y3685D01*
X10588Y3713D01*
X10606Y3741D01*
X10622Y3770D01*
X10635Y3798D01*
X10645Y3826D01*
X10652Y3854D01*
X10656Y3883D01*
X10658Y3911D01*
X10656Y3441D01*
D02*
G37*
G36*
X4906D02*
X4905Y3448D01*
X4901Y3452D01*
X4894Y3451D01*
X4884Y3447D01*
X4871Y3440D01*
X4855Y3428D01*
X4837Y3413D01*
X4792Y3371D01*
X4765Y3345D01*
Y3628D01*
X4792Y3656D01*
X4816Y3685D01*
X4837Y3713D01*
X4856Y3741D01*
X4872Y3770D01*
X4885Y3798D01*
X4895Y3826D01*
X4902Y3854D01*
X4906Y3883D01*
X4908Y3911D01*
X4906Y3441D01*
D02*
G37*
G36*
X-7706Y3883D02*
X-7702Y3854D01*
X-7695Y3826D01*
X-7685Y3798D01*
X-7672Y3770D01*
X-7656Y3741D01*
X-7637Y3713D01*
X-7616Y3685D01*
X-7592Y3656D01*
X-7565Y3628D01*
Y3345D01*
X-7584Y3363D01*
X-7634Y3406D01*
X-7648Y3417D01*
X-7662Y3426D01*
X-7674Y3432D01*
X-7686Y3437D01*
X-7697Y3440D01*
X-7706Y3441D01*
X-7708Y3911D01*
X-7706Y3883D01*
D02*
G37*
G36*
X-2011Y3441D02*
X-2028Y3439D01*
X-2043Y3433D01*
X-2056Y3423D01*
X-2068Y3409D01*
X-2078Y3391D01*
X-2086Y3369D01*
X-2092Y3343D01*
X-2096Y3313D01*
X-2099Y3279D01*
X-2100Y3241D01*
X-2300D01*
X-2301Y3279D01*
X-2304Y3313D01*
X-2309Y3343D01*
X-2316Y3370D01*
X-2325Y3392D01*
X-2336Y3410D01*
X-2349Y3424D01*
X-2364Y3434D01*
X-2381Y3440D01*
X-2400Y3442D01*
X-2011Y3441D01*
D02*
G37*
G36*
X3751Y1953D02*
X3754Y1918D01*
X3759Y1888D01*
X3766Y1862D01*
X3775Y1840D01*
X3786Y1822D01*
X3799Y1808D01*
X3814Y1798D01*
X3831Y1792D01*
X3850Y1790D01*
X3780D01*
X3786Y1780D01*
X3799Y1766D01*
X3814Y1756D01*
X3831Y1750D01*
X3850Y1748D01*
X3450D01*
X3469Y1750D01*
X3486Y1756D01*
X3501Y1766D01*
X3514Y1780D01*
X3520Y1790D01*
X3450D01*
X3469Y1792D01*
X3486Y1798D01*
X3501Y1808D01*
X3514Y1822D01*
X3525Y1840D01*
X3534Y1862D01*
X3541Y1888D01*
X3546Y1918D01*
X3549Y1953D01*
X3550Y1991D01*
X3750D01*
X3751Y1953D01*
D02*
G37*
G36*
X-838D02*
X-835Y1918D01*
X-830Y1888D01*
X-823Y1862D01*
X-814Y1840D01*
X-803Y1822D01*
X-790Y1808D01*
X-775Y1798D01*
X-758Y1792D01*
X-739Y1790D01*
X-809D01*
X-803Y1780D01*
X-790Y1766D01*
X-775Y1756D01*
X-758Y1750D01*
X-739Y1748D01*
X-1139D01*
X-1120Y1750D01*
X-1103Y1756D01*
X-1088Y1766D01*
X-1075Y1780D01*
X-1069Y1790D01*
X-1139D01*
X-1120Y1792D01*
X-1103Y1798D01*
X-1088Y1808D01*
X-1075Y1822D01*
X-1064Y1840D01*
X-1055Y1862D01*
X-1048Y1888D01*
X-1043Y1918D01*
X-1040Y1953D01*
X-1039Y1991D01*
X-839D01*
X-838Y1953D01*
D02*
G37*
G36*
X-3427Y1852D02*
X-3423Y1807D01*
X-3420Y1788D01*
X-3415Y1771D01*
X-3410Y1757D01*
X-3404Y1746D01*
X-3396Y1736D01*
X-3388Y1729D01*
X-3379Y1725D01*
X-3677D01*
X-3667Y1729D01*
X-3659Y1736D01*
X-3652Y1746D01*
X-3645Y1757D01*
X-3640Y1771D01*
X-3635Y1788D01*
X-3632Y1807D01*
X-3630Y1828D01*
X-3628Y1852D01*
X-3628Y1878D01*
X-3428D01*
X-3427Y1852D01*
D02*
G37*
G36*
X1163Y1973D02*
X1170Y1937D01*
X1181Y1900D01*
X1196Y1862D01*
X1215Y1824D01*
X1239Y1784D01*
X1267Y1745D01*
X1299Y1704D01*
X1335Y1663D01*
X1376Y1621D01*
X746D01*
X787Y1663D01*
X856Y1745D01*
X884Y1784D01*
X907Y1824D01*
X927Y1862D01*
X942Y1900D01*
X953Y1937D01*
X959Y1973D01*
X961Y2009D01*
X1161D01*
X1163Y1973D01*
D02*
G37*
G36*
X1755Y6770D02*
Y3905D01*
X3247D01*
Y2050D01*
X2900D01*
Y703D01*
X1127D01*
X1124Y753D01*
X1205Y764D01*
X1339Y820D01*
X1453Y908D01*
X1542Y1023D01*
X1597Y1156D01*
X1609Y1250D01*
X513D01*
X525Y1156D01*
X581Y1023D01*
X669Y908D01*
X784Y820D01*
X918Y764D01*
X999Y753D01*
X996Y703D01*
X-189D01*
Y2050D01*
X-535D01*
Y4043D01*
X-491Y4065D01*
X-448Y4032D01*
X-317Y3978D01*
X-177Y3960D01*
X177D01*
X317Y3978D01*
X448Y4032D01*
X560Y4118D01*
X608Y4181D01*
X658Y4164D01*
Y2007D01*
X657Y2006D01*
X655Y1998D01*
X651Y1986D01*
X642Y1970D01*
X630Y1950D01*
X616Y1930D01*
X563Y1867D01*
X530Y1833D01*
X507Y1803D01*
X484Y1773D01*
X483Y1771D01*
X482Y1770D01*
X468Y1735D01*
X454Y1700D01*
X454Y1698D01*
X453Y1696D01*
X449Y1659D01*
X444Y1621D01*
X444Y1620D01*
X444Y1618D01*
X449Y1580D01*
X454Y1543D01*
X455Y1541D01*
X455Y1540D01*
X470Y1505D01*
X484Y1470D01*
X485Y1469D01*
X486Y1467D01*
X509Y1437D01*
X522Y1420D01*
X513Y1350D01*
X1609D01*
X1600Y1420D01*
X1613Y1437D01*
X1636Y1467D01*
X1637Y1469D01*
X1638Y1470D01*
X1653Y1505D01*
X1668Y1540D01*
X1668Y1541D01*
X1668Y1543D01*
X1673Y1580D01*
X1679Y1618D01*
X1679Y1620D01*
X1679Y1621D01*
X1674Y1659D01*
X1669Y1696D01*
X1669Y1698D01*
X1668Y1700D01*
X1654Y1735D01*
X1640Y1770D01*
X1639Y1771D01*
X1638Y1773D01*
X1615Y1803D01*
X1593Y1833D01*
X1557Y1870D01*
X1530Y1899D01*
X1509Y1926D01*
X1492Y1950D01*
X1480Y1970D01*
X1472Y1986D01*
X1467Y1998D01*
X1465Y2006D01*
X1465Y2007D01*
Y6545D01*
X1709Y6789D01*
X1755Y6770D01*
D02*
G37*
G36*
X-5975Y1100D02*
X-5977Y1119D01*
X-5983Y1136D01*
X-5993Y1151D01*
X-6007Y1164D01*
X-6026Y1175D01*
X-6048Y1184D01*
X-6074Y1191D01*
X-6104Y1196D01*
X-6138Y1199D01*
X-6176Y1200D01*
Y1400D01*
X-6138Y1401D01*
X-6104Y1404D01*
X-6074Y1409D01*
X-6048Y1416D01*
X-6026Y1425D01*
X-6007Y1436D01*
X-5993Y1449D01*
X-5983Y1464D01*
X-5977Y1481D01*
X-5975Y1500D01*
Y1100D01*
D02*
G37*
G36*
X6013Y1574D02*
X6095Y1505D01*
X6135Y1477D01*
X6174Y1454D01*
X6212Y1434D01*
X6250Y1419D01*
X6287Y1409D01*
X6323Y1402D01*
X6359Y1400D01*
Y1200D01*
X6323Y1198D01*
X6287Y1191D01*
X6250Y1181D01*
X6212Y1166D01*
X6174Y1146D01*
X6135Y1123D01*
X6095Y1095D01*
X6054Y1062D01*
X6013Y1026D01*
X5971Y985D01*
Y1615D01*
X6013Y1574D01*
D02*
G37*
G36*
X4746Y562D02*
X4752Y528D01*
X4762Y498D01*
X4776Y472D01*
X4794Y450D01*
X4816Y432D01*
X4842Y418D01*
X4872Y408D01*
X4906Y402D01*
X4944Y400D01*
X4644Y200D01*
X4344Y400D01*
X4382Y402D01*
X4416Y408D01*
X4446Y418D01*
X4472Y432D01*
X4494Y450D01*
X4512Y472D01*
X4526Y498D01*
X4536Y528D01*
X4542Y562D01*
X4544Y600D01*
X4744D01*
X4746Y562D01*
D02*
G37*
G36*
X-2098D02*
X-2092Y528D01*
X-2082Y498D01*
X-2068Y472D01*
X-2050Y450D01*
X-2028Y432D01*
X-2002Y418D01*
X-1972Y408D01*
X-1938Y402D01*
X-1900Y400D01*
X-2200Y200D01*
X-2500Y400D01*
X-2462Y402D01*
X-2428Y408D01*
X-2398Y418D01*
X-2372Y432D01*
X-2350Y450D01*
X-2332Y472D01*
X-2318Y498D01*
X-2308Y528D01*
X-2302Y562D01*
X-2300Y600D01*
X-2100D01*
X-2098Y562D01*
D02*
G37*
%LPC*%
G36*
X12255Y20788D02*
X12082Y20775D01*
X11914Y20734D01*
X11754Y20668D01*
X11606Y20578D01*
X11475Y20465D01*
X11362Y20334D01*
X11272Y20186D01*
X11205Y20026D01*
X11165Y19858D01*
X11151Y19685D01*
X11165Y19512D01*
X11205Y19344D01*
X11272Y19184D01*
X11362Y19036D01*
X11475Y18905D01*
X11606Y18792D01*
X11754Y18702D01*
X11914Y18636D01*
X12082Y18595D01*
X12255Y18582D01*
X12427Y18595D01*
X12596Y18636D01*
X12756Y18702D01*
X12903Y18792D01*
X13035Y18905D01*
X13147Y19036D01*
X13238Y19184D01*
X13304Y19344D01*
X13345Y19512D01*
X13358Y19685D01*
X13345Y19858D01*
X13304Y20026D01*
X13238Y20186D01*
X13147Y20334D01*
X13035Y20465D01*
X12903Y20578D01*
X12756Y20668D01*
X12596Y20734D01*
X12427Y20775D01*
X12255Y20788D01*
D02*
G37*
G36*
X15011Y18033D02*
X14838Y18019D01*
X14670Y17979D01*
X14510Y17912D01*
X14362Y17822D01*
X14230Y17709D01*
X14118Y17578D01*
X14028Y17430D01*
X13961Y17270D01*
X13921Y17102D01*
X13907Y16929D01*
X13921Y16757D01*
X13961Y16588D01*
X14028Y16428D01*
X14118Y16281D01*
X14230Y16149D01*
X14362Y16036D01*
X14510Y15946D01*
X14670Y15880D01*
X14838Y15839D01*
X15011Y15826D01*
X15183Y15839D01*
X15352Y15880D01*
X15512Y15946D01*
X15659Y16036D01*
X15791Y16149D01*
X15903Y16281D01*
X15994Y16428D01*
X16060Y16588D01*
X16100Y16757D01*
X16114Y16929D01*
X16100Y17102D01*
X16060Y17270D01*
X15994Y17430D01*
X15903Y17578D01*
X15791Y17709D01*
X15659Y17822D01*
X15512Y17912D01*
X15352Y17979D01*
X15183Y18019D01*
X15011Y18033D01*
D02*
G37*
G36*
X-12155Y20788D02*
X-12327Y20775D01*
X-12496Y20734D01*
X-12656Y20668D01*
X-12803Y20578D01*
X-12935Y20465D01*
X-13047Y20334D01*
X-13138Y20186D01*
X-13204Y20026D01*
X-13245Y19858D01*
X-13258Y19685D01*
X-13245Y19512D01*
X-13204Y19344D01*
X-13138Y19184D01*
X-13047Y19036D01*
X-12935Y18905D01*
X-12803Y18792D01*
X-12656Y18702D01*
X-12496Y18636D01*
X-12327Y18595D01*
X-12155Y18582D01*
X-11982Y18595D01*
X-11814Y18636D01*
X-11654Y18702D01*
X-11506Y18792D01*
X-11374Y18905D01*
X-11262Y19036D01*
X-11172Y19184D01*
X-11105Y19344D01*
X-11065Y19512D01*
X-11051Y19685D01*
X-11065Y19858D01*
X-11105Y20026D01*
X-11172Y20186D01*
X-11262Y20334D01*
X-11374Y20465D01*
X-11506Y20578D01*
X-11654Y20668D01*
X-11814Y20734D01*
X-11982Y20775D01*
X-12155Y20788D01*
D02*
G37*
G36*
X-14911Y18033D02*
X-15083Y18019D01*
X-15252Y17979D01*
X-15412Y17912D01*
X-15559Y17822D01*
X-15691Y17709D01*
X-15803Y17578D01*
X-15894Y17430D01*
X-15960Y17270D01*
X-16000Y17102D01*
X-16014Y16929D01*
X-16000Y16757D01*
X-15960Y16588D01*
X-15894Y16428D01*
X-15803Y16281D01*
X-15691Y16149D01*
X-15559Y16036D01*
X-15412Y15946D01*
X-15252Y15880D01*
X-15083Y15839D01*
X-14911Y15826D01*
X-14738Y15839D01*
X-14570Y15880D01*
X-14410Y15946D01*
X-14262Y16036D01*
X-14130Y16149D01*
X-14018Y16281D01*
X-13927Y16428D01*
X-13861Y16588D01*
X-13821Y16757D01*
X-13807Y16929D01*
X-13821Y17102D01*
X-13861Y17270D01*
X-13927Y17430D01*
X-14018Y17578D01*
X-14130Y17709D01*
X-14262Y17822D01*
X-14410Y17912D01*
X-14570Y17979D01*
X-14738Y18019D01*
X-14911Y18033D01*
D02*
G37*
G36*
X5607Y14421D02*
X5583Y14416D01*
X5556Y14404D01*
X5553Y14402D01*
X5658D01*
X5645Y14414D01*
X5627Y14420D01*
X5607Y14421D01*
D02*
G37*
G36*
X-3048Y13755D02*
X-4190D01*
Y12425D01*
X-3048D01*
Y13755D01*
D02*
G37*
G36*
X-12249Y7974D02*
X-12545D01*
Y7363D01*
X-12249D01*
Y7974D01*
D02*
G37*
G36*
X-12645D02*
X-12941D01*
Y7363D01*
X-12645D01*
Y7974D01*
D02*
G37*
G36*
X-12155Y2285D02*
X-12327Y2271D01*
X-12496Y2230D01*
X-12656Y2164D01*
X-12803Y2074D01*
X-12935Y1961D01*
X-13047Y1830D01*
X-13138Y1682D01*
X-13204Y1522D01*
X-13245Y1354D01*
X-13258Y1181D01*
X-13245Y1008D01*
X-13204Y840D01*
X-13138Y680D01*
X-13047Y533D01*
X-12935Y401D01*
X-12803Y288D01*
X-12656Y198D01*
X-12496Y132D01*
X-12327Y91D01*
X-12155Y78D01*
X-11982Y91D01*
X-11814Y132D01*
X-11654Y198D01*
X-11506Y288D01*
X-11374Y401D01*
X-11262Y533D01*
X-11172Y680D01*
X-11105Y840D01*
X-11065Y1008D01*
X-11051Y1181D01*
X-11065Y1354D01*
X-11105Y1522D01*
X-11172Y1682D01*
X-11262Y1830D01*
X-11374Y1961D01*
X-11506Y2074D01*
X-11654Y2164D01*
X-11814Y2230D01*
X-11982Y2271D01*
X-12155Y2285D01*
D02*
G37*
%LPD*%
D17*
X5650Y14675D02*
D03*
X-6650D02*
D03*
X-10100D02*
D03*
X9050D02*
D03*
D18*
X5650Y13325D02*
D03*
X-6650D02*
D03*
X-10100D02*
D03*
X9050D02*
D03*
D19*
X2577Y13204D02*
D03*
Y14896D02*
D03*
D20*
X-4852Y11756D02*
D03*
Y12425D02*
D03*
D21*
X2550Y18200D02*
D03*
Y16850D02*
D03*
D22*
X5650Y19400D02*
D03*
X5100D02*
D03*
X400Y13444D02*
D03*
X-150D02*
D03*
X-2100Y15950D02*
D03*
X-2650D02*
D03*
X-8403Y11342D02*
D03*
X-7853D02*
D03*
X-12003D02*
D03*
X-11453D02*
D03*
X10947D02*
D03*
X11497D02*
D03*
X7147D02*
D03*
X7697D02*
D03*
X-8050Y16410D02*
D03*
X-7500D02*
D03*
X-10700D02*
D03*
X-11250D02*
D03*
X11300D02*
D03*
X10750D02*
D03*
X7600D02*
D03*
X8150D02*
D03*
X-800Y17579D02*
D03*
X-250D02*
D03*
X-2050D02*
D03*
X-2600D02*
D03*
X-5600Y19400D02*
D03*
X-5050D02*
D03*
X-5600Y20250D02*
D03*
X-5050D02*
D03*
X5650D02*
D03*
X5100D02*
D03*
D23*
X-1250Y14358D02*
D03*
X-750D02*
D03*
X-250D02*
D03*
X250D02*
D03*
Y16642D02*
D03*
X-250D02*
D03*
X-750D02*
D03*
X-1250D02*
D03*
D24*
X-10800Y8024D02*
D03*
X-12595D02*
D03*
X-2205Y7259D02*
D03*
X-4000D02*
D03*
X-9695D02*
D03*
X-7900D02*
D03*
X-5050Y8024D02*
D03*
X-6845D02*
D03*
X10850Y7259D02*
D03*
X12645D02*
D03*
X6895D02*
D03*
X5100D02*
D03*
X7950Y8024D02*
D03*
X9745D02*
D03*
X4045D02*
D03*
X2250D02*
D03*
X-3895Y14915D02*
D03*
X-2100D02*
D03*
D25*
X-11698Y5484D02*
D03*
X-3102Y4719D02*
D03*
X-8798D02*
D03*
X-5948Y5484D02*
D03*
X11748Y4719D02*
D03*
X5998D02*
D03*
X8848Y5484D02*
D03*
X3148D02*
D03*
X-2998Y12375D02*
D03*
D26*
X8050Y14416D02*
D03*
X7550D02*
D03*
X7050D02*
D03*
X6550D02*
D03*
X8050Y12487D02*
D03*
X7550D02*
D03*
X7050D02*
D03*
X6550D02*
D03*
X-7600Y14416D02*
D03*
X-8100D02*
D03*
X-8600D02*
D03*
X-9100D02*
D03*
X-7600Y12487D02*
D03*
X-8100D02*
D03*
X-8600D02*
D03*
X-9100D02*
D03*
X-11150Y14416D02*
D03*
X-11650D02*
D03*
X-12150D02*
D03*
X-12650D02*
D03*
X-11150Y12487D02*
D03*
X-11650D02*
D03*
X-12150D02*
D03*
X-12650D02*
D03*
X11700Y14416D02*
D03*
X11200D02*
D03*
X10700D02*
D03*
X10200D02*
D03*
X11700Y12487D02*
D03*
X11200D02*
D03*
X10700D02*
D03*
X10200D02*
D03*
D27*
X3800Y11850D02*
D03*
Y12400D02*
D03*
X-4852Y14165D02*
D03*
Y14715D02*
D03*
X-3974Y9600D02*
D03*
Y9050D02*
D03*
X-9700Y9600D02*
D03*
Y9050D02*
D03*
X-6830Y9600D02*
D03*
Y9050D02*
D03*
X-12595Y9600D02*
D03*
Y9050D02*
D03*
X10850Y9600D02*
D03*
Y9050D02*
D03*
X5100Y9600D02*
D03*
Y9050D02*
D03*
X7950Y9600D02*
D03*
Y9050D02*
D03*
X2250Y9600D02*
D03*
Y9050D02*
D03*
X-2205D02*
D03*
Y9600D02*
D03*
X-7900Y9050D02*
D03*
Y9600D02*
D03*
X-5050Y9050D02*
D03*
Y9600D02*
D03*
X-10796Y9050D02*
D03*
Y9600D02*
D03*
X12650Y9050D02*
D03*
Y9600D02*
D03*
X9750Y9050D02*
D03*
Y9600D02*
D03*
X6904Y9050D02*
D03*
Y9600D02*
D03*
X4045Y9050D02*
D03*
Y9600D02*
D03*
X1100Y17350D02*
D03*
Y16800D02*
D03*
X3800Y14165D02*
D03*
Y14715D02*
D03*
D47*
X171Y9708D02*
X750Y9129D01*
X-4576Y952D02*
Y1976D01*
X-5650Y3050D02*
X-4576Y1976D01*
X-7128Y3050D02*
X-5650D01*
X-3924Y300D02*
X-2200D01*
X-4576Y952D02*
X-3924Y300D01*
X8848Y3562D02*
Y5484D01*
X6586Y1300D02*
X8848Y3562D01*
X5650Y1300D02*
X6586D01*
X-8950D02*
X-5528D01*
X-11698Y4048D02*
X-8950Y1300D01*
X-11698Y4048D02*
Y5484D01*
X-8798Y4719D02*
X-7128Y3050D01*
X-3528Y1300D02*
Y1878D01*
X-5948Y4298D02*
X-3528Y1878D01*
X-5948Y4298D02*
Y5484D01*
X4644Y300D02*
X7328D01*
X-2200D02*
X4644D01*
Y3366D01*
X-2200Y300D02*
Y3817D01*
X7328Y300D02*
X11748Y4719D01*
X-3102D02*
X-2200Y3817D01*
X4644Y3366D02*
X5998Y4719D01*
X-9900Y20223D02*
X-9323Y20800D01*
X-6150D01*
X-5600Y20250D01*
X-9280Y17842D02*
X-4800D01*
X-2100Y15950D02*
Y16300D01*
X-3650Y17850D02*
X-2100Y16300D01*
X-4800Y17850D02*
X-3650D01*
X-2100Y14469D02*
X-725Y13094D01*
X-2100Y14469D02*
Y14915D01*
X-3685D02*
X-2650Y15950D01*
X-3895Y14915D02*
X-3685D01*
X-741Y15525D02*
X1949D01*
X-473Y15177D02*
X23D01*
X-750Y14900D02*
X-473Y15177D01*
X23D02*
X250Y14950D01*
X9327Y20800D02*
X9904Y20223D01*
X6200Y20800D02*
X9327D01*
X5650Y20250D02*
X6200Y20800D01*
X-800Y17579D02*
Y17893D01*
X-543Y18150D02*
X2500D01*
X-800Y17893D02*
X-543Y18150D01*
X3800Y14715D02*
Y16850D01*
X3250Y17400D02*
X3800Y16850D01*
X2017Y17400D02*
X3250D01*
X1850Y17233D02*
X2017Y17400D01*
X1850Y16791D02*
Y17233D01*
X1509Y16450D02*
X1850Y16791D01*
X1725Y17700D02*
X4658D01*
X1500Y17475D02*
X1725Y17700D01*
X1500Y17073D02*
Y17475D01*
X1250Y16823D02*
X1500Y17073D01*
X1123Y16823D02*
X1250D01*
X1100Y16800D02*
X1123Y16823D01*
X-750Y14358D02*
Y14900D01*
X250Y14358D02*
Y14950D01*
X-1250Y14358D02*
Y15016D01*
X1949Y15525D02*
X2577Y14896D01*
X-1250Y15016D02*
X-741Y15525D01*
X-7753Y15900D02*
X-7500Y16153D01*
X-10950Y15900D02*
X-7753D01*
X-11250Y16200D02*
X-10950Y15900D01*
X-7500Y16153D02*
Y16410D01*
X-11250Y16200D02*
Y16410D01*
X-5200Y11336D02*
Y12650D01*
X-6365Y13815D02*
X-5200Y12650D01*
X-7145Y13815D02*
X-6365D01*
X-8100Y12860D02*
X-7145Y13815D01*
X-12650Y15100D02*
Y16295D01*
Y14416D02*
Y15100D01*
X-9100Y14416D02*
Y15100D01*
X-12650Y15100D02*
X-12250Y15500D01*
X-9500D01*
X-9100Y15100D01*
X-10100Y14519D02*
X-9280Y13700D01*
X-10100Y14519D02*
Y14675D01*
X-7845Y13700D02*
X-7600Y13945D01*
X-8950Y13700D02*
X-7845D01*
X-9280D02*
X-8950D01*
X-8600Y14050D01*
X-9650Y9600D02*
X-7900D01*
X-9650D02*
Y13558D01*
X-9700Y9600D02*
X-9650D01*
X-9892Y13800D02*
X-9650Y13558D01*
X-10700Y13800D02*
X-9892D01*
X-11650Y12850D02*
X-10700Y13800D01*
X-11650Y12487D02*
Y12850D01*
X-12150Y14000D02*
Y14416D01*
X-11510Y13724D02*
X-11150Y14084D01*
X-11874Y13724D02*
X-11510D01*
X-12150Y14000D02*
X-11874Y13724D01*
X-9700Y9600D02*
X-9670Y9630D01*
X-6830Y9600D02*
Y9950D01*
X-7030Y10150D02*
X-6830Y9950D01*
X-8182Y10150D02*
X-7030D01*
X-9100Y11068D02*
X-8182Y10150D01*
X-7966Y10602D02*
X-7798D01*
X-8403Y11039D02*
X-7966Y10602D01*
X-8403Y11039D02*
Y11342D01*
X-7798Y10602D02*
X-7784Y10588D01*
X-5015D01*
X-4495Y10068D01*
Y9405D02*
Y10068D01*
X-3974Y9600D02*
Y10111D01*
X-5200Y11336D02*
X-3974Y10111D01*
X4800Y17842D02*
X6285D01*
X8197Y9050D02*
X8547Y8700D01*
X-1512Y12375D02*
X171Y10692D01*
X400Y10921D01*
X11300Y16410D02*
Y16868D01*
X10946Y17223D02*
X11300Y16868D01*
X9904Y17223D02*
X10946D01*
X11066Y15816D02*
X11300Y16050D01*
X8744Y15816D02*
X11066D01*
X8150Y16410D02*
X8744Y15816D01*
X9925Y13625D02*
X11241D01*
X11700Y14084D01*
Y14416D01*
X10700Y14084D02*
Y14416D01*
X10340Y13724D02*
X10700Y14084D01*
X6700Y13700D02*
X7706D01*
X6550Y15100D02*
Y16868D01*
Y14416D02*
Y15100D01*
X6966Y15516D02*
X9100D01*
X6550Y15100D02*
X6966Y15516D01*
X9100D02*
X10200Y14416D01*
X6550Y16868D02*
X6904Y17223D01*
X9050Y14500D02*
X9925Y13625D01*
X9050Y14500D02*
Y14675D01*
X4800Y16850D02*
Y16858D01*
Y15525D02*
Y16850D01*
X8050Y12791D02*
Y13025D01*
X7750Y13325D02*
X8050Y13025D01*
X5650Y13325D02*
X7750D01*
X7697Y11139D02*
Y11342D01*
X7150Y10592D02*
X7697Y11139D01*
X7150Y10592D02*
Y10598D01*
X6904Y9600D02*
X8047Y10743D01*
Y11603D01*
X10947Y11285D02*
Y11342D01*
X12283Y10550D02*
X13150Y9683D01*
X11682Y10550D02*
X12283D01*
X10947Y11285D02*
X11682Y10550D01*
X10597Y11109D02*
Y11575D01*
Y11109D02*
X10822Y10884D01*
X10850D01*
X10597Y11575D02*
X10714Y11692D01*
X13150Y6600D02*
Y9683D01*
X10200Y9400D02*
Y11613D01*
X10700Y12113D01*
X11166Y13325D02*
X11700Y12791D01*
X10700Y12113D02*
Y12487D01*
X11700Y11545D02*
Y12487D01*
X11200Y11950D02*
Y12487D01*
X10714Y11692D02*
X10942D01*
X11200Y11950D01*
X9750Y12037D02*
X10200Y12487D01*
X9750Y9600D02*
Y12037D01*
X10550Y9050D02*
X10850D01*
X10200Y9400D02*
X10550Y9050D01*
X0Y6863D02*
X7D01*
X750Y7606D01*
Y9129D01*
X4750Y9050D02*
X5100D01*
X4500Y10000D02*
X5842Y11342D01*
X4500Y9300D02*
Y10000D01*
Y9300D02*
X4750Y9050D01*
X5100Y7259D02*
Y9050D01*
X2250Y8024D02*
Y9050D01*
X1350Y9509D02*
X1809Y9050D01*
X1350Y9509D02*
Y11552D01*
X1648Y11850D01*
X3800D01*
X1061Y6712D02*
X2250Y7901D01*
X1061Y1300D02*
Y6712D01*
X-9800Y9050D02*
X-9700D01*
X-10250Y9500D02*
X-9800Y9050D01*
X-10250Y9500D02*
Y10150D01*
X-10650Y10550D02*
X-10250Y10150D01*
X-11450Y10550D02*
X-10650D01*
X-12003Y11103D02*
X-11450Y10550D01*
X-12003Y11103D02*
Y11342D01*
X-12695Y9050D02*
X-12595D01*
X-13100Y9455D02*
X-12695Y9050D01*
X-13100Y9455D02*
Y13966D01*
X-6900Y20223D02*
X-6077Y19400D01*
X5100Y12850D02*
Y13050D01*
X5375Y13325D01*
X5650D01*
X-6650Y14675D02*
X-6525D01*
X-6000Y14150D01*
X4045Y9982D02*
X6550Y12487D01*
X5842Y11342D02*
X7147D01*
X7050Y11439D02*
Y12487D01*
Y11439D02*
X7147Y11342D01*
X5650Y14260D02*
X6210Y13700D01*
X5650Y14260D02*
Y14675D01*
X6210Y13700D02*
X6700D01*
X4045Y9600D02*
Y9982D01*
X7550Y12100D02*
X8047Y11603D01*
X5140Y14165D02*
X5650Y14675D01*
X6700Y13700D02*
X7050Y14050D01*
X7706Y13700D02*
X8050Y14044D01*
X1050Y7125D02*
Y11676D01*
X0Y6075D02*
X1050Y7125D01*
X-4095Y14715D02*
X-3895Y14915D01*
X-4852Y14715D02*
X-4095D01*
X-4852Y12425D02*
Y14165D01*
X250Y16642D02*
X442Y16450D01*
X1509D01*
X2550Y16850D02*
X2577Y16823D01*
Y14896D02*
Y16823D01*
X250Y16642D02*
X958Y17350D01*
X1100D01*
X400Y10921D02*
Y13444D01*
X4658Y17700D02*
X4800Y17842D01*
X1100Y16800D02*
X1105D01*
X-250Y16050D02*
Y16642D01*
X7950Y9050D02*
X8197D01*
X8461Y8700D02*
X8547D01*
X-4141Y9050D02*
X-3974D01*
X-4495Y9405D02*
X-4141Y9050D01*
X-1942Y16642D02*
X-1250D01*
X-2600Y17300D02*
X-1942Y16642D01*
X-2600Y17300D02*
Y17579D01*
X2500Y18150D02*
X2550Y18200D01*
X-250Y16642D02*
Y17579D01*
X-800Y16692D02*
X-750Y16642D01*
X-800Y16692D02*
Y17579D01*
X-2050D02*
X-800D01*
X-4852Y11756D02*
X-3617D01*
X-2998Y12375D01*
X-7600Y12487D02*
X-6762Y13325D01*
X-6650D01*
X-8100Y12487D02*
Y12860D01*
X-6830Y8039D02*
X-6419Y8450D01*
X-6845Y8024D02*
X-6830Y8039D01*
X-12595Y8400D02*
Y9050D01*
X-6419Y8450D02*
X-5955D01*
X7550Y12100D02*
Y12487D01*
X2839Y13204D02*
X2996D01*
X2577D02*
X2839D01*
X2996D02*
X3800Y12400D01*
X8050Y14044D02*
Y14416D01*
X8791D02*
X9050Y14675D01*
X8050Y14416D02*
X8791D01*
X11700Y12487D02*
Y12791D01*
X9050Y13325D02*
X11166D01*
X10850Y7259D02*
Y9050D01*
Y9600D02*
Y10884D01*
X10000Y6409D02*
X10850Y7259D01*
X9076Y5484D02*
X10000Y6409D01*
X12959D02*
X13150Y6600D01*
X10000Y6409D02*
X12959D01*
X11497Y11342D02*
X11700Y11545D01*
X-150Y13444D02*
Y14258D01*
X-250Y14358D02*
X-150Y14258D01*
X400Y13444D02*
Y14208D01*
X250Y14358D02*
X400Y14208D01*
X-4852Y14715D02*
X-4800Y14767D01*
Y16858D01*
X1809Y9050D02*
X2250D01*
X-9100Y11068D02*
Y12487D01*
X-12650Y9655D02*
X-12595Y9600D01*
X-12650Y9655D02*
Y12487D01*
X-7600Y11595D02*
Y12487D01*
X-7853Y11342D02*
X-7600Y11595D01*
X-8600Y11539D02*
Y12487D01*
Y11539D02*
X-8403Y11342D01*
X-11150Y12487D02*
X-10312Y13325D01*
X-10100D01*
X-11453Y11342D02*
X-11150Y11645D01*
Y12487D01*
X-12150Y11489D02*
X-12003Y11342D01*
X-12150Y11489D02*
Y12487D01*
X-6909Y14416D02*
X-6650Y14675D01*
X-7600Y14416D02*
X-6909D01*
X-8600Y14050D02*
Y14416D01*
X-7600Y13945D02*
Y14416D01*
X-11150Y14084D02*
Y14416D01*
X-10891Y14675D02*
X-10100D01*
X-11150Y14416D02*
X-10891Y14675D01*
X-13100Y13966D02*
X-12650Y14416D01*
Y16295D02*
X-11723Y17223D01*
X-9900D01*
X-10700Y16410D02*
X-9713D01*
X-8900Y17223D01*
X-8050Y16410D02*
Y17073D01*
X-7900Y17223D01*
X-7500Y16410D02*
X-6900Y17010D01*
Y17223D01*
X11300Y16050D02*
Y16410D01*
X9717D02*
X10750D01*
X7600D02*
Y16918D01*
X7904Y17223D01*
X8904D02*
X9717Y16410D01*
X-1350Y20250D02*
X5100D01*
X-2150Y19450D02*
X-1350Y20250D01*
X6082Y19400D02*
X6904Y20223D01*
X5650Y19400D02*
X6082D01*
X5100D02*
Y20250D01*
X2250Y7901D02*
Y8024D01*
X-6077Y19400D02*
X-5600D01*
X-9900Y17223D02*
X-9280Y17842D01*
X-2998Y12375D02*
X-1512D01*
X-6830Y9600D02*
X-5050D01*
X-3974D02*
X-2205D01*
X-12595D02*
X-10796D01*
X2250D02*
X4045D01*
X5100D02*
X6904D01*
X7950D02*
X9750D01*
X10850D02*
X12650D01*
X2839Y13204D02*
X3800Y14165D01*
X5140D01*
X4800Y15525D02*
X5650Y14675D01*
X6285Y17842D02*
X6904Y17223D01*
X-2200Y19400D02*
X-2150Y19450D01*
X-5050Y19400D02*
X-2200D01*
X-5050D02*
Y20250D01*
X1050Y11676D02*
X2577Y13204D01*
X2250Y8024D02*
X2250Y8024D01*
X-939Y5136D02*
X0Y6075D01*
X-939Y1300D02*
Y5136D01*
X-2143Y4719D02*
X0Y6863D01*
X-3102Y4719D02*
X-2143D01*
X3148Y5484D02*
X3650Y4982D01*
Y1300D02*
Y4982D01*
X3148Y5484D02*
X3326D01*
X5100Y7259D01*
X-11698Y5484D02*
X-11470D01*
X-9695Y7259D01*
X-9700Y7263D02*
X-9695Y7259D01*
X-5948Y5484D02*
X-5774D01*
X-4000Y7259D01*
X8848Y5484D02*
X9076D01*
X12645Y7259D02*
X12650Y7263D01*
Y9050D01*
X9745Y8024D02*
X9750Y8028D01*
Y9050D01*
X7950Y8024D02*
X7950Y8024D01*
X7950Y8024D02*
Y9050D01*
X6895Y7259D02*
X6904Y7268D01*
Y9050D01*
X4045Y8024D02*
Y9050D01*
X-2205Y7259D02*
Y9050D01*
X-4000Y7259D02*
X-3974Y7284D01*
Y9050D01*
X-5050Y8024D02*
X-5050Y8024D01*
X-5050Y8024D02*
Y9050D01*
X-6830Y8039D02*
Y9050D01*
X-7900Y7259D02*
Y9050D01*
X-9700Y7263D02*
Y9050D01*
X-10796Y8028D02*
Y9050D01*
X-10800Y8024D02*
X-10796Y8028D01*
D48*
X171Y10700D02*
D03*
X1850Y19450D02*
D03*
X850D02*
D03*
X-2150D02*
D03*
X-1150D02*
D03*
X-150D02*
D03*
X6904Y17223D02*
D03*
X7904D02*
D03*
X8904D02*
D03*
X9904D02*
D03*
X6904Y20223D02*
D03*
X7904D02*
D03*
X8904D02*
D03*
X-4800Y17850D02*
D03*
X4800D02*
D03*
X-9900Y17223D02*
D03*
X-8900D02*
D03*
X-7900D02*
D03*
X-6900D02*
D03*
X-9900Y20223D02*
D03*
X-8900D02*
D03*
X-7900D02*
D03*
D49*
X171Y9700D02*
D03*
X9904Y20223D02*
D03*
X-4800Y16850D02*
D03*
X4800D02*
D03*
X-6900Y20223D02*
D03*
D50*
X5650Y1300D02*
D03*
X1061D02*
D03*
X-3528D02*
D03*
D51*
X3650D02*
D03*
X-939D02*
D03*
X-5528D02*
D03*
D52*
X0Y6863D02*
D03*
Y6075D02*
D03*
Y5288D02*
D03*
D53*
Y7650D02*
D03*
Y4500D02*
D03*
D54*
X-725Y13094D02*
D03*
X7150Y10592D02*
D03*
X5100Y12850D02*
D03*
X-6000Y14150D02*
D03*
X-250Y16050D02*
D03*
X8461Y8700D02*
D03*
X-5955Y8450D02*
D03*
D55*
X12255Y1181D02*
D03*
X-12155D02*
D03*
X-14911Y16929D02*
D03*
X-12155Y19685D02*
D03*
X12255D02*
D03*
X15011Y16929D02*
D03*
M02*
