G04*
G04 #@! TF.GenerationSoftware,Altium Limited,Altium Designer,18.1.4 (159)*
G04*
G04 Layer_Physical_Order=2*
G04 Layer_Color=16711680*
%FSLAX24Y24*%
%MOIN*%
G70*
G01*
G75*
%ADD11C,0.0100*%
%ADD50C,0.0200*%
%ADD51C,0.0669*%
%ADD52R,0.0669X0.0669*%
%ADD53R,0.0591X0.0591*%
%ADD54C,0.0591*%
%ADD55C,0.0709*%
%ADD56O,0.0827X0.0472*%
G04:AMPARAMS|DCode=57|XSize=59.1mil|YSize=39.4mil|CornerRadius=9.8mil|HoleSize=0mil|Usage=FLASHONLY|Rotation=270.000|XOffset=0mil|YOffset=0mil|HoleType=Round|Shape=RoundedRectangle|*
%AMROUNDEDRECTD57*
21,1,0.0591,0.0197,0,0,270.0*
21,1,0.0394,0.0394,0,0,270.0*
1,1,0.0197,-0.0098,-0.0197*
1,1,0.0197,-0.0098,0.0197*
1,1,0.0197,0.0098,0.0197*
1,1,0.0197,0.0098,-0.0197*
%
%ADD57ROUNDEDRECTD57*%
%ADD58C,0.0984*%
%ADD59R,0.0984X0.0984*%
%ADD60C,0.0400*%
%ADD61C,0.2362*%
G36*
X12678Y20862D02*
X12859Y20786D01*
X13023Y20677D01*
X13163Y20537D01*
X13272Y20374D01*
X13347Y20192D01*
X13386Y19998D01*
Y19900D01*
Y18823D01*
X15248D01*
X15442Y18784D01*
X15624Y18709D01*
X15787Y18599D01*
X15927Y18460D01*
X16036Y18296D01*
X16112Y18114D01*
X16150Y17921D01*
Y17823D01*
Y16673D01*
Y16575D01*
X16112Y16381D01*
X16036Y16199D01*
X15927Y16036D01*
X15787Y15896D01*
X15624Y15787D01*
X15442Y15711D01*
X15248Y15673D01*
X13388D01*
Y1000D01*
Y902D01*
X13349Y708D01*
X13274Y526D01*
X13165Y363D01*
X13025Y223D01*
X12861Y114D01*
X12679Y38D01*
X12486Y0D01*
X-12498D01*
X-12692Y38D01*
X-12874Y114D01*
X-13037Y223D01*
X-13177Y363D01*
X-13286Y526D01*
X-13362Y708D01*
X-13400Y902D01*
Y1000D01*
Y15673D01*
X-15248D01*
X-15442Y15711D01*
X-15624Y15787D01*
X-15787Y15896D01*
X-15927Y16036D01*
X-16036Y16199D01*
X-16112Y16381D01*
X-16150Y16575D01*
Y16673D01*
Y17823D01*
Y17921D01*
X-16112Y18114D01*
X-16036Y18296D01*
X-15927Y18460D01*
X-15787Y18599D01*
X-15624Y18709D01*
X-15442Y18784D01*
X-15248Y18823D01*
X-13386D01*
Y19900D01*
Y19998D01*
X-13347Y20192D01*
X-13272Y20374D01*
X-13163Y20537D01*
X-13023Y20677D01*
X-12860Y20786D01*
X-12678Y20862D01*
X-12484Y20900D01*
X12484D01*
X12678Y20862D01*
D02*
G37*
%LPC*%
G36*
X-7900Y20822D02*
X-8029Y20805D01*
X-8150Y20755D01*
X-8253Y20676D01*
X-8333Y20572D01*
X-8373Y20475D01*
X-8427D01*
X-8467Y20572D01*
X-8547Y20676D01*
X-8650Y20755D01*
X-8771Y20805D01*
X-8900Y20822D01*
X-9029Y20805D01*
X-9150Y20755D01*
X-9253Y20676D01*
X-9333Y20572D01*
X-9373Y20475D01*
X-9427D01*
X-9467Y20572D01*
X-9547Y20676D01*
X-9650Y20755D01*
X-9771Y20805D01*
X-9900Y20822D01*
X-10029Y20805D01*
X-10150Y20755D01*
X-10253Y20676D01*
X-10333Y20572D01*
X-10383Y20452D01*
X-10400Y20323D01*
X-10383Y20193D01*
X-10333Y20073D01*
X-10253Y19969D01*
X-10150Y19890D01*
X-10029Y19840D01*
X-9900Y19823D01*
X-9771Y19840D01*
X-9650Y19890D01*
X-9547Y19969D01*
X-9467Y20073D01*
X-9427Y20170D01*
X-9373D01*
X-9333Y20073D01*
X-9253Y19969D01*
X-9150Y19890D01*
X-9029Y19840D01*
X-8900Y19823D01*
X-8771Y19840D01*
X-8650Y19890D01*
X-8547Y19969D01*
X-8467Y20073D01*
X-8427Y20170D01*
X-8373D01*
X-8333Y20073D01*
X-8253Y19969D01*
X-8150Y19890D01*
X-8029Y19840D01*
X-7900Y19823D01*
X-7771Y19840D01*
X-7650Y19890D01*
X-7547Y19969D01*
X-7467Y20073D01*
X-7445Y20126D01*
X-7395Y20116D01*
Y19827D01*
X-6405D01*
Y20818D01*
X-7395D01*
Y20529D01*
X-7445Y20519D01*
X-7467Y20572D01*
X-7547Y20676D01*
X-7650Y20755D01*
X-7771Y20805D01*
X-7900Y20822D01*
D02*
G37*
G36*
X8904D02*
X8775Y20805D01*
X8655Y20755D01*
X8551Y20676D01*
X8472Y20572D01*
X8431Y20475D01*
X8377D01*
X8337Y20572D01*
X8258Y20676D01*
X8154Y20755D01*
X8034Y20805D01*
X7904Y20822D01*
X7775Y20805D01*
X7655Y20755D01*
X7551Y20676D01*
X7472Y20572D01*
X7431Y20475D01*
X7377D01*
X7337Y20572D01*
X7258Y20676D01*
X7154Y20755D01*
X7034Y20805D01*
X6904Y20822D01*
X6775Y20805D01*
X6655Y20755D01*
X6551Y20676D01*
X6472Y20572D01*
X6422Y20452D01*
X6405Y20323D01*
X6422Y20193D01*
X6472Y20073D01*
X6551Y19969D01*
X6655Y19890D01*
X6775Y19840D01*
X6904Y19823D01*
X7034Y19840D01*
X7154Y19890D01*
X7258Y19969D01*
X7337Y20073D01*
X7377Y20170D01*
X7431D01*
X7472Y20073D01*
X7551Y19969D01*
X7655Y19890D01*
X7775Y19840D01*
X7904Y19823D01*
X8034Y19840D01*
X8154Y19890D01*
X8258Y19969D01*
X8337Y20073D01*
X8377Y20170D01*
X8431D01*
X8472Y20073D01*
X8551Y19969D01*
X8655Y19890D01*
X8775Y19840D01*
X8904Y19823D01*
X9034Y19840D01*
X9154Y19890D01*
X9258Y19969D01*
X9337Y20073D01*
X9359Y20126D01*
X9409Y20116D01*
Y19827D01*
X10400D01*
Y20818D01*
X9409D01*
Y20529D01*
X9359Y20519D01*
X9337Y20572D01*
X9258Y20676D01*
X9154Y20755D01*
X9034Y20805D01*
X8904Y20822D01*
D02*
G37*
G36*
X1850Y20109D02*
X1705Y20090D01*
X1570Y20034D01*
X1455Y19945D01*
X1380Y19849D01*
X1372Y19845D01*
X1328D01*
X1320Y19849D01*
X1245Y19945D01*
X1130Y20034D01*
X995Y20090D01*
X850Y20109D01*
X705Y20090D01*
X570Y20034D01*
X455Y19945D01*
X380Y19849D01*
X372Y19845D01*
X328D01*
X320Y19849D01*
X245Y19945D01*
X130Y20034D01*
X-5Y20090D01*
X-150Y20109D01*
X-295Y20090D01*
X-430Y20034D01*
X-545Y19945D01*
X-620Y19849D01*
X-628Y19845D01*
X-672D01*
X-680Y19849D01*
X-755Y19945D01*
X-870Y20034D01*
X-1005Y20090D01*
X-1150Y20109D01*
X-1295Y20090D01*
X-1430Y20034D01*
X-1545Y19945D01*
X-1620Y19849D01*
X-1628Y19845D01*
X-1672D01*
X-1680Y19849D01*
X-1755Y19945D01*
X-1870Y20034D01*
X-2005Y20090D01*
X-2150Y20109D01*
X-2295Y20090D01*
X-2430Y20034D01*
X-2545Y19945D01*
X-2634Y19830D01*
X-2690Y19695D01*
X-2709Y19550D01*
X-2690Y19405D01*
X-2634Y19270D01*
X-2545Y19155D01*
X-2430Y19066D01*
X-2295Y19010D01*
X-2150Y18991D01*
X-2005Y19010D01*
X-1870Y19066D01*
X-1755Y19155D01*
X-1680Y19251D01*
X-1672Y19255D01*
X-1628D01*
X-1620Y19251D01*
X-1545Y19155D01*
X-1430Y19066D01*
X-1295Y19010D01*
X-1150Y18991D01*
X-1005Y19010D01*
X-870Y19066D01*
X-755Y19155D01*
X-680Y19251D01*
X-672Y19255D01*
X-628D01*
X-620Y19251D01*
X-545Y19155D01*
X-430Y19066D01*
X-295Y19010D01*
X-150Y18991D01*
X-5Y19010D01*
X130Y19066D01*
X245Y19155D01*
X320Y19251D01*
X328Y19255D01*
X372D01*
X380Y19251D01*
X455Y19155D01*
X570Y19066D01*
X705Y19010D01*
X850Y18991D01*
X995Y19010D01*
X1130Y19066D01*
X1245Y19155D01*
X1320Y19251D01*
X1328Y19255D01*
X1372D01*
X1380Y19251D01*
X1455Y19155D01*
X1570Y19066D01*
X1705Y19010D01*
X1850Y18991D01*
X1995Y19010D01*
X2130Y19066D01*
X2245Y19155D01*
X2334Y19270D01*
X2390Y19405D01*
X2409Y19550D01*
X2390Y19695D01*
X2334Y19830D01*
X2245Y19945D01*
X2130Y20034D01*
X1995Y20090D01*
X1850Y20109D01*
D02*
G37*
G36*
X5039Y18380D02*
X5037Y18380D01*
X5035Y18380D01*
X4998Y18372D01*
X4961Y18365D01*
X4959Y18364D01*
X4957Y18363D01*
X4943Y18353D01*
X4913Y18366D01*
X4850Y18374D01*
Y17942D01*
X4800D01*
Y17892D01*
X4368D01*
X4377Y17829D01*
X4420Y17723D01*
X4490Y17632D01*
X4581Y17562D01*
X4629Y17543D01*
X4619Y17493D01*
X4265D01*
Y16462D01*
X47D01*
X41Y16464D01*
X25Y16464D01*
X-0Y16466D01*
X-4Y16467D01*
X-6Y16467D01*
X-48Y16499D01*
X-146Y16540D01*
X-250Y16553D01*
X-354Y16540D01*
X-452Y16499D01*
X-494Y16467D01*
X-496Y16467D01*
X-500Y16466D01*
X-525Y16464D01*
X-541Y16464D01*
X-547Y16462D01*
X-4265D01*
Y17493D01*
X-4619D01*
X-4629Y17543D01*
X-4581Y17562D01*
X-4490Y17632D01*
X-4420Y17723D01*
X-4377Y17829D01*
X-4368Y17892D01*
X-4800D01*
X-5232D01*
X-5223Y17829D01*
X-5180Y17723D01*
X-5110Y17632D01*
X-5019Y17562D01*
X-4971Y17543D01*
X-4981Y17493D01*
X-5335D01*
Y16462D01*
X-5612D01*
X-6355Y17206D01*
X-6358Y17210D01*
X-6371Y17224D01*
X-6378Y17233D01*
X-6383Y17241D01*
X-6387Y17249D01*
X-6391Y17257D01*
X-6394Y17267D01*
X-6397Y17277D01*
X-6399Y17289D01*
X-6400Y17302D01*
X-6401Y17320D01*
X-6400Y17323D01*
X-6417Y17452D01*
X-6467Y17572D01*
X-6547Y17676D01*
X-6650Y17755D01*
X-6771Y17805D01*
X-6900Y17822D01*
X-7029Y17805D01*
X-7150Y17755D01*
X-7253Y17676D01*
X-7333Y17572D01*
X-7373Y17475D01*
X-7427D01*
X-7467Y17572D01*
X-7547Y17676D01*
X-7650Y17755D01*
X-7771Y17805D01*
X-7900Y17822D01*
X-8029Y17805D01*
X-8150Y17755D01*
X-8253Y17676D01*
X-8333Y17572D01*
X-8373Y17475D01*
X-8427D01*
X-8467Y17572D01*
X-8547Y17676D01*
X-8650Y17755D01*
X-8771Y17805D01*
X-8900Y17822D01*
X-9029Y17805D01*
X-9150Y17755D01*
X-9253Y17676D01*
X-9333Y17572D01*
X-9383Y17452D01*
X-9400Y17323D01*
X-9383Y17193D01*
X-9333Y17073D01*
X-9253Y16969D01*
X-9150Y16890D01*
X-9029Y16840D01*
X-8900Y16823D01*
X-8771Y16840D01*
X-8650Y16890D01*
X-8547Y16969D01*
X-8467Y17073D01*
X-8427Y17170D01*
X-8373D01*
X-8333Y17073D01*
X-8253Y16969D01*
X-8150Y16890D01*
X-8029Y16840D01*
X-7900Y16823D01*
X-7771Y16840D01*
X-7650Y16890D01*
X-7547Y16969D01*
X-7467Y17073D01*
X-7427Y17170D01*
X-7373D01*
X-7333Y17073D01*
X-7253Y16969D01*
X-7150Y16890D01*
X-7029Y16840D01*
X-6900Y16823D01*
X-6898Y16823D01*
X-6880Y16823D01*
X-6866Y16822D01*
X-6855Y16820D01*
X-6844Y16817D01*
X-6835Y16814D01*
X-6826Y16810D01*
X-6818Y16806D01*
X-6810Y16800D01*
X-6802Y16794D01*
X-6787Y16781D01*
X-6783Y16778D01*
X-5951Y15946D01*
X-5951Y15946D01*
X-5888Y15898D01*
X-5816Y15868D01*
X-5737Y15857D01*
X-5737Y15857D01*
X-564D01*
X-560Y15856D01*
X-556Y15857D01*
X-553Y15856D01*
X-538Y15856D01*
X-522Y15854D01*
X-452Y15801D01*
X-354Y15760D01*
X-250Y15747D01*
X-146Y15760D01*
X-48Y15801D01*
X22Y15854D01*
X38Y15856D01*
X53Y15856D01*
X56Y15857D01*
X60Y15856D01*
X64Y15857D01*
X8742D01*
X8820Y15868D01*
X8893Y15898D01*
X8955Y15946D01*
X9788Y16778D01*
X9792Y16781D01*
X9806Y16794D01*
X9814Y16800D01*
X9822Y16806D01*
X9831Y16810D01*
X9839Y16814D01*
X9848Y16817D01*
X9859Y16820D01*
X9871Y16822D01*
X9884Y16823D01*
X9902Y16823D01*
X9904Y16823D01*
X10034Y16840D01*
X10154Y16890D01*
X10244Y16959D01*
X10294Y16941D01*
Y11061D01*
X8464Y9230D01*
X8459Y9228D01*
X8434Y9204D01*
X8429Y9200D01*
X8425Y9197D01*
X8423Y9196D01*
X8418Y9195D01*
X8385Y9188D01*
X8380Y9185D01*
X8374Y9183D01*
X8347Y9163D01*
X8319Y9144D01*
X8316Y9139D01*
X8311Y9135D01*
X8294Y9106D01*
X8275Y9078D01*
X8274Y9072D01*
X8270Y9067D01*
X8266Y9033D01*
X8266Y9032D01*
X8247Y9014D01*
X8247Y9014D01*
X8229Y8995D01*
X8228Y8995D01*
X8194Y8991D01*
X8189Y8988D01*
X8183Y8986D01*
X8155Y8968D01*
X8126Y8950D01*
X8122Y8946D01*
X8117Y8942D01*
X8098Y8914D01*
X8078Y8887D01*
X8076Y8881D01*
X8073Y8876D01*
X8066Y8843D01*
X8065Y8838D01*
X8064Y8837D01*
X8062Y8834D01*
X8047Y8816D01*
X8036Y8805D01*
X8033Y8800D01*
X1415Y2182D01*
X1387Y2187D01*
X1364Y2203D01*
Y9902D01*
X1353Y9980D01*
X1323Y10053D01*
X1275Y10116D01*
X762Y10629D01*
X760Y10633D01*
X746Y10648D01*
X739Y10656D01*
X733Y10666D01*
X728Y10677D01*
X723Y10690D01*
X718Y10704D01*
X715Y10721D01*
X712Y10740D01*
X710Y10762D01*
X709Y10793D01*
X701Y10830D01*
X694Y10867D01*
X693Y10868D01*
X692Y10870D01*
X671Y10902D01*
X650Y10933D01*
X648Y10934D01*
X647Y10936D01*
X615Y10956D01*
X584Y10977D01*
X582Y10978D01*
X580Y10979D01*
X563Y10982D01*
X551Y11011D01*
X481Y11102D01*
X390Y11172D01*
X284Y11216D01*
X221Y11224D01*
Y10792D01*
X171D01*
Y10742D01*
X-261D01*
X-260Y10738D01*
X-308Y10714D01*
X-417Y10824D01*
Y12978D01*
X-416Y12983D01*
X-415Y13017D01*
X-414Y13024D01*
X-414Y13026D01*
X-370Y13082D01*
X-330Y13179D01*
X-316Y13284D01*
X-330Y13388D01*
X-336Y13402D01*
X-308Y13444D01*
X8036D01*
X8083Y13437D01*
X8083Y13394D01*
Y13037D01*
X8483D01*
Y13041D01*
X8567D01*
X8567Y13441D01*
X8616Y13444D01*
X9699D01*
Y14427D01*
Y15627D01*
X-4597D01*
Y15500D01*
X-5250D01*
X-5218Y13484D01*
X-3497D01*
Y13444D01*
X-1131D01*
X-1103Y13402D01*
X-1109Y13388D01*
X-1123Y13284D01*
X-1109Y13179D01*
X-1069Y13082D01*
X-1026Y13026D01*
X-1024Y13002D01*
X-1024Y12987D01*
X-1022Y12981D01*
Y10698D01*
X-1012Y10620D01*
X-982Y10547D01*
X-934Y10484D01*
X-456Y10007D01*
X-453Y10002D01*
X-385Y9929D01*
X-365Y9904D01*
X-364Y9902D01*
Y9866D01*
X-365Y9858D01*
X-364Y9851D01*
Y9273D01*
X706D01*
Y9707D01*
X756Y9734D01*
X759Y9732D01*
Y2330D01*
X712Y2311D01*
X-5525Y8548D01*
X-5527Y8552D01*
X-5551Y8577D01*
X-5555Y8582D01*
X-5558Y8587D01*
X-5559Y8588D01*
X-5560Y8593D01*
X-5567Y8626D01*
X-5570Y8631D01*
X-5572Y8637D01*
X-5592Y8664D01*
X-5611Y8692D01*
X-5616Y8696D01*
X-5620Y8701D01*
X-5649Y8718D01*
X-5677Y8736D01*
X-5683Y8738D01*
X-5688Y8741D01*
X-5722Y8745D01*
X-5723Y8745D01*
X-5741Y8764D01*
X-5741Y8764D01*
X-5760Y8782D01*
X-5760Y8783D01*
X-5764Y8817D01*
X-5767Y8822D01*
X-5769Y8828D01*
X-5787Y8856D01*
X-5804Y8885D01*
X-5809Y8889D01*
X-5813Y8894D01*
X-5841Y8913D01*
X-5868Y8933D01*
X-5874Y8935D01*
X-5879Y8938D01*
X-5912Y8945D01*
X-5917Y8946D01*
X-5918Y8947D01*
X-5921Y8949D01*
X-5939Y8964D01*
X-5950Y8975D01*
X-5955Y8978D01*
X-9597Y12620D01*
Y16855D01*
X-9596Y16860D01*
X-9595Y16879D01*
X-9594Y16890D01*
X-9592Y16899D01*
X-9590Y16908D01*
X-9586Y16917D01*
X-9582Y16926D01*
X-9576Y16935D01*
X-9570Y16945D01*
X-9561Y16955D01*
X-9546Y16971D01*
X-9526Y17003D01*
X-9505Y17034D01*
X-9504Y17036D01*
X-9503Y17038D01*
X-9497Y17075D01*
X-9489Y17112D01*
X-9490Y17114D01*
X-9489Y17117D01*
X-9498Y17153D01*
X-9505Y17190D01*
X-9506Y17192D01*
X-9507Y17194D01*
X-9518Y17211D01*
X-9515Y17219D01*
X-9508Y17273D01*
X-9900D01*
X-10292D01*
X-10285Y17219D01*
X-10282Y17211D01*
X-10293Y17194D01*
X-10294Y17192D01*
X-10295Y17190D01*
X-10302Y17153D01*
X-10311Y17117D01*
X-10310Y17114D01*
X-10311Y17112D01*
X-10303Y17075D01*
X-10297Y17038D01*
X-10296Y17036D01*
X-10295Y17034D01*
X-10274Y17003D01*
X-10254Y16971D01*
X-10239Y16955D01*
X-10230Y16945D01*
X-10224Y16935D01*
X-10218Y16926D01*
X-10214Y16917D01*
X-10210Y16908D01*
X-10208Y16899D01*
X-10206Y16890D01*
X-10205Y16879D01*
X-10204Y16860D01*
X-10203Y16855D01*
Y12495D01*
X-10192Y12417D01*
X-10162Y12344D01*
X-10114Y12281D01*
X-6385Y8552D01*
X-6383Y8548D01*
X-6359Y8523D01*
X-6355Y8518D01*
X-6352Y8513D01*
X-6351Y8512D01*
X-6350Y8507D01*
X-6343Y8474D01*
X-6340Y8469D01*
X-6338Y8463D01*
X-6318Y8436D01*
X-6299Y8408D01*
X-6294Y8404D01*
X-6290Y8400D01*
X-6261Y8382D01*
X-6233Y8364D01*
X-6227Y8362D01*
X-6222Y8359D01*
X-6188Y8355D01*
X-6187Y8355D01*
X-6169Y8336D01*
X-6169Y8336D01*
X-6150Y8318D01*
X-6150Y8317D01*
X-6146Y8283D01*
X-6143Y8278D01*
X-6141Y8272D01*
X-6123Y8244D01*
X-6105Y8215D01*
X-6101Y8211D01*
X-6097Y8206D01*
X-6069Y8187D01*
X-6042Y8167D01*
X-6036Y8165D01*
X-6031Y8162D01*
X-5998Y8155D01*
X-5993Y8154D01*
X-5992Y8153D01*
X-5989Y8151D01*
X-5971Y8136D01*
X-5960Y8125D01*
X-5955Y8122D01*
X346Y1822D01*
X347Y1819D01*
X365Y1799D01*
X372Y1787D01*
X379Y1773D01*
X385Y1756D01*
X390Y1733D01*
X394Y1705D01*
X395Y1672D01*
X393Y1634D01*
X388Y1590D01*
X378Y1535D01*
X379Y1497D01*
X379Y1459D01*
X380Y1457D01*
X380Y1456D01*
X395Y1421D01*
X410Y1386D01*
X411Y1384D01*
X412Y1383D01*
X439Y1356D01*
X466Y1330D01*
X468Y1329D01*
X469Y1328D01*
X473Y1326D01*
X478Y1284D01*
X511Y1172D01*
X566Y1069D01*
X640Y979D01*
X731Y905D01*
X833Y850D01*
X945Y816D01*
X1011Y810D01*
Y1400D01*
X1111D01*
Y810D01*
X1177Y816D01*
X1289Y850D01*
X1392Y905D01*
X1482Y979D01*
X1556Y1069D01*
X1611Y1172D01*
X1623Y1214D01*
X1625Y1214D01*
X1628Y1216D01*
X1631Y1217D01*
X1662Y1237D01*
X1693Y1256D01*
X1695Y1259D01*
X1697Y1261D01*
X1718Y1291D01*
X1739Y1321D01*
X1740Y1324D01*
X1742Y1327D01*
X1749Y1363D01*
X1757Y1399D01*
X1761Y1520D01*
X1766Y1564D01*
X1772Y1606D01*
X1781Y1641D01*
X1790Y1671D01*
X1799Y1694D01*
X1809Y1712D01*
X1818Y1725D01*
X1835Y1744D01*
X1836Y1747D01*
X8459Y8370D01*
X8463Y8372D01*
X8489Y8396D01*
X8493Y8400D01*
X8498Y8403D01*
X8499Y8404D01*
X8504Y8405D01*
X8537Y8412D01*
X8542Y8415D01*
X8548Y8417D01*
X8575Y8437D01*
X8603Y8456D01*
X8607Y8461D01*
X8612Y8465D01*
X8629Y8494D01*
X8648Y8522D01*
X8649Y8528D01*
X8652Y8533D01*
X8656Y8567D01*
X8657Y8568D01*
X8675Y8586D01*
X8675Y8586D01*
X8694Y8605D01*
X8694Y8605D01*
X8728Y8609D01*
X8733Y8612D01*
X8739Y8614D01*
X8767Y8632D01*
X8797Y8650D01*
X8800Y8654D01*
X8805Y8658D01*
X8824Y8686D01*
X8845Y8713D01*
X8846Y8719D01*
X8850Y8724D01*
X8856Y8757D01*
X8857Y8762D01*
X8858Y8763D01*
X8860Y8766D01*
X8876Y8784D01*
X8886Y8795D01*
X8889Y8800D01*
X10811Y10722D01*
X10859Y10784D01*
X10889Y10857D01*
X10899Y10936D01*
Y17303D01*
X10889Y17381D01*
X10859Y17454D01*
X10811Y17517D01*
X10172Y18156D01*
X10109Y18204D01*
X10036Y18234D01*
X9958Y18245D01*
X5334D01*
X5329Y18246D01*
X5309Y18247D01*
X5298Y18248D01*
X5287Y18251D01*
X5275Y18255D01*
X5263Y18260D01*
X5249Y18267D01*
X5235Y18276D01*
X5219Y18288D01*
X5202Y18302D01*
X5180Y18323D01*
X5149Y18344D01*
X5117Y18365D01*
X5115Y18365D01*
X5113Y18366D01*
X5076Y18373D01*
X5039Y18380D01*
D02*
G37*
G36*
X-4750Y18374D02*
Y17992D01*
X-4368D01*
X-4377Y18056D01*
X-4420Y18161D01*
X-4490Y18252D01*
X-4581Y18322D01*
X-4687Y18366D01*
X-4750Y18374D01*
D02*
G37*
G36*
X4750D02*
X4687Y18366D01*
X4581Y18322D01*
X4490Y18252D01*
X4420Y18161D01*
X4377Y18056D01*
X4368Y17992D01*
X4750D01*
Y18374D01*
D02*
G37*
G36*
X-4850D02*
X-4913Y18366D01*
X-5019Y18322D01*
X-5110Y18252D01*
X-5180Y18161D01*
X-5223Y18056D01*
X-5232Y17992D01*
X-4850D01*
Y18374D01*
D02*
G37*
G36*
X11811Y20677D02*
X11594Y20660D01*
X11383Y20609D01*
X11182Y20526D01*
X10997Y20412D01*
X10831Y20271D01*
X10690Y20106D01*
X10577Y19920D01*
X10493Y19719D01*
X10443Y19508D01*
X10426Y19291D01*
X10443Y19075D01*
X10493Y18863D01*
X10577Y18662D01*
X10690Y18477D01*
X10831Y18312D01*
X10997Y18171D01*
X11182Y18057D01*
X11383Y17974D01*
X11594Y17923D01*
X11811Y17906D01*
X12028Y17923D01*
X12239Y17974D01*
X12440Y18057D01*
X12625Y18171D01*
X12791Y18312D01*
X12932Y18477D01*
X13045Y18662D01*
X13129Y18863D01*
X13179Y19075D01*
X13196Y19291D01*
X13179Y19508D01*
X13129Y19719D01*
X13045Y19920D01*
X12932Y20106D01*
X12791Y20271D01*
X12625Y20412D01*
X12440Y20526D01*
X12239Y20609D01*
X12028Y20660D01*
X11811Y20677D01*
D02*
G37*
G36*
X-11811D02*
X-12028Y20660D01*
X-12239Y20609D01*
X-12440Y20526D01*
X-12625Y20412D01*
X-12791Y20271D01*
X-12932Y20106D01*
X-13045Y19920D01*
X-13129Y19719D01*
X-13179Y19508D01*
X-13196Y19291D01*
X-13179Y19075D01*
X-13129Y18863D01*
X-13045Y18662D01*
X-12932Y18477D01*
X-12791Y18312D01*
X-12625Y18171D01*
X-12440Y18057D01*
X-12239Y17974D01*
X-12028Y17923D01*
X-11811Y17906D01*
X-11594Y17923D01*
X-11383Y17974D01*
X-11182Y18057D01*
X-10997Y18171D01*
X-10831Y18312D01*
X-10690Y18477D01*
X-10577Y18662D01*
X-10493Y18863D01*
X-10443Y19075D01*
X-10426Y19291D01*
X-10443Y19508D01*
X-10493Y19719D01*
X-10577Y19920D01*
X-10690Y20106D01*
X-10831Y20271D01*
X-10997Y20412D01*
X-11182Y20526D01*
X-11383Y20609D01*
X-11594Y20660D01*
X-11811Y20677D01*
D02*
G37*
G36*
X-9850Y17715D02*
Y17373D01*
X-9508D01*
X-9515Y17426D01*
X-9555Y17522D01*
X-9618Y17605D01*
X-9701Y17668D01*
X-9797Y17708D01*
X-9850Y17715D01*
D02*
G37*
G36*
X-9950D02*
X-10003Y17708D01*
X-10099Y17668D01*
X-10182Y17605D01*
X-10245Y17522D01*
X-10285Y17426D01*
X-10292Y17373D01*
X-9950D01*
Y17715D01*
D02*
G37*
G36*
X14567Y18633D02*
X14350Y18616D01*
X14139Y18565D01*
X13938Y18482D01*
X13753Y18369D01*
X13587Y18227D01*
X13446Y18062D01*
X13333Y17877D01*
X13249Y17676D01*
X13199Y17465D01*
X13182Y17248D01*
X13199Y17031D01*
X13249Y16820D01*
X13333Y16619D01*
X13446Y16434D01*
X13587Y16268D01*
X13753Y16127D01*
X13938Y16013D01*
X14139Y15930D01*
X14350Y15880D01*
X14567Y15862D01*
X14784Y15880D01*
X14995Y15930D01*
X15196Y16013D01*
X15381Y16127D01*
X15547Y16268D01*
X15688Y16434D01*
X15801Y16619D01*
X15884Y16820D01*
X15935Y17031D01*
X15952Y17248D01*
X15935Y17465D01*
X15884Y17676D01*
X15801Y17877D01*
X15688Y18062D01*
X15547Y18227D01*
X15381Y18369D01*
X15196Y18482D01*
X14995Y18565D01*
X14784Y18616D01*
X14567Y18633D01*
D02*
G37*
G36*
X-14567D02*
X-14784Y18616D01*
X-14995Y18565D01*
X-15196Y18482D01*
X-15381Y18369D01*
X-15547Y18227D01*
X-15688Y18062D01*
X-15801Y17877D01*
X-15885Y17676D01*
X-15935Y17465D01*
X-15952Y17248D01*
X-15935Y17031D01*
X-15885Y16820D01*
X-15801Y16619D01*
X-15688Y16434D01*
X-15547Y16268D01*
X-15381Y16127D01*
X-15196Y16013D01*
X-14995Y15930D01*
X-14784Y15880D01*
X-14567Y15862D01*
X-14350Y15880D01*
X-14139Y15930D01*
X-13938Y16013D01*
X-13753Y16127D01*
X-13587Y16268D01*
X-13446Y16434D01*
X-13333Y16619D01*
X-13249Y16820D01*
X-13199Y17031D01*
X-13182Y17248D01*
X-13199Y17465D01*
X-13249Y17676D01*
X-13333Y17877D01*
X-13446Y18062D01*
X-13587Y18227D01*
X-13753Y18369D01*
X-13938Y18482D01*
X-14139Y18565D01*
X-14350Y18616D01*
X-14567Y18633D01*
D02*
G37*
G36*
X121Y11224D02*
X57Y11216D01*
X-48Y11172D01*
X-139Y11102D01*
X-209Y11011D01*
X-253Y10906D01*
X-261Y10842D01*
X121D01*
Y11224D01*
D02*
G37*
G36*
X5100Y13353D02*
X4996Y13340D01*
X4898Y13299D01*
X4815Y13235D01*
X4751Y13152D01*
X4710Y13054D01*
X4697Y12950D01*
X4710Y12846D01*
X4751Y12748D01*
X4806Y12676D01*
X4808Y12664D01*
X4838Y12591D01*
X4886Y12528D01*
X6620Y10795D01*
X6622Y10790D01*
X6646Y10765D01*
X6650Y10760D01*
X6651Y10758D01*
X6660Y10688D01*
X6701Y10590D01*
X6765Y10507D01*
X6848Y10443D01*
X6946Y10402D01*
X7050Y10389D01*
X7154Y10402D01*
X7252Y10443D01*
X7335Y10507D01*
X7399Y10590D01*
X7440Y10688D01*
X7453Y10792D01*
X7440Y10897D01*
X7399Y10994D01*
X7335Y11077D01*
X7252Y11142D01*
X7154Y11182D01*
X7084Y11191D01*
X7066Y11207D01*
X7055Y11217D01*
X7050Y11220D01*
X5471Y12799D01*
X5490Y12846D01*
X5503Y12950D01*
X5490Y13054D01*
X5449Y13152D01*
X5385Y13235D01*
X5302Y13299D01*
X5204Y13340D01*
X5100Y13353D01*
D02*
G37*
G36*
X-6000Y14653D02*
X-6104Y14640D01*
X-6202Y14599D01*
X-6285Y14535D01*
X-6349Y14452D01*
X-6390Y14354D01*
X-6403Y14250D01*
X-6390Y14146D01*
X-6349Y14048D01*
X-6306Y13992D01*
X-6304Y13968D01*
X-6304Y13953D01*
X-6303Y13947D01*
Y12175D01*
X-6292Y12097D01*
X-6262Y12024D01*
X-6214Y11961D01*
X-399Y6147D01*
Y5978D01*
X-389Y5900D01*
X-359Y5828D01*
X-324Y5781D01*
X-359Y5735D01*
X-389Y5663D01*
X-399Y5585D01*
Y5191D01*
X-389Y5113D01*
X-359Y5040D01*
X-359Y5040D01*
X-372Y4992D01*
X-397Y4981D01*
X-488Y4912D01*
X-558Y4820D01*
X-602Y4714D01*
X-617Y4600D01*
X-602Y4487D01*
X-558Y4380D01*
X-488Y4289D01*
X-397Y4219D01*
X-291Y4175D01*
X-177Y4160D01*
X177D01*
X291Y4175D01*
X397Y4219D01*
X488Y4289D01*
X558Y4380D01*
X602Y4487D01*
X617Y4600D01*
X602Y4714D01*
X558Y4820D01*
X488Y4912D01*
X397Y4981D01*
X372Y4992D01*
X359Y5040D01*
X359Y5040D01*
X389Y5113D01*
X399Y5191D01*
Y5585D01*
X389Y5663D01*
X359Y5735D01*
X324Y5781D01*
X359Y5828D01*
X389Y5900D01*
X399Y5978D01*
Y6372D01*
X389Y6450D01*
X359Y6523D01*
X324Y6569D01*
X359Y6615D01*
X389Y6688D01*
X399Y6766D01*
Y7159D01*
X389Y7237D01*
X359Y7310D01*
X359Y7310D01*
X372Y7358D01*
X397Y7369D01*
X488Y7439D01*
X558Y7530D01*
X602Y7636D01*
X617Y7750D01*
X602Y7864D01*
X558Y7970D01*
X488Y8061D01*
X397Y8131D01*
X291Y8175D01*
X177Y8190D01*
X-177D01*
X-291Y8175D01*
X-397Y8131D01*
X-488Y8061D01*
X-558Y7970D01*
X-602Y7864D01*
X-617Y7750D01*
X-602Y7636D01*
X-558Y7530D01*
X-488Y7439D01*
X-397Y7369D01*
X-372Y7358D01*
X-359Y7310D01*
X-359Y7310D01*
X-389Y7237D01*
X-399Y7159D01*
Y7068D01*
X-446Y7049D01*
X-5697Y12301D01*
Y13944D01*
X-5696Y13949D01*
X-5695Y13984D01*
X-5694Y13990D01*
X-5694Y13992D01*
X-5651Y14048D01*
X-5610Y14146D01*
X-5597Y14250D01*
X-5610Y14354D01*
X-5651Y14452D01*
X-5715Y14535D01*
X-5798Y14599D01*
X-5896Y14640D01*
X-6000Y14653D01*
D02*
G37*
G36*
X4342Y2092D02*
X2958D01*
Y708D01*
X4342D01*
Y2092D01*
D02*
G37*
G36*
X-247D02*
X-1631D01*
Y708D01*
X-247D01*
Y2092D01*
D02*
G37*
G36*
X-4836D02*
X-6220D01*
Y708D01*
X-4836D01*
Y2092D01*
D02*
G37*
G36*
X5650Y2095D02*
X5514Y2082D01*
X5384Y2043D01*
X5264Y1978D01*
X5158Y1892D01*
X5072Y1786D01*
X5007Y1666D01*
X4968Y1536D01*
X4955Y1400D01*
X4968Y1264D01*
X5007Y1134D01*
X5072Y1014D01*
X5158Y908D01*
X5264Y822D01*
X5384Y757D01*
X5514Y718D01*
X5650Y705D01*
X5786Y718D01*
X5916Y757D01*
X6036Y822D01*
X6142Y908D01*
X6228Y1014D01*
X6293Y1134D01*
X6332Y1264D01*
X6345Y1400D01*
X6332Y1536D01*
X6293Y1666D01*
X6228Y1786D01*
X6142Y1892D01*
X6036Y1978D01*
X5916Y2043D01*
X5786Y2082D01*
X5650Y2095D01*
D02*
G37*
G36*
X-3528D02*
X-3663Y2082D01*
X-3794Y2043D01*
X-3914Y1978D01*
X-4019Y1892D01*
X-4106Y1786D01*
X-4170Y1666D01*
X-4210Y1536D01*
X-4223Y1400D01*
X-4210Y1264D01*
X-4170Y1134D01*
X-4106Y1014D01*
X-4019Y908D01*
X-3914Y822D01*
X-3794Y757D01*
X-3663Y718D01*
X-3528Y705D01*
X-3392Y718D01*
X-3262Y757D01*
X-3141Y822D01*
X-3036Y908D01*
X-2949Y1014D01*
X-2885Y1134D01*
X-2846Y1264D01*
X-2832Y1400D01*
X-2846Y1536D01*
X-2885Y1666D01*
X-2949Y1786D01*
X-3036Y1892D01*
X-3141Y1978D01*
X-3262Y2043D01*
X-3392Y2082D01*
X-3528Y2095D01*
D02*
G37*
G36*
X11811Y3035D02*
X11594Y3018D01*
X11383Y2968D01*
X11182Y2884D01*
X10997Y2771D01*
X10831Y2630D01*
X10690Y2464D01*
X10577Y2279D01*
X10493Y2078D01*
X10443Y1867D01*
X10426Y1650D01*
X10443Y1433D01*
X10493Y1222D01*
X10577Y1021D01*
X10690Y836D01*
X10831Y670D01*
X10997Y529D01*
X11182Y416D01*
X11383Y332D01*
X11594Y282D01*
X11811Y265D01*
X12028Y282D01*
X12239Y332D01*
X12440Y416D01*
X12625Y529D01*
X12791Y670D01*
X12932Y836D01*
X13045Y1021D01*
X13129Y1222D01*
X13179Y1433D01*
X13196Y1650D01*
X13179Y1867D01*
X13129Y2078D01*
X13045Y2279D01*
X12932Y2464D01*
X12791Y2630D01*
X12625Y2771D01*
X12440Y2884D01*
X12239Y2968D01*
X12028Y3018D01*
X11811Y3035D01*
D02*
G37*
G36*
X-11811Y2960D02*
X-12028Y2943D01*
X-12239Y2892D01*
X-12440Y2809D01*
X-12625Y2696D01*
X-12791Y2554D01*
X-12932Y2389D01*
X-13045Y2204D01*
X-13129Y2003D01*
X-13179Y1792D01*
X-13196Y1575D01*
X-13179Y1358D01*
X-13129Y1147D01*
X-13045Y946D01*
X-12932Y760D01*
X-12791Y595D01*
X-12625Y454D01*
X-12440Y340D01*
X-12239Y257D01*
X-12028Y206D01*
X-11811Y189D01*
X-11594Y206D01*
X-11383Y257D01*
X-11182Y340D01*
X-10997Y454D01*
X-10831Y595D01*
X-10690Y760D01*
X-10577Y946D01*
X-10493Y1147D01*
X-10443Y1358D01*
X-10426Y1575D01*
X-10443Y1792D01*
X-10493Y2003D01*
X-10577Y2204D01*
X-10690Y2389D01*
X-10831Y2554D01*
X-10997Y2696D01*
X-11182Y2809D01*
X-11383Y2892D01*
X-11594Y2943D01*
X-11811Y2960D01*
D02*
G37*
%LPD*%
G36*
X5065Y18151D02*
X5092Y18128D01*
X5120Y18108D01*
X5147Y18090D01*
X5175Y18076D01*
X5203Y18064D01*
X5232Y18054D01*
X5261Y18047D01*
X5290Y18043D01*
X5320Y18042D01*
Y17842D01*
X5290Y17841D01*
X5261Y17837D01*
X5232Y17830D01*
X5203Y17821D01*
X5175Y17809D01*
X5147Y17794D01*
X5120Y17776D01*
X5092Y17756D01*
X5065Y17733D01*
X5039Y17708D01*
Y18176D01*
X5065Y18151D01*
D02*
G37*
G36*
X7489Y17595D02*
X7472Y17572D01*
X7422Y17452D01*
X7405Y17323D01*
X7422Y17193D01*
X7472Y17073D01*
X7551Y16969D01*
X7655Y16890D01*
X7775Y16840D01*
X7904Y16823D01*
X8034Y16840D01*
X8154Y16890D01*
X8258Y16969D01*
X8337Y17073D01*
X8377Y17170D01*
X8431D01*
X8472Y17073D01*
X8551Y16969D01*
X8655Y16890D01*
X8775Y16840D01*
X8904Y16823D01*
X8911Y16824D01*
X8933Y16779D01*
X8616Y16462D01*
X5335D01*
Y17493D01*
X5170D01*
X5150Y17536D01*
X5152Y17543D01*
X5180Y17561D01*
X5202Y17582D01*
X5219Y17596D01*
X5235Y17608D01*
X5249Y17617D01*
X5263Y17624D01*
X5275Y17630D01*
X5287Y17633D01*
X5298Y17636D01*
X5309Y17637D01*
X5329Y17638D01*
X5334Y17640D01*
X6591D01*
X6611Y17590D01*
X6559Y17522D01*
X6519Y17426D01*
X6512Y17373D01*
X6904D01*
X7296D01*
X7289Y17426D01*
X7250Y17522D01*
X7198Y17590D01*
X7218Y17640D01*
X7467D01*
X7489Y17595D01*
D02*
G37*
G36*
X9901Y17027D02*
X9872Y17027D01*
X9844Y17024D01*
X9816Y17019D01*
X9790Y17013D01*
X9765Y17004D01*
X9740Y16993D01*
X9717Y16980D01*
X9695Y16966D01*
X9674Y16949D01*
X9653Y16930D01*
X9512Y17072D01*
X9531Y17092D01*
X9547Y17113D01*
X9562Y17135D01*
X9575Y17159D01*
X9586Y17183D01*
X9594Y17208D01*
X9601Y17235D01*
X9606Y17262D01*
X9608Y17290D01*
X9609Y17320D01*
X9901Y17027D01*
D02*
G37*
G36*
X-6604Y17290D02*
X-6601Y17262D01*
X-6597Y17235D01*
X-6590Y17208D01*
X-6581Y17183D01*
X-6570Y17159D01*
X-6558Y17135D01*
X-6543Y17113D01*
X-6526Y17092D01*
X-6508Y17072D01*
X-6649Y16930D01*
X-6669Y16949D01*
X-6690Y16966D01*
X-6713Y16980D01*
X-6736Y16993D01*
X-6760Y17004D01*
X-6786Y17013D01*
X-6812Y17019D01*
X-6839Y17024D01*
X-6868Y17027D01*
X-6897Y17027D01*
X-6605Y17320D01*
X-6604Y17290D01*
D02*
G37*
G36*
X-9714Y17091D02*
X-9732Y17069D01*
X-9748Y17046D01*
X-9762Y17023D01*
X-9773Y16998D01*
X-9783Y16974D01*
X-9790Y16948D01*
X-9796Y16922D01*
X-9799Y16895D01*
X-9800Y16868D01*
X-10000D01*
X-10001Y16895D01*
X-10004Y16922D01*
X-10010Y16948D01*
X-10017Y16974D01*
X-10027Y16998D01*
X-10038Y17023D01*
X-10052Y17046D01*
X-10068Y17069D01*
X-10086Y17091D01*
X-10107Y17112D01*
X-9693D01*
X-9714Y17091D01*
D02*
G37*
G36*
X-106Y16290D02*
X-95Y16284D01*
X-84Y16278D01*
X-71Y16273D01*
X-56Y16269D01*
X-41Y16266D01*
X-23Y16263D01*
X16Y16260D01*
X37Y16260D01*
X49Y16060D01*
X27Y16059D01*
X-12Y16056D01*
X-29Y16053D01*
X-44Y16049D01*
X-58Y16044D01*
X-71Y16039D01*
X-82Y16033D01*
X-92Y16025D01*
X-100Y16017D01*
X-250Y16164D01*
X-114Y16297D01*
X-106Y16290D01*
D02*
G37*
G36*
X-250Y16164D02*
X-400Y16017D01*
X-408Y16025D01*
X-418Y16033D01*
X-429Y16039D01*
X-442Y16044D01*
X-456Y16049D01*
X-471Y16053D01*
X-488Y16056D01*
X-527Y16059D01*
X-549Y16060D01*
X-537Y16260D01*
X-516Y16260D01*
X-477Y16263D01*
X-459Y16266D01*
X-444Y16269D01*
X-429Y16273D01*
X-416Y16278D01*
X-405Y16284D01*
X-394Y16290D01*
X-386Y16297D01*
X-250Y16164D01*
D02*
G37*
G36*
X-587Y13132D02*
X-594Y13122D01*
X-600Y13111D01*
X-605Y13098D01*
X-610Y13084D01*
X-613Y13068D01*
X-616Y13051D01*
X-618Y13032D01*
X-620Y12991D01*
X-820D01*
X-820Y13012D01*
X-823Y13051D01*
X-826Y13068D01*
X-830Y13084D01*
X-834Y13098D01*
X-839Y13111D01*
X-845Y13122D01*
X-852Y13132D01*
X-860Y13141D01*
X-580D01*
X-587Y13132D01*
D02*
G37*
G36*
X506Y10752D02*
X509Y10717D01*
X514Y10683D01*
X521Y10652D01*
X531Y10621D01*
X542Y10593D01*
X556Y10566D01*
X571Y10541D01*
X589Y10517D01*
X609Y10495D01*
X468Y10354D01*
X446Y10374D01*
X422Y10392D01*
X397Y10407D01*
X370Y10421D01*
X342Y10432D01*
X311Y10442D01*
X280Y10449D01*
X246Y10454D01*
X211Y10457D01*
X174Y10458D01*
X505Y10789D01*
X506Y10752D01*
D02*
G37*
G36*
X-121Y10243D02*
X-48Y10181D01*
X-15Y10158D01*
X14Y10141D01*
X41Y10129D01*
X65Y10123D01*
X87Y10123D01*
X105Y10129D01*
X120Y10140D01*
X-161Y9858D01*
X-150Y9874D01*
X-145Y9892D01*
X-145Y9913D01*
X-151Y9937D01*
X-162Y9964D01*
X-179Y9994D01*
X-202Y10027D01*
X-230Y10062D01*
X-304Y10141D01*
X-163Y10283D01*
X-121Y10243D01*
D02*
G37*
G36*
X8739Y8937D02*
X8724Y8921D01*
X8699Y8891D01*
X8689Y8877D01*
X8680Y8864D01*
X8673Y8850D01*
X8668Y8838D01*
X8664Y8825D01*
X8662Y8813D01*
X8661Y8802D01*
X8463Y9000D01*
X8475Y9001D01*
X8486Y9003D01*
X8499Y9007D01*
X8512Y9012D01*
X8525Y9019D01*
X8539Y9028D01*
X8553Y9038D01*
X8567Y9050D01*
X8598Y9078D01*
X8739Y8937D01*
D02*
G37*
G36*
X-6076Y8813D02*
X-6046Y8788D01*
X-6032Y8778D01*
X-6019Y8769D01*
X-6005Y8762D01*
X-5993Y8757D01*
X-5980Y8753D01*
X-5968Y8751D01*
X-5957Y8750D01*
X-6155Y8552D01*
X-6156Y8563D01*
X-6158Y8575D01*
X-6162Y8588D01*
X-6167Y8600D01*
X-6174Y8614D01*
X-6183Y8627D01*
X-6193Y8641D01*
X-6205Y8656D01*
X-6233Y8687D01*
X-6092Y8828D01*
X-6076Y8813D01*
D02*
G37*
G36*
X8459Y8600D02*
X8448Y8599D01*
X8436Y8597D01*
X8424Y8593D01*
X8411Y8588D01*
X8398Y8581D01*
X8384Y8572D01*
X8370Y8562D01*
X8355Y8550D01*
X8325Y8522D01*
X8183Y8663D01*
X8198Y8679D01*
X8223Y8709D01*
X8233Y8723D01*
X8242Y8736D01*
X8249Y8750D01*
X8254Y8762D01*
X8258Y8775D01*
X8260Y8787D01*
X8261Y8798D01*
X8459Y8600D01*
D02*
G37*
G36*
X-5754Y8537D02*
X-5752Y8525D01*
X-5748Y8512D01*
X-5743Y8500D01*
X-5736Y8486D01*
X-5727Y8473D01*
X-5717Y8459D01*
X-5705Y8444D01*
X-5677Y8413D01*
X-5818Y8272D01*
X-5834Y8287D01*
X-5864Y8312D01*
X-5878Y8322D01*
X-5891Y8331D01*
X-5905Y8338D01*
X-5917Y8343D01*
X-5930Y8347D01*
X-5942Y8349D01*
X-5953Y8350D01*
X-5755Y8548D01*
X-5754Y8537D01*
D02*
G37*
G36*
X1164Y2139D02*
X1171Y2101D01*
X1183Y2061D01*
X1200Y2020D01*
X1222Y1978D01*
X1249Y1935D01*
X1270Y1905D01*
X1306Y1911D01*
X1356Y1922D01*
X1401Y1937D01*
X1442Y1953D01*
X1479Y1973D01*
X1512Y1995D01*
X1540Y2020D01*
X1681Y1879D01*
X1656Y1850D01*
X1634Y1818D01*
X1615Y1781D01*
X1598Y1740D01*
X1584Y1695D01*
X1572Y1645D01*
X1563Y1591D01*
X1557Y1533D01*
X1553Y1405D01*
X1207Y1751D01*
X954D01*
X579Y1499D01*
X590Y1560D01*
X597Y1617D01*
X599Y1671D01*
X597Y1721D01*
X592Y1768D01*
X582Y1812D01*
X568Y1852D01*
X549Y1889D01*
X527Y1923D01*
X501Y1953D01*
X670Y2066D01*
X696Y2044D01*
X726Y2022D01*
X762Y2002D01*
X802Y1982D01*
X848Y1963D01*
X884Y1952D01*
X900Y1978D01*
X922Y2020D01*
X939Y2061D01*
X951Y2101D01*
X959Y2139D01*
X961Y2177D01*
X1161D01*
X1164Y2139D01*
D02*
G37*
%LPC*%
G36*
X7296Y17273D02*
X6954D01*
Y16931D01*
X7008Y16938D01*
X7104Y16977D01*
X7186Y17041D01*
X7250Y17123D01*
X7289Y17219D01*
X7296Y17273D01*
D02*
G37*
G36*
X6854D02*
X6512D01*
X6519Y17219D01*
X6559Y17123D01*
X6622Y17041D01*
X6705Y16977D01*
X6801Y16938D01*
X6854Y16931D01*
Y17273D01*
D02*
G37*
%LPD*%
G36*
X6929Y11055D02*
X6959Y11030D01*
X6973Y11020D01*
X6986Y11011D01*
X7000Y11004D01*
X7012Y10999D01*
X7025Y10995D01*
X7037Y10993D01*
X7048Y10992D01*
X6850Y10794D01*
X6849Y10806D01*
X6847Y10817D01*
X6843Y10830D01*
X6838Y10843D01*
X6831Y10856D01*
X6822Y10869D01*
X6812Y10884D01*
X6800Y10898D01*
X6772Y10929D01*
X6913Y11070D01*
X6929Y11055D01*
D02*
G37*
G36*
X-5868Y14099D02*
X-5874Y14089D01*
X-5880Y14077D01*
X-5886Y14064D01*
X-5890Y14050D01*
X-5894Y14034D01*
X-5896Y14017D01*
X-5898Y13998D01*
X-5900Y13957D01*
X-6100D01*
X-6100Y13978D01*
X-6104Y14017D01*
X-6106Y14034D01*
X-6110Y14050D01*
X-6114Y14064D01*
X-6120Y14077D01*
X-6126Y14089D01*
X-6132Y14099D01*
X-6140Y14107D01*
X-5860D01*
X-5868Y14099D01*
D02*
G37*
D11*
X9199Y13744D02*
X9099D01*
X8999Y13844D01*
Y14344D01*
X9299D01*
X9399Y14244D01*
Y14044D01*
X9299Y13944D01*
X8999D01*
X8799D02*
X8599D01*
X8699D01*
Y14344D01*
X8799D01*
X8199Y14444D02*
Y14344D01*
X8299D01*
X8099D01*
X8199D01*
Y14044D01*
X8099Y13944D01*
X7799Y14544D02*
Y13944D01*
Y14244D01*
X7699Y14344D01*
X7500D01*
X7400Y14244D01*
Y13944D01*
X7200Y14344D02*
Y14044D01*
X7100Y13944D01*
X6800D01*
Y14344D01*
X6600Y14544D02*
Y13944D01*
X6300D01*
X6200Y14044D01*
Y14144D01*
Y14244D01*
X6300Y14344D01*
X6600D01*
X6000Y13944D02*
X5600Y14344D01*
X5000Y14544D02*
X5400D01*
Y14244D01*
X5200D01*
X5400D01*
Y13944D01*
X4800Y14344D02*
Y13944D01*
Y14144D01*
X4700Y14244D01*
X4600Y14344D01*
X4501D01*
X3901Y13944D02*
X4101D01*
X4201Y14044D01*
Y14244D01*
X4101Y14344D01*
X3901D01*
X3801Y14244D01*
Y14144D01*
X4201D01*
X3301Y13944D02*
X3501D01*
X3601Y14044D01*
Y14244D01*
X3501Y14344D01*
X3301D01*
X3201Y14244D01*
Y14144D01*
X3601D01*
X2601Y14544D02*
Y13944D01*
X2901D01*
X3001Y14044D01*
Y14244D01*
X2901Y14344D01*
X2601D01*
X2401Y14244D02*
X2001D01*
X1801Y14544D02*
Y13944D01*
X1601Y14144D01*
X1402Y13944D01*
Y14544D01*
X1202Y14344D02*
Y14044D01*
X1102Y13944D01*
X802D01*
Y14344D01*
X602Y13944D02*
X202Y14344D01*
X-398Y14544D02*
Y13944D01*
X-98D01*
X2Y14044D01*
Y14244D01*
X-98Y14344D01*
X-398D01*
X-598D02*
Y13944D01*
Y14144D01*
X-698Y14244D01*
X-798Y14344D01*
X-898D01*
X-1198Y13944D02*
X-1398D01*
X-1298D01*
Y14344D01*
X-1198D01*
X-1697D02*
X-1897Y13944D01*
X-2097Y14344D01*
X-2597Y13944D02*
X-2397D01*
X-2297Y14044D01*
Y14244D01*
X-2397Y14344D01*
X-2597D01*
X-2697Y14244D01*
Y14144D01*
X-2297D01*
X-2897Y14344D02*
Y13944D01*
Y14144D01*
X-2997Y14244D01*
X-3097Y14344D01*
X-3197D01*
X9399Y14727D02*
Y15327D01*
X8999Y14727D01*
Y15327D01*
X8399D02*
X8599D01*
X8499D01*
Y14827D01*
X8599Y14727D01*
X8699D01*
X8799Y14827D01*
X8199Y15327D02*
Y14827D01*
X8099Y14727D01*
X7899D01*
X7799Y14827D01*
Y15327D01*
X7200Y15227D02*
X7300Y15327D01*
X7500D01*
X7600Y15227D01*
Y15127D01*
X7500Y15027D01*
X7300D01*
X7200Y14927D01*
Y14827D01*
X7300Y14727D01*
X7500D01*
X7600Y14827D01*
X7000Y15327D02*
X6600D01*
X6800D01*
Y14727D01*
X5400D02*
X5800D01*
X5400Y15127D01*
Y15227D01*
X5500Y15327D01*
X5700D01*
X5800Y15227D01*
X5200D02*
X5100Y15327D01*
X4900D01*
X4800Y15227D01*
Y14827D01*
X4900Y14727D01*
X5100D01*
X5200Y14827D01*
Y15227D01*
X4600Y14727D02*
X4401D01*
X4501D01*
Y15327D01*
X4600Y15227D01*
X4101Y14827D02*
X4001Y14727D01*
X3801D01*
X3701Y14827D01*
Y15227D01*
X3801Y15327D01*
X4001D01*
X4101Y15227D01*
Y15127D01*
X4001Y15027D01*
X3701D01*
X2901Y15327D02*
Y14727D01*
X2601D01*
X2501Y14827D01*
Y14927D01*
Y15027D01*
X2601Y15127D01*
X2901D01*
X2001Y14727D02*
X2201D01*
X2301Y14827D01*
Y15027D01*
X2201Y15127D01*
X2001D01*
X1901Y15027D01*
Y14927D01*
X2301D01*
X1601Y15127D02*
X1402D01*
X1302Y15027D01*
Y14727D01*
X1601D01*
X1701Y14827D01*
X1601Y14927D01*
X1302D01*
X702Y15127D02*
X1002D01*
X1102Y15027D01*
Y14827D01*
X1002Y14727D01*
X702D01*
X402D02*
X202D01*
X102Y14827D01*
Y15027D01*
X202Y15127D01*
X402D01*
X502Y15027D01*
Y14827D01*
X402Y14727D01*
X-98D02*
Y15127D01*
X-398D01*
X-498Y15027D01*
Y14727D01*
X-1298Y15127D02*
X-1498Y14727D01*
X-1697Y15127D01*
X-1897Y15227D02*
X-1997Y15327D01*
X-2197D01*
X-2297Y15227D01*
Y14827D01*
X-2197Y14727D01*
X-1997D01*
X-1897Y14827D01*
Y15227D01*
X-2497Y14727D02*
Y14827D01*
X-2597D01*
Y14727D01*
X-2497D01*
X-2997Y15227D02*
X-3097Y15327D01*
X-3297D01*
X-3397Y15227D01*
Y14827D01*
X-3297Y14727D01*
X-3097D01*
X-2997Y14827D01*
Y15227D01*
X-3597Y14727D02*
Y14827D01*
X-3697D01*
Y14727D01*
X-3597D01*
X-4097D02*
X-4297D01*
X-4197D01*
Y15327D01*
X-4097Y15227D01*
D50*
X5100Y12742D02*
Y12950D01*
Y12742D02*
X7050Y10792D01*
X-6000Y12175D02*
Y14250D01*
Y12175D02*
X0Y6175D01*
X4800Y17942D02*
X9958D01*
X10597Y17303D01*
Y10936D02*
Y17303D01*
X8461Y8800D02*
X10597Y10936D01*
X-720Y10698D02*
X171Y9808D01*
Y10792D02*
X1061Y9902D01*
Y1534D02*
Y9902D01*
X-6900Y17323D02*
X-5737Y16160D01*
X8742D01*
X-9900Y12495D02*
Y17323D01*
Y12495D02*
X-5955Y8550D01*
X-720Y10698D02*
Y13284D01*
X1061Y1400D02*
X8461Y8800D01*
X1061Y1400D02*
Y1534D01*
X-5955Y8550D02*
X1061Y1534D01*
X8742Y16160D02*
X9904Y17323D01*
D51*
X171Y10792D02*
D03*
X-4800Y17942D02*
D03*
X4800D02*
D03*
D52*
X171Y9808D02*
D03*
X-4800Y16958D02*
D03*
X4800D02*
D03*
D53*
X-6900Y20323D02*
D03*
X9904D02*
D03*
D54*
X-7900D02*
D03*
X-8900D02*
D03*
X-9900D02*
D03*
X-6900Y17323D02*
D03*
X-7900D02*
D03*
X-8900D02*
D03*
X-9900D02*
D03*
X8904Y20323D02*
D03*
X7904D02*
D03*
X6904D02*
D03*
X9904Y17323D02*
D03*
X8904D02*
D03*
X7904D02*
D03*
X6904D02*
D03*
D55*
X-150Y19550D02*
D03*
X-1150D02*
D03*
X-2150D02*
D03*
X850D02*
D03*
X1850D02*
D03*
D56*
X0Y4600D02*
D03*
Y7750D02*
D03*
D57*
Y5388D02*
D03*
Y6175D02*
D03*
Y6963D02*
D03*
D58*
X-3528Y1400D02*
D03*
X1061D02*
D03*
X5650D02*
D03*
D59*
X-5528D02*
D03*
X-939D02*
D03*
X3650D02*
D03*
D60*
X5100Y12950D02*
D03*
X7050Y10792D02*
D03*
X-6000Y14250D02*
D03*
X-720Y13284D02*
D03*
X-250Y16150D02*
D03*
X8461Y8800D02*
D03*
X-5955Y8550D02*
D03*
D61*
X-14567Y17248D02*
D03*
X14567D02*
D03*
D03*
X11811Y19291D02*
D03*
Y1650D02*
D03*
X-11811Y1575D02*
D03*
Y19291D02*
D03*
M02*
