G04*
G04 #@! TF.GenerationSoftware,Altium Limited,Altium Designer,18.1.4 (159)*
G04*
G04 Layer_Color=16711935*
%FSLAX24Y24*%
%MOIN*%
G70*
G01*
G75*
%ADD62C,0.0039*%
D62*
X8127Y13985D02*
G03*
X8127Y13985I-197J0D01*
G01*
X11777D02*
G03*
X11777Y13985I-197J0D01*
G01*
X-11073D02*
G03*
X-11073Y13985I-197J0D01*
G01*
X-7523D02*
G03*
X-7523Y13985I-197J0D01*
G01*
X-6530Y19886D02*
G03*
X-6530Y19886I-197J0D01*
G01*
X10274D02*
G03*
X10274Y19886I-197J0D01*
G01*
X6316Y12764D02*
Y14339D01*
X8284Y12764D02*
Y14339D01*
X6316Y12764D02*
X8284D01*
X6316Y14339D02*
X8284D01*
X9966D02*
X11934D01*
X9966Y12764D02*
X11934D01*
Y14339D01*
X9966Y12764D02*
Y14339D01*
X-12884D02*
X-10916D01*
X-12884Y12764D02*
X-10916D01*
Y14339D01*
X-12884Y12764D02*
Y14339D01*
X-9334D02*
X-7366D01*
X-9334Y12764D02*
X-7366D01*
Y14339D01*
X-9334Y12764D02*
Y14339D01*
X-10428Y20240D02*
X-6372D01*
X-10428Y17405D02*
X-6372D01*
Y20240D01*
X-10428Y17405D02*
Y20240D01*
X6377D02*
X10432D01*
X6377Y17405D02*
X10432D01*
Y20240D01*
X6377Y17405D02*
Y20240D01*
M02*
