G04*
G04 #@! TF.GenerationSoftware,Altium Limited,Altium Designer,18.1.4 (159)*
G04*
G04 Layer_Color=8421504*
%FSLAX24Y24*%
%MOIN*%
G70*
G01*
G75*
%ADD17R,0.0500X0.0550*%
G04:AMPARAMS|DCode=18|XSize=55mil|YSize=50mil|CornerRadius=0mil|HoleSize=0mil|Usage=FLASHONLY|Rotation=270.000|XOffset=0mil|YOffset=0mil|HoleType=Round|Shape=Octagon|*
%AMOCTAGOND18*
4,1,8,-0.0125,-0.0275,0.0125,-0.0275,0.0250,-0.0150,0.0250,0.0150,0.0125,0.0275,-0.0125,0.0275,-0.0250,0.0150,-0.0250,-0.0150,-0.0125,-0.0275,0.0*
%
%ADD18OCTAGOND18*%

%ADD19R,0.0610X0.0925*%
%ADD20R,0.0276X0.0394*%
%ADD21R,0.1000X0.0600*%
%ADD22R,0.0300X0.0300*%
%ADD23R,0.0236X0.0551*%
%ADD24R,0.0492X0.1122*%
%ADD25R,0.2185X0.2559*%
%ADD26O,0.0276X0.0984*%
%ADD27R,0.0300X0.0300*%
D17*
X5650Y14675D02*
D03*
X-6650D02*
D03*
X-10100D02*
D03*
X9050D02*
D03*
D18*
X5650Y13325D02*
D03*
X-6650D02*
D03*
X-10100D02*
D03*
X9050D02*
D03*
D19*
X2577Y13204D02*
D03*
Y14896D02*
D03*
D20*
X-4852Y11756D02*
D03*
Y12425D02*
D03*
D21*
X2550Y18200D02*
D03*
Y16850D02*
D03*
D22*
X5650Y19400D02*
D03*
X5100D02*
D03*
X400Y13444D02*
D03*
X-150D02*
D03*
X-2100Y15950D02*
D03*
X-2650D02*
D03*
X-8403Y11342D02*
D03*
X-7853D02*
D03*
X-12003D02*
D03*
X-11453D02*
D03*
X10947D02*
D03*
X11497D02*
D03*
X7147D02*
D03*
X7697D02*
D03*
X-8050Y16410D02*
D03*
X-7500D02*
D03*
X-10700D02*
D03*
X-11250D02*
D03*
X11300D02*
D03*
X10750D02*
D03*
X7600D02*
D03*
X8150D02*
D03*
X-800Y17579D02*
D03*
X-250D02*
D03*
X-2050D02*
D03*
X-2600D02*
D03*
X-5600Y19400D02*
D03*
X-5050D02*
D03*
X-5600Y20250D02*
D03*
X-5050D02*
D03*
X5650D02*
D03*
X5100D02*
D03*
D23*
X-1250Y14358D02*
D03*
X-750D02*
D03*
X-250D02*
D03*
X250D02*
D03*
Y16642D02*
D03*
X-250D02*
D03*
X-750D02*
D03*
X-1250D02*
D03*
D24*
X-10800Y8024D02*
D03*
X-12595D02*
D03*
X-2205Y7259D02*
D03*
X-4000D02*
D03*
X-9695D02*
D03*
X-7900D02*
D03*
X-5050Y8024D02*
D03*
X-6845D02*
D03*
X10850Y7259D02*
D03*
X12645D02*
D03*
X6895D02*
D03*
X5100D02*
D03*
X7950Y8024D02*
D03*
X9745D02*
D03*
X4045D02*
D03*
X2250D02*
D03*
X-3895Y14915D02*
D03*
X-2100D02*
D03*
D25*
X-11698Y5484D02*
D03*
X-3102Y4719D02*
D03*
X-8798D02*
D03*
X-5948Y5484D02*
D03*
X11748Y4719D02*
D03*
X5998D02*
D03*
X8848Y5484D02*
D03*
X3148D02*
D03*
X-2998Y12375D02*
D03*
D26*
X8050Y14416D02*
D03*
X7550D02*
D03*
X7050D02*
D03*
X6550D02*
D03*
X8050Y12487D02*
D03*
X7550D02*
D03*
X7050D02*
D03*
X6550D02*
D03*
X-7600Y14416D02*
D03*
X-8100D02*
D03*
X-8600D02*
D03*
X-9100D02*
D03*
X-7600Y12487D02*
D03*
X-8100D02*
D03*
X-8600D02*
D03*
X-9100D02*
D03*
X-11150Y14416D02*
D03*
X-11650D02*
D03*
X-12150D02*
D03*
X-12650D02*
D03*
X-11150Y12487D02*
D03*
X-11650D02*
D03*
X-12150D02*
D03*
X-12650D02*
D03*
X11700Y14416D02*
D03*
X11200D02*
D03*
X10700D02*
D03*
X10200D02*
D03*
X11700Y12487D02*
D03*
X11200D02*
D03*
X10700D02*
D03*
X10200D02*
D03*
D27*
X3800Y11850D02*
D03*
Y12400D02*
D03*
X-4852Y14165D02*
D03*
Y14715D02*
D03*
X-3974Y9600D02*
D03*
Y9050D02*
D03*
X-9700Y9600D02*
D03*
Y9050D02*
D03*
X-6830Y9600D02*
D03*
Y9050D02*
D03*
X-12595Y9600D02*
D03*
Y9050D02*
D03*
X10850Y9600D02*
D03*
Y9050D02*
D03*
X5100Y9600D02*
D03*
Y9050D02*
D03*
X7950Y9600D02*
D03*
Y9050D02*
D03*
X2250Y9600D02*
D03*
Y9050D02*
D03*
X-2205D02*
D03*
Y9600D02*
D03*
X-7900Y9050D02*
D03*
Y9600D02*
D03*
X-5050Y9050D02*
D03*
Y9600D02*
D03*
X-10796Y9050D02*
D03*
Y9600D02*
D03*
X12650Y9050D02*
D03*
Y9600D02*
D03*
X9750Y9050D02*
D03*
Y9600D02*
D03*
X6904Y9050D02*
D03*
Y9600D02*
D03*
X4045Y9050D02*
D03*
Y9600D02*
D03*
X1100Y17350D02*
D03*
Y16800D02*
D03*
X3800Y14165D02*
D03*
Y14715D02*
D03*
M02*
