G04*
G04 #@! TF.GenerationSoftware,Altium Limited,Altium Designer,18.1.4 (159)*
G04*
G04 Layer_Color=65535*
%FSLAX24Y24*%
%MOIN*%
G70*
G01*
G75*
%ADD10C,0.0100*%
%ADD11C,0.0198*%
%ADD12C,0.0236*%
%ADD13C,0.0098*%
%ADD14C,0.0079*%
%ADD15C,0.0120*%
%ADD16C,0.0098*%
G36*
X-1962Y20342D02*
X-1955Y20341D01*
X-1946Y20339D01*
X-1936Y20336D01*
X-1926Y20333D01*
X-1916Y20329D01*
X-1915D01*
X-1915Y20328D01*
X-1911Y20326D01*
X-1906Y20323D01*
X-1901Y20319D01*
X-1894Y20314D01*
X-1888Y20307D01*
X-1881Y20300D01*
X-1875Y20292D01*
X-1875Y20291D01*
X-1873Y20288D01*
X-1871Y20283D01*
X-1868Y20277D01*
X-1865Y20270D01*
X-1863Y20261D01*
X-1861Y20252D01*
X-1861Y20242D01*
Y20241D01*
Y20238D01*
X-1861Y20234D01*
X-1863Y20227D01*
X-1864Y20220D01*
X-1867Y20213D01*
X-1870Y20205D01*
X-1875Y20197D01*
X-1875Y20196D01*
X-1877Y20194D01*
X-1880Y20190D01*
X-1885Y20185D01*
X-1890Y20180D01*
X-1897Y20175D01*
X-1905Y20170D01*
X-1914Y20165D01*
X-1914D01*
X-1912Y20164D01*
X-1911Y20164D01*
X-1909Y20163D01*
X-1902Y20161D01*
X-1895Y20158D01*
X-1886Y20153D01*
X-1877Y20148D01*
X-1869Y20140D01*
X-1861Y20132D01*
X-1860Y20131D01*
X-1858Y20128D01*
X-1855Y20122D01*
X-1851Y20115D01*
X-1848Y20106D01*
X-1845Y20095D01*
X-1843Y20083D01*
X-1842Y20070D01*
Y20069D01*
Y20068D01*
Y20065D01*
X-1843Y20062D01*
X-1843Y20057D01*
X-1844Y20052D01*
X-1845Y20047D01*
X-1846Y20040D01*
X-1851Y20027D01*
X-1854Y20020D01*
X-1858Y20013D01*
X-1862Y20006D01*
X-1867Y19999D01*
X-1873Y19992D01*
X-1879Y19985D01*
X-1880Y19984D01*
X-1881Y19983D01*
X-1883Y19982D01*
X-1886Y19979D01*
X-1889Y19977D01*
X-1894Y19974D01*
X-1899Y19971D01*
X-1905Y19968D01*
X-1911Y19964D01*
X-1918Y19961D01*
X-1925Y19958D01*
X-1934Y19956D01*
X-1942Y19953D01*
X-1952Y19952D01*
X-1961Y19951D01*
X-1972Y19950D01*
X-1977D01*
X-1980Y19951D01*
X-1985Y19951D01*
X-1990Y19952D01*
X-1995Y19953D01*
X-2001Y19954D01*
X-2015Y19957D01*
X-2028Y19963D01*
X-2036Y19966D01*
X-2042Y19970D01*
X-2049Y19975D01*
X-2056Y19980D01*
X-2056Y19981D01*
X-2057Y19982D01*
X-2059Y19983D01*
X-2061Y19986D01*
X-2063Y19988D01*
X-2066Y19992D01*
X-2070Y19996D01*
X-2073Y20001D01*
X-2076Y20007D01*
X-2080Y20012D01*
X-2086Y20025D01*
X-2091Y20041D01*
X-2092Y20049D01*
X-2093Y20058D01*
X-2046Y20064D01*
Y20064D01*
X-2046Y20063D01*
X-2045Y20060D01*
X-2045Y20058D01*
X-2044Y20054D01*
X-2043Y20050D01*
X-2040Y20042D01*
X-2036Y20032D01*
X-2031Y20023D01*
X-2026Y20014D01*
X-2019Y20006D01*
X-2018Y20005D01*
X-2016Y20003D01*
X-2011Y20000D01*
X-2006Y19998D01*
X-1999Y19994D01*
X-1991Y19992D01*
X-1981Y19989D01*
X-1971Y19989D01*
X-1968D01*
X-1966Y19989D01*
X-1960Y19990D01*
X-1952Y19992D01*
X-1943Y19994D01*
X-1934Y19998D01*
X-1924Y20004D01*
X-1915Y20012D01*
X-1914Y20013D01*
X-1911Y20016D01*
X-1908Y20021D01*
X-1904Y20028D01*
X-1899Y20036D01*
X-1896Y20045D01*
X-1893Y20057D01*
X-1892Y20069D01*
Y20069D01*
Y20070D01*
Y20072D01*
X-1893Y20074D01*
X-1893Y20080D01*
X-1895Y20088D01*
X-1897Y20097D01*
X-1901Y20105D01*
X-1906Y20114D01*
X-1914Y20123D01*
X-1915Y20124D01*
X-1917Y20126D01*
X-1922Y20129D01*
X-1928Y20133D01*
X-1936Y20137D01*
X-1945Y20140D01*
X-1956Y20143D01*
X-1967Y20144D01*
X-1972D01*
X-1976Y20143D01*
X-1981Y20143D01*
X-1987Y20141D01*
X-1994Y20140D01*
X-2001Y20139D01*
X-1995Y20180D01*
X-1992D01*
X-1990Y20180D01*
X-1983D01*
X-1977Y20181D01*
X-1970Y20182D01*
X-1961Y20184D01*
X-1952Y20186D01*
X-1943Y20190D01*
X-1934Y20195D01*
X-1933D01*
X-1932Y20196D01*
X-1930Y20198D01*
X-1926Y20202D01*
X-1921Y20207D01*
X-1917Y20214D01*
X-1913Y20222D01*
X-1910Y20232D01*
X-1909Y20237D01*
Y20244D01*
Y20244D01*
Y20245D01*
Y20248D01*
X-1910Y20252D01*
X-1911Y20259D01*
X-1914Y20265D01*
X-1916Y20272D01*
X-1921Y20280D01*
X-1927Y20286D01*
X-1927Y20287D01*
X-1930Y20289D01*
X-1934Y20292D01*
X-1939Y20295D01*
X-1946Y20298D01*
X-1954Y20301D01*
X-1962Y20303D01*
X-1972Y20304D01*
X-1977D01*
X-1982Y20302D01*
X-1989Y20301D01*
X-1996Y20299D01*
X-2003Y20296D01*
X-2011Y20292D01*
X-2018Y20286D01*
X-2018Y20286D01*
X-2021Y20283D01*
X-2024Y20279D01*
X-2028Y20274D01*
X-2032Y20266D01*
X-2036Y20257D01*
X-2039Y20247D01*
X-2041Y20235D01*
X-2088Y20243D01*
Y20244D01*
X-2088Y20245D01*
X-2087Y20247D01*
X-2087Y20251D01*
X-2086Y20255D01*
X-2084Y20259D01*
X-2081Y20270D01*
X-2075Y20282D01*
X-2068Y20294D01*
X-2060Y20306D01*
X-2050Y20316D01*
X-2049Y20317D01*
X-2048Y20317D01*
X-2046Y20319D01*
X-2044Y20320D01*
X-2041Y20322D01*
X-2037Y20325D01*
X-2033Y20327D01*
X-2028Y20330D01*
X-2017Y20334D01*
X-2005Y20338D01*
X-1990Y20341D01*
X-1982Y20342D01*
X-1968D01*
X-1962Y20342D01*
D02*
G37*
G36*
X-2618D02*
X-2611Y20341D01*
X-2602Y20339D01*
X-2592Y20336D01*
X-2582Y20333D01*
X-2572Y20329D01*
X-2572D01*
X-2571Y20328D01*
X-2568Y20326D01*
X-2563Y20323D01*
X-2557Y20319D01*
X-2551Y20314D01*
X-2544Y20307D01*
X-2537Y20300D01*
X-2532Y20292D01*
X-2531Y20291D01*
X-2530Y20288D01*
X-2527Y20283D01*
X-2525Y20277D01*
X-2522Y20270D01*
X-2520Y20261D01*
X-2518Y20252D01*
X-2517Y20242D01*
Y20241D01*
Y20238D01*
X-2518Y20234D01*
X-2519Y20227D01*
X-2521Y20220D01*
X-2524Y20213D01*
X-2527Y20205D01*
X-2531Y20197D01*
X-2532Y20196D01*
X-2534Y20194D01*
X-2537Y20190D01*
X-2541Y20185D01*
X-2547Y20180D01*
X-2554Y20175D01*
X-2561Y20170D01*
X-2571Y20165D01*
X-2570D01*
X-2569Y20164D01*
X-2567Y20164D01*
X-2565Y20163D01*
X-2559Y20161D01*
X-2551Y20158D01*
X-2542Y20153D01*
X-2534Y20148D01*
X-2525Y20140D01*
X-2517Y20132D01*
X-2517Y20131D01*
X-2515Y20128D01*
X-2511Y20122D01*
X-2508Y20115D01*
X-2505Y20106D01*
X-2501Y20095D01*
X-2499Y20083D01*
X-2499Y20070D01*
Y20069D01*
Y20068D01*
Y20065D01*
X-2499Y20062D01*
X-2500Y20057D01*
X-2501Y20052D01*
X-2502Y20047D01*
X-2503Y20040D01*
X-2507Y20027D01*
X-2511Y20020D01*
X-2514Y20013D01*
X-2519Y20006D01*
X-2524Y19999D01*
X-2529Y19992D01*
X-2536Y19985D01*
X-2536Y19984D01*
X-2537Y19983D01*
X-2540Y19982D01*
X-2542Y19979D01*
X-2546Y19977D01*
X-2550Y19974D01*
X-2555Y19971D01*
X-2561Y19968D01*
X-2567Y19964D01*
X-2575Y19961D01*
X-2582Y19958D01*
X-2590Y19956D01*
X-2599Y19953D01*
X-2608Y19952D01*
X-2618Y19951D01*
X-2628Y19950D01*
X-2633D01*
X-2637Y19951D01*
X-2641Y19951D01*
X-2646Y19952D01*
X-2652Y19953D01*
X-2658Y19954D01*
X-2671Y19957D01*
X-2685Y19963D01*
X-2692Y19966D01*
X-2699Y19970D01*
X-2706Y19975D01*
X-2712Y19980D01*
X-2713Y19981D01*
X-2714Y19982D01*
X-2716Y19983D01*
X-2717Y19986D01*
X-2720Y19988D01*
X-2723Y19992D01*
X-2726Y19996D01*
X-2729Y20001D01*
X-2733Y20007D01*
X-2736Y20012D01*
X-2742Y20025D01*
X-2747Y20041D01*
X-2749Y20049D01*
X-2750Y20058D01*
X-2703Y20064D01*
Y20064D01*
X-2702Y20063D01*
X-2702Y20060D01*
X-2701Y20058D01*
X-2701Y20054D01*
X-2699Y20050D01*
X-2697Y20042D01*
X-2693Y20032D01*
X-2688Y20023D01*
X-2682Y20014D01*
X-2676Y20006D01*
X-2675Y20005D01*
X-2672Y20003D01*
X-2668Y20000D01*
X-2662Y19998D01*
X-2656Y19994D01*
X-2647Y19992D01*
X-2638Y19989D01*
X-2628Y19989D01*
X-2625D01*
X-2622Y19989D01*
X-2616Y19990D01*
X-2608Y19992D01*
X-2600Y19994D01*
X-2590Y19998D01*
X-2581Y20004D01*
X-2572Y20012D01*
X-2571Y20013D01*
X-2568Y20016D01*
X-2565Y20021D01*
X-2560Y20028D01*
X-2556Y20036D01*
X-2552Y20045D01*
X-2550Y20057D01*
X-2549Y20069D01*
Y20069D01*
Y20070D01*
Y20072D01*
X-2549Y20074D01*
X-2550Y20080D01*
X-2551Y20088D01*
X-2554Y20097D01*
X-2557Y20105D01*
X-2563Y20114D01*
X-2570Y20123D01*
X-2571Y20124D01*
X-2574Y20126D01*
X-2578Y20129D01*
X-2585Y20133D01*
X-2592Y20137D01*
X-2602Y20140D01*
X-2612Y20143D01*
X-2624Y20144D01*
X-2629D01*
X-2633Y20143D01*
X-2638Y20143D01*
X-2643Y20141D01*
X-2650Y20140D01*
X-2657Y20139D01*
X-2652Y20180D01*
X-2649D01*
X-2647Y20180D01*
X-2640D01*
X-2633Y20181D01*
X-2626Y20182D01*
X-2618Y20184D01*
X-2608Y20186D01*
X-2600Y20190D01*
X-2590Y20195D01*
X-2590D01*
X-2589Y20196D01*
X-2586Y20198D01*
X-2582Y20202D01*
X-2578Y20207D01*
X-2573Y20214D01*
X-2570Y20222D01*
X-2567Y20232D01*
X-2566Y20237D01*
Y20244D01*
Y20244D01*
Y20245D01*
Y20248D01*
X-2567Y20252D01*
X-2568Y20259D01*
X-2570Y20265D01*
X-2573Y20272D01*
X-2577Y20280D01*
X-2583Y20286D01*
X-2584Y20287D01*
X-2587Y20289D01*
X-2591Y20292D01*
X-2596Y20295D01*
X-2602Y20298D01*
X-2610Y20301D01*
X-2619Y20303D01*
X-2629Y20304D01*
X-2633D01*
X-2638Y20302D01*
X-2645Y20301D01*
X-2652Y20299D01*
X-2660Y20296D01*
X-2667Y20292D01*
X-2675Y20286D01*
X-2675Y20286D01*
X-2677Y20283D01*
X-2681Y20279D01*
X-2684Y20274D01*
X-2688Y20266D01*
X-2692Y20257D01*
X-2696Y20247D01*
X-2698Y20235D01*
X-2745Y20243D01*
Y20244D01*
X-2744Y20245D01*
X-2744Y20247D01*
X-2743Y20251D01*
X-2742Y20255D01*
X-2741Y20259D01*
X-2737Y20270D01*
X-2732Y20282D01*
X-2725Y20294D01*
X-2717Y20306D01*
X-2706Y20316D01*
X-2706Y20317D01*
X-2704Y20317D01*
X-2703Y20319D01*
X-2701Y20320D01*
X-2698Y20322D01*
X-2694Y20325D01*
X-2690Y20327D01*
X-2685Y20330D01*
X-2674Y20334D01*
X-2661Y20338D01*
X-2646Y20341D01*
X-2638Y20342D01*
X-2625D01*
X-2618Y20342D01*
D02*
G37*
G36*
X-2270Y19957D02*
X-2324D01*
X-2472Y20341D01*
X-2417D01*
X-2317Y20062D01*
Y20061D01*
X-2317Y20060D01*
X-2316Y20058D01*
X-2315Y20056D01*
X-2314Y20053D01*
X-2313Y20049D01*
X-2310Y20041D01*
X-2307Y20032D01*
X-2304Y20021D01*
X-2297Y19999D01*
Y19999D01*
X-2297Y20000D01*
X-2296Y20002D01*
X-2295Y20004D01*
X-2294Y20010D01*
X-2291Y20019D01*
X-2288Y20028D01*
X-2285Y20039D01*
X-2281Y20050D01*
X-2277Y20062D01*
X-2172Y20341D01*
X-2121D01*
X-2270Y19957D01*
D02*
G37*
G36*
X-907Y3163D02*
X-961D01*
X-1109Y3547D01*
X-1054D01*
X-954Y3267D01*
Y3267D01*
X-953Y3266D01*
X-953Y3264D01*
X-952Y3262D01*
X-951Y3259D01*
X-950Y3255D01*
X-947Y3247D01*
X-944Y3237D01*
X-941Y3227D01*
X-934Y3205D01*
Y3205D01*
X-933Y3206D01*
X-933Y3208D01*
X-932Y3210D01*
X-931Y3216D01*
X-928Y3225D01*
X-925Y3234D01*
X-922Y3245D01*
X-918Y3256D01*
X-913Y3267D01*
X-809Y3547D01*
X-758D01*
X-907Y3163D01*
D02*
G37*
G36*
X-1251Y3548D02*
X-1247Y3547D01*
X-1241Y3547D01*
X-1235Y3545D01*
X-1229Y3544D01*
X-1214Y3540D01*
X-1200Y3535D01*
X-1193Y3532D01*
X-1185Y3528D01*
X-1179Y3523D01*
X-1173Y3517D01*
X-1172Y3517D01*
X-1171Y3516D01*
X-1170Y3514D01*
X-1168Y3512D01*
X-1165Y3509D01*
X-1162Y3505D01*
X-1159Y3501D01*
X-1156Y3496D01*
X-1150Y3486D01*
X-1145Y3472D01*
X-1143Y3466D01*
X-1142Y3458D01*
X-1141Y3450D01*
X-1140Y3442D01*
Y3441D01*
Y3438D01*
X-1141Y3433D01*
X-1141Y3427D01*
X-1142Y3421D01*
X-1144Y3413D01*
X-1147Y3405D01*
X-1150Y3396D01*
X-1150Y3395D01*
X-1152Y3392D01*
X-1154Y3388D01*
X-1157Y3382D01*
X-1162Y3375D01*
X-1167Y3367D01*
X-1174Y3358D01*
X-1182Y3349D01*
X-1183Y3348D01*
X-1185Y3345D01*
X-1188Y3342D01*
X-1191Y3339D01*
X-1194Y3336D01*
X-1199Y3331D01*
X-1203Y3327D01*
X-1209Y3322D01*
X-1214Y3316D01*
X-1221Y3310D01*
X-1228Y3304D01*
X-1236Y3297D01*
X-1245Y3290D01*
X-1254Y3282D01*
X-1254Y3281D01*
X-1255Y3280D01*
X-1258Y3279D01*
X-1260Y3276D01*
X-1264Y3273D01*
X-1268Y3270D01*
X-1276Y3262D01*
X-1286Y3254D01*
X-1295Y3246D01*
X-1303Y3239D01*
X-1306Y3236D01*
X-1309Y3233D01*
X-1309Y3232D01*
X-1311Y3231D01*
X-1313Y3229D01*
X-1316Y3225D01*
X-1319Y3221D01*
X-1322Y3217D01*
X-1329Y3208D01*
X-1139D01*
Y3163D01*
X-1394D01*
Y3163D01*
Y3165D01*
Y3169D01*
X-1394Y3173D01*
X-1393Y3178D01*
X-1392Y3184D01*
X-1391Y3189D01*
X-1389Y3195D01*
Y3196D01*
X-1388Y3196D01*
X-1387Y3200D01*
X-1385Y3205D01*
X-1381Y3211D01*
X-1377Y3219D01*
X-1371Y3228D01*
X-1365Y3237D01*
X-1357Y3246D01*
Y3247D01*
X-1356Y3247D01*
X-1354Y3251D01*
X-1349Y3256D01*
X-1341Y3263D01*
X-1333Y3271D01*
X-1323Y3281D01*
X-1310Y3292D01*
X-1296Y3304D01*
X-1295Y3305D01*
X-1293Y3306D01*
X-1290Y3309D01*
X-1286Y3312D01*
X-1281Y3317D01*
X-1275Y3322D01*
X-1269Y3327D01*
X-1261Y3333D01*
X-1248Y3347D01*
X-1234Y3360D01*
X-1227Y3367D01*
X-1221Y3373D01*
X-1215Y3380D01*
X-1211Y3386D01*
Y3386D01*
X-1210Y3387D01*
X-1209Y3388D01*
X-1208Y3391D01*
X-1204Y3397D01*
X-1199Y3404D01*
X-1195Y3413D01*
X-1192Y3422D01*
X-1189Y3433D01*
X-1188Y3443D01*
Y3443D01*
Y3444D01*
X-1189Y3447D01*
X-1189Y3453D01*
X-1191Y3459D01*
X-1193Y3467D01*
X-1197Y3474D01*
X-1202Y3482D01*
X-1209Y3490D01*
X-1210Y3491D01*
X-1213Y3493D01*
X-1217Y3496D01*
X-1223Y3500D01*
X-1230Y3503D01*
X-1239Y3507D01*
X-1250Y3509D01*
X-1261Y3509D01*
X-1265D01*
X-1267Y3509D01*
X-1274Y3508D01*
X-1281Y3507D01*
X-1290Y3504D01*
X-1299Y3501D01*
X-1308Y3496D01*
X-1316Y3489D01*
X-1318Y3488D01*
X-1320Y3485D01*
X-1323Y3481D01*
X-1326Y3474D01*
X-1330Y3466D01*
X-1334Y3456D01*
X-1336Y3445D01*
X-1337Y3432D01*
X-1385Y3437D01*
Y3438D01*
X-1385Y3439D01*
Y3442D01*
X-1384Y3446D01*
X-1383Y3451D01*
X-1382Y3456D01*
X-1380Y3462D01*
X-1379Y3468D01*
X-1374Y3481D01*
X-1367Y3494D01*
X-1364Y3501D01*
X-1359Y3508D01*
X-1354Y3514D01*
X-1348Y3519D01*
X-1348Y3520D01*
X-1346Y3521D01*
X-1345Y3522D01*
X-1342Y3524D01*
X-1339Y3526D01*
X-1335Y3528D01*
X-1330Y3531D01*
X-1325Y3534D01*
X-1319Y3537D01*
X-1312Y3539D01*
X-1305Y3542D01*
X-1297Y3544D01*
X-1289Y3545D01*
X-1280Y3547D01*
X-1270Y3548D01*
X-1260Y3548D01*
X-1255D01*
X-1251Y3548D01*
D02*
G37*
G36*
X-1508Y3163D02*
X-1556D01*
Y3463D01*
X-1556Y3462D01*
X-1559Y3460D01*
X-1562Y3457D01*
X-1568Y3453D01*
X-1574Y3448D01*
X-1582Y3442D01*
X-1591Y3436D01*
X-1601Y3430D01*
X-1601D01*
X-1602Y3429D01*
X-1605Y3427D01*
X-1611Y3424D01*
X-1617Y3421D01*
X-1625Y3417D01*
X-1633Y3413D01*
X-1642Y3410D01*
X-1650Y3406D01*
Y3452D01*
X-1649D01*
X-1648Y3453D01*
X-1646Y3453D01*
X-1643Y3455D01*
X-1640Y3457D01*
X-1636Y3459D01*
X-1627Y3464D01*
X-1616Y3471D01*
X-1604Y3478D01*
X-1593Y3487D01*
X-1581Y3497D01*
X-1581Y3497D01*
X-1580Y3498D01*
X-1578Y3499D01*
X-1576Y3501D01*
X-1571Y3507D01*
X-1565Y3513D01*
X-1558Y3521D01*
X-1551Y3530D01*
X-1545Y3539D01*
X-1539Y3548D01*
X-1508D01*
Y3163D01*
D02*
G37*
G36*
X773Y3559D02*
X778D01*
X788Y3558D01*
X800Y3557D01*
X812Y3554D01*
X826Y3550D01*
X838Y3546D01*
X839D01*
X840Y3545D01*
X842Y3545D01*
X844Y3544D01*
X850Y3540D01*
X858Y3537D01*
X866Y3531D01*
X875Y3524D01*
X883Y3517D01*
X891Y3508D01*
X892Y3507D01*
X894Y3504D01*
X898Y3499D01*
X902Y3492D01*
X907Y3483D01*
X912Y3472D01*
X917Y3459D01*
X921Y3446D01*
X874Y3433D01*
Y3434D01*
X874Y3434D01*
X873Y3436D01*
X873Y3438D01*
X871Y3443D01*
X869Y3450D01*
X866Y3458D01*
X862Y3465D01*
X858Y3473D01*
X853Y3479D01*
X852Y3480D01*
X851Y3482D01*
X847Y3485D01*
X843Y3489D01*
X838Y3493D01*
X832Y3498D01*
X825Y3502D01*
X816Y3506D01*
X815Y3507D01*
X812Y3508D01*
X807Y3509D01*
X801Y3512D01*
X793Y3513D01*
X784Y3515D01*
X774Y3516D01*
X763Y3517D01*
X757D01*
X755Y3516D01*
X751D01*
X743Y3516D01*
X733Y3514D01*
X723Y3512D01*
X713Y3509D01*
X703Y3506D01*
X702Y3505D01*
X699Y3504D01*
X694Y3501D01*
X689Y3498D01*
X682Y3494D01*
X675Y3489D01*
X668Y3484D01*
X662Y3478D01*
X661Y3477D01*
X659Y3475D01*
X656Y3471D01*
X653Y3467D01*
X649Y3461D01*
X645Y3454D01*
X641Y3447D01*
X637Y3439D01*
Y3439D01*
X637Y3438D01*
X636Y3436D01*
X635Y3433D01*
X634Y3430D01*
X633Y3426D01*
X631Y3422D01*
X630Y3417D01*
X627Y3405D01*
X625Y3392D01*
X624Y3378D01*
X623Y3362D01*
Y3362D01*
Y3360D01*
Y3357D01*
X624Y3354D01*
Y3350D01*
X624Y3344D01*
X625Y3338D01*
X625Y3332D01*
X627Y3318D01*
X630Y3304D01*
X635Y3290D01*
X640Y3276D01*
Y3275D01*
X641Y3274D01*
X642Y3272D01*
X644Y3270D01*
X647Y3264D01*
X654Y3256D01*
X661Y3248D01*
X670Y3240D01*
X680Y3232D01*
X692Y3225D01*
X692D01*
X694Y3224D01*
X695Y3223D01*
X698Y3222D01*
X701Y3221D01*
X705Y3220D01*
X714Y3216D01*
X725Y3214D01*
X737Y3211D01*
X750Y3209D01*
X764Y3208D01*
X770D01*
X773Y3209D01*
X776D01*
X785Y3210D01*
X795Y3211D01*
X805Y3213D01*
X817Y3216D01*
X828Y3220D01*
X829D01*
X830Y3221D01*
X831Y3221D01*
X833Y3222D01*
X839Y3225D01*
X846Y3229D01*
X854Y3232D01*
X862Y3237D01*
X870Y3242D01*
X877Y3247D01*
Y3320D01*
X763D01*
Y3365D01*
X927D01*
Y3222D01*
X926Y3222D01*
X925Y3221D01*
X923Y3220D01*
X920Y3217D01*
X917Y3215D01*
X913Y3212D01*
X908Y3209D01*
X903Y3206D01*
X891Y3199D01*
X878Y3191D01*
X864Y3184D01*
X849Y3178D01*
X848D01*
X847Y3177D01*
X845Y3176D01*
X842Y3175D01*
X838Y3174D01*
X834Y3173D01*
X829Y3171D01*
X824Y3170D01*
X812Y3168D01*
X798Y3165D01*
X783Y3163D01*
X767Y3163D01*
X762D01*
X758Y3163D01*
X753D01*
X747Y3164D01*
X740Y3165D01*
X733Y3165D01*
X717Y3169D01*
X700Y3173D01*
X682Y3179D01*
X673Y3182D01*
X664Y3186D01*
X664Y3187D01*
X662Y3188D01*
X660Y3189D01*
X656Y3191D01*
X652Y3194D01*
X649Y3196D01*
X638Y3204D01*
X627Y3214D01*
X615Y3226D01*
X604Y3240D01*
X594Y3256D01*
Y3257D01*
X593Y3259D01*
X592Y3261D01*
X590Y3265D01*
X589Y3269D01*
X587Y3274D01*
X585Y3280D01*
X583Y3286D01*
X580Y3294D01*
X578Y3302D01*
X576Y3310D01*
X575Y3319D01*
X572Y3338D01*
X571Y3359D01*
Y3360D01*
Y3362D01*
Y3365D01*
X571Y3368D01*
Y3373D01*
X572Y3380D01*
X573Y3386D01*
X574Y3393D01*
X575Y3401D01*
X576Y3409D01*
X581Y3427D01*
X586Y3445D01*
X594Y3463D01*
X595Y3464D01*
X595Y3466D01*
X596Y3468D01*
X599Y3471D01*
X601Y3476D01*
X604Y3480D01*
X611Y3491D01*
X621Y3503D01*
X632Y3514D01*
X646Y3526D01*
X654Y3531D01*
X661Y3536D01*
X662Y3537D01*
X664Y3537D01*
X666Y3538D01*
X669Y3540D01*
X674Y3542D01*
X679Y3544D01*
X684Y3546D01*
X691Y3548D01*
X698Y3550D01*
X706Y3552D01*
X714Y3554D01*
X723Y3556D01*
X742Y3559D01*
X752Y3560D01*
X770D01*
X773Y3559D01*
D02*
G37*
G36*
X1303Y3169D02*
X1251D01*
X1050Y3471D01*
Y3169D01*
X1001D01*
Y3553D01*
X1053D01*
X1255Y3251D01*
Y3553D01*
X1303D01*
Y3169D01*
D02*
G37*
G36*
X1547Y3553D02*
X1558Y3552D01*
X1569Y3551D01*
X1580Y3549D01*
X1589Y3548D01*
X1590D01*
X1591Y3547D01*
X1593D01*
X1595Y3546D01*
X1601Y3544D01*
X1609Y3542D01*
X1618Y3538D01*
X1627Y3533D01*
X1636Y3527D01*
X1645Y3520D01*
X1646Y3519D01*
X1646Y3519D01*
X1648Y3517D01*
X1650Y3516D01*
X1656Y3510D01*
X1663Y3502D01*
X1670Y3493D01*
X1678Y3482D01*
X1685Y3469D01*
X1691Y3454D01*
Y3454D01*
X1691Y3453D01*
X1693Y3451D01*
X1693Y3447D01*
X1695Y3443D01*
X1696Y3439D01*
X1697Y3434D01*
X1699Y3428D01*
X1700Y3422D01*
X1701Y3415D01*
X1704Y3399D01*
X1706Y3382D01*
X1706Y3363D01*
Y3362D01*
Y3361D01*
Y3358D01*
Y3356D01*
X1706Y3352D01*
Y3347D01*
X1705Y3337D01*
X1704Y3325D01*
X1702Y3312D01*
X1699Y3299D01*
X1696Y3285D01*
Y3285D01*
X1695Y3284D01*
X1695Y3282D01*
X1694Y3280D01*
X1692Y3274D01*
X1689Y3266D01*
X1685Y3257D01*
X1681Y3248D01*
X1675Y3239D01*
X1670Y3230D01*
X1669Y3229D01*
X1667Y3226D01*
X1664Y3222D01*
X1659Y3217D01*
X1654Y3211D01*
X1648Y3206D01*
X1642Y3200D01*
X1635Y3195D01*
X1634Y3194D01*
X1631Y3192D01*
X1628Y3190D01*
X1622Y3188D01*
X1615Y3184D01*
X1608Y3181D01*
X1599Y3178D01*
X1589Y3175D01*
X1588D01*
X1586Y3175D01*
X1584Y3174D01*
X1579Y3174D01*
X1571Y3173D01*
X1562Y3171D01*
X1552Y3170D01*
X1540Y3170D01*
X1527Y3169D01*
X1389D01*
Y3553D01*
X1537D01*
X1547Y3553D01*
D02*
G37*
%LPC*%
G36*
X1529Y3508D02*
X1440D01*
Y3215D01*
X1531D01*
X1535Y3215D01*
X1543Y3216D01*
X1553Y3216D01*
X1563Y3217D01*
X1573Y3219D01*
X1581Y3221D01*
X1582Y3222D01*
X1585Y3222D01*
X1589Y3224D01*
X1594Y3226D01*
X1599Y3230D01*
X1605Y3233D01*
X1610Y3237D01*
X1616Y3241D01*
X1617Y3242D01*
X1619Y3245D01*
X1622Y3249D01*
X1626Y3254D01*
X1630Y3261D01*
X1635Y3270D01*
X1640Y3279D01*
X1644Y3290D01*
Y3290D01*
X1644Y3291D01*
X1645Y3293D01*
X1645Y3295D01*
X1646Y3298D01*
X1647Y3302D01*
X1648Y3306D01*
X1649Y3310D01*
X1651Y3321D01*
X1653Y3334D01*
X1654Y3348D01*
X1654Y3364D01*
Y3365D01*
Y3367D01*
Y3370D01*
X1654Y3374D01*
Y3379D01*
X1653Y3385D01*
X1653Y3391D01*
X1652Y3398D01*
X1649Y3413D01*
X1646Y3428D01*
X1641Y3443D01*
X1638Y3450D01*
X1634Y3456D01*
Y3457D01*
X1633Y3458D01*
X1632Y3459D01*
X1631Y3462D01*
X1626Y3467D01*
X1621Y3474D01*
X1614Y3481D01*
X1605Y3488D01*
X1596Y3494D01*
X1586Y3499D01*
X1585Y3500D01*
X1582Y3501D01*
X1577Y3502D01*
X1570Y3504D01*
X1561Y3505D01*
X1550Y3507D01*
X1543Y3507D01*
X1536D01*
X1529Y3508D01*
D02*
G37*
%LPD*%
D10*
X1470Y10200D02*
G03*
X1470Y10200I-1299J0D01*
G01*
X2116Y12692D02*
G03*
X2116Y12692I-50J0D01*
G01*
X-1533Y14181D02*
G03*
X-1533Y14181I-50J0D01*
G01*
X-3501Y17350D02*
G03*
X-3501Y17350I-1299J0D01*
G01*
X6099D02*
G03*
X6099Y17350I-1299J0D01*
G01*
X-984Y10645D02*
X-274Y11355D01*
X-1029Y10240D02*
X171Y11440D01*
X-1029Y10200D02*
Y10240D01*
X-629Y10200D02*
X546Y11375D01*
X-229Y10200D02*
X806Y11235D01*
X171Y10200D02*
X1041Y11070D01*
X571Y10200D02*
X1216Y10845D01*
X971Y10200D02*
X1346Y10575D01*
X-1069Y10200D02*
X1411D01*
X5338Y14164D02*
X5642Y13860D01*
X5338Y14164D02*
X5955D01*
X5635Y13844D02*
X5955Y14164D01*
X6000Y14425D02*
Y15075D01*
X5300Y14425D02*
Y15075D01*
X6000D01*
X5319Y13844D02*
X5967D01*
X5300Y13050D02*
X5470Y12880D01*
X5300Y13050D02*
Y13575D01*
X6000Y13050D02*
Y13575D01*
X5830Y12880D02*
X6000Y13050D01*
X5470Y12880D02*
X5830D01*
X1987Y12948D02*
X2125D01*
X1987D02*
Y15152D01*
X2125D01*
X3030Y12948D02*
X3168D01*
Y15152D01*
X3030D02*
X3168D01*
X1987Y13026D02*
X2125D01*
X1987Y13105D02*
X2125D01*
X1987Y13184D02*
X2125D01*
X1987Y13263D02*
X2125D01*
Y12948D02*
Y13263D01*
X3030Y13026D02*
X3168D01*
X3030Y13105D02*
X3168D01*
X3030Y13184D02*
X3168D01*
X3030Y13263D02*
X3168D01*
X3030Y12948D02*
Y13263D01*
X-5127Y11264D02*
X-4576D01*
X-5127Y11343D02*
X-4576D01*
X-5127Y12760D02*
X-4576D01*
Y11264D02*
Y12760D01*
X-5127Y11264D02*
Y12760D01*
Y11421D02*
X-4576D01*
X1850Y18700D02*
X3250D01*
X1850Y16350D02*
X3250D01*
X1850Y17950D02*
Y18700D01*
X3250Y17950D02*
Y18700D01*
Y16350D02*
Y17100D01*
X1850Y16350D02*
Y17100D01*
X3850Y100D02*
Y600D01*
X3450D02*
X3850D01*
X3450Y100D02*
Y600D01*
X2450Y2300D02*
X6650D01*
X2450Y100D02*
X6650D01*
Y3100D01*
X2450D02*
X6650D01*
X2450Y100D02*
Y3100D01*
X5450Y100D02*
Y600D01*
X5850D01*
Y100D02*
Y600D01*
X543Y14783D02*
Y16217D01*
X-1543D02*
X543D01*
X-1543Y14783D02*
Y16217D01*
Y14783D02*
X543D01*
X-10398Y4027D02*
Y7216D01*
X-12997Y4027D02*
X-10398D01*
X-12997D02*
Y7216D01*
X-10398D01*
X-10800D02*
Y7374D01*
X-12595Y7216D02*
Y7374D01*
X-5955Y17795D02*
X-5245Y18505D01*
X-6000Y17390D02*
X-4800Y18590D01*
X-6000Y17350D02*
Y17390D01*
X-5600Y17350D02*
X-4425Y18525D01*
X-5200Y17350D02*
X-4165Y18385D01*
X-4800Y17350D02*
X-3930Y18220D01*
X-4400Y17350D02*
X-3755Y17995D01*
X-4000Y17350D02*
X-3625Y17725D01*
X-6040Y17350D02*
X-3560D01*
X3645Y17795D02*
X4355Y18505D01*
X3600Y17390D02*
X4800Y18590D01*
X3600Y17350D02*
Y17390D01*
X4000Y17350D02*
X5175Y18525D01*
X4400Y17350D02*
X5435Y18385D01*
X4800Y17350D02*
X5670Y18220D01*
X5200Y17350D02*
X5845Y17995D01*
X5600Y17350D02*
X5975Y17725D01*
X3560Y17350D02*
X6040D01*
X-739Y100D02*
Y600D01*
X-1139D02*
X-739D01*
X-1139Y100D02*
Y600D01*
X-2139Y2300D02*
X2061D01*
X-2139Y100D02*
X2061D01*
Y3100D01*
X-2139D02*
X2061D01*
X-2139Y100D02*
Y3100D01*
X861Y100D02*
Y600D01*
X1261D01*
Y100D02*
Y600D01*
X-5328Y100D02*
Y600D01*
X-5728D02*
X-5328D01*
X-5728Y100D02*
Y600D01*
X-6728Y2300D02*
X-2528D01*
X-6728Y100D02*
X-2528D01*
Y3100D01*
X-6728D02*
X-2528D01*
X-6728Y100D02*
Y3100D01*
X-3728Y100D02*
Y600D01*
X-3328D01*
Y100D02*
Y600D01*
X-6962Y14164D02*
X-6658Y13860D01*
X-6962Y14164D02*
X-6345D01*
X-6665Y13844D02*
X-6345Y14164D01*
X-6300Y14425D02*
Y15075D01*
X-7000Y14425D02*
Y15075D01*
X-6300D01*
X-6981Y13844D02*
X-6333D01*
X-7000Y13050D02*
X-6830Y12880D01*
X-7000Y13050D02*
Y13575D01*
X-6300Y13050D02*
Y13575D01*
X-6470Y12880D02*
X-6300Y13050D01*
X-6830Y12880D02*
X-6470D01*
X-10412Y14164D02*
X-10108Y13860D01*
X-10412Y14164D02*
X-9795D01*
X-10115Y13844D02*
X-9795Y14164D01*
X-9750Y14425D02*
Y15075D01*
X-10450Y14425D02*
Y15075D01*
X-9750D01*
X-10431Y13844D02*
X-9783D01*
X-10450Y13050D02*
X-10280Y12880D01*
X-10450Y13050D02*
Y13575D01*
X-9750Y13050D02*
Y13575D01*
X-9920Y12880D02*
X-9750Y13050D01*
X-10280Y12880D02*
X-9920D01*
X8738Y14164D02*
X9042Y13860D01*
X8738Y14164D02*
X9355D01*
X9035Y13844D02*
X9355Y14164D01*
X9400Y14425D02*
Y15075D01*
X8700Y14425D02*
Y15075D01*
X9400D01*
X8719Y13844D02*
X9367D01*
X8700Y13050D02*
X8870Y12880D01*
X8700Y13050D02*
Y13575D01*
X9400Y13050D02*
Y13575D01*
X9230Y12880D02*
X9400Y13050D01*
X8870Y12880D02*
X9230D01*
X-1803Y3263D02*
Y6452D01*
X-4402Y3263D02*
X-1803D01*
X-4402D02*
Y6452D01*
X-1803D01*
X-2205D02*
Y6609D01*
X-4000Y6452D02*
Y6609D01*
X-9695Y6452D02*
Y6609D01*
X-7900Y6452D02*
Y6609D01*
X-10097Y6452D02*
X-7498D01*
X-10097Y3263D02*
Y6452D01*
Y3263D02*
X-7498D01*
Y6452D01*
X-4648Y4027D02*
Y7216D01*
X-7247Y4027D02*
X-4648D01*
X-7247D02*
Y7216D01*
X-4648D01*
X-5050D02*
Y7374D01*
X-6845Y7216D02*
Y7374D01*
X10850Y6452D02*
Y6609D01*
X12645Y6452D02*
Y6609D01*
X10448Y6452D02*
X13047D01*
X10448Y3263D02*
Y6452D01*
Y3263D02*
X13047D01*
Y6452D01*
X7297Y3263D02*
Y6452D01*
X4698Y3263D02*
X7297D01*
X4698D02*
Y6452D01*
X7297D01*
X6895D02*
Y6609D01*
X5100Y6452D02*
Y6609D01*
X7950Y7216D02*
Y7374D01*
X9745Y7216D02*
Y7374D01*
X7548Y7216D02*
X10147D01*
X7548Y4027D02*
Y7216D01*
Y4027D02*
X10147D01*
Y7216D01*
X4447Y4027D02*
Y7216D01*
X1848Y4027D02*
X4447D01*
X1848D02*
Y7216D01*
X4447D01*
X4045D02*
Y7374D01*
X2250Y7216D02*
Y7374D01*
X-3895Y14107D02*
Y14265D01*
X-2100Y14107D02*
Y14265D01*
X-4297Y14107D02*
X-1698D01*
X-4297Y10919D02*
Y14107D01*
Y10919D02*
X-1698D01*
Y14107D01*
X1500Y20050D02*
Y20650D01*
X1800D01*
X1900Y20550D01*
Y20350D01*
X1800Y20250D01*
X1500D01*
X2400Y20050D02*
Y20650D01*
X2100Y20350D01*
X2500D01*
X350Y20050D02*
Y20650D01*
X650D01*
X750Y20550D01*
Y20350D01*
X650Y20250D01*
X350D01*
X950Y20550D02*
X1050Y20650D01*
X1250D01*
X1350Y20550D01*
Y20450D01*
X1250Y20350D01*
X1150D01*
X1250D01*
X1350Y20250D01*
Y20150D01*
X1250Y20050D01*
X1050D01*
X950Y20150D01*
X-800Y20050D02*
Y20650D01*
X-500D01*
X-400Y20550D01*
Y20350D01*
X-500Y20250D01*
X-800D01*
X200Y20050D02*
X-200D01*
X200Y20450D01*
Y20550D01*
X100Y20650D01*
X-100D01*
X-200Y20550D01*
X-1750Y20050D02*
Y20650D01*
X-1450D01*
X-1350Y20550D01*
Y20350D01*
X-1450Y20250D01*
X-1750D01*
X-1150Y20050D02*
X-950D01*
X-1050D01*
Y20650D01*
X-1150Y20550D01*
X900Y8773D02*
X700D01*
X600Y8673D01*
Y8274D01*
X700Y8174D01*
X900D01*
X1000Y8274D01*
Y8673D01*
X900Y8773D01*
X1200Y8174D02*
Y8773D01*
X1600Y8174D01*
Y8773D01*
X2820Y3862D02*
X2620D01*
X2520Y3762D01*
Y3363D01*
X2620Y3263D01*
X2820D01*
X2920Y3363D01*
Y3762D01*
X2820Y3862D01*
X3520D02*
X3120D01*
Y3562D01*
X3320D01*
X3120D01*
Y3263D01*
X4120Y3862D02*
X3720D01*
Y3562D01*
X3920D01*
X3720D01*
Y3263D01*
X7300Y15850D02*
Y15350D01*
X7400Y15250D01*
X7600D01*
X7700Y15350D01*
Y15850D01*
X8300D02*
X7900D01*
Y15550D01*
X8100Y15650D01*
X8200D01*
X8300Y15550D01*
Y15350D01*
X8200Y15250D01*
X8000D01*
X7900Y15350D01*
X-11800Y7574D02*
Y7973D01*
X-11900Y8073D01*
X-12100D01*
X-12200Y7973D01*
Y7574D01*
X-12100Y7474D01*
X-11900D01*
X-12000Y7673D02*
X-11800Y7474D01*
X-11900D02*
X-11800Y7574D01*
X-11300Y7474D02*
Y8073D01*
X-11600Y7773D01*
X-11200D01*
X750Y15353D02*
Y14853D01*
X850Y14753D01*
X1050D01*
X1150Y14853D01*
Y15353D01*
X1350Y15253D02*
X1450Y15353D01*
X1650D01*
X1750Y15253D01*
Y15153D01*
X1650Y15053D01*
X1750Y14953D01*
Y14853D01*
X1650Y14753D01*
X1450D01*
X1350Y14853D01*
Y14953D01*
X1450Y15053D01*
X1350Y15153D01*
Y15253D01*
X1450Y15053D02*
X1650D01*
X10750Y17800D02*
Y17300D01*
X10850Y17200D01*
X11050D01*
X11150Y17300D01*
Y17800D01*
X11350D02*
X11750D01*
Y17700D01*
X11350Y17300D01*
Y17200D01*
X-11600Y17800D02*
Y17300D01*
X-11500Y17200D01*
X-11300D01*
X-11200Y17300D01*
Y17800D01*
X-10600D02*
X-10800Y17700D01*
X-11000Y17500D01*
Y17300D01*
X-10900Y17200D01*
X-10700D01*
X-10600Y17300D01*
Y17400D01*
X-10700Y17500D01*
X-11000D01*
X10850Y15850D02*
Y15350D01*
X10950Y15250D01*
X11150D01*
X11250Y15350D01*
Y15850D01*
X11750Y15250D02*
Y15850D01*
X11450Y15550D01*
X11850D01*
X-11811Y15850D02*
Y15350D01*
X-11711Y15250D01*
X-11511D01*
X-11411Y15350D01*
Y15850D01*
X-11211Y15750D02*
X-11111Y15850D01*
X-10911D01*
X-10811Y15750D01*
Y15650D01*
X-10911Y15550D01*
X-11011D01*
X-10911D01*
X-10811Y15450D01*
Y15350D01*
X-10911Y15250D01*
X-11111D01*
X-11211Y15350D01*
X-8400Y15850D02*
Y15350D01*
X-8300Y15250D01*
X-8100D01*
X-8000Y15350D01*
Y15850D01*
X-7400Y15250D02*
X-7800D01*
X-7400Y15650D01*
Y15750D01*
X-7500Y15850D01*
X-7700D01*
X-7800Y15750D01*
X-3395Y15043D02*
Y14543D01*
X-3295Y14443D01*
X-3095D01*
X-2995Y14543D01*
Y15043D01*
X-2795Y14443D02*
X-2596D01*
X-2695D01*
Y15043D01*
X-2795Y14943D01*
X-1133Y8673D02*
X-1233Y8773D01*
X-1433D01*
X-1533Y8673D01*
Y8573D01*
X-1433Y8473D01*
X-1233D01*
X-1133Y8373D01*
Y8274D01*
X-1233Y8174D01*
X-1433D01*
X-1533Y8274D01*
X-933Y8773D02*
Y8174D01*
X-733Y8373D01*
X-533Y8174D01*
Y8773D01*
X67Y8174D02*
X-333D01*
X67Y8573D01*
Y8673D01*
X-33Y8773D01*
X-233D01*
X-333Y8673D01*
X2850Y19050D02*
Y19650D01*
X3150D01*
X3250Y19550D01*
Y19350D01*
X3150Y19250D01*
X2850D01*
X3050D02*
X3250Y19050D01*
X3850Y19650D02*
X3450D01*
Y19350D01*
X3650Y19450D01*
X3750D01*
X3850Y19350D01*
Y19150D01*
X3750Y19050D01*
X3550D01*
X3450Y19150D01*
X4050Y19550D02*
X4150Y19650D01*
X4350D01*
X4450Y19550D01*
Y19150D01*
X4350Y19050D01*
X4150D01*
X4050Y19150D01*
Y19550D01*
X2850Y19927D02*
Y20527D01*
X3150D01*
X3250Y20427D01*
Y20227D01*
X3150Y20127D01*
X2850D01*
X3050D02*
X3250Y19927D01*
X3750D02*
Y20527D01*
X3450Y20227D01*
X3850D01*
X4050Y20027D02*
X4150Y19927D01*
X4350D01*
X4450Y20027D01*
Y20427D01*
X4350Y20527D01*
X4150D01*
X4050Y20427D01*
Y20327D01*
X4150Y20227D01*
X4450D01*
X-4500Y19927D02*
Y20527D01*
X-4200D01*
X-4100Y20427D01*
Y20227D01*
X-4200Y20127D01*
X-4500D01*
X-4300D02*
X-4100Y19927D01*
X-3600D02*
Y20527D01*
X-3900Y20227D01*
X-3500D01*
X-3300Y20427D02*
X-3200Y20527D01*
X-3000D01*
X-2900Y20427D01*
Y20327D01*
X-3000Y20227D01*
X-2900Y20127D01*
Y20027D01*
X-3000Y19927D01*
X-3200D01*
X-3300Y20027D01*
Y20127D01*
X-3200Y20227D01*
X-3300Y20327D01*
Y20427D01*
X-3200Y20227D02*
X-3000D01*
X-4500Y19050D02*
Y19650D01*
X-4200D01*
X-4100Y19550D01*
Y19350D01*
X-4200Y19250D01*
X-4500D01*
X-4300D02*
X-4100Y19050D01*
X-3600D02*
Y19650D01*
X-3900Y19350D01*
X-3500D01*
X-3300Y19650D02*
X-2900D01*
Y19550D01*
X-3300Y19150D01*
Y19050D01*
X3450Y15250D02*
Y15850D01*
X3750D01*
X3850Y15750D01*
Y15550D01*
X3750Y15450D01*
X3450D01*
X3650D02*
X3850Y15250D01*
X4450D02*
X4050D01*
X4450Y15650D01*
Y15750D01*
X4350Y15850D01*
X4150D01*
X4050Y15750D01*
X5049Y15850D02*
X4650D01*
Y15550D01*
X4850Y15650D01*
X4950D01*
X5049Y15550D01*
Y15350D01*
X4950Y15250D01*
X4750D01*
X4650Y15350D01*
X-3200Y18100D02*
Y18700D01*
X-2900D01*
X-2800Y18600D01*
Y18400D01*
X-2900Y18300D01*
X-3200D01*
X-3000D02*
X-2800Y18100D01*
X-2200D02*
X-2600D01*
X-2200Y18500D01*
Y18600D01*
X-2300Y18700D01*
X-2500D01*
X-2600Y18600D01*
X-1700Y18100D02*
Y18700D01*
X-2000Y18400D01*
X-1601D01*
X750Y15550D02*
Y16150D01*
X1050D01*
X1150Y16050D01*
Y15850D01*
X1050Y15750D01*
X750D01*
X950D02*
X1150Y15550D01*
X1750D02*
X1350D01*
X1750Y15950D01*
Y16050D01*
X1650Y16150D01*
X1450D01*
X1350Y16050D01*
X1950D02*
X2050Y16150D01*
X2250D01*
X2350Y16050D01*
Y15950D01*
X2250Y15850D01*
X2150D01*
X2250D01*
X2350Y15750D01*
Y15650D01*
X2250Y15550D01*
X2050D01*
X1950Y15650D01*
X-1450Y18100D02*
Y18700D01*
X-1150D01*
X-1050Y18600D01*
Y18400D01*
X-1150Y18300D01*
X-1450D01*
X-1250D02*
X-1050Y18100D01*
X-450D02*
X-850D01*
X-450Y18500D01*
Y18600D01*
X-550Y18700D01*
X-750D01*
X-850Y18600D01*
X149Y18100D02*
X-250D01*
X149Y18500D01*
Y18600D01*
X50Y18700D01*
X-150D01*
X-250Y18600D01*
X8800Y16105D02*
Y16705D01*
X9100D01*
X9200Y16605D01*
Y16405D01*
X9100Y16305D01*
X8800D01*
X9000D02*
X9200Y16105D01*
X9800D02*
X9400D01*
X9800Y16505D01*
Y16605D01*
X9700Y16705D01*
X9500D01*
X9400Y16605D01*
X10000Y16105D02*
X10200D01*
X10100D01*
Y16705D01*
X10000Y16605D01*
X3700Y10150D02*
Y10750D01*
X4000D01*
X4100Y10650D01*
Y10450D01*
X4000Y10350D01*
X3700D01*
X3900D02*
X4100Y10150D01*
X4700D02*
X4300D01*
X4700Y10550D01*
Y10650D01*
X4600Y10750D01*
X4400D01*
X4300Y10650D01*
X4900D02*
X5000Y10750D01*
X5200D01*
X5300Y10650D01*
Y10250D01*
X5200Y10150D01*
X5000D01*
X4900Y10250D01*
Y10650D01*
X5909Y7900D02*
Y8500D01*
X6209D01*
X6309Y8400D01*
Y8200D01*
X6209Y8100D01*
X5909D01*
X6109D02*
X6309Y7900D01*
X6509D02*
X6709D01*
X6609D01*
Y8500D01*
X6509Y8400D01*
X7009Y8000D02*
X7109Y7900D01*
X7309D01*
X7409Y8000D01*
Y8400D01*
X7309Y8500D01*
X7109D01*
X7009Y8400D01*
Y8300D01*
X7109Y8200D01*
X7409D01*
X9350Y10150D02*
Y10750D01*
X9650D01*
X9750Y10650D01*
Y10450D01*
X9650Y10350D01*
X9350D01*
X9550D02*
X9750Y10150D01*
X9950D02*
X10150D01*
X10050D01*
Y10750D01*
X9950Y10650D01*
X10450D02*
X10550Y10750D01*
X10750D01*
X10850Y10650D01*
Y10550D01*
X10750Y10450D01*
X10850Y10350D01*
Y10250D01*
X10750Y10150D01*
X10550D01*
X10450Y10250D01*
Y10350D01*
X10550Y10450D01*
X10450Y10550D01*
Y10650D01*
X10550Y10450D02*
X10750D01*
X11600Y7900D02*
Y8500D01*
X11900D01*
X12000Y8400D01*
Y8200D01*
X11900Y8100D01*
X11600D01*
X11800D02*
X12000Y7900D01*
X12200D02*
X12400D01*
X12300D01*
Y8500D01*
X12200Y8400D01*
X12700Y8500D02*
X13100D01*
Y8400D01*
X12700Y8000D01*
Y7900D01*
X11850Y16105D02*
Y16705D01*
X12150D01*
X12250Y16605D01*
Y16405D01*
X12150Y16305D01*
X11850D01*
X12050D02*
X12250Y16105D01*
X12450D02*
X12650D01*
X12550D01*
Y16705D01*
X12450Y16605D01*
X13350Y16705D02*
X13150Y16605D01*
X12950Y16405D01*
Y16205D01*
X13050Y16105D01*
X13250D01*
X13350Y16205D01*
Y16305D01*
X13250Y16405D01*
X12950D01*
X-13350Y16105D02*
Y16705D01*
X-13050D01*
X-12950Y16605D01*
Y16405D01*
X-13050Y16305D01*
X-13350D01*
X-13150D02*
X-12950Y16105D01*
X-12750D02*
X-12550D01*
X-12650D01*
Y16705D01*
X-12750Y16605D01*
X-11850Y16705D02*
X-12250D01*
Y16405D01*
X-12050Y16505D01*
X-11950D01*
X-11850Y16405D01*
Y16205D01*
X-11950Y16105D01*
X-12150D01*
X-12250Y16205D01*
X-10100Y16105D02*
Y16705D01*
X-9800D01*
X-9700Y16605D01*
Y16405D01*
X-9800Y16305D01*
X-10100D01*
X-9900D02*
X-9700Y16105D01*
X-9500D02*
X-9300D01*
X-9400D01*
Y16705D01*
X-9500Y16605D01*
X-8700Y16105D02*
Y16705D01*
X-9000Y16405D01*
X-8600D01*
X-11150Y10150D02*
Y10750D01*
X-10850D01*
X-10750Y10650D01*
Y10450D01*
X-10850Y10350D01*
X-11150D01*
X-10950D02*
X-10750Y10150D01*
X-10550D02*
X-10350D01*
X-10450D01*
Y10750D01*
X-10550Y10650D01*
X-10050D02*
X-9950Y10750D01*
X-9750D01*
X-9650Y10650D01*
Y10550D01*
X-9750Y10450D01*
X-9850D01*
X-9750D01*
X-9650Y10350D01*
Y10250D01*
X-9750Y10150D01*
X-9950D01*
X-10050Y10250D01*
X-6120Y10150D02*
Y10750D01*
X-5821D01*
X-5721Y10650D01*
Y10450D01*
X-5821Y10350D01*
X-6120D01*
X-5921D02*
X-5721Y10150D01*
X-5521D02*
X-5321D01*
X-5421D01*
Y10750D01*
X-5521Y10650D01*
X-4621Y10150D02*
X-5021D01*
X-4621Y10550D01*
Y10650D01*
X-4721Y10750D01*
X-4921D01*
X-5021Y10650D01*
X-8750Y7900D02*
Y8500D01*
X-8450D01*
X-8350Y8400D01*
Y8200D01*
X-8450Y8100D01*
X-8750D01*
X-8550D02*
X-8350Y7900D01*
X-8150D02*
X-7950D01*
X-8050D01*
Y8500D01*
X-8150Y8400D01*
X-7650Y7900D02*
X-7450D01*
X-7550D01*
Y8500D01*
X-7650Y8400D01*
X-3305Y7900D02*
Y8500D01*
X-3005D01*
X-2905Y8400D01*
Y8200D01*
X-3005Y8100D01*
X-3305D01*
X-3105D02*
X-2905Y7900D01*
X-2705D02*
X-2505D01*
X-2605D01*
Y8500D01*
X-2705Y8400D01*
X-2205D02*
X-2105Y8500D01*
X-1905D01*
X-1805Y8400D01*
Y8000D01*
X-1905Y7900D01*
X-2105D01*
X-2205Y8000D01*
Y8400D01*
X1750Y10150D02*
Y10750D01*
X2050D01*
X2150Y10650D01*
Y10450D01*
X2050Y10350D01*
X1750D01*
X1950D02*
X2150Y10150D01*
X2350Y10250D02*
X2450Y10150D01*
X2650D01*
X2750Y10250D01*
Y10650D01*
X2650Y10750D01*
X2450D01*
X2350Y10650D01*
Y10550D01*
X2450Y10450D01*
X2750D01*
X7600Y10150D02*
Y10750D01*
X7900D01*
X8000Y10650D01*
Y10450D01*
X7900Y10350D01*
X7600D01*
X7800D02*
X8000Y10150D01*
X8200Y10650D02*
X8300Y10750D01*
X8500D01*
X8600Y10650D01*
Y10550D01*
X8500Y10450D01*
X8600Y10350D01*
Y10250D01*
X8500Y10150D01*
X8300D01*
X8200Y10250D01*
Y10350D01*
X8300Y10450D01*
X8200Y10550D01*
Y10650D01*
X8300Y10450D02*
X8500D01*
X4650Y7900D02*
Y8500D01*
X4950D01*
X5050Y8400D01*
Y8200D01*
X4950Y8100D01*
X4650D01*
X4850D02*
X5050Y7900D01*
X5250Y8500D02*
X5650D01*
Y8400D01*
X5250Y8000D01*
Y7900D01*
X10300D02*
Y8500D01*
X10600D01*
X10700Y8400D01*
Y8200D01*
X10600Y8100D01*
X10300D01*
X10500D02*
X10700Y7900D01*
X11300Y8500D02*
X11100Y8400D01*
X10900Y8200D01*
Y8000D01*
X11000Y7900D01*
X11200D01*
X11300Y8000D01*
Y8100D01*
X11200Y8200D01*
X10900D01*
X-13000Y10150D02*
Y10750D01*
X-12700D01*
X-12600Y10650D01*
Y10450D01*
X-12700Y10350D01*
X-13000D01*
X-12800D02*
X-12600Y10150D01*
X-12000Y10750D02*
X-12400D01*
Y10450D01*
X-12200Y10550D01*
X-12100D01*
X-12000Y10450D01*
Y10250D01*
X-12100Y10150D01*
X-12300D01*
X-12400Y10250D01*
X-7350Y10150D02*
Y10750D01*
X-7051D01*
X-6951Y10650D01*
Y10450D01*
X-7051Y10350D01*
X-7350D01*
X-7151D02*
X-6951Y10150D01*
X-6451D02*
Y10750D01*
X-6751Y10450D01*
X-6351D01*
X-10200Y7900D02*
Y8500D01*
X-9900D01*
X-9800Y8400D01*
Y8200D01*
X-9900Y8100D01*
X-10200D01*
X-10000D02*
X-9800Y7900D01*
X-9600Y8400D02*
X-9500Y8500D01*
X-9300D01*
X-9200Y8400D01*
Y8300D01*
X-9300Y8200D01*
X-9400D01*
X-9300D01*
X-9200Y8100D01*
Y8000D01*
X-9300Y7900D01*
X-9500D01*
X-9600Y8000D01*
X-4476Y7900D02*
Y8500D01*
X-4176D01*
X-4076Y8400D01*
Y8200D01*
X-4176Y8100D01*
X-4476D01*
X-4276D02*
X-4076Y7900D01*
X-3477D02*
X-3877D01*
X-3477Y8300D01*
Y8400D01*
X-3577Y8500D01*
X-3777D01*
X-3877Y8400D01*
X-5200Y15250D02*
Y15850D01*
X-4900D01*
X-4800Y15750D01*
Y15550D01*
X-4900Y15450D01*
X-5200D01*
X-5000D02*
X-4800Y15250D01*
X-4600D02*
X-4400D01*
X-4500D01*
Y15850D01*
X-4600Y15750D01*
X3050Y7674D02*
Y8073D01*
X2950Y8173D01*
X2750D01*
X2650Y8073D01*
Y7674D01*
X2750Y7574D01*
X2950D01*
X2850Y7773D02*
X3050Y7574D01*
X2950D02*
X3050Y7674D01*
X3250Y8073D02*
X3350Y8173D01*
X3550D01*
X3650Y8073D01*
Y7973D01*
X3550Y7873D01*
X3650Y7773D01*
Y7674D01*
X3550Y7574D01*
X3350D01*
X3250Y7674D01*
Y7773D01*
X3350Y7873D01*
X3250Y7973D01*
Y8073D01*
X3350Y7873D02*
X3550D01*
X8750Y7574D02*
Y7973D01*
X8650Y8073D01*
X8450D01*
X8350Y7973D01*
Y7574D01*
X8450Y7474D01*
X8650D01*
X8550Y7673D02*
X8750Y7474D01*
X8650D02*
X8750Y7574D01*
X8950Y8073D02*
X9350D01*
Y7973D01*
X8950Y7574D01*
Y7474D01*
X5900Y6850D02*
Y7250D01*
X5800Y7350D01*
X5600D01*
X5500Y7250D01*
Y6850D01*
X5600Y6750D01*
X5800D01*
X5700Y6950D02*
X5900Y6750D01*
X5800D02*
X5900Y6850D01*
X6500Y7350D02*
X6300Y7250D01*
X6100Y7050D01*
Y6850D01*
X6200Y6750D01*
X6400D01*
X6500Y6850D01*
Y6950D01*
X6400Y7050D01*
X6100D01*
X11650Y6850D02*
Y7250D01*
X11550Y7350D01*
X11350D01*
X11250Y7250D01*
Y6850D01*
X11350Y6750D01*
X11550D01*
X11450Y6950D02*
X11650Y6750D01*
X11550D02*
X11650Y6850D01*
X12250Y7350D02*
X11850D01*
Y7050D01*
X12050Y7150D01*
X12150D01*
X12250Y7050D01*
Y6850D01*
X12150Y6750D01*
X11950D01*
X11850Y6850D01*
X-6050Y7617D02*
Y8017D01*
X-6150Y8117D01*
X-6350D01*
X-6450Y8017D01*
Y7617D01*
X-6350Y7517D01*
X-6150D01*
X-6250Y7717D02*
X-6050Y7517D01*
X-6150D02*
X-6050Y7617D01*
X-5850Y8017D02*
X-5750Y8117D01*
X-5550D01*
X-5450Y8017D01*
Y7917D01*
X-5550Y7817D01*
X-5650D01*
X-5550D01*
X-5450Y7717D01*
Y7617D01*
X-5550Y7517D01*
X-5750D01*
X-5850Y7617D01*
X-8900Y6800D02*
Y7200D01*
X-9000Y7300D01*
X-9200D01*
X-9300Y7200D01*
Y6800D01*
X-9200Y6700D01*
X-9000D01*
X-9100Y6900D02*
X-8900Y6700D01*
X-9000D02*
X-8900Y6800D01*
X-8300Y6700D02*
X-8700D01*
X-8300Y7100D01*
Y7200D01*
X-8400Y7300D01*
X-8600D01*
X-8700Y7200D01*
X-3150Y6850D02*
Y7250D01*
X-3250Y7350D01*
X-3450D01*
X-3550Y7250D01*
Y6850D01*
X-3450Y6750D01*
X-3250D01*
X-3350Y6950D02*
X-3150Y6750D01*
X-3250D02*
X-3150Y6850D01*
X-2950Y6750D02*
X-2750D01*
X-2850D01*
Y7350D01*
X-2950Y7250D01*
X6800Y150D02*
Y750D01*
X7000Y550D01*
X7200Y750D01*
Y150D01*
X7700Y750D02*
X7500D01*
X7400Y650D01*
Y250D01*
X7500Y150D01*
X7700D01*
X7800Y250D01*
Y650D01*
X7700Y750D01*
X8000D02*
X8400D01*
X8200D01*
Y150D01*
X8899Y750D02*
X8699D01*
X8599Y650D01*
Y250D01*
X8699Y150D01*
X8899D01*
X8999Y250D01*
Y650D01*
X8899Y750D01*
X9199Y150D02*
Y750D01*
X9499D01*
X9599Y650D01*
Y450D01*
X9499Y350D01*
X9199D01*
X9399D02*
X9599Y150D01*
X10799D02*
X10399D01*
X10799Y550D01*
Y650D01*
X10699Y750D01*
X10499D01*
X10399Y650D01*
X-10728Y100D02*
Y700D01*
X-10528Y500D01*
X-10328Y700D01*
Y100D01*
X-9828Y700D02*
X-10028D01*
X-10128Y600D01*
Y200D01*
X-10028Y100D01*
X-9828D01*
X-9728Y200D01*
Y600D01*
X-9828Y700D01*
X-9528D02*
X-9128D01*
X-9328D01*
Y100D01*
X-8628Y700D02*
X-8828D01*
X-8928Y600D01*
Y200D01*
X-8828Y100D01*
X-8628D01*
X-8528Y200D01*
Y600D01*
X-8628Y700D01*
X-8328Y100D02*
Y700D01*
X-8029D01*
X-7929Y600D01*
Y400D01*
X-8029Y300D01*
X-8328D01*
X-8128D02*
X-7929Y100D01*
X-7129D02*
X-6929D01*
X-7029D01*
Y700D01*
X-7129Y600D01*
X450Y18100D02*
X650D01*
X550D01*
Y18700D01*
X450D01*
X1350D02*
X950D01*
Y18400D01*
X1150D01*
X950D01*
Y18100D01*
X1550D02*
X1750D01*
X1650D01*
Y18700D01*
X1550Y18600D01*
X2550Y16150D02*
Y15550D01*
X2950D01*
X3150D02*
X3350D01*
X3250D01*
Y16150D01*
X3150Y16050D01*
X-6000Y13591D02*
Y12991D01*
X-5700D01*
X-5600Y13091D01*
Y13491D01*
X-5700Y13591D01*
X-6000D01*
X-5000D02*
X-5400D01*
Y13291D01*
X-5200Y13391D01*
X-5100D01*
X-5000Y13291D01*
Y13091D01*
X-5100Y12991D01*
X-5300D01*
X-5400Y13091D01*
X-4800Y13591D02*
Y13191D01*
X-4600Y12991D01*
X-4400Y13191D01*
Y13591D01*
X750Y14550D02*
Y13950D01*
X1050D01*
X1150Y14050D01*
Y14450D01*
X1050Y14550D01*
X750D01*
X1750D02*
X1350D01*
Y14250D01*
X1550Y14350D01*
X1650D01*
X1750Y14250D01*
Y14050D01*
X1650Y13950D01*
X1450D01*
X1350Y14050D01*
X5150Y15850D02*
Y15250D01*
X5450D01*
X5550Y15350D01*
Y15750D01*
X5450Y15850D01*
X5150D01*
X6050Y15250D02*
Y15850D01*
X5750Y15550D01*
X6150D01*
X8650Y15850D02*
Y15250D01*
X8950D01*
X9050Y15350D01*
Y15750D01*
X8950Y15850D01*
X8650D01*
X9250Y15750D02*
X9350Y15850D01*
X9550D01*
X9650Y15750D01*
Y15650D01*
X9550Y15550D01*
X9450D01*
X9550D01*
X9650Y15450D01*
Y15350D01*
X9550Y15250D01*
X9350D01*
X9250Y15350D01*
X-10412Y15850D02*
Y15250D01*
X-10112D01*
X-10012Y15350D01*
Y15750D01*
X-10112Y15850D01*
X-10412D01*
X-9412Y15250D02*
X-9812D01*
X-9412Y15650D01*
Y15750D01*
X-9512Y15850D01*
X-9712D01*
X-9812Y15750D01*
X-6950Y15850D02*
Y15250D01*
X-6650D01*
X-6550Y15350D01*
Y15750D01*
X-6650Y15850D01*
X-6950D01*
X-6350Y15250D02*
X-6150D01*
X-6250D01*
Y15850D01*
X-6350Y15750D01*
X-200Y12350D02*
X-300Y12450D01*
X-500D01*
X-600Y12350D01*
Y11950D01*
X-500Y11850D01*
X-300D01*
X-200Y11950D01*
X-0Y11850D02*
X200D01*
X100D01*
Y12450D01*
X-0Y12350D01*
X500D02*
X600Y12450D01*
X800D01*
X900Y12350D01*
Y12250D01*
X800Y12150D01*
X700D01*
X800D01*
X900Y12050D01*
Y11950D01*
X800Y11850D01*
X600D01*
X500Y11950D01*
X4981Y12492D02*
X4881Y12592D01*
X4681D01*
X4581Y12492D01*
Y12092D01*
X4681Y11992D01*
X4881D01*
X4981Y12092D01*
X5181Y11992D02*
X5381D01*
X5281D01*
Y12592D01*
X5181Y12492D01*
X6081Y11992D02*
X5681D01*
X6081Y12392D01*
Y12492D01*
X5981Y12592D01*
X5781D01*
X5681Y12492D01*
X8947D02*
X8847Y12592D01*
X8647D01*
X8547Y12492D01*
Y12092D01*
X8647Y11992D01*
X8847D01*
X8947Y12092D01*
X9147Y11992D02*
X9347D01*
X9247D01*
Y12592D01*
X9147Y12492D01*
X9647Y11992D02*
X9846D01*
X9746D01*
Y12592D01*
X9647Y12492D01*
X-10448D02*
X-10548Y12592D01*
X-10748D01*
X-10848Y12492D01*
Y12092D01*
X-10748Y11992D01*
X-10548D01*
X-10448Y12092D01*
X-10248Y11992D02*
X-10048D01*
X-10148D01*
Y12592D01*
X-10248Y12492D01*
X-9748D02*
X-9649Y12592D01*
X-9449D01*
X-9349Y12492D01*
Y12092D01*
X-9449Y11992D01*
X-9649D01*
X-9748Y12092D01*
Y12492D01*
X3850Y13491D02*
X3750Y13591D01*
X3550D01*
X3450Y13491D01*
Y13091D01*
X3550Y12991D01*
X3750D01*
X3850Y13091D01*
X4450Y13591D02*
X4250Y13491D01*
X4050Y13291D01*
Y13091D01*
X4150Y12991D01*
X4350D01*
X4450Y13091D01*
Y13191D01*
X4350Y13291D01*
X4050D01*
X6440Y16600D02*
X6340Y16700D01*
X6140D01*
X6040Y16600D01*
Y16200D01*
X6140Y16100D01*
X6340D01*
X6440Y16200D01*
X7040Y16700D02*
X6640D01*
Y16400D01*
X6840Y16500D01*
X6940D01*
X7040Y16400D01*
Y16200D01*
X6940Y16100D01*
X6740D01*
X6640Y16200D01*
X-6798Y12492D02*
X-6898Y12592D01*
X-7098D01*
X-7198Y12492D01*
Y12092D01*
X-7098Y11992D01*
X-6898D01*
X-6798Y12092D01*
X-6298Y11992D02*
Y12592D01*
X-6598Y12292D01*
X-6198D01*
X-2550Y17000D02*
X-2650Y17100D01*
X-2850D01*
X-2950Y17000D01*
Y16600D01*
X-2850Y16500D01*
X-2650D01*
X-2550Y16600D01*
X-2350Y17000D02*
X-2250Y17100D01*
X-2050D01*
X-1950Y17000D01*
Y16900D01*
X-2050Y16800D01*
X-2150D01*
X-2050D01*
X-1950Y16700D01*
Y16600D01*
X-2050Y16500D01*
X-2250D01*
X-2350Y16600D01*
X-6600Y16600D02*
X-6700Y16700D01*
X-6900D01*
X-7000Y16600D01*
Y16200D01*
X-6900Y16100D01*
X-6700D01*
X-6600Y16200D01*
X-6000Y16100D02*
X-6400D01*
X-6000Y16500D01*
Y16600D01*
X-6100Y16700D01*
X-6300D01*
X-6400Y16600D01*
X1350Y13646D02*
X1250Y13746D01*
X1050D01*
X950Y13646D01*
Y13247D01*
X1050Y13147D01*
X1250D01*
X1350Y13247D01*
X1550Y13147D02*
X1750D01*
X1650D01*
Y13746D01*
X1550Y13646D01*
X-400Y3862D02*
Y3263D01*
X-100D01*
X-0Y3363D01*
Y3462D01*
X-100Y3562D01*
X-400D01*
X-100D01*
X-0Y3662D01*
Y3762D01*
X-100Y3862D01*
X-400D01*
X200Y3263D02*
X400D01*
X300D01*
Y3862D01*
X200Y3762D01*
D11*
X996Y11335D02*
G03*
X-718Y11286I-826J-1135D01*
G01*
X-3974Y18485D02*
G03*
X-5689Y18436I-826J-1135D01*
G01*
X5626Y18485D02*
G03*
X3911Y18436I-826J-1135D01*
G01*
D12*
X10156Y19372D02*
G03*
X10156Y19372I-118J0D01*
G01*
X-1031Y15177D02*
G03*
X-1031Y15177I-118J0D01*
G01*
X-6648Y19372D02*
G03*
X-6648Y19372I-118J0D01*
G01*
D13*
X10465Y20223D02*
G03*
X10465Y20223I-49J0D01*
G01*
X8454Y14416D02*
G03*
X8454Y14416I-49J0D01*
G01*
X-7196D02*
G03*
X-7196Y14416I-49J0D01*
G01*
X-10746D02*
G03*
X-10746Y14416I-49J0D01*
G01*
X12104D02*
G03*
X12104Y14416I-49J0D01*
G01*
X-6339Y20223D02*
G03*
X-6339Y20223I-49J0D01*
G01*
D14*
X10432Y18973D02*
G03*
X10432Y18473I0J-250D01*
G01*
X-6372Y18973D02*
G03*
X-6372Y18473I0J-250D01*
G01*
X-2650Y19950D02*
X2350D01*
X-2650Y18950D02*
Y19950D01*
Y18950D02*
X2350D01*
Y19950D01*
X1350Y18950D02*
Y19950D01*
X350Y18950D02*
Y19950D01*
X-650Y18950D02*
Y19950D01*
X-1650Y18950D02*
Y19950D01*
X6377Y17679D02*
Y19766D01*
X10432Y17679D02*
Y18473D01*
Y18973D02*
Y19766D01*
X6377Y17679D02*
X10432D01*
X6377Y19766D02*
X10432D01*
X6316Y13767D02*
X8284D01*
X6316Y13137D02*
X8284D01*
Y13767D01*
X6316Y13137D02*
Y13767D01*
X-9334D02*
X-7366D01*
X-9334Y13137D02*
X-7366D01*
Y13767D01*
X-9334Y13137D02*
Y13767D01*
X-12884D02*
X-10916D01*
X-12884Y13137D02*
X-10916D01*
Y13767D01*
X-12884Y13137D02*
Y13767D01*
X9966D02*
X11934D01*
X9966Y13137D02*
X11934D01*
Y13767D01*
X9966Y13137D02*
Y13767D01*
X-10428Y17679D02*
Y19766D01*
X-6372Y17679D02*
Y18473D01*
Y18973D02*
Y19766D01*
X-10428Y17679D02*
X-6372D01*
X-10428Y19766D02*
X-6372D01*
D15*
X6000Y19050D02*
Y19750D01*
X4750Y19050D02*
Y19750D01*
X5500D02*
X6000D01*
X5500Y19050D02*
X6000D01*
X4750D02*
X5200D01*
X4750Y19750D02*
X5200D01*
X750Y13094D02*
Y13794D01*
X-500Y13094D02*
Y13794D01*
X250D02*
X750D01*
X250Y13094D02*
X750D01*
X-500D02*
X-50D01*
X-500Y13794D02*
X-50D01*
X-1750Y15600D02*
Y16300D01*
X-3000Y15600D02*
Y16300D01*
X-2250D02*
X-1750D01*
X-2250Y15600D02*
X-1750D01*
X-3000D02*
X-2550D01*
X-3000Y16300D02*
X-2550D01*
X-8753Y10992D02*
Y11692D01*
X-7503Y10992D02*
Y11692D01*
X-8753Y10992D02*
X-8253D01*
X-8753Y11692D02*
X-8253D01*
X-7953D02*
X-7503D01*
X-7953Y10992D02*
X-7503D01*
X3450Y11500D02*
X4150D01*
X3450Y12750D02*
X4150D01*
Y11500D02*
Y12000D01*
X3450Y11500D02*
Y12000D01*
Y12300D02*
Y12750D01*
X4150Y12300D02*
Y12750D01*
X-12353Y10992D02*
Y11692D01*
X-11103Y10992D02*
Y11692D01*
X-12353Y10992D02*
X-11853D01*
X-12353Y11692D02*
X-11853D01*
X-11553D02*
X-11103D01*
X-11553Y10992D02*
X-11103D01*
X10597D02*
Y11692D01*
X11847Y10992D02*
Y11692D01*
X10597Y10992D02*
X11097D01*
X10597Y11692D02*
X11097D01*
X11397D02*
X11847D01*
X11397Y10992D02*
X11847D01*
X6797D02*
Y11692D01*
X8047Y10992D02*
Y11692D01*
X6797Y10992D02*
X7297D01*
X6797Y11692D02*
X7297D01*
X7597D02*
X8047D01*
X7597Y10992D02*
X8047D01*
X-5202Y13815D02*
X-4502D01*
X-5202Y15065D02*
X-4502D01*
Y13815D02*
Y14315D01*
X-5202Y13815D02*
Y14315D01*
Y14615D02*
Y15065D01*
X-4502Y14615D02*
Y15065D01*
X-4324Y9950D02*
X-3624D01*
X-4324Y8700D02*
X-3624D01*
X-4324Y9450D02*
Y9950D01*
X-3624Y9450D02*
Y9950D01*
Y8700D02*
Y9150D01*
X-4324Y8700D02*
Y9150D01*
X-10050Y9950D02*
X-9350D01*
X-10050Y8700D02*
X-9350D01*
X-10050Y9450D02*
Y9950D01*
X-9350Y9450D02*
Y9950D01*
Y8700D02*
Y9150D01*
X-10050Y8700D02*
Y9150D01*
X-7180Y9950D02*
X-6480D01*
X-7180Y8700D02*
X-6480D01*
X-7180Y9450D02*
Y9950D01*
X-6480Y9450D02*
Y9950D01*
Y8700D02*
Y9150D01*
X-7180Y8700D02*
Y9150D01*
X-12945Y9950D02*
X-12245D01*
X-12945Y8700D02*
X-12245D01*
X-12945Y9450D02*
Y9950D01*
X-12245Y9450D02*
Y9950D01*
Y8700D02*
Y9150D01*
X-12945Y8700D02*
Y9150D01*
X10500Y9950D02*
X11200D01*
X10500Y8700D02*
X11200D01*
X10500Y9450D02*
Y9950D01*
X11200Y9450D02*
Y9950D01*
Y8700D02*
Y9150D01*
X10500Y8700D02*
Y9150D01*
X4750Y9950D02*
X5450D01*
X4750Y8700D02*
X5450D01*
X4750Y9450D02*
Y9950D01*
X5450Y9450D02*
Y9950D01*
Y8700D02*
Y9150D01*
X4750Y8700D02*
Y9150D01*
X7600Y9950D02*
X8300D01*
X7600Y8700D02*
X8300D01*
X7600Y9450D02*
Y9950D01*
X8300Y9450D02*
Y9950D01*
Y8700D02*
Y9150D01*
X7600Y8700D02*
Y9150D01*
X1900Y9950D02*
X2600D01*
X1900Y8700D02*
X2600D01*
X1900Y9450D02*
Y9950D01*
X2600Y9450D02*
Y9950D01*
Y8700D02*
Y9150D01*
X1900Y8700D02*
Y9150D01*
X-2555Y8700D02*
X-1855D01*
X-2555Y9950D02*
X-1855D01*
Y8700D02*
Y9200D01*
X-2555Y8700D02*
Y9200D01*
Y9500D02*
Y9950D01*
X-1855Y9500D02*
Y9950D01*
X-8250Y8700D02*
X-7550D01*
X-8250Y9950D02*
X-7550D01*
Y8700D02*
Y9200D01*
X-8250Y8700D02*
Y9200D01*
Y9500D02*
Y9950D01*
X-7550Y9500D02*
Y9950D01*
X-5400Y8700D02*
X-4700D01*
X-5400Y9950D02*
X-4700D01*
Y8700D02*
Y9200D01*
X-5400Y8700D02*
Y9200D01*
Y9500D02*
Y9950D01*
X-4700Y9500D02*
Y9950D01*
X-11146Y8700D02*
X-10446D01*
X-11146Y9950D02*
X-10446D01*
Y8700D02*
Y9200D01*
X-11146Y8700D02*
Y9200D01*
Y9500D02*
Y9950D01*
X-10446Y9500D02*
Y9950D01*
X-8400Y16060D02*
Y16760D01*
X-7150Y16060D02*
Y16760D01*
X-8400Y16060D02*
X-7900D01*
X-8400Y16760D02*
X-7900D01*
X-7600D02*
X-7150D01*
X-7600Y16060D02*
X-7150D01*
X-10350D02*
Y16760D01*
X-11600Y16060D02*
Y16760D01*
X-10850D02*
X-10350D01*
X-10850Y16060D02*
X-10350D01*
X-11600D02*
X-11150D01*
X-11600Y16760D02*
X-11150D01*
X11650Y16060D02*
Y16760D01*
X10400Y16060D02*
Y16760D01*
X11150D02*
X11650D01*
X11150Y16060D02*
X11650D01*
X10400D02*
X10850D01*
X10400Y16760D02*
X10850D01*
X12300Y8700D02*
X13000D01*
X12300Y9950D02*
X13000D01*
Y8700D02*
Y9200D01*
X12300Y8700D02*
Y9200D01*
Y9500D02*
Y9950D01*
X13000Y9500D02*
Y9950D01*
X9400Y8700D02*
X10100D01*
X9400Y9950D02*
X10100D01*
Y8700D02*
Y9200D01*
X9400Y8700D02*
Y9200D01*
Y9500D02*
Y9950D01*
X10100Y9500D02*
Y9950D01*
X6554Y8700D02*
X7254D01*
X6554Y9950D02*
X7254D01*
Y8700D02*
Y9200D01*
X6554Y8700D02*
Y9200D01*
Y9500D02*
Y9950D01*
X7254Y9500D02*
Y9950D01*
X3695Y8700D02*
X4395D01*
X3695Y9950D02*
X4395D01*
Y8700D02*
Y9200D01*
X3695Y8700D02*
Y9200D01*
Y9500D02*
Y9950D01*
X4395Y9500D02*
Y9950D01*
X7250Y16060D02*
Y16760D01*
X8500Y16060D02*
Y16760D01*
X7250Y16060D02*
X7750D01*
X7250Y16760D02*
X7750D01*
X8050D02*
X8500D01*
X8050Y16060D02*
X8500D01*
X-1150Y17229D02*
Y17929D01*
X100Y17229D02*
Y17929D01*
X-1150Y17229D02*
X-650D01*
X-1150Y17929D02*
X-650D01*
X-350D02*
X100D01*
X-350Y17229D02*
X100D01*
X750Y17700D02*
X1450D01*
X750Y16450D02*
X1450D01*
X750Y17200D02*
Y17700D01*
X1450Y17200D02*
Y17700D01*
Y16450D02*
Y16900D01*
X750Y16450D02*
Y16900D01*
X-1700Y17229D02*
Y17929D01*
X-2950Y17229D02*
Y17929D01*
X-2200D02*
X-1700D01*
X-2200Y17229D02*
X-1700D01*
X-2950D02*
X-2500D01*
X-2950Y17929D02*
X-2500D01*
X3450Y13815D02*
X4150D01*
X3450Y15065D02*
X4150D01*
Y13815D02*
Y14315D01*
X3450Y13815D02*
Y14315D01*
Y14615D02*
Y15065D01*
X4150Y14615D02*
Y15065D01*
X-5950Y19050D02*
Y19750D01*
X-4700Y19050D02*
Y19750D01*
X-5950Y19050D02*
X-5450D01*
X-5950Y19750D02*
X-5450D01*
X-5150D02*
X-4700D01*
X-5150Y19050D02*
X-4700D01*
X-5950Y19900D02*
Y20600D01*
X-4700Y19900D02*
Y20600D01*
X-5950Y19900D02*
X-5450D01*
X-5950Y20600D02*
X-5450D01*
X-5150D02*
X-4700D01*
X-5150Y19900D02*
X-4700D01*
X6000D02*
Y20600D01*
X4750Y19900D02*
Y20600D01*
X5500D02*
X6000D01*
X5500Y19900D02*
X6000D01*
X4750D02*
X5200D01*
X4750Y20600D02*
X5200D01*
D16*
X-900Y4107D02*
Y8044D01*
X900D01*
X-900Y4107D02*
X900D01*
Y8044D01*
M02*
