G04*
G04 #@! TF.GenerationSoftware,Altium Limited,Altium Designer,18.1.4 (159)*
G04*
G04 Layer_Color=16711935*
%FSLAX24Y24*%
%MOIN*%
G70*
G01*
G75*
%ADD57C,0.0039*%
D57*
X10274Y19786D02*
G03*
X10274Y19786I-197J0D01*
G01*
X8127Y13885D02*
G03*
X8127Y13885I-197J0D01*
G01*
X-7523D02*
G03*
X-7523Y13885I-197J0D01*
G01*
X-11073D02*
G03*
X-11073Y13885I-197J0D01*
G01*
X11777D02*
G03*
X11777Y13885I-197J0D01*
G01*
X-6530Y19786D02*
G03*
X-6530Y19786I-197J0D01*
G01*
X6377Y17305D02*
Y20140D01*
X10432Y17305D02*
Y20140D01*
X6377Y17305D02*
X10432D01*
X6377Y20140D02*
X10432D01*
X6316Y14239D02*
X8284D01*
X6316Y12664D02*
X8284D01*
Y14239D01*
X6316Y12664D02*
Y14239D01*
X-9334D02*
X-7366D01*
X-9334Y12664D02*
X-7366D01*
Y14239D01*
X-9334Y12664D02*
Y14239D01*
X-12884D02*
X-10916D01*
X-12884Y12664D02*
X-10916D01*
Y14239D01*
X-12884Y12664D02*
Y14239D01*
X9966D02*
X11934D01*
X9966Y12664D02*
X11934D01*
Y14239D01*
X9966Y12664D02*
Y14239D01*
X-10428Y17305D02*
Y20140D01*
X-6372Y17305D02*
Y20140D01*
X-10428Y17305D02*
X-6372D01*
X-10428Y20140D02*
X-6372D01*
M02*
