G04*
G04 #@! TF.GenerationSoftware,Altium Limited,Altium Designer,18.1.4 (159)*
G04*
G04 Layer_Physical_Order=1*
G04 Layer_Color=255*
%FSLAX24Y24*%
%MOIN*%
G70*
G01*
G75*
%ADD17O,0.0276X0.0984*%
%ADD18R,0.0492X0.1122*%
%ADD19R,0.2185X0.2559*%
%ADD20R,0.0300X0.0300*%
G04:AMPARAMS|DCode=21|XSize=55mil|YSize=50mil|CornerRadius=0mil|HoleSize=0mil|Usage=FLASHONLY|Rotation=270.000|XOffset=0mil|YOffset=0mil|HoleType=Round|Shape=Octagon|*
%AMOCTAGOND21*
4,1,8,-0.0125,-0.0275,0.0125,-0.0275,0.0250,-0.0150,0.0250,0.0150,0.0125,0.0275,-0.0125,0.0275,-0.0250,0.0150,-0.0250,-0.0150,-0.0125,-0.0275,0.0*
%
%ADD21OCTAGOND21*%

%ADD22R,0.0500X0.0550*%
%ADD23R,0.0276X0.0394*%
%ADD24R,0.0300X0.0300*%
%ADD25R,0.0610X0.0925*%
%ADD26R,0.1000X0.0600*%
%ADD27R,0.0236X0.0551*%
%ADD50C,0.0200*%
%ADD51C,0.0669*%
%ADD52R,0.0669X0.0669*%
%ADD53R,0.0591X0.0591*%
%ADD54C,0.0591*%
%ADD55C,0.0709*%
%ADD56O,0.0827X0.0472*%
G04:AMPARAMS|DCode=57|XSize=59.1mil|YSize=39.4mil|CornerRadius=9.8mil|HoleSize=0mil|Usage=FLASHONLY|Rotation=270.000|XOffset=0mil|YOffset=0mil|HoleType=Round|Shape=RoundedRectangle|*
%AMROUNDEDRECTD57*
21,1,0.0591,0.0197,0,0,270.0*
21,1,0.0394,0.0394,0,0,270.0*
1,1,0.0197,-0.0098,-0.0197*
1,1,0.0197,-0.0098,0.0197*
1,1,0.0197,0.0098,0.0197*
1,1,0.0197,0.0098,-0.0197*
%
%ADD57ROUNDEDRECTD57*%
%ADD58C,0.0984*%
%ADD59R,0.0984X0.0984*%
%ADD60C,0.0400*%
%ADD61C,0.2362*%
G36*
X9651Y20718D02*
X9725Y20656D01*
X9758Y20633D01*
X9787Y20616D01*
X9814Y20605D01*
X9838Y20599D01*
X9859Y20599D01*
X9878Y20604D01*
X9893Y20616D01*
X9611Y20334D01*
X9623Y20349D01*
X9628Y20368D01*
X9628Y20389D01*
X9622Y20413D01*
X9611Y20440D01*
X9594Y20469D01*
X9571Y20502D01*
X9543Y20537D01*
X9469Y20617D01*
X9610Y20758D01*
X9651Y20718D01*
D02*
G37*
G36*
X-9508Y20574D02*
X-9526Y20553D01*
X-9543Y20532D01*
X-9558Y20510D01*
X-9570Y20487D01*
X-9581Y20462D01*
X-9590Y20437D01*
X-9597Y20411D01*
X-9601Y20383D01*
X-9604Y20355D01*
X-9605Y20326D01*
X-9897Y20618D01*
X-9868Y20619D01*
X-9839Y20621D01*
X-9812Y20626D01*
X-9786Y20633D01*
X-9760Y20641D01*
X-9736Y20652D01*
X-9713Y20665D01*
X-9690Y20680D01*
X-9669Y20696D01*
X-9649Y20715D01*
X-9508Y20574D01*
D02*
G37*
G36*
X-5708Y20601D02*
X-5634Y20538D01*
X-5602Y20516D01*
X-5572Y20499D01*
X-5545Y20487D01*
X-5521Y20482D01*
X-5500D01*
X-5482Y20487D01*
X-5466Y20499D01*
X-5749Y20216D01*
X-5737Y20232D01*
X-5732Y20250D01*
Y20271D01*
X-5737Y20295D01*
X-5749Y20322D01*
X-5766Y20352D01*
X-5788Y20384D01*
X-5817Y20420D01*
X-5890Y20499D01*
X-5749Y20640D01*
X-5708Y20601D01*
D02*
G37*
G36*
X5801Y20490D02*
X5807Y20481D01*
X5817Y20474D01*
X5831Y20468D01*
X5849Y20462D01*
X5871Y20458D01*
X5897Y20454D01*
X5961Y20450D01*
X5999Y20450D01*
Y20250D01*
X5961Y20250D01*
X5871Y20242D01*
X5849Y20238D01*
X5831Y20232D01*
X5817Y20226D01*
X5807Y20219D01*
X5801Y20210D01*
X5799Y20201D01*
Y20499D01*
X5801Y20490D01*
D02*
G37*
G36*
X4951Y20201D02*
X5249D01*
X5240Y20199D01*
X5231Y20193D01*
X5224Y20183D01*
X5218Y20169D01*
X5212Y20151D01*
X5208Y20129D01*
X5204Y20103D01*
X5200Y20039D01*
X5200Y20001D01*
X5000D01*
X5000Y20039D01*
X4992Y20129D01*
X4988Y20151D01*
X4982Y20169D01*
X4976Y20183D01*
X4969Y20193D01*
X4960Y20199D01*
X4951Y20201D01*
X4949Y20210D01*
X4943Y20219D01*
X4933Y20226D01*
X4919Y20232D01*
X4901Y20238D01*
X4879Y20242D01*
X4853Y20246D01*
X4789Y20250D01*
X4751Y20250D01*
Y20450D01*
X4789Y20450D01*
X4879Y20458D01*
X4901Y20462D01*
X4919Y20468D01*
X4933Y20474D01*
X4943Y20481D01*
X4949Y20490D01*
X4951Y20499D01*
Y20201D01*
D02*
G37*
G36*
X-4910Y20199D02*
X-4919Y20193D01*
X-4926Y20183D01*
X-4932Y20169D01*
X-4938Y20151D01*
X-4942Y20129D01*
X-4946Y20103D01*
X-4950Y20039D01*
X-4950Y20001D01*
X-5150D01*
X-5150Y20039D01*
X-5158Y20129D01*
X-5162Y20151D01*
X-5168Y20169D01*
X-5174Y20183D01*
X-5181Y20193D01*
X-5190Y20199D01*
X-5199Y20201D01*
X-4901D01*
X-4910Y20199D01*
D02*
G37*
G36*
X8901Y20027D02*
X8872Y20027D01*
X8844Y20024D01*
X8816Y20019D01*
X8790Y20013D01*
X8765Y20004D01*
X8740Y19993D01*
X8717Y19980D01*
X8695Y19966D01*
X8674Y19949D01*
X8653Y19930D01*
X8512Y20072D01*
X8531Y20092D01*
X8547Y20113D01*
X8562Y20135D01*
X8575Y20159D01*
X8586Y20183D01*
X8594Y20208D01*
X8601Y20235D01*
X8606Y20262D01*
X8608Y20290D01*
X8609Y20320D01*
X8901Y20027D01*
D02*
G37*
G36*
X7901D02*
X7872Y20027D01*
X7844Y20024D01*
X7816Y20019D01*
X7790Y20013D01*
X7765Y20004D01*
X7740Y19993D01*
X7717Y19980D01*
X7695Y19966D01*
X7674Y19949D01*
X7653Y19930D01*
X7512Y20072D01*
X7531Y20092D01*
X7547Y20113D01*
X7562Y20135D01*
X7575Y20159D01*
X7586Y20183D01*
X7594Y20208D01*
X7601Y20235D01*
X7606Y20262D01*
X7608Y20290D01*
X7609Y20320D01*
X7901Y20027D01*
D02*
G37*
G36*
X-7604Y20290D02*
X-7601Y20262D01*
X-7597Y20235D01*
X-7590Y20208D01*
X-7581Y20183D01*
X-7570Y20159D01*
X-7558Y20135D01*
X-7543Y20113D01*
X-7526Y20092D01*
X-7508Y20072D01*
X-7649Y19930D01*
X-7669Y19949D01*
X-7690Y19966D01*
X-7713Y19980D01*
X-7736Y19993D01*
X-7760Y20004D01*
X-7786Y20013D01*
X-7812Y20019D01*
X-7839Y20024D01*
X-7868Y20027D01*
X-7897Y20027D01*
X-7605Y20320D01*
X-7604Y20290D01*
D02*
G37*
G36*
X-8604D02*
X-8601Y20262D01*
X-8597Y20235D01*
X-8590Y20208D01*
X-8581Y20183D01*
X-8570Y20159D01*
X-8558Y20135D01*
X-8543Y20113D01*
X-8526Y20092D01*
X-8508Y20072D01*
X-8649Y19930D01*
X-8669Y19949D01*
X-8690Y19966D01*
X-8713Y19980D01*
X-8736Y19993D01*
X-8760Y20004D01*
X-8786Y20013D01*
X-8812Y20019D01*
X-8839Y20024D01*
X-8868Y20027D01*
X-8897Y20027D01*
X-8605Y20320D01*
X-8604Y20290D01*
D02*
G37*
G36*
X-6617Y20296D02*
X-6623Y20277D01*
Y20256D01*
X-6617Y20232D01*
X-6606Y20205D01*
X-6589Y20176D01*
X-6566Y20143D01*
X-6538Y20108D01*
X-6464Y20029D01*
X-6606Y19887D01*
X-6647Y19927D01*
X-6720Y19989D01*
X-6753Y20012D01*
X-6783Y20029D01*
X-6810Y20040D01*
X-6834Y20046D01*
X-6855D01*
X-6873Y20040D01*
X-6889Y20029D01*
X-6606Y20311D01*
X-6617Y20296D01*
D02*
G37*
G36*
X12678Y20828D02*
X12859Y20752D01*
X13023Y20643D01*
X13163Y20504D01*
X13272Y20340D01*
X13347Y20158D01*
X13386Y19965D01*
Y19866D01*
Y18823D01*
X15248D01*
X15442Y18784D01*
X15624Y18709D01*
X15787Y18599D01*
X15927Y18460D01*
X16036Y18296D01*
X16112Y18114D01*
X16150Y17921D01*
Y17823D01*
Y16673D01*
Y16575D01*
X16112Y16381D01*
X16036Y16199D01*
X15927Y16036D01*
X15787Y15896D01*
X15624Y15787D01*
X15442Y15711D01*
X15248Y15673D01*
X13386D01*
Y10017D01*
X13336Y9997D01*
X13089Y10244D01*
X13026Y10292D01*
X12953Y10322D01*
X12875Y10333D01*
X12480D01*
X11766Y11046D01*
X11786Y11092D01*
X11847D01*
Y11364D01*
X11914Y11431D01*
X11962Y11494D01*
X11992Y11567D01*
X12003Y11645D01*
X12003Y11645D01*
Y11931D01*
X12004Y11938D01*
X12004Y11973D01*
X12007Y12059D01*
X12010Y12092D01*
X12010Y12097D01*
X12011Y12101D01*
X12029Y12145D01*
X12041Y12233D01*
Y12942D01*
X12029Y13030D01*
X11995Y13112D01*
X11941Y13182D01*
X11870Y13237D01*
X11788Y13271D01*
X11742Y13277D01*
X11489Y13530D01*
X11487Y13547D01*
X11497Y13593D01*
X11546Y13630D01*
X11742Y13827D01*
X11788Y13833D01*
X11870Y13867D01*
X11941Y13921D01*
X11995Y13992D01*
X12029Y14074D01*
X12041Y14162D01*
Y14871D01*
X12029Y14959D01*
X11995Y15041D01*
X11941Y15112D01*
X11870Y15166D01*
X11788Y15200D01*
X11700Y15211D01*
X11612Y15200D01*
X11530Y15166D01*
X11459Y15112D01*
X11441D01*
X11370Y15166D01*
X11288Y15200D01*
X11200Y15211D01*
X11112Y15200D01*
X11030Y15166D01*
X10959Y15112D01*
X10941D01*
X10870Y15166D01*
X10788Y15200D01*
X10700Y15211D01*
X10612Y15200D01*
X10530Y15166D01*
X10459Y15112D01*
X10420Y15060D01*
X10383Y15046D01*
X10356Y15053D01*
X10293Y15095D01*
X10250Y15103D01*
Y14516D01*
X10150D01*
Y15113D01*
X10125Y15118D01*
X10093Y15127D01*
X10086Y15127D01*
X10080Y15128D01*
X10047Y15122D01*
X10025Y15120D01*
X9725Y15419D01*
X9662Y15467D01*
X9589Y15498D01*
X9511Y15508D01*
X9488D01*
X9453Y15522D01*
X9375Y15533D01*
X7207D01*
Y16143D01*
X7250Y16160D01*
Y16160D01*
X8008D01*
X8016Y16158D01*
X8024Y16160D01*
X8060D01*
X8121Y16108D01*
X8157Y16073D01*
X8162Y16070D01*
X8296Y15936D01*
X8296Y15936D01*
X8359Y15888D01*
X8432Y15858D01*
X8510Y15847D01*
X8510Y15847D01*
X10945D01*
X11023Y15858D01*
X11096Y15888D01*
X11159Y15936D01*
X11382Y16160D01*
X11650D01*
Y16860D01*
X11382D01*
X10706Y17537D01*
X10643Y17585D01*
X10570Y17615D01*
X10492Y17625D01*
X10372D01*
X10367Y17626D01*
X10348Y17627D01*
X10337Y17628D01*
X10328Y17630D01*
X10319Y17633D01*
X10310Y17636D01*
X10301Y17641D01*
X10292Y17646D01*
X10282Y17653D01*
X10272Y17662D01*
X10259Y17674D01*
X10258Y17676D01*
X10154Y17755D01*
X10034Y17805D01*
X9904Y17822D01*
X9775Y17805D01*
X9655Y17755D01*
X9551Y17676D01*
X9472Y17572D01*
X9431Y17475D01*
X9377D01*
X9337Y17572D01*
X9258Y17676D01*
X9154Y17755D01*
X9034Y17805D01*
X8904Y17822D01*
X8775Y17805D01*
X8655Y17755D01*
X8551Y17676D01*
X8472Y17572D01*
X8431Y17475D01*
X8377D01*
X8337Y17572D01*
X8258Y17676D01*
X8154Y17755D01*
X8034Y17805D01*
X7904Y17822D01*
X7775Y17805D01*
X7655Y17755D01*
X7551Y17676D01*
X7472Y17572D01*
X7422Y17452D01*
X7405Y17323D01*
X7412Y17264D01*
X7396Y17245D01*
X7382Y17230D01*
X7371Y17212D01*
X7369Y17210D01*
X7350Y17205D01*
X7309Y17208D01*
X7291Y17230D01*
X7296Y17273D01*
X6904D01*
Y17373D01*
X7296D01*
X7289Y17426D01*
X7250Y17522D01*
X7186Y17605D01*
X7104Y17668D01*
X7095Y17671D01*
X7092Y17691D01*
X7090Y17694D01*
X7090Y17696D01*
X7069Y17727D01*
X7049Y17759D01*
X7047Y17760D01*
X7046Y17762D01*
X7014Y17783D01*
X6984Y17804D01*
X6981Y17805D01*
X6979Y17806D01*
X6943Y17814D01*
X6906Y17822D01*
X6884Y17822D01*
X6871Y17824D01*
X6859Y17826D01*
X6848Y17828D01*
X6839Y17831D01*
X6831Y17835D01*
X6822Y17840D01*
X6814Y17845D01*
X6806Y17852D01*
X6792Y17865D01*
X6788Y17867D01*
X6499Y18156D01*
X6436Y18204D01*
X6363Y18234D01*
X6285Y18245D01*
X5334D01*
X5329Y18246D01*
X5309Y18247D01*
X5298Y18248D01*
X5287Y18251D01*
X5275Y18255D01*
X5263Y18260D01*
X5249Y18267D01*
X5235Y18276D01*
X5219Y18288D01*
X5202Y18302D01*
X5180Y18323D01*
X5149Y18344D01*
X5117Y18365D01*
X5115Y18365D01*
X5113Y18366D01*
X5076Y18373D01*
X5039Y18380D01*
X5037Y18380D01*
X5035Y18380D01*
X4998Y18372D01*
X4961Y18365D01*
X4959Y18364D01*
X4957Y18363D01*
X4943Y18353D01*
X4913Y18366D01*
X4850Y18374D01*
Y17942D01*
X4750D01*
Y18374D01*
X4687Y18366D01*
X4581Y18322D01*
X4493Y18255D01*
X4483Y18257D01*
X4479Y18256D01*
X4476Y18256D01*
X4441Y18248D01*
X4405Y18241D01*
X4402Y18239D01*
X4399Y18238D01*
X4369Y18216D01*
X4339Y18196D01*
X4337Y18193D01*
X4334Y18191D01*
X4315Y18160D01*
X4295Y18129D01*
X4288Y18111D01*
X4285Y18106D01*
X4285Y18106D01*
X4278Y18105D01*
X4257Y18104D01*
X4255Y18103D01*
X4252Y18103D01*
X4249Y18103D01*
X3250D01*
Y18547D01*
X7432D01*
X7510Y18558D01*
X7583Y18588D01*
X7646Y18636D01*
X8788Y19778D01*
X8792Y19781D01*
X8806Y19794D01*
X8814Y19800D01*
X8822Y19806D01*
X8831Y19810D01*
X8839Y19814D01*
X8848Y19817D01*
X8859Y19820D01*
X8871Y19822D01*
X8884Y19823D01*
X8902Y19823D01*
X8904Y19823D01*
X9034Y19840D01*
X9154Y19890D01*
X9258Y19969D01*
X9337Y20073D01*
X9359Y20126D01*
X9409Y20116D01*
Y19827D01*
X10400D01*
Y20818D01*
X10400D01*
X10404Y20866D01*
X12484D01*
X12678Y20828D01*
D02*
G37*
G36*
X5200Y19811D02*
X5208Y19721D01*
X5212Y19699D01*
X5218Y19681D01*
X5224Y19667D01*
X5231Y19657D01*
X5240Y19651D01*
X5249Y19649D01*
X4951D01*
X4960Y19651D01*
X4969Y19657D01*
X4976Y19667D01*
X4982Y19681D01*
X4988Y19699D01*
X4992Y19721D01*
X4996Y19747D01*
X5000Y19811D01*
X5000Y19849D01*
X5200D01*
X5200Y19811D01*
D02*
G37*
G36*
X-4950D02*
X-4942Y19721D01*
X-4938Y19699D01*
X-4932Y19681D01*
X-4926Y19667D01*
X-4919Y19657D01*
X-4910Y19651D01*
X-4901Y19649D01*
X-5199D01*
X-5190Y19651D01*
X-5181Y19657D01*
X-5174Y19667D01*
X-5168Y19681D01*
X-5162Y19699D01*
X-5158Y19721D01*
X-5154Y19747D01*
X-5150Y19811D01*
X-5150Y19849D01*
X-4950D01*
X-4950Y19811D01*
D02*
G37*
G36*
X-1689Y19870D02*
X-1709Y19847D01*
X-1728Y19822D01*
X-1744Y19796D01*
X-1758Y19767D01*
X-1770Y19736D01*
X-1780Y19704D01*
X-1787Y19669D01*
X-1792Y19633D01*
X-1795Y19594D01*
X-1796Y19554D01*
X-2146Y19904D01*
X-2106Y19905D01*
X-2067Y19908D01*
X-2031Y19913D01*
X-1996Y19920D01*
X-1964Y19930D01*
X-1933Y19942D01*
X-1904Y19956D01*
X-1878Y19972D01*
X-1853Y19991D01*
X-1830Y20011D01*
X-1689Y19870D01*
D02*
G37*
G36*
X-4899Y19640D02*
X-4893Y19631D01*
X-4883Y19624D01*
X-4869Y19618D01*
X-4851Y19612D01*
X-4829Y19608D01*
X-4803Y19604D01*
X-4739Y19600D01*
X-4701Y19600D01*
Y19400D01*
X-4739Y19400D01*
X-4829Y19392D01*
X-4851Y19388D01*
X-4869Y19382D01*
X-4883Y19376D01*
X-4893Y19369D01*
X-4899Y19360D01*
X-4901Y19351D01*
Y19649D01*
X-4899Y19640D01*
D02*
G37*
G36*
X-5749Y19351D02*
X-5751Y19360D01*
X-5757Y19369D01*
X-5767Y19376D01*
X-5781Y19382D01*
X-5799Y19388D01*
X-5821Y19392D01*
X-5847Y19396D01*
X-5911Y19400D01*
X-5949Y19400D01*
Y19600D01*
X-5911Y19600D01*
X-5821Y19608D01*
X-5799Y19612D01*
X-5781Y19618D01*
X-5767Y19624D01*
X-5757Y19631D01*
X-5751Y19640D01*
X-5749Y19649D01*
Y19351D01*
D02*
G37*
G36*
X1205Y19506D02*
X1208Y19467D01*
X1213Y19431D01*
X1220Y19396D01*
X1230Y19364D01*
X1242Y19333D01*
X1256Y19304D01*
X1272Y19278D01*
X1291Y19253D01*
X1311Y19230D01*
X1170Y19089D01*
X1147Y19109D01*
X1122Y19128D01*
X1096Y19144D01*
X1067Y19158D01*
X1036Y19170D01*
X1004Y19180D01*
X969Y19187D01*
X933Y19192D01*
X894Y19195D01*
X854Y19196D01*
X1204Y19546D01*
X1205Y19506D01*
D02*
G37*
G36*
X-154Y19196D02*
X-194Y19195D01*
X-233Y19192D01*
X-269Y19187D01*
X-304Y19180D01*
X-336Y19170D01*
X-367Y19158D01*
X-396Y19144D01*
X-422Y19128D01*
X-447Y19109D01*
X-470Y19089D01*
X-611Y19230D01*
X-591Y19253D01*
X-572Y19278D01*
X-556Y19304D01*
X-542Y19333D01*
X-530Y19364D01*
X-520Y19396D01*
X-513Y19431D01*
X-508Y19467D01*
X-505Y19506D01*
X-504Y19546D01*
X-154Y19196D01*
D02*
G37*
G36*
X-1154D02*
X-1194Y19195D01*
X-1233Y19192D01*
X-1269Y19187D01*
X-1304Y19180D01*
X-1336Y19170D01*
X-1367Y19158D01*
X-1396Y19144D01*
X-1422Y19128D01*
X-1447Y19109D01*
X-1470Y19089D01*
X-1611Y19230D01*
X-1591Y19253D01*
X-1572Y19278D01*
X-1556Y19304D01*
X-1542Y19333D01*
X-1530Y19364D01*
X-1520Y19396D01*
X-1513Y19431D01*
X-1508Y19467D01*
X-1505Y19506D01*
X-1504Y19546D01*
X-1154Y19196D01*
D02*
G37*
G36*
X-9946Y20816D02*
X-10029Y20805D01*
X-10150Y20755D01*
X-10253Y20676D01*
X-10333Y20572D01*
X-10383Y20452D01*
X-10400Y20323D01*
X-10383Y20193D01*
X-10333Y20073D01*
X-10253Y19969D01*
X-10150Y19890D01*
X-10029Y19840D01*
X-9900Y19823D01*
X-9771Y19840D01*
X-9650Y19890D01*
X-9547Y19969D01*
X-9467Y20073D01*
X-9427Y20170D01*
X-9373D01*
X-9333Y20073D01*
X-9253Y19969D01*
X-9150Y19890D01*
X-9029Y19840D01*
X-8900Y19823D01*
X-8898Y19823D01*
X-8880Y19823D01*
X-8866Y19822D01*
X-8855Y19820D01*
X-8844Y19817D01*
X-8835Y19814D01*
X-8826Y19810D01*
X-8818Y19806D01*
X-8810Y19800D01*
X-8802Y19794D01*
X-8787Y19781D01*
X-8783Y19778D01*
X-7527Y18522D01*
X-7464Y18474D01*
X-7391Y18443D01*
X-7313Y18433D01*
X-964D01*
X-886Y18443D01*
X-813Y18474D01*
X-750Y18522D01*
X-337Y18935D01*
X-333Y18938D01*
X-317Y18952D01*
X-308Y18959D01*
X-298Y18965D01*
X-285Y18971D01*
X-271Y18977D01*
X-254Y18982D01*
X-234Y18986D01*
X-211Y18989D01*
X-185Y18991D01*
X-156Y18992D01*
X-150Y18991D01*
X-5Y19010D01*
X130Y19066D01*
X245Y19155D01*
X320Y19251D01*
X328Y19255D01*
X372D01*
X380Y19251D01*
X455Y19155D01*
X570Y19066D01*
X705Y19010D01*
X850Y18991D01*
X856Y18992D01*
X885Y18991D01*
X911Y18989D01*
X934Y18986D01*
X954Y18982D01*
X971Y18977D01*
X985Y18971D01*
X998Y18965D01*
X1008Y18959D01*
X1017Y18952D01*
X1033Y18938D01*
X1037Y18935D01*
X1336Y18636D01*
X1336Y18636D01*
X1380Y18603D01*
X1363Y18553D01*
X-234D01*
X-312Y18542D01*
X-385Y18512D01*
X-448Y18464D01*
X-882Y18029D01*
X-935D01*
X-949Y18032D01*
X-962Y18029D01*
X-1150D01*
Y17983D01*
X-1151Y17983D01*
X-1158Y17982D01*
X-1692D01*
X-1699Y17983D01*
X-1700Y17983D01*
Y18029D01*
X-1888D01*
X-1901Y18032D01*
X-1915Y18029D01*
X-2950D01*
Y17329D01*
X-2893D01*
X-2892Y17322D01*
X-2862Y17249D01*
X-2814Y17186D01*
X-2156Y16528D01*
X-2156Y16528D01*
X-2093Y16480D01*
X-2020Y16449D01*
X-1942Y16439D01*
X-1578D01*
X-1572Y16438D01*
X-1568Y16438D01*
Y16266D01*
X-686D01*
X-645Y16216D01*
X-653Y16150D01*
X-640Y16046D01*
X-599Y15948D01*
X-535Y15865D01*
X-452Y15801D01*
X-354Y15760D01*
X-250Y15747D01*
X-146Y15760D01*
X-48Y15801D01*
X35Y15865D01*
X99Y15948D01*
X140Y16046D01*
X153Y16150D01*
X145Y16216D01*
X186Y16266D01*
X343D01*
X363Y16258D01*
X442Y16247D01*
X1450D01*
X1528Y16258D01*
X1601Y16288D01*
X1664Y16336D01*
X1804Y16476D01*
X1850Y16457D01*
Y16450D01*
X2273D01*
X2274Y16446D01*
X2275Y16440D01*
Y15669D01*
X2274Y15663D01*
X2273Y15659D01*
X2072D01*
Y15556D01*
X2068Y15556D01*
X2063Y15555D01*
X-725D01*
X-725Y15555D01*
X-803Y15545D01*
X-876Y15514D01*
X-939Y15466D01*
X-939Y15466D01*
X-1464Y14941D01*
X-1469Y14934D01*
X-1568D01*
Y14603D01*
X-1615Y14585D01*
X-1639Y14610D01*
X-1654Y14629D01*
Y14659D01*
X-1653Y14664D01*
X-1654Y14673D01*
Y15776D01*
X-1810D01*
X-1850Y15800D01*
Y16000D01*
X-2100D01*
Y16050D01*
X-2150D01*
Y16300D01*
X-2300D01*
Y16400D01*
X-3000D01*
Y16216D01*
X-3000Y16216D01*
X-3000Y16210D01*
Y16198D01*
X-3003Y16184D01*
X-3000Y16170D01*
Y16141D01*
X-3000Y16140D01*
X-3052Y16079D01*
X-3087Y16043D01*
X-3090Y16038D01*
X-3403Y15725D01*
X-3449Y15744D01*
Y15776D01*
X-4341D01*
Y15119D01*
X-4345Y15119D01*
X-4351Y15118D01*
X-4447D01*
X-4495Y15160D01*
X-4496Y15164D01*
X-4497Y15170D01*
Y16414D01*
X-4496Y16419D01*
X-4496Y16423D01*
X-4265D01*
Y17493D01*
X-4619D01*
X-4629Y17543D01*
X-4581Y17562D01*
X-4490Y17632D01*
X-4420Y17723D01*
X-4377Y17829D01*
X-4368Y17892D01*
X-4800D01*
Y17942D01*
X-4850D01*
Y18374D01*
X-4913Y18366D01*
X-4943Y18353D01*
X-4957Y18363D01*
X-4959Y18364D01*
X-4961Y18365D01*
X-4998Y18372D01*
X-5035Y18380D01*
X-5037Y18380D01*
X-5039Y18380D01*
X-5076Y18373D01*
X-5113Y18366D01*
X-5115Y18365D01*
X-5117Y18365D01*
X-5149Y18344D01*
X-5180Y18323D01*
X-5202Y18302D01*
X-5219Y18288D01*
X-5235Y18276D01*
X-5249Y18267D01*
X-5263Y18260D01*
X-5275Y18255D01*
X-5287Y18251D01*
X-5298Y18248D01*
X-5309Y18247D01*
X-5329Y18246D01*
X-5334Y18245D01*
X-9281D01*
X-9359Y18234D01*
X-9432Y18204D01*
X-9494Y18156D01*
X-9783Y17867D01*
X-9787Y17865D01*
X-9802Y17852D01*
X-9810Y17845D01*
X-9818Y17840D01*
X-9826Y17835D01*
X-9835Y17831D01*
X-9844Y17828D01*
X-9855Y17826D01*
X-9866Y17824D01*
X-9880Y17822D01*
X-9902Y17822D01*
X-9938Y17814D01*
X-9975Y17806D01*
X-9977Y17805D01*
X-9980Y17804D01*
X-10010Y17783D01*
X-10041Y17762D01*
X-10043Y17760D01*
X-10045Y17759D01*
X-10065Y17727D01*
X-10066Y17724D01*
X-10070Y17725D01*
X-10106Y17733D01*
X-10108Y17733D01*
X-10111Y17733D01*
X-10148Y17726D01*
X-10184Y17720D01*
X-10186Y17718D01*
X-10189Y17718D01*
X-10220Y17697D01*
X-10252Y17677D01*
X-10268Y17662D01*
X-10278Y17653D01*
X-10288Y17646D01*
X-10297Y17641D01*
X-10306Y17636D01*
X-10315Y17633D01*
X-10324Y17630D01*
X-10333Y17628D01*
X-10343Y17627D01*
X-10363Y17626D01*
X-10368Y17625D01*
X-11723D01*
X-11801Y17615D01*
X-11874Y17585D01*
X-11937Y17537D01*
X-12864Y16609D01*
X-12912Y16547D01*
X-12942Y16474D01*
X-12953Y16395D01*
Y15186D01*
X-12953Y15184D01*
X-12953Y15180D01*
Y15172D01*
X-12954Y15166D01*
X-12954Y15130D01*
X-12957Y15045D01*
X-12960Y15011D01*
X-12960Y15006D01*
X-12962Y14999D01*
X-12962Y14996D01*
X-12963Y14989D01*
X-12972Y14961D01*
X-12971Y14950D01*
X-12973Y14940D01*
X-12967Y14911D01*
X-12965Y14881D01*
X-12960Y14872D01*
X-12958Y14862D01*
X-12953Y14854D01*
Y14773D01*
X-12972Y14745D01*
X-12974Y14740D01*
X-12977Y14735D01*
X-12983Y14701D01*
X-12990Y14668D01*
X-12991Y14651D01*
X-12992Y14645D01*
X-12994Y14636D01*
X-12997Y14626D01*
X-13003Y14614D01*
X-13011Y14599D01*
X-13022Y14583D01*
X-13036Y14564D01*
X-13053Y14544D01*
X-13077Y14519D01*
X-13080Y14514D01*
X-13314Y14280D01*
X-13336Y14252D01*
X-13386Y14269D01*
Y15673D01*
X-15248D01*
X-15442Y15711D01*
X-15624Y15787D01*
X-15787Y15896D01*
X-15927Y16036D01*
X-16036Y16199D01*
X-16112Y16381D01*
X-16150Y16575D01*
Y16673D01*
Y17823D01*
Y17921D01*
X-16112Y18114D01*
X-16036Y18296D01*
X-15927Y18460D01*
X-15787Y18599D01*
X-15624Y18709D01*
X-15442Y18784D01*
X-15248Y18823D01*
X-13386D01*
Y19866D01*
Y19965D01*
X-13347Y20158D01*
X-13272Y20340D01*
X-13163Y20504D01*
X-13023Y20643D01*
X-12860Y20752D01*
X-12678Y20828D01*
X-12484Y20866D01*
X-9949D01*
X-9946Y20816D01*
D02*
G37*
G36*
X5065Y18151D02*
X5092Y18128D01*
X5120Y18108D01*
X5147Y18090D01*
X5175Y18076D01*
X5203Y18064D01*
X5232Y18054D01*
X5261Y18047D01*
X5290Y18043D01*
X5320Y18042D01*
Y17842D01*
X5290Y17841D01*
X5261Y17837D01*
X5232Y17830D01*
X5203Y17821D01*
X5175Y17809D01*
X5147Y17794D01*
X5120Y17776D01*
X5092Y17756D01*
X5065Y17733D01*
X5039Y17708D01*
Y18176D01*
X5065Y18151D01*
D02*
G37*
G36*
X-5039Y17708D02*
X-5065Y17733D01*
X-5092Y17756D01*
X-5120Y17776D01*
X-5147Y17794D01*
X-5175Y17809D01*
X-5203Y17821D01*
X-5232Y17830D01*
X-5261Y17837D01*
X-5290Y17841D01*
X-5320Y17842D01*
Y18042D01*
X-5290Y18043D01*
X-5261Y18047D01*
X-5232Y18054D01*
X-5203Y18064D01*
X-5175Y18076D01*
X-5147Y18090D01*
X-5120Y18108D01*
X-5092Y18128D01*
X-5065Y18151D01*
X-5039Y18176D01*
Y17708D01*
D02*
G37*
G36*
X4679Y17630D02*
X4643Y17643D01*
X4543Y17675D01*
X4511Y17683D01*
X4451Y17694D01*
X4422Y17697D01*
X4368Y17700D01*
X4267Y17900D01*
X4299Y17902D01*
X4328Y17906D01*
X4355Y17914D01*
X4380Y17924D01*
X4403Y17938D01*
X4424Y17955D01*
X4442Y17975D01*
X4458Y17998D01*
X4472Y18024D01*
X4484Y18053D01*
X4679Y17630D01*
D02*
G37*
G36*
X-1899Y17819D02*
X-1893Y17811D01*
X-1883Y17803D01*
X-1869Y17797D01*
X-1851Y17792D01*
X-1829Y17787D01*
X-1803Y17784D01*
X-1739Y17780D01*
X-1701Y17779D01*
Y17579D01*
X-1739Y17579D01*
X-1829Y17572D01*
X-1851Y17567D01*
X-1869Y17562D01*
X-1883Y17555D01*
X-1893Y17548D01*
X-1899Y17540D01*
X-1901Y17531D01*
Y17828D01*
X-1899Y17819D01*
D02*
G37*
G36*
X-2475Y17529D02*
X-2480Y17525D01*
X-2485Y17519D01*
X-2489Y17510D01*
X-2492Y17498D01*
X-2495Y17484D01*
X-2497Y17467D01*
X-2500Y17425D01*
X-2500Y17400D01*
X-2700D01*
X-2700Y17425D01*
X-2705Y17484D01*
X-2708Y17498D01*
X-2711Y17510D01*
X-2715Y17519D01*
X-2720Y17525D01*
X-2725Y17529D01*
X-2731Y17531D01*
X-2469D01*
X-2475Y17529D01*
D02*
G37*
G36*
X-110Y17529D02*
X-119Y17523D01*
X-126Y17513D01*
X-132Y17499D01*
X-138Y17481D01*
X-142Y17459D01*
X-146Y17433D01*
X-150Y17369D01*
X-150Y17331D01*
X-350D01*
X-350Y17369D01*
X-358Y17459D01*
X-362Y17481D01*
X-368Y17499D01*
X-374Y17513D01*
X-381Y17523D01*
X-390Y17529D01*
X-399Y17531D01*
X-101D01*
X-110Y17529D01*
D02*
G37*
G36*
X-949Y17531D02*
X-651D01*
X-660Y17529D01*
X-669Y17523D01*
X-676Y17513D01*
X-682Y17499D01*
X-688Y17481D01*
X-692Y17459D01*
X-696Y17433D01*
X-700Y17369D01*
X-700Y17331D01*
X-900D01*
X-900Y17369D01*
X-908Y17459D01*
X-912Y17481D01*
X-918Y17499D01*
X-924Y17513D01*
X-931Y17523D01*
X-940Y17529D01*
X-949Y17531D01*
X-951Y17540D01*
X-957Y17548D01*
X-967Y17555D01*
X-981Y17562D01*
X-999Y17567D01*
X-1021Y17572D01*
X-1047Y17575D01*
X-1111Y17579D01*
X-1149Y17579D01*
Y17779D01*
X-1111Y17780D01*
X-1021Y17787D01*
X-999Y17792D01*
X-981Y17797D01*
X-967Y17803D01*
X-957Y17811D01*
X-951Y17819D01*
X-949Y17828D01*
Y17531D01*
D02*
G37*
G36*
X6674Y17696D02*
X6695Y17680D01*
X6717Y17665D01*
X6740Y17652D01*
X6765Y17641D01*
X6790Y17633D01*
X6816Y17626D01*
X6844Y17621D01*
X6872Y17619D01*
X6901Y17618D01*
X6609Y17326D01*
X6608Y17355D01*
X6606Y17383D01*
X6601Y17411D01*
X6594Y17437D01*
X6586Y17462D01*
X6575Y17487D01*
X6562Y17510D01*
X6547Y17532D01*
X6531Y17553D01*
X6512Y17574D01*
X6653Y17715D01*
X6674Y17696D01*
D02*
G37*
G36*
X-9508Y17574D02*
X-9526Y17553D01*
X-9543Y17532D01*
X-9558Y17510D01*
X-9570Y17487D01*
X-9581Y17462D01*
X-9590Y17437D01*
X-9597Y17411D01*
X-9601Y17383D01*
X-9604Y17355D01*
X-9605Y17326D01*
X-9897Y17618D01*
X-9868Y17619D01*
X-9839Y17621D01*
X-9812Y17626D01*
X-9786Y17633D01*
X-9760Y17641D01*
X-9736Y17652D01*
X-9713Y17665D01*
X-9690Y17680D01*
X-9669Y17696D01*
X-9649Y17715D01*
X-9508Y17574D01*
D02*
G37*
G36*
X10136Y17509D02*
X10158Y17491D01*
X10181Y17475D01*
X10204Y17461D01*
X10229Y17449D01*
X10253Y17440D01*
X10279Y17432D01*
X10305Y17427D01*
X10332Y17424D01*
X10359Y17423D01*
Y17223D01*
X10332Y17222D01*
X10305Y17218D01*
X10279Y17213D01*
X10253Y17206D01*
X10229Y17196D01*
X10204Y17184D01*
X10181Y17170D01*
X10158Y17154D01*
X10136Y17136D01*
X10115Y17116D01*
Y17529D01*
X10136Y17509D01*
D02*
G37*
G36*
X-10111Y17116D02*
X-10132Y17136D01*
X-10154Y17154D01*
X-10177Y17170D01*
X-10200Y17184D01*
X-10224Y17196D01*
X-10249Y17206D01*
X-10274Y17213D01*
X-10301Y17218D01*
X-10327Y17222D01*
X-10355Y17223D01*
Y17423D01*
X-10327Y17424D01*
X-10301Y17427D01*
X-10274Y17432D01*
X-10249Y17440D01*
X-10224Y17449D01*
X-10200Y17461D01*
X-10177Y17475D01*
X-10154Y17491D01*
X-10132Y17509D01*
X-10111Y17529D01*
Y17116D01*
D02*
G37*
G36*
X7839Y17035D02*
X7826Y17036D01*
X7811Y17036D01*
X7796Y17033D01*
X7780Y17028D01*
X7764Y17020D01*
X7747Y17011D01*
X7729Y16998D01*
X7710Y16984D01*
X7691Y16967D01*
X7671Y16948D01*
X7529Y17089D01*
X7549Y17109D01*
X7580Y17147D01*
X7592Y17165D01*
X7602Y17182D01*
X7610Y17199D01*
X7615Y17214D01*
X7618Y17230D01*
X7618Y17244D01*
X7616Y17258D01*
X7839Y17035D01*
D02*
G37*
G36*
X-150Y17178D02*
X-139Y17024D01*
X-136Y17018D01*
X-133Y17016D01*
X-367D01*
X-364Y17018D01*
X-361Y17024D01*
X-358Y17034D01*
X-356Y17048D01*
X-354Y17066D01*
X-351Y17144D01*
X-350Y17216D01*
X-150D01*
X-150Y17178D01*
D02*
G37*
G36*
X-699D02*
X-694Y17114D01*
X-689Y17088D01*
X-683Y17066D01*
X-676Y17048D01*
X-667Y17034D01*
X-657Y17024D01*
X-646Y17018D01*
X-633Y17016D01*
X-867D01*
X-873Y17018D01*
X-879Y17024D01*
X-884Y17034D01*
X-888Y17048D01*
X-892Y17066D01*
X-895Y17088D01*
X-899Y17144D01*
X-900Y17216D01*
X-700D01*
X-699Y17178D01*
D02*
G37*
G36*
X508Y16859D02*
X481Y16830D01*
X457Y16802D01*
X436Y16774D01*
X418Y16746D01*
X408Y16728D01*
X457Y16676D01*
X508Y16625D01*
X371Y16479D01*
X370Y16480D01*
X370Y16480D01*
X369Y16481D01*
X368Y16481D01*
X368Y16480D01*
X368Y16480D01*
X367Y16479D01*
X367Y16478D01*
X367Y16477D01*
X367Y16475D01*
Y16576D01*
Y17016D01*
X368Y17014D01*
X373Y17016D01*
X380Y17021D01*
X390Y17028D01*
X418Y17054D01*
X508Y17141D01*
Y16859D01*
D02*
G37*
G36*
X9200Y17290D02*
X9203Y17262D01*
X9208Y17235D01*
X9214Y17208D01*
X9223Y17183D01*
X9234Y17159D01*
X9247Y17135D01*
X9261Y17113D01*
X9278Y17092D01*
X9297Y17072D01*
X9155Y16930D01*
X9135Y16949D01*
X9114Y16966D01*
X9092Y16980D01*
X9068Y16993D01*
X9044Y17004D01*
X9019Y17013D01*
X8992Y17019D01*
X8965Y17024D01*
X8937Y17027D01*
X8907Y17027D01*
X9200Y17320D01*
X9200Y17290D01*
D02*
G37*
G36*
X-8903Y17027D02*
X-8932Y17027D01*
X-8961Y17024D01*
X-8988Y17019D01*
X-9014Y17013D01*
X-9040Y17004D01*
X-9064Y16993D01*
X-9087Y16980D01*
X-9110Y16966D01*
X-9131Y16949D01*
X-9151Y16930D01*
X-9292Y17072D01*
X-9274Y17092D01*
X-9257Y17113D01*
X-9242Y17135D01*
X-9230Y17159D01*
X-9219Y17183D01*
X-9210Y17208D01*
X-9203Y17235D01*
X-9199Y17262D01*
X-9196Y17290D01*
X-9195Y17320D01*
X-8903Y17027D01*
D02*
G37*
G36*
X-6765Y17060D02*
X-6783Y17050D01*
X-6820Y17027D01*
X-6839Y17014D01*
X-6897Y16967D01*
X-6918Y16949D01*
X-6959Y16910D01*
X-7195Y16956D01*
X-7176Y16977D01*
X-7159Y16999D01*
X-7146Y17020D01*
X-7137Y17042D01*
X-7131Y17063D01*
X-7128Y17084D01*
X-7129Y17106D01*
X-7134Y17127D01*
X-7141Y17148D01*
X-7153Y17170D01*
X-6765Y17060D01*
D02*
G37*
G36*
X7091Y17091D02*
X7073Y17069D01*
X7057Y17046D01*
X7043Y17023D01*
X7031Y16998D01*
X7021Y16974D01*
X7014Y16948D01*
X7009Y16922D01*
X7005Y16895D01*
X7004Y16868D01*
X6804D01*
X6803Y16895D01*
X6800Y16922D01*
X6795Y16948D01*
X6787Y16974D01*
X6778Y16998D01*
X6766Y17023D01*
X6752Y17046D01*
X6736Y17069D01*
X6718Y17091D01*
X6698Y17112D01*
X7111D01*
X7091Y17091D01*
D02*
G37*
G36*
X-5329Y17638D02*
X-5309Y17637D01*
X-5298Y17636D01*
X-5287Y17633D01*
X-5275Y17630D01*
X-5263Y17624D01*
X-5249Y17617D01*
X-5235Y17608D01*
X-5219Y17596D01*
X-5202Y17582D01*
X-5180Y17561D01*
X-5152Y17543D01*
X-5150Y17536D01*
X-5169Y17493D01*
X-5335D01*
Y16423D01*
X-5104D01*
X-5104Y16419D01*
X-5103Y16414D01*
Y15175D01*
X-5104Y15169D01*
X-5104Y15165D01*
X-5202D01*
Y14972D01*
X-5204Y14962D01*
X-5202Y14952D01*
Y14950D01*
X-5203Y14940D01*
X-5202Y14938D01*
Y14465D01*
Y14130D01*
X-5205Y14116D01*
X-5202Y14103D01*
Y13915D01*
X-5156D01*
X-5156Y13914D01*
X-5154Y13907D01*
Y13077D01*
X-5201Y13058D01*
X-5950Y13808D01*
X-5934Y13855D01*
X-5896Y13860D01*
X-5798Y13901D01*
X-5715Y13965D01*
X-5651Y14048D01*
X-5610Y14146D01*
X-5597Y14250D01*
X-5610Y14354D01*
X-5651Y14452D01*
X-5715Y14535D01*
X-5798Y14599D01*
X-5896Y14640D01*
X-5966Y14649D01*
X-5984Y14664D01*
X-5995Y14675D01*
X-6000Y14678D01*
X-6109Y14787D01*
X-6112Y14792D01*
X-6135Y14816D01*
X-6152Y14836D01*
X-6165Y14854D01*
X-6176Y14870D01*
X-6184Y14885D01*
X-6190Y14898D01*
X-6194Y14909D01*
X-6197Y14918D01*
X-6198Y14927D01*
X-6199Y14945D01*
X-6200Y14950D01*
Y15250D01*
X-7100D01*
Y14819D01*
X-7251D01*
X-7257Y14820D01*
X-7259Y14820D01*
Y14871D01*
X-7271Y14959D01*
X-7305Y15041D01*
X-7359Y15112D01*
X-7430Y15166D01*
X-7512Y15200D01*
X-7600Y15211D01*
X-7688Y15200D01*
X-7770Y15166D01*
X-7841Y15112D01*
X-7859D01*
X-7930Y15166D01*
X-8012Y15200D01*
X-8100Y15211D01*
X-8188Y15200D01*
X-8270Y15166D01*
X-8341Y15112D01*
X-8359D01*
X-8430Y15166D01*
X-8512Y15200D01*
X-8600Y15211D01*
X-8688Y15200D01*
X-8770Y15166D01*
X-8841Y15112D01*
X-8880Y15060D01*
X-8917Y15046D01*
X-8944Y15053D01*
X-9007Y15095D01*
X-9094Y15112D01*
X-9111Y15126D01*
X-9118Y15129D01*
X-9124Y15133D01*
X-9156Y15141D01*
X-9187Y15151D01*
X-9194Y15150D01*
X-9201Y15152D01*
X-9234Y15147D01*
X-9263Y15145D01*
X-9561Y15444D01*
X-9624Y15492D01*
X-9697Y15522D01*
X-9775Y15533D01*
X-12347D01*
Y16270D01*
X-11597Y17020D01*
X-10368D01*
X-10363Y17019D01*
X-10343Y17018D01*
X-10333Y17017D01*
X-10324Y17015D01*
X-10315Y17012D01*
X-10306Y17009D01*
X-10297Y17005D01*
X-10288Y16999D01*
X-10278Y16992D01*
X-10268Y16984D01*
X-10252Y16968D01*
X-10220Y16948D01*
X-10189Y16928D01*
X-10186Y16927D01*
X-10184Y16926D01*
X-10148Y16919D01*
X-10111Y16912D01*
X-10108Y16913D01*
X-10106Y16912D01*
X-10070Y16920D01*
X-10033Y16928D01*
X-10031Y16929D01*
X-10028Y16929D01*
X-10012Y16941D01*
X-10003Y16938D01*
X-9950Y16931D01*
Y17323D01*
X-9850D01*
Y16931D01*
X-9797Y16938D01*
X-9774Y16947D01*
X-9746Y16904D01*
X-9838Y16812D01*
X-10350D01*
Y16860D01*
X-11600D01*
Y16160D01*
X-11332D01*
X-11119Y15946D01*
X-11056Y15898D01*
X-10983Y15868D01*
X-10905Y15857D01*
X-10905Y15857D01*
X-7845D01*
X-7767Y15868D01*
X-7694Y15898D01*
X-7631Y15946D01*
X-7418Y16160D01*
X-7150D01*
Y16343D01*
X-7150Y16344D01*
X-7150Y16350D01*
Y16362D01*
X-7147Y16376D01*
X-7150Y16389D01*
Y16419D01*
X-7150Y16420D01*
X-7098Y16481D01*
X-7063Y16517D01*
X-7060Y16522D01*
X-6823Y16759D01*
X-6818Y16762D01*
X-6779Y16799D01*
X-6766Y16811D01*
X-6716Y16851D01*
X-6707Y16857D01*
X-6680Y16874D01*
X-6668Y16881D01*
X-6666Y16882D01*
X-6665Y16882D01*
X-6662Y16885D01*
X-6650Y16890D01*
X-6547Y16969D01*
X-6467Y17073D01*
X-6417Y17193D01*
X-6400Y17323D01*
X-6417Y17452D01*
X-6467Y17572D01*
X-6484Y17595D01*
X-6462Y17640D01*
X-5334D01*
X-5329Y17638D01*
D02*
G37*
G36*
X7700Y16821D02*
X7708Y16731D01*
X7712Y16709D01*
X7718Y16691D01*
X7724Y16677D01*
X7731Y16667D01*
X7740Y16661D01*
X7749Y16659D01*
X7451D01*
X7460Y16661D01*
X7469Y16667D01*
X7476Y16677D01*
X7482Y16691D01*
X7488Y16709D01*
X7492Y16731D01*
X7496Y16757D01*
X7500Y16821D01*
X7500Y16859D01*
X7700D01*
X7700Y16821D01*
D02*
G37*
G36*
X-7829Y17036D02*
X-7852Y17029D01*
X-7873Y17019D01*
X-7891Y17007D01*
X-7906Y16993D01*
X-7920Y16976D01*
X-7931Y16956D01*
X-7939Y16934D01*
X-7945Y16910D01*
X-7949Y16884D01*
X-7950Y16855D01*
X-7950Y16821D01*
X-7942Y16731D01*
X-7938Y16709D01*
X-7932Y16691D01*
X-7926Y16677D01*
X-7919Y16667D01*
X-7910Y16661D01*
X-7901Y16659D01*
X-8199D01*
X-8190Y16661D01*
X-8181Y16667D01*
X-8174Y16677D01*
X-8168Y16691D01*
X-8162Y16709D01*
X-8158Y16731D01*
X-8154Y16757D01*
X-8150Y16821D01*
X-8150Y16859D01*
X-7956D01*
X-8150Y16988D01*
X-8150Y17017D01*
X-8158Y17123D01*
X-8161Y17147D01*
X-8175Y17212D01*
X-8181Y17232D01*
X-7829Y17036D01*
D02*
G37*
G36*
X-7210Y16659D02*
X-7249Y16618D01*
X-7312Y16544D01*
X-7334Y16512D01*
X-7351Y16482D01*
X-7363Y16455D01*
X-7368Y16431D01*
Y16410D01*
X-7363Y16391D01*
X-7351Y16376D01*
X-7634Y16659D01*
X-7618Y16647D01*
X-7600Y16642D01*
X-7579D01*
X-7555Y16647D01*
X-7528Y16659D01*
X-7498Y16676D01*
X-7466Y16698D01*
X-7430Y16727D01*
X-7351Y16800D01*
X-7210Y16659D01*
D02*
G37*
G36*
X-1366Y16542D02*
X-1368Y16561D01*
X-1374Y16578D01*
X-1384Y16593D01*
X-1398Y16606D01*
X-1416Y16617D01*
X-1438Y16626D01*
X-1464Y16633D01*
X-1494Y16638D01*
X-1529Y16641D01*
X-1567Y16642D01*
Y16842D01*
X-1529Y16843D01*
X-1494Y16846D01*
X-1464Y16851D01*
X-1438Y16858D01*
X-1416Y16867D01*
X-1398Y16878D01*
X-1384Y16891D01*
X-1374Y16906D01*
X-1368Y16923D01*
X-1366Y16942D01*
Y16542D01*
D02*
G37*
G36*
X2758Y16650D02*
X2741Y16644D01*
X2726Y16634D01*
X2713Y16620D01*
X2702Y16602D01*
X2693Y16580D01*
X2686Y16554D01*
X2681Y16524D01*
X2678Y16489D01*
X2677Y16451D01*
X2477D01*
X2476Y16489D01*
X2473Y16524D01*
X2468Y16554D01*
X2461Y16580D01*
X2452Y16602D01*
X2441Y16620D01*
X2428Y16634D01*
X2413Y16644D01*
X2396Y16650D01*
X2377Y16652D01*
X2777D01*
X2758Y16650D01*
D02*
G37*
G36*
X4981Y16622D02*
X4964Y16616D01*
X4949Y16606D01*
X4936Y16592D01*
X4925Y16574D01*
X4916Y16552D01*
X4909Y16526D01*
X4904Y16496D01*
X4901Y16462D01*
X4900Y16424D01*
X4700D01*
X4699Y16462D01*
X4696Y16496D01*
X4691Y16526D01*
X4684Y16552D01*
X4675Y16574D01*
X4664Y16592D01*
X4651Y16606D01*
X4636Y16616D01*
X4619Y16622D01*
X4600Y16624D01*
X5000D01*
X4981Y16622D01*
D02*
G37*
G36*
X-4619D02*
X-4636Y16616D01*
X-4651Y16606D01*
X-4664Y16592D01*
X-4675Y16574D01*
X-4684Y16552D01*
X-4691Y16526D01*
X-4696Y16496D01*
X-4699Y16462D01*
X-4700Y16424D01*
X-4900D01*
X-4901Y16462D01*
X-4904Y16496D01*
X-4909Y16526D01*
X-4916Y16552D01*
X-4925Y16574D01*
X-4936Y16592D01*
X-4949Y16606D01*
X-4964Y16616D01*
X-4981Y16622D01*
X-5000Y16624D01*
X-4600D01*
X-4619Y16622D01*
D02*
G37*
G36*
X-136Y16465D02*
X-139Y16459D01*
X-142Y16449D01*
X-144Y16435D01*
X-146Y16417D01*
X-147Y16390D01*
X-146Y16383D01*
X-144Y16366D01*
X-140Y16350D01*
X-136Y16336D01*
X-130Y16323D01*
X-124Y16311D01*
X-118Y16301D01*
X-110Y16293D01*
X-150D01*
X-150Y16267D01*
X-350D01*
X-350Y16293D01*
X-390D01*
X-382Y16301D01*
X-376Y16311D01*
X-370Y16323D01*
X-364Y16336D01*
X-360Y16350D01*
X-356Y16366D01*
X-355Y16375D01*
X-361Y16459D01*
X-364Y16465D01*
X-367Y16467D01*
X-133D01*
X-136Y16465D01*
D02*
G37*
G36*
X8286Y16628D02*
X8281Y16610D01*
X8281Y16589D01*
X8287Y16565D01*
X8298Y16538D01*
X8315Y16508D01*
X8338Y16476D01*
X8366Y16440D01*
X8440Y16361D01*
X8299Y16220D01*
X8258Y16259D01*
X8184Y16322D01*
X8151Y16345D01*
X8122Y16362D01*
X8095Y16373D01*
X8071Y16379D01*
X8050Y16379D01*
X8031Y16373D01*
X8016Y16362D01*
X8298Y16644D01*
X8286Y16628D01*
D02*
G37*
G36*
X-2516Y15901D02*
X-2532Y15913D01*
X-2550Y15918D01*
X-2571D01*
X-2595Y15913D01*
X-2622Y15901D01*
X-2652Y15884D01*
X-2684Y15862D01*
X-2720Y15833D01*
X-2799Y15760D01*
X-2940Y15901D01*
X-2901Y15942D01*
X-2838Y16016D01*
X-2816Y16048D01*
X-2799Y16078D01*
X-2787Y16105D01*
X-2782Y16129D01*
Y16150D01*
X-2787Y16168D01*
X-2799Y16184D01*
X-2516Y15901D01*
D02*
G37*
G36*
X2678Y15620D02*
X2681Y15585D01*
X2686Y15555D01*
X2693Y15529D01*
X2702Y15507D01*
X2713Y15489D01*
X2726Y15475D01*
X2741Y15465D01*
X2758Y15459D01*
X2777Y15457D01*
X2377D01*
X2396Y15459D01*
X2413Y15465D01*
X2428Y15475D01*
X2441Y15489D01*
X2452Y15507D01*
X2461Y15529D01*
X2468Y15555D01*
X2473Y15585D01*
X2476Y15620D01*
X2477Y15658D01*
X2677D01*
X2678Y15620D01*
D02*
G37*
G36*
X-3438Y15120D02*
X-3479Y15078D01*
X-3547Y14999D01*
X-3575Y14961D01*
X-3598Y14925D01*
X-3617Y14891D01*
X-3632Y14857D01*
X-3643Y14826D01*
X-3649Y14796D01*
X-3652Y14767D01*
Y15332D01*
X-3650Y15307D01*
X-3646Y15287D01*
X-3639Y15273D01*
X-3629Y15264D01*
X-3616Y15261D01*
X-3600Y15264D01*
X-3582Y15273D01*
X-3560Y15287D01*
X-3536Y15307D01*
X-3509Y15332D01*
X-3438Y15120D01*
D02*
G37*
G36*
X2274Y15052D02*
X2272Y15071D01*
X2266Y15088D01*
X2256Y15103D01*
X2242Y15116D01*
X2224Y15127D01*
X2202Y15136D01*
X2176Y15143D01*
X2146Y15148D01*
X2112Y15151D01*
X2074Y15152D01*
Y15352D01*
X2112Y15353D01*
X2146Y15356D01*
X2176Y15361D01*
X2202Y15368D01*
X2224Y15377D01*
X2242Y15388D01*
X2256Y15401D01*
X2266Y15416D01*
X2272Y15433D01*
X2274Y15452D01*
Y15052D01*
D02*
G37*
G36*
X3900Y15126D02*
X3908Y15036D01*
X3912Y15014D01*
X3918Y14996D01*
X3924Y14982D01*
X3931Y14972D01*
X3940Y14966D01*
X3949Y14964D01*
X3651D01*
X3660Y14966D01*
X3669Y14972D01*
X3676Y14982D01*
X3682Y14996D01*
X3688Y15014D01*
X3692Y15036D01*
X3696Y15062D01*
X3700Y15126D01*
X3700Y15164D01*
X3900D01*
X3900Y15126D01*
D02*
G37*
G36*
X-4703Y14964D02*
X-5000Y14963D01*
X-4981Y14965D01*
X-4964Y14971D01*
X-4949Y14981D01*
X-4936Y14995D01*
X-4925Y15013D01*
X-4916Y15035D01*
X-4909Y15061D01*
X-4904Y15092D01*
X-4901Y15126D01*
X-4900Y15164D01*
X-4700D01*
X-4703Y14964D01*
D02*
G37*
G36*
X-12643Y15165D02*
X-12550D01*
X-12550Y15161D01*
X-12514Y15159D01*
X-12521Y15151D01*
X-12527Y15138D01*
X-12532Y15123D01*
X-12537Y15104D01*
X-12541Y15083D01*
X-12544Y15036D01*
X-12541Y14970D01*
X-12538Y14957D01*
X-12534Y14946D01*
X-12531Y14940D01*
X-12550D01*
X-12550Y14924D01*
X-12563Y14940D01*
X-12769D01*
X-12766Y14946D01*
X-12762Y14957D01*
X-12759Y14970D01*
X-12757Y14988D01*
X-12753Y15033D01*
X-12750Y15126D01*
X-12750Y15165D01*
X-12750D01*
X-12750Y15165D01*
X-12650D01*
X-12643Y15165D01*
D02*
G37*
G36*
X5418Y15150D02*
X5493Y15086D01*
X5526Y15063D01*
X5556Y15046D01*
X5583Y15034D01*
X5607Y15029D01*
X5627Y15030D01*
X5645Y15036D01*
X5659Y15049D01*
X5430Y14775D01*
X5658Y14502D01*
X5792D01*
X5784Y14501D01*
X5777Y14497D01*
X5770Y14490D01*
X5765Y14480D01*
X5760Y14467D01*
X5757Y14451D01*
X5754Y14432D01*
X5752Y14411D01*
X5750Y14360D01*
X5550D01*
X5550Y14387D01*
X5546Y14432D01*
X5543Y14451D01*
X5540Y14467D01*
X5535Y14480D01*
X5530Y14489D01*
X5526Y14487D01*
X5493Y14464D01*
X5457Y14435D01*
X5376Y14360D01*
X5260Y14526D01*
X5298Y14566D01*
X5359Y14638D01*
X5381Y14670D01*
X5398Y14700D01*
X5410Y14727D01*
X5416Y14751D01*
X5416Y14758D01*
X5401Y14741D01*
X5411Y14758D01*
X5416Y14775D01*
X5411Y14792D01*
X5401Y14809D01*
X5416Y14792D01*
X5416Y14799D01*
X5410Y14823D01*
X5398Y14850D01*
X5381Y14880D01*
X5359Y14912D01*
X5331Y14947D01*
X5298Y14984D01*
X5260Y15024D01*
X5376Y15190D01*
X5418Y15150D01*
D02*
G37*
G36*
X-4701Y14955D02*
X-4695Y14946D01*
X-4685Y14939D01*
X-4671Y14933D01*
X-4653Y14927D01*
X-4631Y14923D01*
X-4605Y14919D01*
X-4541Y14915D01*
X-4503Y14915D01*
Y14715D01*
X-4541Y14715D01*
X-4631Y14707D01*
X-4653Y14703D01*
X-4671Y14697D01*
X-4685Y14691D01*
X-4695Y14684D01*
X-4701Y14675D01*
X-4703Y14666D01*
Y14964D01*
X-4701Y14955D01*
D02*
G37*
G36*
X-4139Y14615D02*
X-4141Y14634D01*
X-4147Y14651D01*
X-4157Y14666D01*
X-4171Y14679D01*
X-4189Y14690D01*
X-4211Y14699D01*
X-4238Y14706D01*
X-4268Y14711D01*
X-4302Y14714D01*
X-4340Y14715D01*
Y14915D01*
X-4302Y14916D01*
X-4268Y14919D01*
X-4238Y14924D01*
X-4211Y14931D01*
X-4189Y14940D01*
X-4171Y14951D01*
X-4157Y14964D01*
X-4147Y14979D01*
X-4141Y14996D01*
X-4139Y15015D01*
Y14615D01*
D02*
G37*
G36*
X-11016Y14874D02*
X-11014Y14859D01*
X-11011Y14846D01*
X-11007Y14837D01*
X-11002Y14831D01*
X-10997Y14827D01*
X-10989Y14827D01*
X-10981Y14830D01*
X-10972Y14837D01*
X-10962Y14846D01*
X-10871Y14654D01*
X-10898Y14626D01*
X-10944Y14572D01*
X-10962Y14547D01*
X-10978Y14522D01*
X-10991Y14498D01*
X-11001Y14475D01*
X-11008Y14454D01*
X-11012Y14432D01*
X-11013Y14412D01*
X-11016Y14893D01*
X-11016Y14874D01*
D02*
G37*
G36*
X-9348Y14946D02*
X-9321Y14922D01*
X-9296Y14905D01*
X-9275Y14893D01*
X-9256Y14888D01*
X-9241Y14888D01*
X-9229Y14894D01*
X-9220Y14906D01*
X-9214Y14924D01*
X-9211Y14949D01*
X-9237Y14409D01*
X-9237Y14436D01*
X-9240Y14464D01*
X-9247Y14491D01*
X-9256Y14519D01*
X-9269Y14547D01*
X-9285Y14576D01*
X-9304Y14604D01*
X-9326Y14633D01*
X-9351Y14663D01*
X-9379Y14692D01*
Y14975D01*
X-9348Y14946D01*
D02*
G37*
G36*
X9950Y14910D02*
X9976Y14888D01*
X9998Y14872D01*
X10018Y14862D01*
X10035Y14858D01*
X10049Y14860D01*
X10060Y14867D01*
X10068Y14880D01*
X10074Y14899D01*
X10076Y14924D01*
X10063Y14371D01*
X10063Y14399D01*
X10059Y14426D01*
X10052Y14454D01*
X10042Y14482D01*
X10029Y14511D01*
X10014Y14539D01*
X9995Y14567D01*
X9973Y14596D01*
X9948Y14625D01*
X9921Y14654D01*
Y14937D01*
X9950Y14910D01*
D02*
G37*
G36*
X9288Y14811D02*
X9284Y14791D01*
X9286Y14769D01*
X9292Y14744D01*
X9304Y14717D01*
X9321Y14687D01*
X9343Y14655D01*
X9370Y14621D01*
X9402Y14584D01*
X9440Y14545D01*
X9343Y14360D01*
X9300Y14401D01*
X9223Y14467D01*
X9190Y14490D01*
X9160Y14507D01*
X9134Y14518D01*
X9110Y14524D01*
X9090Y14523D01*
X9073Y14516D01*
X9060Y14502D01*
X9298Y14828D01*
X9288Y14811D01*
D02*
G37*
G36*
X-9869Y14656D02*
X-9878Y14642D01*
X-9881Y14624D01*
X-9877Y14602D01*
X-9866Y14575D01*
X-9849Y14545D01*
X-9824Y14511D01*
X-9793Y14472D01*
X-9710Y14384D01*
X-9969Y14360D01*
X-10005Y14394D01*
X-10071Y14450D01*
X-10102Y14471D01*
X-10131Y14487D01*
X-10159Y14499D01*
X-10184Y14507D01*
X-10208Y14510D01*
X-10231Y14508D01*
X-10252Y14502D01*
X-9852Y14667D01*
X-9869Y14656D01*
D02*
G37*
G36*
X8189Y14697D02*
X8195Y14680D01*
X8205Y14665D01*
X8219Y14652D01*
X8237Y14641D01*
X8259Y14632D01*
X8285Y14625D01*
X8315Y14620D01*
X8350Y14617D01*
X8388Y14616D01*
Y14416D01*
X8350Y14415D01*
X8315Y14412D01*
X8285Y14407D01*
X8259Y14400D01*
X8237Y14391D01*
X8219Y14380D01*
X8205Y14367D01*
X8195Y14352D01*
X8189Y14335D01*
X8187Y14316D01*
Y14716D01*
X8189Y14697D01*
D02*
G37*
G36*
X-7461D02*
X-7455Y14680D01*
X-7445Y14665D01*
X-7431Y14652D01*
X-7413Y14641D01*
X-7391Y14632D01*
X-7365Y14625D01*
X-7335Y14620D01*
X-7300Y14617D01*
X-7262Y14616D01*
Y14416D01*
X-7300Y14415D01*
X-7335Y14412D01*
X-7365Y14407D01*
X-7391Y14400D01*
X-7413Y14391D01*
X-7431Y14380D01*
X-7445Y14367D01*
X-7455Y14352D01*
X-7461Y14335D01*
X-7463Y14316D01*
Y14716D01*
X-7461Y14697D01*
D02*
G37*
G36*
X-1870Y14662D02*
X-1878Y14646D01*
X-1880Y14626D01*
X-1875Y14603D01*
X-1864Y14577D01*
X-1846Y14547D01*
X-1822Y14513D01*
X-1793Y14476D01*
X-1714Y14392D01*
X-1918Y14313D01*
X-1956Y14350D01*
X-2026Y14409D01*
X-2058Y14431D01*
X-2087Y14448D01*
X-2114Y14459D01*
X-2139Y14466D01*
X-2162Y14468D01*
X-2183Y14464D01*
X-2201Y14456D01*
X-1856Y14675D01*
X-1870Y14662D01*
D02*
G37*
G36*
X-2563Y15661D02*
X-2546Y15647D01*
Y14254D01*
X-2202D01*
X-2193Y14252D01*
X-2187Y14254D01*
X-2160D01*
X-2150Y14247D01*
X-2093Y14199D01*
X-2059Y14166D01*
X-2054Y14163D01*
X-1789Y13898D01*
X-1817Y13855D01*
X-2948D01*
Y12475D01*
Y11096D01*
X-1805D01*
Y12103D01*
X-1779Y12117D01*
X-1772Y12125D01*
X-1763Y12131D01*
X-1747Y12155D01*
X-1735Y12170D01*
X-1733Y12171D01*
X-1701Y12171D01*
X-1695Y12173D01*
X-1638D01*
X-421Y10956D01*
X-418Y10952D01*
X-404Y10937D01*
X-398Y10928D01*
X-392Y10918D01*
X-386Y10907D01*
X-381Y10895D01*
X-377Y10880D01*
X-373Y10863D01*
X-370Y10844D01*
X-368Y10822D01*
X-368Y10792D01*
X-360Y10755D01*
X-352Y10717D01*
X-351Y10716D01*
X-351Y10714D01*
X-329Y10683D01*
X-308Y10651D01*
X-306Y10650D01*
X-305Y10649D01*
X-273Y10628D01*
X-242Y10607D01*
X-240Y10607D01*
X-238Y10606D01*
X-221Y10603D01*
X-209Y10573D01*
X-139Y10482D01*
X-48Y10412D01*
X-0Y10393D01*
X-10Y10343D01*
X-364D01*
Y9273D01*
X267D01*
X297Y9247D01*
Y8225D01*
X247Y8181D01*
X177Y8190D01*
X-177D01*
X-291Y8175D01*
X-397Y8131D01*
X-488Y8061D01*
X-558Y7970D01*
X-602Y7864D01*
X-617Y7750D01*
X-602Y7636D01*
X-558Y7530D01*
X-488Y7439D01*
X-397Y7369D01*
X-372Y7358D01*
X-359Y7310D01*
X-359Y7310D01*
X-389Y7237D01*
X-399Y7159D01*
Y6991D01*
X-1764Y5627D01*
X-1810Y5646D01*
Y6299D01*
X-4395D01*
Y3340D01*
X-3159D01*
X-3159Y3336D01*
X-3158Y3330D01*
Y2036D01*
X-3201Y2010D01*
X-3262Y2043D01*
X-3392Y2082D01*
X-3522Y2095D01*
X-3526Y2096D01*
X-3647Y2100D01*
X-3692Y2104D01*
X-3733Y2111D01*
X-3769Y2119D01*
X-3798Y2129D01*
X-3822Y2138D01*
X-3840Y2148D01*
X-3853Y2157D01*
X-3872Y2173D01*
X-3875Y2175D01*
X-5645Y3945D01*
Y4095D01*
X-5644Y4101D01*
X-5644Y4105D01*
X-4655D01*
Y6204D01*
X-4654Y6209D01*
X-4653Y6227D01*
X-4652Y6235D01*
X-4649Y6245D01*
X-4645Y6256D01*
X-4640Y6269D01*
X-4631Y6283D01*
X-4621Y6300D01*
X-4607Y6318D01*
X-4590Y6337D01*
X-4567Y6362D01*
X-4564Y6367D01*
X-4333Y6598D01*
X-3554D01*
Y8120D01*
X-3671D01*
X-3671Y8124D01*
X-3672Y8129D01*
Y8792D01*
X-3671Y8799D01*
X-3671Y8800D01*
X-3624D01*
Y8988D01*
X-3622Y9001D01*
X-3624Y9015D01*
Y9396D01*
X-3623Y9396D01*
X-3617Y9397D01*
X-2562D01*
X-2556Y9396D01*
X-2555Y9396D01*
Y9015D01*
X-2557Y9001D01*
X-2555Y8988D01*
Y8800D01*
X-2509D01*
X-2509Y8799D01*
X-2507Y8792D01*
Y8129D01*
X-2509Y8124D01*
X-2509Y8120D01*
X-2651D01*
Y6598D01*
X-1759D01*
Y8120D01*
X-1901D01*
X-1901Y8124D01*
X-1902Y8129D01*
Y8792D01*
X-1901Y8799D01*
X-1901Y8800D01*
X-1855D01*
Y8988D01*
X-1852Y9001D01*
X-1855Y9015D01*
Y9350D01*
Y10050D01*
X-2340D01*
X-2354Y10053D01*
X-2367Y10050D01*
X-2555D01*
Y10004D01*
X-2556Y10004D01*
X-2562Y10003D01*
X-3617D01*
X-3623Y10004D01*
X-3624Y10004D01*
Y10050D01*
X-3812D01*
X-3826Y10053D01*
X-3839Y10050D01*
X-3897D01*
X-4897Y11051D01*
Y11486D01*
X-4889Y11493D01*
X-4847Y11508D01*
X-4836Y11500D01*
X-4813Y11482D01*
X-4803Y11478D01*
X-4793Y11472D01*
X-4765Y11466D01*
X-4738Y11458D01*
X-4726Y11459D01*
X-4715Y11457D01*
X-4687Y11462D01*
X-4658Y11465D01*
X-4648Y11470D01*
X-4637Y11472D01*
X-4613Y11488D01*
X-4588Y11501D01*
X-4580Y11510D01*
X-4571Y11516D01*
X-4555Y11540D01*
X-4546Y11551D01*
X-4542Y11551D01*
X-4510Y11552D01*
X-4505Y11553D01*
X-4300D01*
X-4294Y11552D01*
X-4262Y11551D01*
X-4261Y11551D01*
X-4248Y11536D01*
X-4232Y11512D01*
X-4223Y11506D01*
X-4216Y11498D01*
X-4190Y11484D01*
Y11096D01*
X-3048D01*
Y12425D01*
X-4190D01*
Y12228D01*
X-4216Y12215D01*
X-4223Y12206D01*
X-4232Y12200D01*
X-4248Y12176D01*
X-4261Y12161D01*
X-4262Y12161D01*
X-4294Y12160D01*
X-4300Y12159D01*
X-4505D01*
X-4510Y12160D01*
X-4514Y12160D01*
Y12922D01*
X-4549D01*
Y13907D01*
X-4548Y13914D01*
X-4548Y13915D01*
X-4502D01*
Y14103D01*
X-4499Y14116D01*
X-4502Y14130D01*
Y14511D01*
X-4500Y14511D01*
X-4494Y14512D01*
X-4351D01*
X-4345Y14511D01*
X-4341Y14511D01*
Y14254D01*
X-3449D01*
Y14748D01*
X-3448Y14752D01*
X-3447Y14767D01*
X-3446Y14772D01*
X-3442Y14783D01*
X-3435Y14799D01*
X-3423Y14820D01*
X-3407Y14845D01*
X-3388Y14872D01*
X-3328Y14941D01*
X-3292Y14979D01*
X-3288Y14984D01*
X-2664Y15608D01*
X-2660Y15610D01*
X-2596Y15670D01*
X-2563Y15661D01*
D02*
G37*
G36*
X-6401Y14906D02*
X-6397Y14878D01*
X-6389Y14850D01*
X-6379Y14821D01*
X-6367Y14793D01*
X-6351Y14765D01*
X-6332Y14736D01*
X-6311Y14708D01*
X-6287Y14680D01*
X-6260Y14651D01*
Y14405D01*
X-6137Y14528D01*
X-6121Y14513D01*
X-6091Y14488D01*
X-6077Y14478D01*
X-6064Y14469D01*
X-6050Y14462D01*
X-6038Y14457D01*
X-6025Y14453D01*
X-6013Y14451D01*
X-6002Y14450D01*
X-6200Y14252D01*
X-6201Y14263D01*
X-6203Y14275D01*
X-6207Y14288D01*
X-6212Y14300D01*
X-6219Y14314D01*
X-6228Y14327D01*
X-6238Y14341D01*
X-6250Y14356D01*
X-6270Y14378D01*
X-6401Y14501D01*
X-6402Y14934D01*
X-6401Y14906D01*
D02*
G37*
G36*
X3951Y14405D02*
X3957Y14396D01*
X3967Y14389D01*
X3981Y14383D01*
X3999Y14377D01*
X4021Y14373D01*
X4047Y14369D01*
X4111Y14365D01*
X4149Y14365D01*
Y14165D01*
X4111Y14165D01*
X4021Y14157D01*
X3999Y14153D01*
X3981Y14147D01*
X3967Y14141D01*
X3957Y14134D01*
X3951Y14125D01*
X3949Y14116D01*
Y14414D01*
X3951Y14405D01*
D02*
G37*
G36*
X3934Y14116D02*
X3918Y14128D01*
X3900Y14133D01*
X3879D01*
X3855Y14128D01*
X3828Y14116D01*
X3798Y14099D01*
X3766Y14077D01*
X3730Y14048D01*
X3651Y13975D01*
X3510Y14116D01*
X3549Y14157D01*
X3612Y14231D01*
X3634Y14263D01*
X3651Y14293D01*
X3663Y14320D01*
X3668Y14344D01*
Y14365D01*
X3663Y14383D01*
X3651Y14399D01*
X3934Y14116D01*
D02*
G37*
G36*
X-12774Y14108D02*
X-12776Y14133D01*
X-12782Y14152D01*
X-12790Y14166D01*
X-12801Y14173D01*
X-12815Y14175D01*
X-12832Y14171D01*
X-12852Y14161D01*
X-12874Y14145D01*
X-12900Y14123D01*
X-12929Y14096D01*
Y14379D01*
X-12902Y14408D01*
X-12877Y14436D01*
X-12855Y14465D01*
X-12836Y14494D01*
X-12821Y14522D01*
X-12808Y14550D01*
X-12798Y14578D01*
X-12791Y14606D01*
X-12787Y14634D01*
X-12787Y14661D01*
X-12774Y14108D01*
D02*
G37*
G36*
X-133Y14184D02*
X-50Y13984D01*
X-250D01*
X-251Y14022D01*
X-254Y14056D01*
X-259Y14086D01*
X-266Y14112D01*
X-275Y14135D01*
X-286Y14153D01*
X-299Y14167D01*
X-314Y14177D01*
X-331Y14183D01*
X-350Y14185D01*
X-133Y14184D01*
D02*
G37*
G36*
X-4712Y14114D02*
X-4721Y14108D01*
X-4728Y14098D01*
X-4734Y14084D01*
X-4740Y14066D01*
X-4744Y14044D01*
X-4748Y14018D01*
X-4751Y13954D01*
X-4752Y13916D01*
X-4952D01*
X-4952Y13954D01*
X-4960Y14044D01*
X-4964Y14066D01*
X-4969Y14084D01*
X-4976Y14098D01*
X-4983Y14108D01*
X-4991Y14114D01*
X-5001Y14116D01*
X-4703D01*
X-4712Y14114D01*
D02*
G37*
G36*
X500Y13855D02*
X508Y13765D01*
X512Y13743D01*
X518Y13725D01*
X524Y13711D01*
X531Y13701D01*
X540Y13695D01*
X549Y13693D01*
X251D01*
X260Y13695D01*
X269Y13701D01*
X276Y13711D01*
X282Y13725D01*
X288Y13743D01*
X292Y13765D01*
X296Y13791D01*
X300Y13855D01*
X300Y13893D01*
X500D01*
X500Y13855D01*
D02*
G37*
G36*
X-50D02*
X-42Y13765D01*
X-38Y13743D01*
X-32Y13725D01*
X-26Y13711D01*
X-19Y13701D01*
X-10Y13695D01*
X-1Y13693D01*
X-299D01*
X-290Y13695D01*
X-281Y13701D01*
X-274Y13711D01*
X-268Y13725D01*
X-262Y13743D01*
X-258Y13765D01*
X-254Y13791D01*
X-250Y13855D01*
X-250Y13893D01*
X-50D01*
X-50Y13855D01*
D02*
G37*
G36*
X3093Y13417D02*
X3053Y13375D01*
X2996Y13309D01*
Y13204D01*
X2974Y13203D01*
X2921Y13200D01*
X2914Y13187D01*
X2899Y13154D01*
X2889Y13123D01*
X2882Y13092D01*
X2880Y13063D01*
Y13188D01*
Y13419D01*
Y13629D01*
X2882Y13604D01*
X2886Y13584D01*
X2893Y13569D01*
X2903Y13561D01*
X2916Y13558D01*
X2931Y13561D01*
X2950Y13569D01*
X2971Y13584D01*
X2996Y13604D01*
X3023Y13629D01*
X3093Y13417D01*
D02*
G37*
G36*
X-861Y13540D02*
X-832Y13516D01*
X-817Y13506D01*
X-804Y13498D01*
X-790Y13491D01*
X-777Y13487D01*
X-765Y13484D01*
X-753Y13482D01*
X-741Y13483D01*
X-919Y13267D01*
X-921Y13277D01*
X-924Y13289D01*
X-928Y13300D01*
X-934Y13313D01*
X-942Y13326D01*
X-951Y13339D01*
X-962Y13353D01*
X-987Y13382D01*
X-1002Y13398D01*
X-877Y13555D01*
X-861Y13540D01*
D02*
G37*
G36*
X-12600Y13930D02*
X-12557Y13938D01*
X-12494Y13980D01*
X-12467Y13986D01*
X-12430Y13973D01*
X-12391Y13921D01*
X-12320Y13867D01*
X-12248Y13837D01*
X-12041Y13630D01*
X-11979Y13582D01*
X-11906Y13552D01*
X-11842Y13544D01*
X-11819Y13496D01*
X-11864Y13451D01*
X-11912Y13388D01*
X-11942Y13315D01*
X-11948Y13275D01*
X-11954Y13267D01*
X-11984Y13249D01*
X-12003Y13246D01*
X-12062Y13271D01*
X-12150Y13282D01*
X-12238Y13271D01*
X-12320Y13237D01*
X-12391Y13182D01*
X-12409D01*
X-12480Y13237D01*
X-12562Y13271D01*
X-12650Y13282D01*
X-12738Y13271D01*
X-12756Y13263D01*
X-12797Y13291D01*
Y13872D01*
X-12757Y13905D01*
X-12725Y13915D01*
X-12700Y13920D01*
Y14516D01*
X-12600D01*
Y13930D01*
D02*
G37*
G36*
X9250Y13605D02*
X9257Y13588D01*
X9270Y13574D01*
X9288Y13561D01*
X9310Y13550D01*
X9338Y13541D01*
X9371Y13534D01*
X9408Y13529D01*
X9451Y13526D01*
X9499Y13525D01*
Y13325D01*
X9451Y13324D01*
X9371Y13316D01*
X9338Y13309D01*
X9310Y13300D01*
X9288Y13289D01*
X9270Y13276D01*
X9257Y13262D01*
X9250Y13245D01*
X9247Y13226D01*
Y13624D01*
X9250Y13605D01*
D02*
G37*
G36*
X540Y13393D02*
X531Y13387D01*
X524Y13377D01*
X518Y13363D01*
X512Y13345D01*
X508Y13323D01*
X504Y13297D01*
X500Y13233D01*
X500Y13195D01*
X300D01*
X300Y13233D01*
X292Y13323D01*
X288Y13345D01*
X282Y13363D01*
X276Y13377D01*
X269Y13387D01*
X260Y13393D01*
X251Y13395D01*
X549D01*
X540Y13393D01*
D02*
G37*
G36*
X-10263Y13191D02*
X-10270Y13211D01*
X-10280Y13226D01*
X-10293Y13233D01*
X-10309Y13235D01*
X-10329Y13231D01*
X-10352Y13221D01*
X-10378Y13205D01*
X-10408Y13183D01*
X-10440Y13154D01*
X-10476Y13120D01*
X-10561Y13318D01*
X-10521Y13358D01*
X-10368Y13533D01*
X-10357Y13550D01*
X-10351Y13564D01*
X-10349Y13574D01*
X-10263Y13191D01*
D02*
G37*
G36*
X-6753Y13152D02*
X-6762Y13170D01*
X-6774Y13182D01*
X-6788Y13189D01*
X-6806Y13189D01*
X-6827Y13184D01*
X-6851Y13173D01*
X-6877Y13156D01*
X-6907Y13133D01*
X-6940Y13104D01*
X-6976Y13070D01*
X-7040Y13288D01*
X-7007Y13323D01*
X-6952Y13389D01*
X-6932Y13419D01*
X-6915Y13448D01*
X-6903Y13476D01*
X-6895Y13502D01*
X-6892Y13527D01*
X-6893Y13550D01*
X-6898Y13571D01*
X-6753Y13152D01*
D02*
G37*
G36*
X5294Y13203D02*
X5279Y13187D01*
X5255Y13158D01*
X5246Y13146D01*
X5239Y13134D01*
X5235Y13124D01*
X5233Y13114D01*
X5233Y13106D01*
X5235Y13099D01*
X5240Y13093D01*
X4982Y13111D01*
X5114Y13306D01*
X5294Y13203D01*
D02*
G37*
G36*
X-11550Y13197D02*
X-11541Y13041D01*
X-11538Y13027D01*
X-11534Y13017D01*
X-11531Y13010D01*
X-11769D01*
X-11766Y13017D01*
X-11762Y13027D01*
X-11759Y13041D01*
X-11757Y13059D01*
X-11753Y13104D01*
X-11750Y13197D01*
X-11750Y13236D01*
X-11550D01*
X-11550Y13197D01*
D02*
G37*
G36*
X-7321Y12725D02*
X-7348Y12696D01*
X-7373Y12667D01*
X-7395Y12638D01*
X-7414Y12610D01*
X-7429Y12581D01*
X-7442Y12553D01*
X-7452Y12525D01*
X-7459Y12497D01*
X-7463Y12470D01*
X-7463Y12442D01*
X-7476Y12995D01*
X-7474Y12970D01*
X-7468Y12951D01*
X-7460Y12938D01*
X-7449Y12930D01*
X-7435Y12929D01*
X-7418Y12933D01*
X-7398Y12943D01*
X-7376Y12959D01*
X-7350Y12980D01*
X-7321Y13008D01*
Y12725D01*
D02*
G37*
G36*
X-10871D02*
X-10898Y12696D01*
X-10923Y12667D01*
X-10945Y12638D01*
X-10964Y12610D01*
X-10979Y12581D01*
X-10992Y12553D01*
X-11002Y12525D01*
X-11009Y12497D01*
X-11013Y12470D01*
X-11013Y12442D01*
X-11026Y12995D01*
X-11024Y12970D01*
X-11018Y12951D01*
X-11010Y12938D01*
X-10999Y12930D01*
X-10985Y12929D01*
X-10968Y12933D01*
X-10948Y12943D01*
X-10926Y12959D01*
X-10900Y12980D01*
X-10871Y13008D01*
Y12725D01*
D02*
G37*
G36*
X2274Y12842D02*
X2272Y12844D01*
X2268Y12842D01*
X2261Y12838D01*
X2251Y12830D01*
X2223Y12805D01*
X2132Y12717D01*
Y13000D01*
X2159Y13028D01*
X2183Y13056D01*
X2204Y13084D01*
X2223Y13113D01*
X2238Y13141D01*
X2251Y13169D01*
X2261Y13198D01*
X2268Y13226D01*
X2272Y13254D01*
X2274Y13282D01*
Y12842D01*
D02*
G37*
G36*
X3692Y12751D02*
X3766Y12688D01*
X3798Y12666D01*
X3828Y12649D01*
X3855Y12637D01*
X3879Y12632D01*
X3900D01*
X3918Y12637D01*
X3934Y12649D01*
X3651Y12366D01*
X3663Y12382D01*
X3668Y12400D01*
Y12421D01*
X3663Y12445D01*
X3651Y12472D01*
X3634Y12502D01*
X3612Y12534D01*
X3583Y12570D01*
X3510Y12649D01*
X3651Y12790D01*
X3692Y12751D01*
D02*
G37*
G36*
X-1906Y12656D02*
X-1899Y12639D01*
X-1889Y12624D01*
X-1875Y12611D01*
X-1857Y12600D01*
X-1835Y12591D01*
X-1809Y12584D01*
X-1779Y12579D01*
X-1745Y12576D01*
X-1706Y12575D01*
Y12375D01*
X-1745Y12374D01*
X-1779Y12371D01*
X-1809Y12366D01*
X-1835Y12359D01*
X-1857Y12350D01*
X-1875Y12339D01*
X-1889Y12326D01*
X-1899Y12311D01*
X-1906Y12294D01*
X-1908Y12275D01*
Y12675D01*
X-1906Y12656D01*
D02*
G37*
G36*
X6426Y12179D02*
X6424Y12204D01*
X6418Y12223D01*
X6410Y12237D01*
X6399Y12244D01*
X6385Y12246D01*
X6368Y12241D01*
X6348Y12231D01*
X6326Y12216D01*
X6300Y12194D01*
X6271Y12167D01*
Y12449D01*
X6298Y12478D01*
X6323Y12507D01*
X6345Y12536D01*
X6364Y12565D01*
X6379Y12593D01*
X6392Y12621D01*
X6402Y12649D01*
X6409Y12677D01*
X6413Y12705D01*
X6413Y12732D01*
X6426Y12179D01*
D02*
G37*
G36*
X11816Y12157D02*
X11812Y12147D01*
X11809Y12133D01*
X11807Y12116D01*
X11803Y12071D01*
X11800Y11977D01*
X11800Y11939D01*
X11600D01*
X11600Y11977D01*
X11591Y12133D01*
X11588Y12147D01*
X11584Y12157D01*
X11581Y12164D01*
X11819D01*
X11816Y12157D01*
D02*
G37*
G36*
X7166D02*
X7162Y12147D01*
X7159Y12133D01*
X7157Y12116D01*
X7153Y12071D01*
X7150Y11977D01*
X7150Y11939D01*
X6950D01*
X6950Y11977D01*
X6941Y12133D01*
X6938Y12147D01*
X6934Y12157D01*
X6931Y12164D01*
X7169D01*
X7166Y12157D01*
D02*
G37*
G36*
X-7484D02*
X-7488Y12147D01*
X-7491Y12133D01*
X-7493Y12116D01*
X-7497Y12071D01*
X-7500Y11977D01*
X-7500Y11939D01*
X-7700D01*
X-7700Y11977D01*
X-7709Y12133D01*
X-7712Y12147D01*
X-7716Y12157D01*
X-7719Y12164D01*
X-7481D01*
X-7484Y12157D01*
D02*
G37*
G36*
X-8484D02*
X-8488Y12147D01*
X-8491Y12133D01*
X-8493Y12116D01*
X-8497Y12071D01*
X-8500Y11977D01*
X-8500Y11939D01*
X-8700D01*
X-8700Y11977D01*
X-8709Y12133D01*
X-8712Y12147D01*
X-8716Y12157D01*
X-8719Y12164D01*
X-8481D01*
X-8484Y12157D01*
D02*
G37*
G36*
X-8984D02*
X-8988Y12147D01*
X-8991Y12133D01*
X-8993Y12116D01*
X-8997Y12071D01*
X-9000Y11977D01*
X-9000Y11939D01*
X-9200D01*
X-9200Y11977D01*
X-9209Y12133D01*
X-9212Y12147D01*
X-9216Y12157D01*
X-9219Y12164D01*
X-8981D01*
X-8984Y12157D01*
D02*
G37*
G36*
X-11034D02*
X-11038Y12147D01*
X-11041Y12133D01*
X-11043Y12116D01*
X-11047Y12071D01*
X-11050Y11977D01*
X-11050Y11939D01*
X-11250D01*
X-11250Y11977D01*
X-11259Y12133D01*
X-11262Y12147D01*
X-11266Y12157D01*
X-11269Y12164D01*
X-11031D01*
X-11034Y12157D01*
D02*
G37*
G36*
X-12034D02*
X-12038Y12147D01*
X-12041Y12133D01*
X-12043Y12116D01*
X-12047Y12071D01*
X-12050Y11977D01*
X-12050Y11939D01*
X-12250D01*
X-12250Y11977D01*
X-12259Y12133D01*
X-12262Y12147D01*
X-12266Y12157D01*
X-12269Y12164D01*
X-12031D01*
X-12034Y12157D01*
D02*
G37*
G36*
X-12534D02*
X-12538Y12147D01*
X-12541Y12133D01*
X-12543Y12116D01*
X-12547Y12071D01*
X-12550Y11977D01*
X-12550Y11939D01*
X-12750D01*
X-12750Y11977D01*
X-12759Y12133D01*
X-12762Y12147D01*
X-12766Y12157D01*
X-12769Y12164D01*
X-12531D01*
X-12534Y12157D01*
D02*
G37*
G36*
X3934Y11801D02*
X3918Y11813D01*
X3900Y11818D01*
X3879D01*
X3855Y11813D01*
X3828Y11801D01*
X3798Y11784D01*
X3766Y11762D01*
X3730Y11733D01*
X3651Y11660D01*
X3510Y11801D01*
X3549Y11842D01*
X3612Y11916D01*
X3634Y11948D01*
X3651Y11978D01*
X3663Y12005D01*
X3668Y12029D01*
Y12050D01*
X3663Y12068D01*
X3651Y12084D01*
X3934Y11801D01*
D02*
G37*
G36*
X-4713Y12034D02*
X-4707Y12017D01*
X-4697Y12003D01*
X-4683Y11991D01*
X-4665Y11980D01*
X-4643Y11971D01*
X-4617Y11965D01*
X-4587Y11960D01*
X-4553Y11957D01*
X-4515Y11956D01*
Y11756D01*
X-4553Y11755D01*
X-4587Y11752D01*
X-4617Y11747D01*
X-4643Y11741D01*
X-4665Y11732D01*
X-4683Y11722D01*
X-4697Y11709D01*
X-4707Y11695D01*
X-4713Y11679D01*
X-4715Y11660D01*
Y12052D01*
X-4713Y12034D01*
D02*
G37*
G36*
X-4088Y11656D02*
X-4090Y11675D01*
X-4096Y11692D01*
X-4106Y11707D01*
X-4120Y11720D01*
X-4138Y11731D01*
X-4160Y11740D01*
X-4186Y11747D01*
X-4217Y11752D01*
X-4251Y11755D01*
X-4289Y11756D01*
Y11956D01*
X-4251Y11957D01*
X-4217Y11960D01*
X-4186Y11965D01*
X-4160Y11972D01*
X-4138Y11981D01*
X-4120Y11992D01*
X-4106Y12005D01*
X-4096Y12020D01*
X-4090Y12037D01*
X-4088Y12056D01*
Y11656D01*
D02*
G37*
G36*
X-12049Y11753D02*
X-12046Y11719D01*
X-12041Y11689D01*
X-12034Y11663D01*
X-12025Y11641D01*
X-12014Y11623D01*
X-12001Y11609D01*
X-11986Y11599D01*
X-11969Y11593D01*
X-11950Y11591D01*
X-12152D01*
X-12171Y11593D01*
X-12187Y11599D01*
X-12202Y11609D01*
X-12215Y11623D01*
X-12225Y11641D01*
X-12234Y11663D01*
X-12241Y11689D01*
X-12246Y11719D01*
X-12249Y11753D01*
X-12250Y11791D01*
X-12050D01*
X-12049Y11753D01*
D02*
G37*
G36*
X-7563Y11591D02*
X-7596Y11557D01*
X-7670Y11474D01*
X-7686Y11451D01*
X-7698Y11432D01*
X-7706Y11415D01*
X-7709Y11401D01*
X-7709Y11390D01*
X-7704Y11382D01*
X-7913Y11591D01*
X-7905Y11586D01*
X-7894Y11586D01*
X-7880Y11590D01*
X-7864Y11597D01*
X-7844Y11609D01*
X-7822Y11626D01*
X-7797Y11646D01*
X-7738Y11699D01*
X-7704Y11732D01*
X-7563Y11591D01*
D02*
G37*
G36*
X-11163D02*
X-11203Y11550D01*
X-11265Y11476D01*
X-11287Y11444D01*
X-11304Y11414D01*
X-11316Y11387D01*
X-11321Y11363D01*
Y11342D01*
X-11316Y11324D01*
X-11304Y11308D01*
X-11587Y11591D01*
X-11572Y11580D01*
X-11553Y11574D01*
X-11532D01*
X-11508Y11580D01*
X-11481Y11591D01*
X-11451Y11608D01*
X-11419Y11631D01*
X-11384Y11659D01*
X-11304Y11732D01*
X-11163Y11591D01*
D02*
G37*
G36*
X7151Y11753D02*
X7154Y11719D01*
X7159Y11689D01*
X7166Y11663D01*
X7175Y11641D01*
X7186Y11623D01*
X7199Y11609D01*
X7214Y11599D01*
X7231Y11593D01*
X7250Y11591D01*
X6998D01*
Y11293D01*
X6996Y11303D01*
X6990Y11311D01*
X6980Y11318D01*
X6966Y11325D01*
X6948Y11330D01*
X6926Y11334D01*
X6900Y11338D01*
X6836Y11342D01*
X6798Y11342D01*
Y11542D01*
X6836Y11543D01*
X6926Y11550D01*
X6948Y11554D01*
X6966Y11560D01*
X6980Y11566D01*
X6990Y11573D01*
X6996Y11582D01*
X6998Y11591D01*
X6989Y11593D01*
X6981Y11599D01*
X6974Y11609D01*
X6967Y11623D01*
X6962Y11641D01*
X6958Y11663D01*
X6954Y11689D01*
X6950Y11753D01*
X6950Y11791D01*
X7150D01*
X7151Y11753D01*
D02*
G37*
G36*
X500Y11237D02*
X501Y10849D01*
X166Y11125D01*
X-164Y10795D01*
X-164Y10832D01*
X-167Y10867D01*
X-172Y10901D01*
X-179Y10933D01*
X-189Y10963D01*
X-200Y10991D01*
X-214Y11018D01*
X-230Y11044D01*
X-248Y11067D01*
X-268Y11089D01*
X-126Y11231D01*
X-104Y11211D01*
X-81Y11193D01*
X-55Y11177D01*
X-28Y11163D01*
X0Y11152D01*
X30Y11142D01*
X62Y11135D01*
X96Y11130D01*
X131Y11127D01*
X165Y11127D01*
X190Y11129D01*
X213Y11135D01*
X233Y11144D01*
X251Y11156D01*
X266Y11172D01*
X278Y11191D01*
X288Y11214D01*
X295Y11240D01*
X299Y11269D01*
X300Y11302D01*
X500Y11237D01*
D02*
G37*
G36*
X7328Y10928D02*
X7313Y10912D01*
X7288Y10883D01*
X7278Y10868D01*
X7269Y10855D01*
X7262Y10841D01*
X7257Y10829D01*
X7253Y10816D01*
X7251Y10805D01*
X7250Y10793D01*
X7053Y10992D01*
X7064Y10993D01*
X7076Y10995D01*
X7089Y10999D01*
X7102Y11004D01*
X7115Y11011D01*
X7128Y11020D01*
X7143Y11030D01*
X7157Y11042D01*
X7188Y11070D01*
X7328Y10928D01*
D02*
G37*
G36*
X10950Y10011D02*
X10958Y9921D01*
X10962Y9899D01*
X10968Y9881D01*
X10974Y9867D01*
X10981Y9857D01*
X10990Y9851D01*
X10999Y9849D01*
X10701D01*
X10710Y9851D01*
X10719Y9857D01*
X10726Y9867D01*
X10732Y9881D01*
X10738Y9899D01*
X10742Y9921D01*
X10746Y9947D01*
X10750Y10011D01*
X10750Y10049D01*
X10950D01*
X10950Y10011D01*
D02*
G37*
G36*
X4146D02*
X4153Y9921D01*
X4157Y9899D01*
X4163Y9881D01*
X4169Y9867D01*
X4177Y9857D01*
X4185Y9851D01*
X4194Y9849D01*
X3896D01*
X3906Y9851D01*
X3914Y9857D01*
X3921Y9867D01*
X3928Y9881D01*
X3933Y9899D01*
X3937Y9921D01*
X3941Y9947D01*
X3945Y10011D01*
X3945Y10049D01*
X4145D01*
X4146Y10011D01*
D02*
G37*
G36*
X-9570D02*
X-9561Y9867D01*
X-9558Y9857D01*
X-9555Y9851D01*
X-9551Y9849D01*
X-9849D01*
X-9834Y9851D01*
X-9820Y9857D01*
X-9809Y9867D01*
X-9798Y9881D01*
X-9790Y9899D01*
X-9783Y9921D01*
X-9777Y9947D01*
X-9773Y9977D01*
X-9771Y10011D01*
X-9770Y10049D01*
X-9570D01*
X-9570Y10011D01*
D02*
G37*
G36*
X-12549Y10011D02*
X-12546Y9977D01*
X-12541Y9946D01*
X-12534Y9920D01*
X-12525Y9898D01*
X-12514Y9880D01*
X-12501Y9866D01*
X-12486Y9856D01*
X-12469Y9850D01*
X-12450Y9848D01*
X-12744Y9849D01*
X-12745Y9851D01*
X-12746Y9857D01*
X-12747Y9867D01*
X-12749Y9921D01*
X-12750Y10049D01*
X-12550D01*
X-12549Y10011D01*
D02*
G37*
G36*
X7195Y9849D02*
X7155Y9808D01*
X7092Y9734D01*
X7070Y9701D01*
X7053Y9672D01*
X7041Y9645D01*
X7035Y9621D01*
X7035Y9600D01*
X7041Y9581D01*
X7052Y9566D01*
X6770Y9848D01*
X6786Y9836D01*
X6804Y9831D01*
X6825Y9831D01*
X6849Y9837D01*
X6876Y9848D01*
X6906Y9865D01*
X6938Y9888D01*
X6974Y9916D01*
X7053Y9990D01*
X7195Y9849D01*
D02*
G37*
G36*
X11001Y9840D02*
X11007Y9831D01*
X11017Y9824D01*
X11031Y9818D01*
X11049Y9812D01*
X11071Y9808D01*
X11097Y9804D01*
X11161Y9800D01*
X11199Y9800D01*
Y9600D01*
X11161Y9600D01*
X11071Y9592D01*
X11049Y9588D01*
X11031Y9582D01*
X11017Y9576D01*
X11007Y9569D01*
X11001Y9560D01*
X10999Y9551D01*
Y9849D01*
X11001Y9840D01*
D02*
G37*
G36*
X9601Y9551D02*
X9599Y9560D01*
X9593Y9569D01*
X9583Y9576D01*
X9569Y9582D01*
X9551Y9588D01*
X9529Y9592D01*
X9503Y9596D01*
X9439Y9600D01*
X9401Y9600D01*
Y9800D01*
X9439Y9800D01*
X9529Y9808D01*
X9551Y9812D01*
X9569Y9818D01*
X9583Y9824D01*
X9593Y9831D01*
X9599Y9840D01*
X9601Y9849D01*
Y9551D01*
D02*
G37*
G36*
X8101Y9840D02*
X8107Y9831D01*
X8117Y9824D01*
X8131Y9818D01*
X8149Y9812D01*
X8171Y9808D01*
X8197Y9804D01*
X8261Y9800D01*
X8299Y9800D01*
Y9600D01*
X8261Y9600D01*
X8171Y9592D01*
X8149Y9588D01*
X8131Y9582D01*
X8117Y9576D01*
X8107Y9569D01*
X8101Y9560D01*
X8099Y9551D01*
Y9849D01*
X8101Y9840D01*
D02*
G37*
G36*
X6756Y9551D02*
X6754Y9560D01*
X6748Y9569D01*
X6738Y9576D01*
X6724Y9582D01*
X6706Y9588D01*
X6684Y9592D01*
X6658Y9596D01*
X6594Y9600D01*
X6556Y9600D01*
Y9800D01*
X6594Y9800D01*
X6684Y9808D01*
X6706Y9812D01*
X6724Y9818D01*
X6738Y9824D01*
X6748Y9831D01*
X6754Y9840D01*
X6756Y9849D01*
Y9551D01*
D02*
G37*
G36*
X5251Y9840D02*
X5257Y9831D01*
X5267Y9824D01*
X5281Y9818D01*
X5299Y9812D01*
X5321Y9808D01*
X5347Y9804D01*
X5411Y9800D01*
X5449Y9800D01*
Y9600D01*
X5411Y9600D01*
X5321Y9592D01*
X5299Y9588D01*
X5281Y9582D01*
X5267Y9576D01*
X5257Y9569D01*
X5251Y9560D01*
X5249Y9551D01*
Y9849D01*
X5251Y9840D01*
D02*
G37*
G36*
X3896Y9551D02*
X3894Y9560D01*
X3888Y9569D01*
X3878Y9576D01*
X3864Y9582D01*
X3846Y9588D01*
X3824Y9592D01*
X3798Y9596D01*
X3734Y9600D01*
X3696Y9600D01*
Y9800D01*
X3734Y9800D01*
X3824Y9808D01*
X3846Y9812D01*
X3864Y9818D01*
X3878Y9824D01*
X3888Y9831D01*
X3894Y9840D01*
X3896Y9849D01*
Y9551D01*
D02*
G37*
G36*
X2401Y9840D02*
X2407Y9831D01*
X2417Y9824D01*
X2431Y9818D01*
X2449Y9812D01*
X2471Y9808D01*
X2497Y9804D01*
X2561Y9800D01*
X2599Y9800D01*
Y9600D01*
X2561Y9600D01*
X2471Y9592D01*
X2449Y9588D01*
X2431Y9582D01*
X2417Y9576D01*
X2407Y9569D01*
X2401Y9560D01*
X2399Y9551D01*
Y9849D01*
X2401Y9840D01*
D02*
G37*
G36*
X-2354Y9551D02*
X-2356Y9560D01*
X-2362Y9569D01*
X-2372Y9576D01*
X-2386Y9582D01*
X-2404Y9588D01*
X-2426Y9592D01*
X-2452Y9596D01*
X-2516Y9600D01*
X-2554Y9600D01*
Y9800D01*
X-2516Y9800D01*
X-2426Y9808D01*
X-2404Y9812D01*
X-2386Y9818D01*
X-2372Y9824D01*
X-2362Y9831D01*
X-2356Y9840D01*
X-2354Y9849D01*
Y9551D01*
D02*
G37*
G36*
X-3824Y9840D02*
X-3818Y9831D01*
X-3808Y9824D01*
X-3794Y9818D01*
X-3776Y9812D01*
X-3754Y9808D01*
X-3728Y9804D01*
X-3664Y9800D01*
X-3626Y9800D01*
Y9600D01*
X-3664Y9600D01*
X-3754Y9592D01*
X-3776Y9588D01*
X-3794Y9582D01*
X-3808Y9576D01*
X-3818Y9569D01*
X-3824Y9560D01*
X-3826Y9551D01*
Y9849D01*
X-3824Y9840D01*
D02*
G37*
G36*
X-8049Y9551D02*
X-8051Y9560D01*
X-8057Y9569D01*
X-8067Y9576D01*
X-8081Y9582D01*
X-8099Y9588D01*
X-8121Y9592D01*
X-8147Y9596D01*
X-8211Y9600D01*
X-8249Y9600D01*
Y9800D01*
X-8211Y9800D01*
X-8121Y9808D01*
X-8099Y9812D01*
X-8081Y9818D01*
X-8067Y9824D01*
X-8057Y9831D01*
X-8051Y9840D01*
X-8049Y9849D01*
Y9551D01*
D02*
G37*
G36*
X-9549Y9840D02*
X-9543Y9831D01*
X-9533Y9824D01*
X-9519Y9818D01*
X-9501Y9812D01*
X-9479Y9808D01*
X-9453Y9804D01*
X-9389Y9800D01*
X-9351Y9800D01*
Y9600D01*
X-9389Y9600D01*
X-9479Y9592D01*
X-9501Y9588D01*
X-9519Y9582D01*
X-9533Y9576D01*
X-9543Y9569D01*
X-9549Y9560D01*
X-9551Y9551D01*
Y9849D01*
X-9549Y9840D01*
D02*
G37*
G36*
X-10944Y9551D02*
X-10946Y9560D01*
X-10952Y9569D01*
X-10962Y9576D01*
X-10976Y9582D01*
X-10994Y9588D01*
X-11016Y9592D01*
X-11042Y9596D01*
X-11106Y9600D01*
X-11144Y9600D01*
Y9800D01*
X-11106Y9800D01*
X-11016Y9808D01*
X-10994Y9812D01*
X-10976Y9818D01*
X-10962Y9824D01*
X-10952Y9831D01*
X-10946Y9840D01*
X-10944Y9849D01*
Y9551D01*
D02*
G37*
G36*
X-12444Y9840D02*
X-12438Y9831D01*
X-12428Y9824D01*
X-12414Y9818D01*
X-12396Y9812D01*
X-12374Y9808D01*
X-12348Y9804D01*
X-12284Y9800D01*
X-12246Y9800D01*
Y9600D01*
X-12284Y9600D01*
X-12374Y9592D01*
X-12396Y9588D01*
X-12414Y9582D01*
X-12428Y9576D01*
X-12438Y9569D01*
X-12444Y9560D01*
X-12446Y9551D01*
Y9849D01*
X-12444Y9840D01*
D02*
G37*
G36*
X501Y9659D02*
X502Y9650D01*
X507Y9638D01*
X515Y9623D01*
X527Y9605D01*
X543Y9585D01*
X587Y9535D01*
X646Y9474D01*
X504Y9333D01*
X472Y9364D01*
X373Y9452D01*
X356Y9464D01*
X341Y9472D01*
X329Y9477D01*
X319Y9478D01*
X313Y9474D01*
X504Y9666D01*
X501Y9659D01*
D02*
G37*
G36*
X8421Y9067D02*
X8486Y9011D01*
X8496Y9004D01*
X8505Y8998D01*
X8513Y8994D01*
X8520Y8991D01*
X8271Y8862D01*
X8274Y8874D01*
X8274Y8885D01*
X8273Y8897D01*
X8270Y8910D01*
X8265Y8923D01*
X8258Y8936D01*
X8249Y8950D01*
X8238Y8965D01*
X8225Y8980D01*
X8210Y8996D01*
X8406Y9083D01*
X8421Y9067D01*
D02*
G37*
G36*
X12790Y8999D02*
X12781Y8993D01*
X12774Y8983D01*
X12768Y8969D01*
X12762Y8951D01*
X12758Y8929D01*
X12754Y8903D01*
X12750Y8839D01*
X12750Y8801D01*
X12550D01*
X12550Y8839D01*
X12542Y8929D01*
X12538Y8951D01*
X12532Y8969D01*
X12526Y8983D01*
X12519Y8993D01*
X12510Y8999D01*
X12501Y9001D01*
X12799D01*
X12790Y8999D01*
D02*
G37*
G36*
X10990D02*
X10981Y8993D01*
X10974Y8983D01*
X10968Y8969D01*
X10962Y8951D01*
X10958Y8929D01*
X10954Y8903D01*
X10950Y8839D01*
X10950Y8801D01*
X10750D01*
X10750Y8839D01*
X10742Y8929D01*
X10738Y8951D01*
X10732Y8969D01*
X10726Y8983D01*
X10719Y8993D01*
X10710Y8999D01*
X10701Y9001D01*
X10999D01*
X10990Y8999D01*
D02*
G37*
G36*
X7044D02*
X7036Y8993D01*
X7028Y8983D01*
X7022Y8969D01*
X7017Y8951D01*
X7012Y8929D01*
X7009Y8903D01*
X7005Y8839D01*
X7004Y8801D01*
X6804D01*
X6804Y8839D01*
X6797Y8929D01*
X6792Y8951D01*
X6787Y8969D01*
X6780Y8983D01*
X6773Y8993D01*
X6765Y8999D01*
X6756Y9001D01*
X7053D01*
X7044Y8999D01*
D02*
G37*
G36*
X5240D02*
X5231Y8993D01*
X5224Y8983D01*
X5218Y8969D01*
X5212Y8951D01*
X5208Y8929D01*
X5204Y8903D01*
X5200Y8839D01*
X5200Y8801D01*
X5000D01*
X5000Y8839D01*
X4992Y8929D01*
X4988Y8951D01*
X4982Y8969D01*
X4976Y8983D01*
X4969Y8993D01*
X4960Y8999D01*
X4951Y9001D01*
X5249D01*
X5240Y8999D01*
D02*
G37*
G36*
X-2065D02*
X-2073Y8993D01*
X-2081Y8983D01*
X-2087Y8969D01*
X-2093Y8951D01*
X-2097Y8929D01*
X-2100Y8903D01*
X-2104Y8839D01*
X-2105Y8801D01*
X-2305D01*
X-2305Y8839D01*
X-2313Y8929D01*
X-2317Y8951D01*
X-2322Y8969D01*
X-2329Y8983D01*
X-2336Y8993D01*
X-2344Y8999D01*
X-2354Y9001D01*
X-2056D01*
X-2065Y8999D01*
D02*
G37*
G36*
X-3835D02*
X-3843Y8993D01*
X-3851Y8983D01*
X-3857Y8969D01*
X-3862Y8951D01*
X-3867Y8929D01*
X-3870Y8903D01*
X-3874Y8839D01*
X-3874Y8801D01*
X-4074D01*
X-4075Y8839D01*
X-4082Y8929D01*
X-4087Y8951D01*
X-4092Y8969D01*
X-4098Y8983D01*
X-4106Y8993D01*
X-4114Y8999D01*
X-4123Y9001D01*
X-3826D01*
X-3835Y8999D01*
D02*
G37*
G36*
X-7760D02*
X-7769Y8993D01*
X-7776Y8983D01*
X-7782Y8969D01*
X-7788Y8951D01*
X-7792Y8929D01*
X-7796Y8903D01*
X-7800Y8839D01*
X-7800Y8801D01*
X-8000D01*
X-8000Y8839D01*
X-8008Y8929D01*
X-8012Y8951D01*
X-8018Y8969D01*
X-8024Y8983D01*
X-8031Y8993D01*
X-8040Y8999D01*
X-8049Y9001D01*
X-7751D01*
X-7760Y8999D01*
D02*
G37*
G36*
X-9849Y9001D02*
X-9551D01*
X-9560Y8999D01*
X-9569Y8993D01*
X-9576Y8983D01*
X-9582Y8969D01*
X-9588Y8951D01*
X-9592Y8929D01*
X-9596Y8903D01*
X-9600Y8839D01*
X-9600Y8801D01*
X-9800D01*
X-9800Y8839D01*
X-9808Y8929D01*
X-9812Y8951D01*
X-9818Y8969D01*
X-9824Y8983D01*
X-9831Y8993D01*
X-9840Y8999D01*
X-9849Y9001D01*
X-9851Y9010D01*
X-9857Y9019D01*
X-9867Y9026D01*
X-9881Y9032D01*
X-9899Y9038D01*
X-9921Y9042D01*
X-9947Y9046D01*
X-10011Y9050D01*
X-10049Y9050D01*
Y9250D01*
X-10011Y9250D01*
X-9921Y9258D01*
X-9899Y9262D01*
X-9881Y9268D01*
X-9867Y9274D01*
X-9857Y9281D01*
X-9851Y9290D01*
X-9849Y9299D01*
Y9001D01*
D02*
G37*
G36*
X9890Y8999D02*
X9881Y8993D01*
X9874Y8983D01*
X9868Y8969D01*
X9862Y8951D01*
X9858Y8929D01*
X9854Y8903D01*
X9851Y8847D01*
X9851Y8845D01*
X9854Y8811D01*
X9859Y8781D01*
X9866Y8755D01*
X9875Y8733D01*
X9886Y8715D01*
X9899Y8701D01*
X9914Y8691D01*
X9931Y8685D01*
X9950Y8683D01*
X9550D01*
X9569Y8685D01*
X9586Y8691D01*
X9601Y8701D01*
X9614Y8715D01*
X9625Y8733D01*
X9634Y8755D01*
X9641Y8781D01*
X9646Y8811D01*
X9649Y8845D01*
X9649Y8845D01*
X9642Y8929D01*
X9638Y8951D01*
X9632Y8969D01*
X9626Y8983D01*
X9619Y8993D01*
X9610Y8999D01*
X9601Y9001D01*
X9899D01*
X9890Y8999D01*
D02*
G37*
G36*
X8090D02*
X8081Y8993D01*
X8074Y8983D01*
X8068Y8969D01*
X8062Y8951D01*
X8058Y8929D01*
X8054Y8903D01*
X8051Y8847D01*
X8051Y8845D01*
X8054Y8811D01*
X8059Y8781D01*
X8066Y8755D01*
X8075Y8733D01*
X8086Y8715D01*
X8099Y8701D01*
X8114Y8691D01*
X8131Y8685D01*
X8150Y8683D01*
X7750D01*
X7769Y8685D01*
X7786Y8691D01*
X7801Y8701D01*
X7814Y8715D01*
X7825Y8733D01*
X7834Y8755D01*
X7841Y8781D01*
X7846Y8811D01*
X7849Y8845D01*
X7849Y8845D01*
X7842Y8929D01*
X7838Y8951D01*
X7832Y8969D01*
X7826Y8983D01*
X7819Y8993D01*
X7810Y8999D01*
X7801Y9001D01*
X8099D01*
X8090Y8999D01*
D02*
G37*
G36*
X4185D02*
X4177Y8993D01*
X4169Y8983D01*
X4163Y8969D01*
X4157Y8951D01*
X4153Y8929D01*
X4150Y8903D01*
X4146Y8847D01*
X4146Y8845D01*
X4149Y8811D01*
X4154Y8781D01*
X4161Y8755D01*
X4170Y8733D01*
X4181Y8715D01*
X4194Y8701D01*
X4209Y8691D01*
X4226Y8685D01*
X4245Y8683D01*
X3845D01*
X3864Y8685D01*
X3881Y8691D01*
X3896Y8701D01*
X3909Y8715D01*
X3920Y8733D01*
X3929Y8755D01*
X3936Y8781D01*
X3941Y8811D01*
X3944Y8845D01*
X3944Y8845D01*
X3937Y8929D01*
X3933Y8951D01*
X3928Y8969D01*
X3921Y8983D01*
X3914Y8993D01*
X3906Y8999D01*
X3896Y9001D01*
X4194D01*
X4185Y8999D01*
D02*
G37*
G36*
X2390D02*
X2381Y8993D01*
X2374Y8983D01*
X2368Y8969D01*
X2362Y8951D01*
X2358Y8929D01*
X2354Y8903D01*
X2351Y8847D01*
X2351Y8845D01*
X2354Y8811D01*
X2359Y8781D01*
X2366Y8755D01*
X2375Y8733D01*
X2386Y8715D01*
X2399Y8701D01*
X2414Y8691D01*
X2431Y8685D01*
X2450Y8683D01*
X2050D01*
X2069Y8685D01*
X2086Y8691D01*
X2101Y8701D01*
X2114Y8715D01*
X2125Y8733D01*
X2134Y8755D01*
X2141Y8781D01*
X2146Y8811D01*
X2149Y8845D01*
X2149Y8845D01*
X2142Y8929D01*
X2138Y8951D01*
X2132Y8969D01*
X2126Y8983D01*
X2119Y8993D01*
X2110Y8999D01*
X2101Y9001D01*
X2399D01*
X2390Y8999D01*
D02*
G37*
G36*
X-4910D02*
X-4919Y8993D01*
X-4926Y8983D01*
X-4932Y8969D01*
X-4938Y8951D01*
X-4942Y8929D01*
X-4946Y8903D01*
X-4949Y8847D01*
X-4949Y8845D01*
X-4946Y8811D01*
X-4941Y8781D01*
X-4934Y8755D01*
X-4925Y8733D01*
X-4914Y8715D01*
X-4901Y8701D01*
X-4886Y8691D01*
X-4869Y8685D01*
X-4850Y8683D01*
X-5250D01*
X-5231Y8685D01*
X-5214Y8691D01*
X-5199Y8701D01*
X-5186Y8715D01*
X-5175Y8733D01*
X-5166Y8755D01*
X-5159Y8781D01*
X-5154Y8811D01*
X-5151Y8845D01*
X-5151Y8845D01*
X-5158Y8929D01*
X-5162Y8951D01*
X-5168Y8969D01*
X-5174Y8983D01*
X-5181Y8993D01*
X-5190Y8999D01*
X-5199Y9001D01*
X-4901D01*
X-4910Y8999D01*
D02*
G37*
G36*
X-6690D02*
X-6699Y8993D01*
X-6706Y8983D01*
X-6712Y8969D01*
X-6718Y8951D01*
X-6722Y8929D01*
X-6726Y8903D01*
X-6729Y8847D01*
X-6729Y8845D01*
X-6726Y8811D01*
X-6721Y8781D01*
X-6714Y8755D01*
X-6705Y8733D01*
X-6694Y8715D01*
X-6681Y8701D01*
X-6666Y8691D01*
X-6649Y8685D01*
X-6630Y8683D01*
X-7030D01*
X-7011Y8685D01*
X-6994Y8691D01*
X-6979Y8701D01*
X-6966Y8715D01*
X-6955Y8733D01*
X-6946Y8755D01*
X-6939Y8781D01*
X-6934Y8811D01*
X-6931Y8845D01*
X-6931Y8845D01*
X-6938Y8929D01*
X-6942Y8951D01*
X-6948Y8969D01*
X-6954Y8983D01*
X-6961Y8993D01*
X-6970Y8999D01*
X-6979Y9001D01*
X-6681D01*
X-6690Y8999D01*
D02*
G37*
G36*
X-10656D02*
X-10664Y8993D01*
X-10672Y8983D01*
X-10678Y8969D01*
X-10683Y8951D01*
X-10688Y8929D01*
X-10691Y8903D01*
X-10695Y8847D01*
X-10695Y8845D01*
X-10692Y8811D01*
X-10687Y8781D01*
X-10680Y8755D01*
X-10671Y8733D01*
X-10660Y8715D01*
X-10647Y8701D01*
X-10632Y8691D01*
X-10615Y8685D01*
X-10596Y8683D01*
X-10996D01*
X-10977Y8685D01*
X-10960Y8691D01*
X-10945Y8701D01*
X-10932Y8715D01*
X-10921Y8733D01*
X-10912Y8755D01*
X-10905Y8781D01*
X-10900Y8811D01*
X-10897Y8845D01*
X-10897Y8845D01*
X-10903Y8929D01*
X-10908Y8951D01*
X-10913Y8969D01*
X-10920Y8983D01*
X-10927Y8993D01*
X-10935Y8999D01*
X-10944Y9001D01*
X-10647D01*
X-10656Y8999D01*
D02*
G37*
G36*
X-12456D02*
X-12464Y8993D01*
X-12471Y8983D01*
X-12478Y8969D01*
X-12483Y8951D01*
X-12487Y8929D01*
X-12491Y8903D01*
X-12494Y8847D01*
X-12494Y8845D01*
X-12491Y8811D01*
X-12486Y8781D01*
X-12479Y8755D01*
X-12470Y8733D01*
X-12459Y8715D01*
X-12446Y8701D01*
X-12431Y8691D01*
X-12414Y8685D01*
X-12395Y8683D01*
X-12795D01*
X-12776Y8685D01*
X-12759Y8691D01*
X-12744Y8701D01*
X-12731Y8715D01*
X-12720Y8733D01*
X-12711Y8755D01*
X-12704Y8781D01*
X-12699Y8811D01*
X-12696Y8845D01*
X-12696Y8845D01*
X-12703Y8929D01*
X-12707Y8951D01*
X-12713Y8969D01*
X-12719Y8983D01*
X-12727Y8993D01*
X-12735Y8999D01*
X-12744Y9001D01*
X-12446D01*
X-12456Y8999D01*
D02*
G37*
G36*
X-6098Y8410D02*
X-6106Y8418D01*
X-6116Y8424D01*
X-6128Y8430D01*
X-6141Y8436D01*
X-6155Y8440D01*
X-6171Y8444D01*
X-6188Y8446D01*
X-6207Y8448D01*
X-6248Y8450D01*
Y8650D01*
X-6227Y8650D01*
X-6188Y8654D01*
X-6171Y8656D01*
X-6155Y8660D01*
X-6141Y8664D01*
X-6128Y8670D01*
X-6116Y8676D01*
X-6106Y8682D01*
X-6098Y8690D01*
Y8410D01*
D02*
G37*
G36*
X-6600Y8625D02*
X-6597Y8604D01*
X-6592Y8589D01*
X-6584Y8578D01*
X-6574Y8572D01*
X-6561Y8572D01*
X-6547Y8576D01*
X-6530Y8586D01*
X-6511Y8601D01*
X-6490Y8621D01*
X-6459Y8368D01*
X-6486Y8340D01*
X-6510Y8311D01*
X-6532Y8283D01*
X-6550Y8255D01*
X-6566Y8226D01*
X-6579Y8198D01*
X-6589Y8170D01*
X-6596Y8142D01*
X-6600Y8114D01*
X-6602Y8086D01*
Y8651D01*
X-6600Y8625D01*
D02*
G37*
G36*
X12751Y8080D02*
X12754Y8046D01*
X12759Y8016D01*
X12766Y7990D01*
X12775Y7968D01*
X12786Y7950D01*
X12799Y7936D01*
X12814Y7926D01*
X12831Y7920D01*
X12850Y7918D01*
X12450D01*
X12469Y7920D01*
X12486Y7926D01*
X12501Y7936D01*
X12514Y7950D01*
X12525Y7968D01*
X12534Y7990D01*
X12541Y8016D01*
X12546Y8046D01*
X12549Y8080D01*
X12550Y8118D01*
X12750D01*
X12751Y8080D01*
D02*
G37*
G36*
X10951D02*
X10954Y8046D01*
X10959Y8016D01*
X10966Y7990D01*
X10975Y7968D01*
X10986Y7950D01*
X10999Y7936D01*
X11014Y7926D01*
X11031Y7920D01*
X11050Y7918D01*
X10650D01*
X10669Y7920D01*
X10686Y7926D01*
X10701Y7936D01*
X10714Y7950D01*
X10725Y7968D01*
X10734Y7990D01*
X10741Y8016D01*
X10746Y8046D01*
X10749Y8080D01*
X10750Y8118D01*
X10950D01*
X10951Y8080D01*
D02*
G37*
G36*
X7005D02*
X7008Y8046D01*
X7013Y8016D01*
X7020Y7990D01*
X7029Y7968D01*
X7040Y7950D01*
X7053Y7936D01*
X7068Y7926D01*
X7085Y7920D01*
X7104Y7918D01*
X6704D01*
X6723Y7920D01*
X6740Y7926D01*
X6755Y7936D01*
X6768Y7950D01*
X6779Y7968D01*
X6788Y7990D01*
X6795Y8016D01*
X6800Y8046D01*
X6803Y8080D01*
X6804Y8118D01*
X7004D01*
X7005Y8080D01*
D02*
G37*
G36*
X5201D02*
X5204Y8046D01*
X5209Y8016D01*
X5216Y7990D01*
X5225Y7968D01*
X5236Y7950D01*
X5249Y7936D01*
X5264Y7926D01*
X5281Y7920D01*
X5300Y7918D01*
X4900D01*
X4919Y7920D01*
X4936Y7926D01*
X4951Y7936D01*
X4964Y7950D01*
X4975Y7968D01*
X4984Y7990D01*
X4991Y8016D01*
X4996Y8046D01*
X4999Y8080D01*
X5000Y8118D01*
X5200D01*
X5201Y8080D01*
D02*
G37*
G36*
X-2104D02*
X-2101Y8046D01*
X-2096Y8016D01*
X-2089Y7990D01*
X-2080Y7968D01*
X-2069Y7950D01*
X-2056Y7936D01*
X-2041Y7926D01*
X-2024Y7920D01*
X-2005Y7918D01*
X-2405D01*
X-2386Y7920D01*
X-2369Y7926D01*
X-2354Y7936D01*
X-2341Y7950D01*
X-2330Y7968D01*
X-2321Y7990D01*
X-2314Y8016D01*
X-2309Y8046D01*
X-2306Y8080D01*
X-2305Y8118D01*
X-2105D01*
X-2104Y8080D01*
D02*
G37*
G36*
X-3873D02*
X-3870Y8046D01*
X-3865Y8016D01*
X-3858Y7990D01*
X-3849Y7968D01*
X-3838Y7950D01*
X-3825Y7936D01*
X-3810Y7926D01*
X-3793Y7920D01*
X-3774Y7918D01*
X-4174D01*
X-4155Y7920D01*
X-4138Y7926D01*
X-4123Y7936D01*
X-4110Y7950D01*
X-4099Y7968D01*
X-4090Y7990D01*
X-4083Y8016D01*
X-4078Y8046D01*
X-4075Y8080D01*
X-4074Y8118D01*
X-3874D01*
X-3873Y8080D01*
D02*
G37*
G36*
X-7799D02*
X-7796Y8046D01*
X-7791Y8016D01*
X-7784Y7990D01*
X-7775Y7968D01*
X-7764Y7950D01*
X-7751Y7936D01*
X-7736Y7926D01*
X-7719Y7920D01*
X-7700Y7918D01*
X-8100D01*
X-8081Y7920D01*
X-8064Y7926D01*
X-8049Y7936D01*
X-8036Y7950D01*
X-8025Y7968D01*
X-8016Y7990D01*
X-8009Y8016D01*
X-8004Y8046D01*
X-8001Y8080D01*
X-8000Y8118D01*
X-7800D01*
X-7799Y8080D01*
D02*
G37*
G36*
X-9599D02*
X-9596Y8046D01*
X-9591Y8016D01*
X-9584Y7990D01*
X-9575Y7968D01*
X-9564Y7950D01*
X-9551Y7936D01*
X-9536Y7926D01*
X-9519Y7920D01*
X-9500Y7918D01*
X-9900D01*
X-9881Y7920D01*
X-9864Y7926D01*
X-9849Y7936D01*
X-9836Y7950D01*
X-9825Y7968D01*
X-9816Y7990D01*
X-9809Y8016D01*
X-9804Y8046D01*
X-9801Y8080D01*
X-9800Y8118D01*
X-9600D01*
X-9599Y8080D01*
D02*
G37*
G36*
X2005Y7564D02*
X2004Y7577D01*
X1999Y7587D01*
X1992Y7591D01*
X1983Y7592D01*
X1970Y7588D01*
X1954Y7579D01*
X1936Y7567D01*
X1915Y7549D01*
X1864Y7502D01*
Y7784D01*
X1891Y7813D01*
X1915Y7841D01*
X1936Y7870D01*
X1955Y7898D01*
X1971Y7926D01*
X1983Y7954D01*
X1993Y7983D01*
X2001Y8011D01*
X2005Y8039D01*
X2006Y8067D01*
X2005Y7564D01*
D02*
G37*
G36*
X4487Y10026D02*
X4478Y10003D01*
X4467Y9925D01*
Y9410D01*
X4478Y9331D01*
X4508Y9258D01*
X4556Y9196D01*
X4748Y9004D01*
X4747Y9001D01*
X4750Y8988D01*
Y8800D01*
X4796D01*
X4796Y8799D01*
X4797Y8792D01*
Y8129D01*
X4796Y8124D01*
X4796Y8120D01*
X4654D01*
Y7412D01*
X4653Y7407D01*
X4652Y7389D01*
X4651Y7381D01*
X4648Y7371D01*
X4644Y7360D01*
X4638Y7347D01*
X4630Y7333D01*
X4619Y7316D01*
X4606Y7298D01*
X4589Y7279D01*
X4566Y7254D01*
X4563Y7249D01*
X4377Y7064D01*
X1855D01*
Y4105D01*
X3346D01*
X3346Y4101D01*
X3347Y4095D01*
Y2102D01*
X3346Y2096D01*
X3346Y2092D01*
X2958D01*
Y1030D01*
X1581D01*
X1562Y1080D01*
X1611Y1172D01*
X1645Y1284D01*
X1651Y1350D01*
X471D01*
X478Y1284D01*
X511Y1172D01*
X561Y1080D01*
X541Y1030D01*
X-247D01*
Y2092D01*
X-635D01*
X-635Y2096D01*
X-636Y2102D01*
Y4438D01*
X-586Y4448D01*
X-558Y4380D01*
X-488Y4289D01*
X-397Y4219D01*
X-291Y4175D01*
X-177Y4160D01*
X177D01*
X291Y4175D01*
X397Y4219D01*
X488Y4289D01*
X558Y4380D01*
X602Y4487D01*
X617Y4600D01*
X602Y4714D01*
X558Y4820D01*
X488Y4912D01*
X397Y4981D01*
X372Y4992D01*
X359Y5040D01*
X359Y5040D01*
X389Y5113D01*
X399Y5191D01*
Y5585D01*
X389Y5663D01*
X359Y5735D01*
X324Y5781D01*
X359Y5828D01*
X389Y5900D01*
X399Y5978D01*
Y6147D01*
X712Y6460D01*
X759Y6441D01*
Y2194D01*
X758Y2190D01*
X756Y2165D01*
X753Y2150D01*
X747Y2130D01*
X737Y2106D01*
X723Y2079D01*
X704Y2048D01*
X681Y2016D01*
X613Y1937D01*
X571Y1894D01*
X550Y1862D01*
X528Y1829D01*
X528Y1828D01*
X528Y1828D01*
X520Y1789D01*
X513Y1751D01*
X513Y1750D01*
X513Y1749D01*
X521Y1711D01*
X528Y1673D01*
X529Y1673D01*
X529Y1672D01*
X532Y1667D01*
X511Y1628D01*
X478Y1516D01*
X471Y1450D01*
X1651D01*
X1645Y1516D01*
X1611Y1628D01*
X1590Y1666D01*
X1592Y1668D01*
X1592Y1671D01*
X1594Y1673D01*
X1601Y1709D01*
X1609Y1745D01*
X1609Y1748D01*
X1610Y1751D01*
X1602Y1787D01*
X1596Y1824D01*
X1595Y1826D01*
X1594Y1829D01*
X1574Y1860D01*
X1554Y1891D01*
X1471Y1979D01*
X1443Y2014D01*
X1419Y2048D01*
X1399Y2079D01*
X1385Y2106D01*
X1375Y2130D01*
X1369Y2150D01*
X1366Y2165D01*
X1365Y2190D01*
X1364Y2194D01*
Y6715D01*
X1999Y7350D01*
X2003Y7353D01*
X2012Y7361D01*
X2015Y7362D01*
X2026Y7361D01*
X2054Y7370D01*
X2083Y7375D01*
X2092Y7381D01*
X2102Y7384D01*
X2125Y7403D01*
X2149Y7419D01*
X2155Y7428D01*
X2163Y7435D01*
X2177Y7461D01*
X2178Y7463D01*
X2200D01*
Y8124D01*
X2250D01*
Y8174D01*
X2596D01*
Y8542D01*
X2610Y8564D01*
X2629Y8586D01*
X2632Y8596D01*
X2638Y8605D01*
X2644Y8634D01*
X2653Y8662D01*
X2652Y8673D01*
X2654Y8683D01*
X2648Y8712D01*
X2646Y8741D01*
X2641Y8751D01*
X2638Y8761D01*
X2622Y8786D01*
X2608Y8812D01*
X2600Y8819D01*
X2594Y8828D01*
X2580Y8837D01*
X2570Y8891D01*
X2577Y8908D01*
X2587Y8923D01*
X2591Y8944D01*
X2599Y8965D01*
X2599Y8983D01*
X2603Y9001D01*
X2598Y9022D01*
X2598Y9044D01*
X2591Y9061D01*
X2587Y9079D01*
X2575Y9097D01*
X2567Y9117D01*
X2553Y9130D01*
X2553Y9131D01*
Y9150D01*
X2542Y9228D01*
X2512Y9301D01*
X2535Y9350D01*
X2600D01*
Y9396D01*
X2601Y9396D01*
X2608Y9397D01*
X3688D01*
X3694Y9396D01*
X3695Y9396D01*
Y9015D01*
X3693Y9001D01*
X3695Y8988D01*
Y8885D01*
X3599D01*
Y7363D01*
X4491D01*
Y8885D01*
X4395D01*
Y8988D01*
X4398Y9001D01*
X4395Y9015D01*
Y9350D01*
Y9835D01*
X4398Y9849D01*
X4395Y9862D01*
Y10005D01*
X4445Y10054D01*
X4487Y10026D01*
D02*
G37*
G36*
X10606Y6831D02*
X10605Y6857D01*
X10601Y6877D01*
X10594Y6891D01*
X10584Y6899D01*
X10571Y6902D01*
X10555Y6899D01*
X10536Y6891D01*
X10515Y6877D01*
X10491Y6857D01*
X10464Y6831D01*
Y7114D01*
X10491Y7142D01*
X10515Y7171D01*
X10536Y7199D01*
X10555Y7227D01*
X10571Y7256D01*
X10584Y7284D01*
X10594Y7312D01*
X10601Y7340D01*
X10605Y7369D01*
X10606Y7397D01*
Y6831D01*
D02*
G37*
G36*
X4856D02*
X4855Y6857D01*
X4851Y6877D01*
X4843Y6891D01*
X4834Y6899D01*
X4821Y6902D01*
X4805Y6899D01*
X4786Y6891D01*
X4765Y6877D01*
X4741Y6857D01*
X4714Y6831D01*
Y7114D01*
X4741Y7142D01*
X4765Y7171D01*
X4786Y7199D01*
X4805Y7227D01*
X4821Y7256D01*
X4834Y7284D01*
X4843Y7312D01*
X4851Y7340D01*
X4855Y7369D01*
X4856Y7397D01*
Y6831D01*
D02*
G37*
G36*
X-4244D02*
X-4245Y6857D01*
X-4249Y6877D01*
X-4257Y6891D01*
X-4266Y6899D01*
X-4279Y6902D01*
X-4295Y6899D01*
X-4314Y6891D01*
X-4335Y6877D01*
X-4359Y6857D01*
X-4386Y6831D01*
Y7114D01*
X-4359Y7142D01*
X-4335Y7171D01*
X-4314Y7199D01*
X-4295Y7227D01*
X-4279Y7256D01*
X-4266Y7284D01*
X-4257Y7312D01*
X-4249Y7340D01*
X-4245Y7369D01*
X-4244Y7397D01*
Y6831D01*
D02*
G37*
G36*
X-9939D02*
X-9940Y6857D01*
X-9945Y6877D01*
X-9952Y6891D01*
X-9962Y6899D01*
X-9975Y6902D01*
X-9990Y6899D01*
X-10009Y6891D01*
X-10030Y6877D01*
X-10054Y6857D01*
X-10082Y6831D01*
Y7114D01*
X-10054Y7142D01*
X-10030Y7171D01*
X-10009Y7199D01*
X-9990Y7227D01*
X-9975Y7256D01*
X-9962Y7284D01*
X-9952Y7312D01*
X-9945Y7340D01*
X-9940Y7369D01*
X-9939Y7397D01*
Y6831D01*
D02*
G37*
G36*
X-4715Y6502D02*
X-4742Y6474D01*
X-4766Y6445D01*
X-4788Y6417D01*
X-4806Y6389D01*
X-4822Y6360D01*
X-4835Y6332D01*
X-4845Y6304D01*
X-4852Y6276D01*
X-4856Y6248D01*
X-4858Y6219D01*
Y6785D01*
X-4856Y6759D01*
X-4852Y6739D01*
X-4845Y6725D01*
X-4835Y6717D01*
X-4822Y6714D01*
X-4806Y6717D01*
X-4788Y6725D01*
X-4766Y6739D01*
X-4742Y6759D01*
X-4715Y6785D01*
Y6502D01*
D02*
G37*
G36*
X4380Y6498D02*
X4353Y6469D01*
X4329Y6441D01*
X4308Y6412D01*
X4289Y6384D01*
X4273Y6356D01*
X4261Y6327D01*
X4251Y6299D01*
X4243Y6271D01*
X4239Y6243D01*
X4238Y6215D01*
Y6780D01*
X4239Y6755D01*
X4243Y6735D01*
X4251Y6721D01*
X4261Y6712D01*
X4273Y6709D01*
X4289Y6712D01*
X4308Y6721D01*
X4329Y6735D01*
X4353Y6755D01*
X4380Y6780D01*
Y6498D01*
D02*
G37*
G36*
X-10465Y6448D02*
X-10492Y6419D01*
X-10516Y6391D01*
X-10538Y6362D01*
X-10556Y6334D01*
X-10572Y6306D01*
X-10585Y6277D01*
X-10595Y6249D01*
X-10602Y6221D01*
X-10606Y6193D01*
X-10608Y6165D01*
Y6730D01*
X-10606Y6705D01*
X-10602Y6685D01*
X-10595Y6671D01*
X-10585Y6662D01*
X-10572Y6659D01*
X-10556Y6662D01*
X-10538Y6671D01*
X-10516Y6685D01*
X-10492Y6705D01*
X-10465Y6730D01*
Y6448D01*
D02*
G37*
G36*
X7600Y9902D02*
Y9350D01*
X7665D01*
X7688Y9301D01*
X7658Y9228D01*
X7647Y9150D01*
Y9131D01*
X7647Y9130D01*
X7633Y9117D01*
X7625Y9097D01*
X7613Y9079D01*
X7609Y9061D01*
X7602Y9044D01*
X7602Y9022D01*
X7597Y9001D01*
X7601Y8983D01*
X7601Y8965D01*
X7609Y8944D01*
X7613Y8923D01*
X7623Y8908D01*
X7630Y8891D01*
X7620Y8837D01*
X7606Y8828D01*
X7600Y8819D01*
X7592Y8812D01*
X7578Y8786D01*
X7562Y8761D01*
X7559Y8751D01*
X7554Y8741D01*
X7552Y8712D01*
X7546Y8683D01*
X7548Y8673D01*
X7547Y8662D01*
X7556Y8634D01*
X7562Y8605D01*
X7568Y8596D01*
X7571Y8586D01*
X7590Y8564D01*
X7604Y8542D01*
Y8174D01*
X7950D01*
X8296D01*
Y8490D01*
X8346Y8523D01*
X8383Y8508D01*
X8461Y8497D01*
X8547D01*
X8547Y8497D01*
X8625Y8508D01*
X8698Y8538D01*
X8761Y8586D01*
X8809Y8649D01*
X8839Y8722D01*
X8849Y8800D01*
X8839Y8878D01*
X8809Y8951D01*
X8761Y9014D01*
X8708Y9067D01*
X8706Y9074D01*
X8703Y9079D01*
X8701Y9085D01*
X8680Y9111D01*
X8661Y9139D01*
X8655Y9142D01*
X8651Y9147D01*
X8622Y9163D01*
X8619Y9165D01*
X8612Y9171D01*
X8611Y9172D01*
X8560Y9217D01*
X8549Y9228D01*
X8547Y9229D01*
X8546Y9231D01*
X8541Y9234D01*
X8427Y9347D01*
X8448Y9397D01*
X9392D01*
X9399Y9396D01*
X9400Y9396D01*
Y9015D01*
X9397Y9001D01*
X9400Y8988D01*
Y8885D01*
X9299D01*
Y7363D01*
X10191D01*
Y8885D01*
X10100D01*
Y8988D01*
X10103Y9001D01*
X10100Y9015D01*
Y9397D01*
X10150Y9418D01*
X10500Y9068D01*
Y9015D01*
X10497Y9001D01*
X10500Y8988D01*
Y8800D01*
X10546D01*
X10546Y8799D01*
X10547Y8792D01*
Y8129D01*
X10546Y8124D01*
X10546Y8120D01*
X10404D01*
Y7412D01*
X10403Y7407D01*
X10402Y7389D01*
X10401Y7381D01*
X10398Y7371D01*
X10394Y7360D01*
X10388Y7347D01*
X10380Y7333D01*
X10369Y7316D01*
X10356Y7298D01*
X10339Y7279D01*
X10316Y7254D01*
X10313Y7249D01*
X10127Y7064D01*
X7555D01*
Y4105D01*
X7861D01*
X7881Y4058D01*
X7336Y3514D01*
X7290Y3533D01*
Y6299D01*
X4705D01*
Y3925D01*
X4686Y3878D01*
X4675Y3799D01*
Y3348D01*
X4674Y3341D01*
X4675Y3334D01*
Y1614D01*
X4388Y1327D01*
X4342Y1347D01*
Y2092D01*
X3954D01*
X3954Y2096D01*
X3953Y2102D01*
Y4095D01*
X3954Y4101D01*
X3954Y4105D01*
X4440D01*
Y6199D01*
X4441Y6204D01*
X4442Y6222D01*
X4444Y6230D01*
X4446Y6240D01*
X4450Y6251D01*
X4456Y6264D01*
X4464Y6278D01*
X4475Y6295D01*
X4488Y6313D01*
X4505Y6333D01*
X4528Y6357D01*
X4531Y6362D01*
X4767Y6598D01*
X5546D01*
Y8120D01*
X5404D01*
X5404Y8124D01*
X5403Y8129D01*
Y8792D01*
X5404Y8799D01*
X5404Y8800D01*
X5450D01*
Y8988D01*
X5453Y9001D01*
X5450Y9015D01*
Y9396D01*
X5451Y9396D01*
X5458Y9397D01*
X6547D01*
X6553Y9396D01*
X6554Y9396D01*
Y9015D01*
X6552Y9001D01*
X6554Y8988D01*
Y8800D01*
X6600D01*
X6600Y8799D01*
X6602Y8792D01*
Y8129D01*
X6600Y8124D01*
X6600Y8120D01*
X6449D01*
Y6598D01*
X7341D01*
Y8120D01*
X7208D01*
X7208Y8124D01*
X7207Y8129D01*
Y8792D01*
X7208Y8799D01*
X7208Y8800D01*
X7254D01*
Y8988D01*
X7257Y9001D01*
X7254Y9015D01*
Y9350D01*
Y9558D01*
X7256Y9566D01*
X7254Y9574D01*
Y9610D01*
X7306Y9671D01*
X7341Y9707D01*
X7345Y9712D01*
X7554Y9922D01*
X7600Y9902D01*
D02*
G37*
G36*
X-7434Y9486D02*
X-7371Y9438D01*
X-7298Y9408D01*
X-7220Y9397D01*
X-7180D01*
Y9350D01*
X-7115D01*
X-7092Y9301D01*
X-7122Y9228D01*
X-7133Y9150D01*
Y9131D01*
X-7133Y9130D01*
X-7146Y9117D01*
X-7155Y9097D01*
X-7167Y9079D01*
X-7171Y9061D01*
X-7178Y9044D01*
X-7178Y9022D01*
X-7183Y9001D01*
X-7179Y8983D01*
X-7179Y8965D01*
X-7171Y8944D01*
X-7167Y8923D01*
X-7157Y8908D01*
X-7150Y8891D01*
X-7160Y8837D01*
X-7174Y8828D01*
X-7180Y8819D01*
X-7188Y8812D01*
X-7202Y8786D01*
X-7218Y8761D01*
X-7221Y8751D01*
X-7226Y8741D01*
X-7228Y8712D01*
X-7234Y8683D01*
X-7232Y8673D01*
X-7233Y8662D01*
X-7224Y8634D01*
X-7218Y8605D01*
X-7212Y8596D01*
X-7209Y8586D01*
X-7191Y8565D01*
Y8174D01*
X-6845D01*
Y8124D01*
X-6795D01*
Y7463D01*
X-6499D01*
Y7913D01*
X-6495Y7916D01*
X-6465Y7934D01*
X-6462Y7938D01*
X-6457Y7941D01*
X-6438Y7970D01*
X-6417Y7998D01*
X-6416Y8003D01*
X-6413Y8008D01*
X-6406Y8042D01*
X-6398Y8075D01*
X-6397Y8093D01*
X-6396Y8101D01*
X-6393Y8111D01*
X-6389Y8122D01*
X-6384Y8135D01*
X-6376Y8149D01*
X-6365Y8166D01*
X-6351Y8184D01*
X-6334Y8203D01*
X-6311Y8228D01*
X-6308Y8233D01*
X-6294Y8247D01*
X-6261D01*
X-6256Y8246D01*
X-6221Y8245D01*
X-6215Y8244D01*
X-6210Y8243D01*
X-6209Y8243D01*
X-6204Y8240D01*
X-6176Y8222D01*
X-6170Y8220D01*
X-6165Y8217D01*
X-6131Y8213D01*
X-6098Y8206D01*
X-6092Y8207D01*
X-6086Y8206D01*
X-6053Y8215D01*
X-6020Y8222D01*
X-6015Y8225D01*
X-6009Y8227D01*
X-5982Y8247D01*
X-5981Y8247D01*
X-5955D01*
X-5877Y8258D01*
X-5804Y8288D01*
X-5741Y8336D01*
X-5693Y8399D01*
X-5663Y8472D01*
X-5652Y8550D01*
X-5663Y8628D01*
X-5693Y8701D01*
X-5741Y8764D01*
X-5804Y8812D01*
X-5877Y8842D01*
X-5955Y8853D01*
X-5981D01*
X-5982Y8853D01*
X-6009Y8873D01*
X-6015Y8875D01*
X-6020Y8878D01*
X-6053Y8885D01*
X-6086Y8894D01*
X-6092Y8893D01*
X-6098Y8894D01*
X-6131Y8887D01*
X-6165Y8883D01*
X-6170Y8880D01*
X-6176Y8878D01*
X-6204Y8860D01*
X-6209Y8857D01*
X-6210Y8857D01*
X-6213Y8856D01*
X-6237Y8854D01*
X-6252Y8854D01*
X-6258Y8853D01*
X-6419D01*
X-6469Y8846D01*
X-6509Y8880D01*
X-6510Y8891D01*
X-6503Y8908D01*
X-6493Y8923D01*
X-6489Y8944D01*
X-6481Y8965D01*
X-6481Y8983D01*
X-6477Y9001D01*
X-6482Y9022D01*
X-6482Y9044D01*
X-6489Y9061D01*
X-6493Y9079D01*
X-6505Y9097D01*
X-6513Y9117D01*
X-6527Y9130D01*
X-6527Y9131D01*
Y9150D01*
X-6538Y9228D01*
X-6568Y9301D01*
X-6545Y9350D01*
X-6480D01*
Y9397D01*
X-5400D01*
Y9015D01*
X-5403Y9001D01*
X-5400Y8988D01*
Y8885D01*
X-5496D01*
Y7363D01*
X-4604D01*
Y8885D01*
X-4700D01*
Y8988D01*
X-4697Y9001D01*
X-4700Y9015D01*
Y9216D01*
X-4654Y9235D01*
X-4355Y8936D01*
X-4324Y8913D01*
Y8800D01*
X-4278D01*
X-4278Y8799D01*
X-4277Y8792D01*
Y8129D01*
X-4278Y8124D01*
X-4278Y8120D01*
X-4446D01*
Y7412D01*
X-4447Y7407D01*
X-4448Y7389D01*
X-4449Y7381D01*
X-4452Y7371D01*
X-4456Y7360D01*
X-4462Y7347D01*
X-4470Y7333D01*
X-4481Y7316D01*
X-4494Y7298D01*
X-4511Y7279D01*
X-4534Y7254D01*
X-4537Y7249D01*
X-4723Y7064D01*
X-7240D01*
Y4105D01*
X-6252D01*
X-6251Y4101D01*
X-6250Y4095D01*
Y3820D01*
X-6240Y3742D01*
X-6210Y3669D01*
X-6162Y3606D01*
X-4980Y2425D01*
X-5001Y2375D01*
X-5925D01*
X-7414Y3864D01*
X-7417Y3868D01*
X-7440Y3893D01*
X-7457Y3912D01*
X-7471Y3930D01*
X-7481Y3947D01*
X-7489Y3961D01*
X-7495Y3974D01*
X-7499Y3986D01*
X-7502Y3995D01*
X-7503Y4004D01*
X-7504Y4022D01*
X-7505Y4026D01*
Y6299D01*
X-10090D01*
Y3978D01*
X-10136Y3959D01*
X-10405Y4228D01*
Y6149D01*
X-10404Y6154D01*
X-10403Y6172D01*
X-10402Y6180D01*
X-10399Y6190D01*
X-10395Y6201D01*
X-10390Y6214D01*
X-10381Y6228D01*
X-10371Y6245D01*
X-10357Y6263D01*
X-10340Y6283D01*
X-10317Y6307D01*
X-10314Y6312D01*
X-10028Y6598D01*
X-9249D01*
Y8120D01*
X-9396D01*
X-9396Y8124D01*
X-9397Y8129D01*
Y8792D01*
X-9396Y8799D01*
X-9396Y8800D01*
X-9350D01*
Y8988D01*
X-9347Y9001D01*
X-9350Y9015D01*
Y9396D01*
X-9349Y9396D01*
X-9342Y9397D01*
X-8258D01*
X-8251Y9396D01*
X-8250Y9396D01*
Y9015D01*
X-8253Y9001D01*
X-8250Y8988D01*
Y8800D01*
X-8204D01*
X-8204Y8799D01*
X-8203Y8792D01*
Y8129D01*
X-8204Y8124D01*
X-8204Y8120D01*
X-8346D01*
Y6598D01*
X-7454D01*
Y8120D01*
X-7596D01*
X-7596Y8124D01*
X-7597Y8129D01*
Y8792D01*
X-7596Y8799D01*
X-7596Y8800D01*
X-7550D01*
Y8988D01*
X-7547Y9001D01*
X-7550Y9015D01*
Y9350D01*
Y9537D01*
X-7504Y9556D01*
X-7434Y9486D01*
D02*
G37*
G36*
X10358Y6723D02*
X10340Y6699D01*
X10329Y6678D01*
X10324Y6660D01*
X10327Y6644D01*
X10336Y6631D01*
X10352Y6621D01*
X10375Y6614D01*
X10405Y6610D01*
X10441Y6609D01*
X10241Y6409D01*
X10202Y6407D01*
X10164Y6403D01*
X10127Y6396D01*
X10091Y6386D01*
X10056Y6373D01*
X10023Y6358D01*
X9990Y6339D01*
X9959Y6318D01*
X9929Y6294D01*
X9900Y6267D01*
X9938Y6358D01*
Y6570D01*
X9938Y6571D01*
X9929Y6579D01*
X9931Y6581D01*
X9932Y6582D01*
X9934Y6582D01*
X9935Y6582D01*
X9936Y6581D01*
X9936Y6580D01*
X9937Y6578D01*
X9937Y6576D01*
X9938Y6573D01*
X9938Y6571D01*
X10000Y6509D01*
X10383Y6750D01*
X10358Y6723D01*
D02*
G37*
G36*
X-1870Y4952D02*
X-1897Y4923D01*
X-1921Y4895D01*
X-1942Y4866D01*
X-1961Y4838D01*
X-1977Y4810D01*
X-1989Y4781D01*
X-1999Y4753D01*
X-2007Y4725D01*
X-2011Y4697D01*
X-2012Y4669D01*
Y5234D01*
X-2011Y5209D01*
X-2007Y5189D01*
X-1999Y5174D01*
X-1989Y5166D01*
X-1977Y5163D01*
X-1961Y5166D01*
X-1942Y5174D01*
X-1921Y5189D01*
X-1897Y5209D01*
X-1870Y5234D01*
Y4952D01*
D02*
G37*
G36*
X8811Y4306D02*
X8783Y4301D01*
X8754Y4294D01*
X8726Y4284D01*
X8698Y4271D01*
X8670Y4256D01*
X8641Y4237D01*
X8613Y4216D01*
X8584Y4192D01*
X8556Y4164D01*
X8273D01*
X8299Y4192D01*
X8319Y4216D01*
X8333Y4237D01*
X8341Y4256D01*
X8344Y4271D01*
X8341Y4284D01*
X8333Y4294D01*
X8319Y4301D01*
X8299Y4306D01*
X8273Y4307D01*
X8839D01*
X8811Y4306D01*
D02*
G37*
G36*
X-10654D02*
X-10674Y4301D01*
X-10688Y4294D01*
X-10697Y4284D01*
X-10699Y4271D01*
X-10697Y4256D01*
X-10688Y4237D01*
X-10674Y4216D01*
X-10654Y4192D01*
X-10628Y4164D01*
X-10911D01*
X-10939Y4192D01*
X-10968Y4216D01*
X-10996Y4237D01*
X-11025Y4256D01*
X-11053Y4271D01*
X-11081Y4284D01*
X-11109Y4294D01*
X-11138Y4301D01*
X-11166Y4306D01*
X-11194Y4307D01*
X-10628D01*
X-10654Y4306D01*
D02*
G37*
G36*
X3831Y4305D02*
X3814Y4299D01*
X3799Y4289D01*
X3786Y4275D01*
X3775Y4257D01*
X3766Y4235D01*
X3759Y4208D01*
X3754Y4178D01*
X3751Y4144D01*
X3750Y4106D01*
X3550D01*
X3549Y4144D01*
X3546Y4178D01*
X3541Y4208D01*
X3534Y4235D01*
X3525Y4257D01*
X3514Y4275D01*
X3501Y4289D01*
X3486Y4299D01*
X3469Y4305D01*
X3450Y4307D01*
X3850D01*
X3831Y4305D01*
D02*
G37*
G36*
X-5767D02*
X-5784Y4299D01*
X-5799Y4289D01*
X-5812Y4275D01*
X-5823Y4257D01*
X-5832Y4235D01*
X-5839Y4208D01*
X-5844Y4178D01*
X-5847Y4144D01*
X-5848Y4106D01*
X-6048D01*
X-6049Y4144D01*
X-6052Y4178D01*
X-6057Y4208D01*
X-6064Y4235D01*
X-6073Y4257D01*
X-6084Y4275D01*
X-6097Y4289D01*
X-6112Y4299D01*
X-6129Y4305D01*
X-6148Y4307D01*
X-5748D01*
X-5767Y4305D01*
D02*
G37*
G36*
X10656Y3541D02*
X10655Y3548D01*
X10651Y3552D01*
X10644Y3551D01*
X10634Y3547D01*
X10621Y3540D01*
X10605Y3528D01*
X10587Y3513D01*
X10542Y3471D01*
X10515Y3445D01*
Y3728D01*
X10542Y3756D01*
X10566Y3785D01*
X10587Y3813D01*
X10606Y3841D01*
X10622Y3870D01*
X10635Y3898D01*
X10645Y3926D01*
X10652Y3954D01*
X10656Y3983D01*
X10658Y4011D01*
X10656Y3541D01*
D02*
G37*
G36*
X-7706Y3983D02*
X-7702Y3954D01*
X-7695Y3926D01*
X-7685Y3898D01*
X-7672Y3870D01*
X-7656Y3841D01*
X-7637Y3813D01*
X-7616Y3785D01*
X-7592Y3756D01*
X-7565Y3728D01*
Y3445D01*
X-7584Y3463D01*
X-7634Y3506D01*
X-7648Y3517D01*
X-7662Y3526D01*
X-7674Y3532D01*
X-7686Y3537D01*
X-7697Y3540D01*
X-7706Y3541D01*
X-7708Y4011D01*
X-7706Y3983D01*
D02*
G37*
G36*
X5159Y3540D02*
X5142Y3534D01*
X5127Y3524D01*
X5114Y3510D01*
X5103Y3492D01*
X5094Y3469D01*
X5087Y3443D01*
X5082Y3413D01*
X5079Y3379D01*
X5078Y3341D01*
X4878D01*
X4906Y3541D01*
X5178Y3542D01*
X5159Y3540D01*
D02*
G37*
G36*
X-2675Y3540D02*
X-2692Y3534D01*
X-2707Y3524D01*
X-2720Y3510D01*
X-2731Y3492D01*
X-2740Y3470D01*
X-2747Y3444D01*
X-2752Y3413D01*
X-2755Y3379D01*
X-2756Y3341D01*
X-2956D01*
X-2957Y3379D01*
X-2960Y3413D01*
X-2965Y3444D01*
X-2972Y3470D01*
X-2981Y3492D01*
X-2992Y3510D01*
X-3005Y3524D01*
X-3020Y3534D01*
X-3037Y3540D01*
X-3056Y3542D01*
X-2656D01*
X-2675Y3540D01*
D02*
G37*
G36*
X3751Y2053D02*
X3754Y2018D01*
X3759Y1988D01*
X3766Y1962D01*
X3775Y1940D01*
X3786Y1922D01*
X3799Y1908D01*
X3814Y1898D01*
X3831Y1892D01*
X3850Y1890D01*
X3450D01*
X3469Y1892D01*
X3486Y1898D01*
X3501Y1908D01*
X3514Y1922D01*
X3525Y1940D01*
X3534Y1962D01*
X3541Y1988D01*
X3546Y2018D01*
X3549Y2053D01*
X3550Y2091D01*
X3750D01*
X3751Y2053D01*
D02*
G37*
G36*
X-838D02*
X-835Y2018D01*
X-830Y1988D01*
X-823Y1962D01*
X-814Y1940D01*
X-803Y1922D01*
X-790Y1908D01*
X-775Y1898D01*
X-758Y1892D01*
X-739Y1890D01*
X-1139D01*
X-1120Y1892D01*
X-1103Y1898D01*
X-1088Y1908D01*
X-1075Y1922D01*
X-1064Y1940D01*
X-1055Y1962D01*
X-1048Y1988D01*
X-1043Y2018D01*
X-1040Y2053D01*
X-1039Y2091D01*
X-839D01*
X-838Y2053D01*
D02*
G37*
G36*
X1164Y2139D02*
X1171Y2101D01*
X1183Y2061D01*
X1200Y2020D01*
X1222Y1978D01*
X1249Y1935D01*
X1281Y1890D01*
X1318Y1845D01*
X1406Y1751D01*
X717D01*
X763Y1799D01*
X841Y1890D01*
X873Y1935D01*
X900Y1978D01*
X922Y2020D01*
X939Y2061D01*
X951Y2101D01*
X959Y2139D01*
X961Y2177D01*
X1161D01*
X1164Y2139D01*
D02*
G37*
G36*
X6270Y1879D02*
X6245Y1850D01*
X6223Y1818D01*
X6203Y1781D01*
X6187Y1740D01*
X6172Y1695D01*
X6161Y1645D01*
X6152Y1591D01*
X6146Y1533D01*
X6142Y1405D01*
X5655Y1892D01*
X5721Y1893D01*
X5841Y1902D01*
X5895Y1911D01*
X5945Y1922D01*
X5990Y1937D01*
X6031Y1953D01*
X6068Y1973D01*
X6100Y1995D01*
X6129Y2020D01*
X6270Y1879D01*
D02*
G37*
G36*
X-3978Y1995D02*
X-3945Y1973D01*
X-3909Y1953D01*
X-3868Y1937D01*
X-3822Y1922D01*
X-3773Y1911D01*
X-3719Y1902D01*
X-3661Y1896D01*
X-3533Y1892D01*
X-4020Y1405D01*
X-4020Y1471D01*
X-4030Y1591D01*
X-4039Y1645D01*
X-4050Y1695D01*
X-4064Y1740D01*
X-4081Y1781D01*
X-4101Y1818D01*
X-4123Y1850D01*
X-4148Y1879D01*
X-4006Y2020D01*
X-3978Y1995D01*
D02*
G37*
G36*
X-6017Y1200D02*
X-6019Y1219D01*
X-6025Y1236D01*
X-6035Y1251D01*
X-6050Y1264D01*
X-6068Y1275D01*
X-6090Y1284D01*
X-6116Y1291D01*
X-6146Y1296D01*
X-6180Y1299D01*
X-6219Y1300D01*
Y1500D01*
X-6180Y1501D01*
X-6146Y1504D01*
X-6116Y1509D01*
X-6090Y1516D01*
X-6068Y1525D01*
X-6050Y1536D01*
X-6035Y1549D01*
X-6025Y1564D01*
X-6019Y1581D01*
X-6017Y1600D01*
Y1200D01*
D02*
G37*
G36*
X-13314Y9436D02*
X-12937Y9059D01*
X-12943Y9044D01*
X-12944Y9022D01*
X-12948Y9001D01*
X-12944Y8983D01*
X-12945Y8965D01*
X-12937Y8944D01*
X-12932Y8923D01*
X-12922Y8908D01*
X-12915Y8891D01*
X-12925Y8837D01*
X-12939Y8828D01*
X-12945Y8819D01*
X-12954Y8812D01*
X-12967Y8786D01*
X-12984Y8761D01*
X-12986Y8751D01*
X-12991Y8741D01*
X-12993Y8712D01*
X-12999Y8683D01*
X-12997Y8673D01*
X-12998Y8662D01*
X-12989Y8634D01*
X-12984Y8605D01*
X-12978Y8596D01*
X-12974Y8586D01*
X-12956Y8564D01*
X-12941Y8542D01*
Y8174D01*
X-12595D01*
X-12249D01*
Y8542D01*
X-12235Y8564D01*
X-12216Y8586D01*
X-12213Y8596D01*
X-12207Y8605D01*
X-12201Y8634D01*
X-12192Y8662D01*
X-12193Y8673D01*
X-12191Y8683D01*
X-12197Y8712D01*
X-12200Y8741D01*
X-12205Y8751D01*
X-12207Y8761D01*
X-12223Y8786D01*
X-12237Y8812D01*
X-12245Y8819D01*
X-12251Y8828D01*
X-12265Y8837D01*
X-12275Y8891D01*
X-12268Y8908D01*
X-12258Y8923D01*
X-12254Y8944D01*
X-12246Y8965D01*
X-12246Y8983D01*
X-12243Y9001D01*
X-12247Y9022D01*
X-12247Y9044D01*
X-12254Y9061D01*
X-12258Y9079D01*
X-12270Y9097D01*
X-12279Y9117D01*
X-12292Y9130D01*
X-12293Y9131D01*
Y9150D01*
X-12303Y9228D01*
X-12333Y9301D01*
X-12310Y9350D01*
X-12245D01*
Y9396D01*
X-12244Y9396D01*
X-12238Y9397D01*
X-11153D01*
X-11147Y9396D01*
X-11146Y9396D01*
Y9015D01*
X-11148Y9001D01*
X-11146Y8988D01*
Y8885D01*
X-11246D01*
Y7363D01*
X-10354D01*
Y8872D01*
X-10311Y8902D01*
X-10293Y8888D01*
X-10220Y8858D01*
X-10141Y8847D01*
X-10141Y8847D01*
X-10058D01*
X-10051Y8846D01*
X-10050Y8846D01*
Y8800D01*
X-10004D01*
X-10004Y8799D01*
X-10003Y8792D01*
Y8129D01*
X-10004Y8124D01*
X-10004Y8120D01*
X-10141D01*
Y7412D01*
X-10143Y7407D01*
X-10144Y7389D01*
X-10145Y7381D01*
X-10147Y7371D01*
X-10151Y7360D01*
X-10157Y7347D01*
X-10165Y7333D01*
X-10176Y7316D01*
X-10189Y7298D01*
X-10206Y7279D01*
X-10229Y7254D01*
X-10232Y7249D01*
X-10418Y7064D01*
X-12990D01*
Y4105D01*
X-11209D01*
X-11204Y4103D01*
X-11186Y4103D01*
X-11178Y4101D01*
X-11169Y4099D01*
X-11157Y4095D01*
X-11145Y4089D01*
X-11130Y4081D01*
X-11114Y4070D01*
X-11095Y4057D01*
X-11076Y4040D01*
X-11051Y4017D01*
X-11047Y4014D01*
X-8219Y1186D01*
X-8156Y1138D01*
X-8083Y1108D01*
X-8005Y1097D01*
X-6229D01*
X-6224Y1096D01*
X-6220Y1096D01*
Y708D01*
X-4836D01*
Y1042D01*
X-4789Y1061D01*
X-4214Y486D01*
X-4214Y486D01*
X-4151Y438D01*
X-4078Y408D01*
X-4000Y397D01*
X-3922Y408D01*
X-3879Y425D01*
X7656D01*
X7735Y436D01*
X7808Y466D01*
X7870Y514D01*
X10652Y3296D01*
X10658Y3300D01*
X10682Y3324D01*
X10700Y3340D01*
X13040D01*
Y6218D01*
X13110Y6247D01*
X13173Y6295D01*
X13336Y6458D01*
X13386Y6437D01*
Y1000D01*
Y902D01*
X13347Y708D01*
X13272Y526D01*
X13163Y363D01*
X13023Y223D01*
X12859Y114D01*
X12678Y38D01*
X12484Y0D01*
X-12484D01*
X-12678Y38D01*
X-12860Y114D01*
X-13023Y223D01*
X-13163Y363D01*
X-13272Y526D01*
X-13347Y708D01*
X-13386Y902D01*
Y1000D01*
Y9448D01*
X-13336Y9465D01*
X-13314Y9436D01*
D02*
G37*
%LPC*%
G36*
X11811Y20677D02*
X11594Y20660D01*
X11383Y20609D01*
X11182Y20526D01*
X10997Y20412D01*
X10831Y20271D01*
X10690Y20106D01*
X10577Y19920D01*
X10493Y19719D01*
X10443Y19508D01*
X10426Y19291D01*
X10443Y19075D01*
X10493Y18863D01*
X10577Y18662D01*
X10690Y18477D01*
X10831Y18312D01*
X10997Y18171D01*
X11182Y18057D01*
X11383Y17974D01*
X11594Y17923D01*
X11811Y17906D01*
X12028Y17923D01*
X12239Y17974D01*
X12440Y18057D01*
X12625Y18171D01*
X12791Y18312D01*
X12932Y18477D01*
X13045Y18662D01*
X13129Y18863D01*
X13179Y19075D01*
X13196Y19291D01*
X13179Y19508D01*
X13129Y19719D01*
X13045Y19920D01*
X12932Y20106D01*
X12791Y20271D01*
X12625Y20412D01*
X12440Y20526D01*
X12239Y20609D01*
X12028Y20660D01*
X11811Y20677D01*
D02*
G37*
G36*
X14567Y18633D02*
X14350Y18616D01*
X14139Y18565D01*
X13938Y18482D01*
X13753Y18369D01*
X13587Y18227D01*
X13446Y18062D01*
X13333Y17877D01*
X13249Y17676D01*
X13199Y17465D01*
X13182Y17248D01*
X13199Y17031D01*
X13249Y16820D01*
X13333Y16619D01*
X13446Y16434D01*
X13587Y16268D01*
X13753Y16127D01*
X13938Y16013D01*
X14139Y15930D01*
X14350Y15880D01*
X14567Y15862D01*
X14784Y15880D01*
X14995Y15930D01*
X15196Y16013D01*
X15381Y16127D01*
X15547Y16268D01*
X15688Y16434D01*
X15801Y16619D01*
X15884Y16820D01*
X15935Y17031D01*
X15952Y17248D01*
X15935Y17465D01*
X15884Y17676D01*
X15801Y17877D01*
X15688Y18062D01*
X15547Y18227D01*
X15381Y18369D01*
X15196Y18482D01*
X14995Y18565D01*
X14784Y18616D01*
X14567Y18633D01*
D02*
G37*
G36*
X-4750Y18374D02*
Y17992D01*
X-4368D01*
X-4377Y18056D01*
X-4420Y18161D01*
X-4490Y18252D01*
X-4581Y18322D01*
X-4687Y18366D01*
X-4750Y18374D01*
D02*
G37*
G36*
X-11811Y20677D02*
X-12028Y20660D01*
X-12239Y20609D01*
X-12440Y20526D01*
X-12625Y20412D01*
X-12791Y20271D01*
X-12932Y20106D01*
X-13045Y19920D01*
X-13129Y19719D01*
X-13179Y19508D01*
X-13196Y19291D01*
X-13179Y19075D01*
X-13129Y18863D01*
X-13045Y18662D01*
X-12932Y18477D01*
X-12791Y18312D01*
X-12625Y18171D01*
X-12440Y18057D01*
X-12239Y17974D01*
X-12028Y17923D01*
X-11811Y17906D01*
X-11594Y17923D01*
X-11383Y17974D01*
X-11182Y18057D01*
X-10997Y18171D01*
X-10831Y18312D01*
X-10690Y18477D01*
X-10577Y18662D01*
X-10493Y18863D01*
X-10443Y19075D01*
X-10426Y19291D01*
X-10443Y19508D01*
X-10493Y19719D01*
X-10577Y19920D01*
X-10690Y20106D01*
X-10831Y20271D01*
X-10997Y20412D01*
X-11182Y20526D01*
X-11383Y20609D01*
X-11594Y20660D01*
X-11811Y20677D01*
D02*
G37*
G36*
X-1850Y16300D02*
X-2050D01*
Y16100D01*
X-1850D01*
Y16300D01*
D02*
G37*
G36*
X-14567Y18633D02*
X-14784Y18616D01*
X-14995Y18565D01*
X-15196Y18482D01*
X-15381Y18369D01*
X-15547Y18227D01*
X-15688Y18062D01*
X-15801Y17877D01*
X-15885Y17676D01*
X-15935Y17465D01*
X-15952Y17248D01*
X-15935Y17031D01*
X-15885Y16820D01*
X-15801Y16619D01*
X-15688Y16434D01*
X-15547Y16268D01*
X-15381Y16127D01*
X-15196Y16013D01*
X-14995Y15930D01*
X-14784Y15880D01*
X-14567Y15862D01*
X-14350Y15880D01*
X-14139Y15930D01*
X-13938Y16013D01*
X-13753Y16127D01*
X-13587Y16268D01*
X-13446Y16434D01*
X-13333Y16619D01*
X-13249Y16820D01*
X-13199Y17031D01*
X-13182Y17248D01*
X-13199Y17465D01*
X-13249Y17676D01*
X-13333Y17877D01*
X-13446Y18062D01*
X-13587Y18227D01*
X-13753Y18369D01*
X-13938Y18482D01*
X-14139Y18565D01*
X-14350Y18616D01*
X-14567Y18633D01*
D02*
G37*
G36*
X5607Y14521D02*
X5583Y14516D01*
X5556Y14504D01*
X5553Y14502D01*
X5658D01*
X5645Y14514D01*
X5627Y14520D01*
X5607Y14521D01*
D02*
G37*
G36*
X-3048Y13855D02*
X-4190D01*
Y12525D01*
X-3048D01*
Y13855D01*
D02*
G37*
G36*
X2596Y8074D02*
X2300D01*
Y7463D01*
X2596D01*
Y8074D01*
D02*
G37*
G36*
X8296D02*
X8000D01*
Y7463D01*
X8296D01*
Y8074D01*
D02*
G37*
G36*
X7900D02*
X7604D01*
Y7463D01*
X7900D01*
Y8074D01*
D02*
G37*
G36*
X-6895D02*
X-7191D01*
Y7463D01*
X-6895D01*
Y8074D01*
D02*
G37*
G36*
X-12249D02*
X-12545D01*
Y7463D01*
X-12249D01*
Y8074D01*
D02*
G37*
G36*
X-12645D02*
X-12941D01*
Y7463D01*
X-12645D01*
Y8074D01*
D02*
G37*
G36*
X11811Y3035D02*
X11594Y3018D01*
X11383Y2968D01*
X11182Y2884D01*
X10997Y2771D01*
X10831Y2630D01*
X10690Y2464D01*
X10577Y2279D01*
X10493Y2078D01*
X10443Y1867D01*
X10426Y1650D01*
X10443Y1433D01*
X10493Y1222D01*
X10577Y1021D01*
X10690Y836D01*
X10831Y670D01*
X10997Y529D01*
X11182Y416D01*
X11383Y332D01*
X11594Y282D01*
X11811Y265D01*
X12028Y282D01*
X12239Y332D01*
X12440Y416D01*
X12625Y529D01*
X12791Y670D01*
X12932Y836D01*
X13045Y1021D01*
X13129Y1222D01*
X13179Y1433D01*
X13196Y1650D01*
X13179Y1867D01*
X13129Y2078D01*
X13045Y2279D01*
X12932Y2464D01*
X12791Y2630D01*
X12625Y2771D01*
X12440Y2884D01*
X12239Y2968D01*
X12028Y3018D01*
X11811Y3035D01*
D02*
G37*
G36*
X-11811Y2960D02*
X-12028Y2943D01*
X-12239Y2892D01*
X-12440Y2809D01*
X-12625Y2696D01*
X-12791Y2554D01*
X-12932Y2389D01*
X-13045Y2204D01*
X-13129Y2003D01*
X-13179Y1792D01*
X-13196Y1575D01*
X-13179Y1358D01*
X-13129Y1147D01*
X-13045Y946D01*
X-12932Y760D01*
X-12791Y595D01*
X-12625Y454D01*
X-12440Y340D01*
X-12239Y257D01*
X-12028Y206D01*
X-11811Y189D01*
X-11594Y206D01*
X-11383Y257D01*
X-11182Y340D01*
X-10997Y454D01*
X-10831Y595D01*
X-10690Y760D01*
X-10577Y946D01*
X-10493Y1147D01*
X-10443Y1358D01*
X-10426Y1575D01*
X-10443Y1792D01*
X-10493Y2003D01*
X-10577Y2204D01*
X-10690Y2389D01*
X-10831Y2554D01*
X-10997Y2696D01*
X-11182Y2809D01*
X-11383Y2892D01*
X-11594Y2943D01*
X-11811Y2960D01*
D02*
G37*
%LPD*%
D17*
X6550Y12587D02*
D03*
X7050D02*
D03*
X7550D02*
D03*
X8050D02*
D03*
X6550Y14516D02*
D03*
X7050D02*
D03*
X7550D02*
D03*
X8050D02*
D03*
X11700D02*
D03*
X11200D02*
D03*
X10700D02*
D03*
X10200D02*
D03*
X11700Y12587D02*
D03*
X11200D02*
D03*
X10700D02*
D03*
X10200D02*
D03*
X-11150Y14516D02*
D03*
X-11650D02*
D03*
X-12150D02*
D03*
X-12650D02*
D03*
X-11150Y12587D02*
D03*
X-11650D02*
D03*
X-12150D02*
D03*
X-12650D02*
D03*
X-7600Y14516D02*
D03*
X-8100D02*
D03*
X-8600D02*
D03*
X-9100D02*
D03*
X-7600Y12587D02*
D03*
X-8100D02*
D03*
X-8600D02*
D03*
X-9100D02*
D03*
D18*
X-10800Y8124D02*
D03*
X-12595D02*
D03*
X-3895Y15015D02*
D03*
X-2100D02*
D03*
X-9695Y7359D02*
D03*
X-7900D02*
D03*
X-6845Y8124D02*
D03*
X-5050D02*
D03*
X-4000Y7359D02*
D03*
X-2205D02*
D03*
X2250Y8124D02*
D03*
X4045D02*
D03*
X5100Y7359D02*
D03*
X6895D02*
D03*
X7950Y8124D02*
D03*
X9745D02*
D03*
X10850Y7359D02*
D03*
X12645D02*
D03*
D19*
X-11698Y5584D02*
D03*
X-2998Y12475D02*
D03*
X-8798Y4819D02*
D03*
X-5948Y5584D02*
D03*
X-3102Y4819D02*
D03*
X3148Y5584D02*
D03*
X5998Y4819D02*
D03*
X8848Y5584D02*
D03*
X11748Y4819D02*
D03*
D20*
X9750Y9700D02*
D03*
Y9150D02*
D03*
X4045Y9700D02*
D03*
Y9150D02*
D03*
X2250D02*
D03*
Y9700D02*
D03*
X7950Y9150D02*
D03*
Y9700D02*
D03*
X5100Y9150D02*
D03*
Y9700D02*
D03*
X-5050D02*
D03*
Y9150D02*
D03*
X-6830D02*
D03*
Y9700D02*
D03*
X-2205D02*
D03*
Y9150D02*
D03*
X-3974D02*
D03*
Y9700D02*
D03*
X12650D02*
D03*
Y9150D02*
D03*
X10850D02*
D03*
Y9700D02*
D03*
X6904D02*
D03*
Y9150D02*
D03*
X-7900Y9700D02*
D03*
Y9150D02*
D03*
X-9700D02*
D03*
Y9700D02*
D03*
X-10796D02*
D03*
Y9150D02*
D03*
X-12595D02*
D03*
Y9700D02*
D03*
X-4852Y14815D02*
D03*
Y14265D02*
D03*
X3800Y12500D02*
D03*
Y11950D02*
D03*
Y14815D02*
D03*
Y14265D02*
D03*
X1100Y16900D02*
D03*
Y17450D02*
D03*
D21*
X-6650Y13425D02*
D03*
X-10100D02*
D03*
X9050D02*
D03*
X5650D02*
D03*
D22*
X-6650Y14775D02*
D03*
X-10100D02*
D03*
X9050D02*
D03*
X5650D02*
D03*
D23*
X-4852Y12525D02*
D03*
Y11856D02*
D03*
D24*
X-2650Y16050D02*
D03*
X-2100D02*
D03*
X-11453Y11442D02*
D03*
X-12003D02*
D03*
X-7853D02*
D03*
X-8403D02*
D03*
X7697D02*
D03*
X7147D02*
D03*
X11497D02*
D03*
X10947D02*
D03*
X-7500Y16510D02*
D03*
X-8050D02*
D03*
X8150D02*
D03*
X7600D02*
D03*
X-11250D02*
D03*
X-10700D02*
D03*
X10750D02*
D03*
X11300D02*
D03*
X5100Y20350D02*
D03*
X5650D02*
D03*
X5100Y19500D02*
D03*
X5650D02*
D03*
X-5050Y20350D02*
D03*
X-5600D02*
D03*
X-5050Y19500D02*
D03*
X-5600D02*
D03*
X-250Y17679D02*
D03*
X-800D02*
D03*
X-2600D02*
D03*
X-2050D02*
D03*
X-150Y13544D02*
D03*
X400D02*
D03*
D25*
X2577Y14996D02*
D03*
Y13304D02*
D03*
D26*
X2550Y16950D02*
D03*
Y18300D02*
D03*
D27*
X-1250Y14458D02*
D03*
X-750D02*
D03*
X-250D02*
D03*
X250D02*
D03*
Y16742D02*
D03*
X-250D02*
D03*
X-750D02*
D03*
X-1250D02*
D03*
D50*
X5100Y12950D02*
Y13150D01*
X5375Y13425D01*
X5650D01*
X7055Y10795D02*
X7697Y11438D01*
X-8798Y4819D02*
X-6051Y2072D01*
X-4961D01*
X-6650Y14775D02*
X-6525D01*
X-6000Y14250D01*
X8197Y9150D02*
X8547Y8800D01*
X7050Y10792D02*
X7053Y10795D01*
X7055D01*
X7516Y13425D02*
X8050Y12891D01*
Y12587D02*
Y12891D01*
X5650Y13425D02*
X7516D01*
X4045Y10082D02*
X6550Y12587D01*
X4770Y9925D02*
X6288Y11442D01*
X7147D01*
X7050Y11539D02*
Y12587D01*
Y11539D02*
X7147Y11442D01*
X5650Y14360D02*
X6210Y13800D01*
X5650Y14360D02*
Y14775D01*
X6210Y13800D02*
X6700D01*
X4045Y9700D02*
Y10082D01*
X8047Y10843D02*
Y11703D01*
X6904Y9700D02*
X8047Y10843D01*
X7550Y12200D02*
X8047Y11703D01*
X7697Y11438D02*
Y11442D01*
X5140Y14265D02*
X5650Y14775D01*
X6700Y13800D02*
X7050Y14150D01*
X7750Y13844D02*
X8050Y14144D01*
X7356Y13844D02*
X7750D01*
X7050Y14150D02*
X7356Y13844D01*
X600Y7563D02*
Y9379D01*
X171Y9808D02*
X600Y9379D01*
X1050Y7225D02*
Y11776D01*
X0Y6175D02*
X1050Y7225D01*
X-6450Y13880D02*
X-5200Y12630D01*
Y10926D02*
Y12630D01*
Y10926D02*
X-3974Y9700D01*
X-4095Y14815D02*
X-3895Y15015D01*
X-4852Y14815D02*
X-4095D01*
X-3685Y15015D02*
X-2650Y16050D01*
X-3895Y15015D02*
X-3685D01*
X-4852Y12525D02*
Y14265D01*
X250Y16742D02*
X442Y16550D01*
X1450D01*
X1850Y16950D01*
Y17220D01*
X1870Y17240D01*
Y17325D01*
X2065Y17520D01*
X1949Y17800D02*
X4658D01*
X1590Y17441D02*
X1949Y17800D01*
X1590Y17385D02*
Y17441D01*
X1105Y16900D02*
X1590Y17385D01*
X2065Y17520D02*
X3035D01*
X3800Y16755D01*
Y14815D02*
Y16755D01*
X2550Y16950D02*
X2577Y16923D01*
Y14996D02*
Y16923D01*
X2322Y15252D02*
X2577Y14996D01*
X-725Y15252D02*
X2322D01*
X-1250Y14727D02*
X-725Y15252D01*
X-1250Y14458D02*
Y14727D01*
X-747Y13284D02*
X-720D01*
X250Y16742D02*
X958Y17450D01*
X1100D01*
X400Y11021D02*
Y13544D01*
X4658Y17800D02*
X4800Y17942D01*
X1100Y16900D02*
X1105D01*
X-250Y16150D02*
Y16742D01*
X7950Y9150D02*
X8197D01*
X8461Y8800D02*
X8547D01*
X-4141Y9150D02*
X-3974D01*
X-4495Y9505D02*
X-4141Y9150D01*
X-2100Y14637D02*
X-747Y13284D01*
X-2100Y14637D02*
Y15015D01*
X171Y10792D02*
X400Y11021D01*
X6904Y15250D02*
X6925Y15230D01*
X6904Y15250D02*
Y17323D01*
X6925Y15230D02*
X9375D01*
X6550Y14855D02*
X6925Y15230D01*
X9511Y15205D02*
X10200Y14516D01*
X9399Y15205D02*
X9511D01*
X9375Y15230D02*
X9399Y15205D01*
X6550Y14516D02*
Y14855D01*
X-9281Y17942D02*
X-4800D01*
X-7313Y18736D02*
X-964D01*
X-1942Y16742D02*
X-1250D01*
X-2600Y17400D02*
X-1942Y16742D01*
X-2600Y17400D02*
Y17679D01*
X2500Y18250D02*
X2550Y18300D01*
X-234Y18250D02*
X2500D01*
X-800Y17684D02*
X-234Y18250D01*
X-800Y17679D02*
Y17684D01*
X-250Y16742D02*
Y17679D01*
X-800Y16792D02*
X-750Y16742D01*
X-800Y16792D02*
Y17679D01*
X-2050D02*
X-800D01*
X-4852Y11856D02*
X-3617D01*
X-2998Y12475D01*
X-7600Y12587D02*
X-6762Y13425D01*
X-6650D01*
X-7110Y13880D02*
X-6450D01*
X-7145Y13915D02*
X-7110Y13880D01*
X-8100Y12960D02*
X-7145Y13915D01*
X-8100Y12587D02*
Y12960D01*
X-6830Y8139D02*
X-6419Y8550D01*
X-6845Y8124D02*
X-6830Y8139D01*
X-12595Y8500D02*
Y9150D01*
X-6419Y8550D02*
X-5955D01*
X7550Y12200D02*
Y12587D01*
X5030Y9150D02*
X5100D01*
X4770Y9410D02*
X5030Y9150D01*
X4770Y9410D02*
Y9925D01*
X2839Y13304D02*
X2996D01*
X2577D02*
X2839D01*
X2996D02*
X3800Y12500D01*
X8050Y14144D02*
Y14516D01*
X8791D02*
X9050Y14775D01*
X8050Y14516D02*
X8791D01*
X10000Y13844D02*
X11023D01*
X9069Y14775D02*
X10000Y13844D01*
X9050Y14775D02*
X9069D01*
X10700Y14167D02*
X11023Y13844D01*
X11332D01*
X11700Y14213D02*
Y14516D01*
X11332Y13844D02*
X11700Y14213D01*
X10700Y14167D02*
Y14516D01*
X11700Y12587D02*
Y12891D01*
X11166Y13425D02*
X11700Y12891D01*
X9050Y13425D02*
X11166D01*
X9750Y9700D02*
X10050Y10000D01*
Y11925D01*
X10200Y12075D01*
Y12587D01*
X10850Y7359D02*
Y9150D01*
X10337Y9659D02*
X10845Y9150D01*
X10337Y9659D02*
Y11816D01*
X10700Y12179D01*
Y12587D01*
X11200Y12283D02*
Y12587D01*
X10617Y11700D02*
X11200Y12283D01*
X10617Y11218D02*
Y11700D01*
Y11218D02*
X10850Y10984D01*
Y9700D02*
Y10984D01*
X10000Y6509D02*
X10850Y7359D01*
X9076Y5584D02*
X10000Y6509D01*
X10947Y11438D02*
Y11442D01*
Y11438D02*
X12354Y10030D01*
X12875D01*
X13150Y9755D01*
Y6700D02*
Y9755D01*
X12959Y6509D02*
X13150Y6700D01*
X10000Y6509D02*
X12959D01*
X11700Y11645D02*
Y12587D01*
X11497Y11442D02*
X11700Y11645D01*
X10845Y9150D02*
X10850D01*
X7656Y728D02*
X11748Y4819D01*
X4217Y728D02*
X7656D01*
X4978Y3799D02*
X5998Y4819D01*
X4978Y1489D02*
Y3799D01*
X4217Y728D02*
X4978Y1489D01*
X-3249Y728D02*
X4217D01*
X-3102Y4819D02*
X-2856Y4572D01*
Y1122D02*
Y4572D01*
X-3249Y728D02*
X-2856Y1122D01*
X-3972Y728D02*
X-3249D01*
X-4000Y700D02*
X-3972Y728D01*
X-4856Y1556D02*
X-4000Y700D01*
X-4856Y1556D02*
Y1967D01*
X-4961Y2072D02*
X-4856Y1967D01*
X-750Y14458D02*
Y14650D01*
X-4495Y9505D02*
Y9700D01*
X-4825Y10030D02*
X-4495Y9700D01*
X250Y14458D02*
Y14607D01*
X-93Y14950D02*
X250Y14607D01*
X-450Y14950D02*
X-93D01*
X-750Y14650D02*
X-450Y14950D01*
X-150Y13544D02*
Y14358D01*
X-250Y14458D02*
X-150Y14358D01*
X400Y13544D02*
Y14308D01*
X250Y14458D02*
X400Y14308D01*
X-8005Y1400D02*
X-5528D01*
X-11698Y5093D02*
Y5584D01*
Y5093D02*
X-8005Y1400D01*
X-4852Y14815D02*
X-4800Y14867D01*
Y16958D01*
X1900Y10050D02*
X3800Y11950D01*
X1900Y9495D02*
Y10050D01*
Y9495D02*
X2245Y9150D01*
X2250D01*
X-7154Y10030D02*
X-4825D01*
X-8403Y11279D02*
X-7154Y10030D01*
X-8403Y11279D02*
Y11442D01*
X-7220Y9700D02*
X-6830D01*
X-9100Y11580D02*
X-7220Y9700D01*
X-9100Y11580D02*
Y12587D01*
X-9700Y9700D02*
X-9670Y9730D01*
Y13650D01*
X-9900Y13880D02*
X-9670Y13650D01*
X-10983Y13880D02*
X-9900D01*
X-11018Y13844D02*
X-10983Y13880D01*
X-11043Y13844D02*
X-11018D01*
X-11650Y13237D02*
X-11043Y13844D01*
X-11650Y12587D02*
Y13237D01*
X-10141Y9150D02*
X-9700D01*
X-10466Y9474D02*
X-10141Y9150D01*
X-10466Y9474D02*
Y9925D01*
X-10571Y10030D02*
X-10466Y9925D01*
X-10603Y10030D02*
X-10571D01*
X-12003Y11431D02*
X-10603Y10030D01*
X-12003Y11431D02*
Y11442D01*
X-12650Y9755D02*
X-12595Y9700D01*
X-12650Y9755D02*
Y12587D01*
X-7600Y11695D02*
Y12587D01*
X-7853Y11442D02*
X-7600Y11695D01*
X-8600Y11639D02*
Y12587D01*
Y11639D02*
X-8403Y11442D01*
X-11150Y12587D02*
X-10312Y13425D01*
X-10100D01*
X-11453Y11442D02*
X-11150Y11745D01*
Y12587D01*
X-12150Y11589D02*
X-12003Y11442D01*
X-12150Y11589D02*
Y12587D01*
X-6909Y14516D02*
X-6650Y14775D01*
X-7600Y14516D02*
X-6909D01*
X-8600Y14213D02*
Y14516D01*
Y14150D02*
Y14213D01*
X-8906Y13844D02*
X-8600Y14150D01*
X-9312Y13844D02*
X-8906D01*
X-10100Y14632D02*
X-9312Y13844D01*
X-10100Y14632D02*
Y14775D01*
X-7600Y14213D02*
Y14516D01*
X-8232Y13844D02*
X-7968D01*
X-7600Y14213D01*
X-8600D02*
X-8232Y13844D01*
X-12585Y15230D02*
X-9775D01*
X-12650Y15165D02*
X-12585Y15230D01*
X-9775D02*
X-9100Y14555D01*
X-11150Y14213D02*
Y14516D01*
X-11518Y13844D02*
X-11150Y14213D01*
X-11827Y13844D02*
X-11518D01*
X-12150Y14167D02*
X-11827Y13844D01*
X-12150Y14167D02*
Y14516D01*
X-10891Y14775D02*
X-10100D01*
X-11150Y14516D02*
X-10891Y14775D01*
X-13100Y9650D02*
Y14066D01*
Y9650D02*
X-12600Y9150D01*
X-13100Y14066D02*
X-12650Y14516D01*
Y15165D02*
Y16395D01*
Y14516D02*
Y15165D01*
X-9100Y14516D02*
Y14555D01*
X-7500Y16505D02*
Y16510D01*
X-7845Y16160D02*
X-7500Y16505D01*
X-10905Y16160D02*
X-7845D01*
X-11250Y16505D02*
X-10905Y16160D01*
X-11250Y16505D02*
Y16510D01*
X-12650Y16395D02*
X-11723Y17323D01*
X-9900D01*
X-10700Y16510D02*
X-9713D01*
X-8900Y17323D01*
X-8050Y16510D02*
Y17173D01*
X-7900Y17323D01*
X-7500Y16510D02*
X-6900Y17110D01*
Y17323D01*
X11300Y16505D02*
Y16510D01*
X10945Y16150D02*
X11300Y16505D01*
X8510Y16150D02*
X10945D01*
X8150Y16510D02*
X8510Y16150D01*
X9717Y16510D02*
X10750D01*
X10492Y17323D02*
X11300Y16514D01*
X9904Y17323D02*
X10492D01*
X7600Y16510D02*
Y17018D01*
X7904Y17323D01*
X8904D02*
X9717Y16510D01*
X11300D02*
Y16514D01*
X-9900Y20323D02*
X-9425Y20798D01*
X-6048D01*
X-5600Y20350D01*
X9429Y20798D02*
X9904Y20323D01*
X6707Y20798D02*
X9429D01*
X6260Y20350D02*
X6707Y20798D01*
X5650Y20350D02*
X6260D01*
X7432Y18850D02*
X8904Y20323D01*
X1550Y18850D02*
X7432D01*
X850Y19550D02*
X1550Y18850D01*
X-1350Y20350D02*
X5100D01*
X-2150Y19550D02*
X-1350Y20350D01*
X1850Y19550D02*
X2230Y19170D01*
X6752D01*
X6082Y19500D02*
X6904Y20323D01*
X5650Y19500D02*
X6082D01*
X5100D02*
Y20350D01*
X6752Y19170D02*
X7904Y20323D01*
X1061Y6840D02*
X2250Y8029D01*
X1061Y1400D02*
Y6840D01*
X2250Y8029D02*
Y8124D01*
X-964Y18736D02*
X-150Y19550D01*
X-8900Y20323D02*
X-7313Y18736D01*
X-6597Y19019D02*
X-2375D01*
X-7900Y20323D02*
X-6597Y19019D01*
X-2371Y19016D02*
X-1684D01*
X-2375Y19019D02*
X-2371Y19016D01*
X-1684D02*
X-1150Y19550D01*
X-6900Y20323D02*
X-6077Y19500D01*
X-5600D01*
X-9900Y17323D02*
X-9281Y17942D01*
X-1512Y12475D02*
X171Y10792D01*
X-2998Y12475D02*
X-1512D01*
X-6830Y9700D02*
X-5050D01*
X-3974D02*
X-2205D01*
X-9700D02*
X-7900D01*
X-12595D02*
X-10796D01*
X2250D02*
X4045D01*
X5100D02*
X6904D01*
X7950D02*
X9750D01*
X10850D02*
X12650D01*
X2839Y13304D02*
X3800Y14265D01*
X5140D01*
X4800Y15625D02*
X5650Y14775D01*
X4800Y15625D02*
Y16958D01*
X6285Y17942D02*
X6904Y17323D01*
X4800Y17942D02*
X6285D01*
X-2200Y19500D02*
X-2150Y19550D01*
X-5050Y19500D02*
X-2200D01*
X-5050D02*
Y20350D01*
X1050Y11776D02*
X2577Y13304D01*
X2250Y8124D02*
X2250Y8124D01*
X-939Y5236D02*
X0Y6175D01*
X-939Y1400D02*
Y5236D01*
X0Y6963D02*
X600Y7563D01*
X-2143Y4819D02*
X0Y6963D01*
X-3102Y4819D02*
X-2143D01*
X8848Y4598D02*
Y5584D01*
X5650Y1400D02*
X8848Y4598D01*
X3148Y5584D02*
X3650Y5082D01*
Y1400D02*
Y5082D01*
X-5948Y3820D02*
Y5584D01*
Y3820D02*
X-3528Y1400D01*
X-12600Y9150D02*
X-12595D01*
X3148Y5584D02*
X3326D01*
X5100Y7359D01*
X-11698Y5584D02*
X-11470D01*
X-9695Y7359D01*
X-9700Y7363D02*
X-9695Y7359D01*
X-5948Y5584D02*
X-5774D01*
X-4000Y7359D01*
X8848Y5584D02*
X9076D01*
X12645Y7359D02*
X12650Y7363D01*
Y9150D01*
X9745Y8124D02*
X9750Y8128D01*
Y9150D01*
X7950Y8124D02*
X7950Y8124D01*
X7950Y8124D02*
Y9150D01*
X6895Y7359D02*
X6904Y7368D01*
Y9150D01*
X5100Y7359D02*
Y9150D01*
X4045Y8124D02*
Y9150D01*
X2250Y8124D02*
Y9150D01*
X-2205Y7359D02*
Y9150D01*
X-4000Y7359D02*
X-3974Y7384D01*
Y9150D01*
X-5050Y8124D02*
X-5050Y8124D01*
X-5050Y8124D02*
Y9150D01*
X-6830Y8139D02*
Y9150D01*
X-7900Y7359D02*
Y9150D01*
X-9700Y7363D02*
Y9150D01*
X-10796Y8128D02*
Y9150D01*
X-10800Y8124D02*
X-10796Y8128D01*
D51*
X171Y10792D02*
D03*
X-4800Y17942D02*
D03*
X4800D02*
D03*
D52*
X171Y9808D02*
D03*
X-4800Y16958D02*
D03*
X4800D02*
D03*
D53*
X-6900Y20323D02*
D03*
X9904D02*
D03*
D54*
X-7900D02*
D03*
X-8900D02*
D03*
X-9900D02*
D03*
X-6900Y17323D02*
D03*
X-7900D02*
D03*
X-8900D02*
D03*
X-9900D02*
D03*
X8904Y20323D02*
D03*
X7904D02*
D03*
X6904D02*
D03*
X9904Y17323D02*
D03*
X8904D02*
D03*
X7904D02*
D03*
X6904D02*
D03*
D55*
X-150Y19550D02*
D03*
X-1150D02*
D03*
X-2150D02*
D03*
X850D02*
D03*
X1850D02*
D03*
D56*
X0Y4600D02*
D03*
Y7750D02*
D03*
D57*
Y5388D02*
D03*
Y6175D02*
D03*
Y6963D02*
D03*
D58*
X-3528Y1400D02*
D03*
X1061D02*
D03*
X5650D02*
D03*
D59*
X-5528D02*
D03*
X-939D02*
D03*
X3650D02*
D03*
D60*
X5100Y12950D02*
D03*
X7050Y10792D02*
D03*
X-6000Y14250D02*
D03*
X-720Y13284D02*
D03*
X-250Y16150D02*
D03*
X8461Y8800D02*
D03*
X-5955Y8550D02*
D03*
D61*
X-14567Y17248D02*
D03*
X14567D02*
D03*
D03*
X11811Y19291D02*
D03*
Y1650D02*
D03*
X-11811Y1575D02*
D03*
Y19291D02*
D03*
M02*
