G04*
G04 #@! TF.GenerationSoftware,Altium Limited,Altium Designer,18.1.4 (159)*
G04*
G04 Layer_Color=8388736*
%FSLAX24Y24*%
%MOIN*%
G70*
G01*
G75*
%ADD28R,0.0550X0.0600*%
G04:AMPARAMS|DCode=29|XSize=60mil|YSize=55mil|CornerRadius=0mil|HoleSize=0mil|Usage=FLASHONLY|Rotation=270.000|XOffset=0mil|YOffset=0mil|HoleType=Round|Shape=Octagon|*
%AMOCTAGOND29*
4,1,8,-0.0138,-0.0300,0.0138,-0.0300,0.0275,-0.0163,0.0275,0.0163,0.0138,0.0300,-0.0138,0.0300,-0.0275,0.0163,-0.0275,-0.0163,-0.0138,-0.0300,0.0*
%
%ADD29OCTAGOND29*%

%ADD30R,0.0660X0.0975*%
%ADD31R,0.0326X0.0444*%
%ADD32R,0.1050X0.0650*%
%ADD33R,0.0350X0.0350*%
%ADD34R,0.0286X0.0601*%
%ADD35R,0.0542X0.1172*%
%ADD36R,0.2235X0.2609*%
%ADD37O,0.0326X0.1034*%
%ADD38R,0.0350X0.0350*%
%ADD39C,0.0750*%
%ADD40R,0.0750X0.0750*%
%ADD41C,0.0950*%
%ADD42R,0.0950X0.0950*%
G04:AMPARAMS|DCode=43|XSize=64.1mil|YSize=44.4mil|CornerRadius=12.3mil|HoleSize=0mil|Usage=FLASHONLY|Rotation=270.000|XOffset=0mil|YOffset=0mil|HoleType=Round|Shape=RoundedRectangle|*
%AMROUNDEDRECTD43*
21,1,0.0641,0.0197,0,0,270.0*
21,1,0.0394,0.0444,0,0,270.0*
1,1,0.0247,-0.0098,-0.0197*
1,1,0.0247,-0.0098,0.0197*
1,1,0.0247,0.0098,0.0197*
1,1,0.0247,0.0098,-0.0197*
%
%ADD43ROUNDEDRECTD43*%
%ADD44O,0.0877X0.0522*%
%ADD45C,0.0450*%
%ADD46C,0.1650*%
D28*
X5650Y14675D02*
D03*
X-6650D02*
D03*
X-10100D02*
D03*
X9050D02*
D03*
D29*
X5650Y13325D02*
D03*
X-6650D02*
D03*
X-10100D02*
D03*
X9050D02*
D03*
D30*
X2577Y13204D02*
D03*
Y14896D02*
D03*
D31*
X-4852Y11756D02*
D03*
Y12425D02*
D03*
D32*
X2550Y18200D02*
D03*
Y16850D02*
D03*
D33*
X5650Y19400D02*
D03*
X5100D02*
D03*
X400Y13444D02*
D03*
X-150D02*
D03*
X-2100Y15950D02*
D03*
X-2650D02*
D03*
X-8403Y11342D02*
D03*
X-7853D02*
D03*
X-12003D02*
D03*
X-11453D02*
D03*
X10947D02*
D03*
X11497D02*
D03*
X7147D02*
D03*
X7697D02*
D03*
X-8050Y16410D02*
D03*
X-7500D02*
D03*
X-10700D02*
D03*
X-11250D02*
D03*
X11300D02*
D03*
X10750D02*
D03*
X7600D02*
D03*
X8150D02*
D03*
X-800Y17579D02*
D03*
X-250D02*
D03*
X-2050D02*
D03*
X-2600D02*
D03*
X-5600Y19400D02*
D03*
X-5050D02*
D03*
X-5600Y20250D02*
D03*
X-5050D02*
D03*
X5650D02*
D03*
X5100D02*
D03*
D34*
X-1250Y14358D02*
D03*
X-750D02*
D03*
X-250D02*
D03*
X250D02*
D03*
Y16642D02*
D03*
X-250D02*
D03*
X-750D02*
D03*
X-1250D02*
D03*
D35*
X-10800Y8024D02*
D03*
X-12595D02*
D03*
X-2205Y7259D02*
D03*
X-4000D02*
D03*
X-9695D02*
D03*
X-7900D02*
D03*
X-5050Y8024D02*
D03*
X-6845D02*
D03*
X10850Y7259D02*
D03*
X12645D02*
D03*
X6895D02*
D03*
X5100D02*
D03*
X7950Y8024D02*
D03*
X9745D02*
D03*
X4045D02*
D03*
X2250D02*
D03*
X-3895Y14915D02*
D03*
X-2100D02*
D03*
D36*
X-11698Y5484D02*
D03*
X-3102Y4719D02*
D03*
X-8798D02*
D03*
X-5948Y5484D02*
D03*
X11748Y4719D02*
D03*
X5998D02*
D03*
X8848Y5484D02*
D03*
X3148D02*
D03*
X-2998Y12375D02*
D03*
D37*
X8050Y14416D02*
D03*
X7550D02*
D03*
X7050D02*
D03*
X6550D02*
D03*
X8050Y12487D02*
D03*
X7550D02*
D03*
X7050D02*
D03*
X6550D02*
D03*
X-7600Y14416D02*
D03*
X-8100D02*
D03*
X-8600D02*
D03*
X-9100D02*
D03*
X-7600Y12487D02*
D03*
X-8100D02*
D03*
X-8600D02*
D03*
X-9100D02*
D03*
X-11150Y14416D02*
D03*
X-11650D02*
D03*
X-12150D02*
D03*
X-12650D02*
D03*
X-11150Y12487D02*
D03*
X-11650D02*
D03*
X-12150D02*
D03*
X-12650D02*
D03*
X11700Y14416D02*
D03*
X11200D02*
D03*
X10700D02*
D03*
X10200D02*
D03*
X11700Y12487D02*
D03*
X11200D02*
D03*
X10700D02*
D03*
X10200D02*
D03*
D38*
X3800Y11850D02*
D03*
Y12400D02*
D03*
X-4852Y14165D02*
D03*
Y14715D02*
D03*
X-3974Y9600D02*
D03*
Y9050D02*
D03*
X-9700Y9600D02*
D03*
Y9050D02*
D03*
X-6830Y9600D02*
D03*
Y9050D02*
D03*
X-12595Y9600D02*
D03*
Y9050D02*
D03*
X10850Y9600D02*
D03*
Y9050D02*
D03*
X5100Y9600D02*
D03*
Y9050D02*
D03*
X7950Y9600D02*
D03*
Y9050D02*
D03*
X2250Y9600D02*
D03*
Y9050D02*
D03*
X-2205D02*
D03*
Y9600D02*
D03*
X-7900Y9050D02*
D03*
Y9600D02*
D03*
X-5050Y9050D02*
D03*
Y9600D02*
D03*
X-10796Y9050D02*
D03*
Y9600D02*
D03*
X12650Y9050D02*
D03*
Y9600D02*
D03*
X9750Y9050D02*
D03*
Y9600D02*
D03*
X6904Y9050D02*
D03*
Y9600D02*
D03*
X4045Y9050D02*
D03*
Y9600D02*
D03*
X1100Y17350D02*
D03*
Y16800D02*
D03*
X3800Y14165D02*
D03*
Y14715D02*
D03*
D39*
X171Y10700D02*
D03*
X1850Y19450D02*
D03*
X850D02*
D03*
X-2150D02*
D03*
X-1150D02*
D03*
X-150D02*
D03*
X6904Y17223D02*
D03*
X7904D02*
D03*
X8904D02*
D03*
X9904D02*
D03*
X6904Y20223D02*
D03*
X7904D02*
D03*
X8904D02*
D03*
X-4800Y17850D02*
D03*
X4800D02*
D03*
X-9900Y17223D02*
D03*
X-8900D02*
D03*
X-7900D02*
D03*
X-6900D02*
D03*
X-9900Y20223D02*
D03*
X-8900D02*
D03*
X-7900D02*
D03*
D40*
X171Y9700D02*
D03*
X9904Y20223D02*
D03*
X-4800Y16850D02*
D03*
X4800D02*
D03*
X-6900Y20223D02*
D03*
D41*
X5650Y1300D02*
D03*
X1061D02*
D03*
X-3528D02*
D03*
D42*
X3650D02*
D03*
X-939D02*
D03*
X-5528D02*
D03*
D43*
X0Y6863D02*
D03*
Y6075D02*
D03*
Y5288D02*
D03*
D44*
Y7650D02*
D03*
Y4500D02*
D03*
D45*
X-725Y13094D02*
D03*
X7150Y10592D02*
D03*
X5100Y12850D02*
D03*
X-6000Y14150D02*
D03*
X-250Y16050D02*
D03*
X8461Y8700D02*
D03*
X-5955Y8450D02*
D03*
D46*
X12255Y1181D02*
D03*
X-12155D02*
D03*
X-14911Y16929D02*
D03*
X-12155Y19685D02*
D03*
X12255D02*
D03*
X15011Y16929D02*
D03*
M02*
